<svg width="360" height="337" viewBox="0 0 360 337" fill="none" xmlns="http://www.w3.org/2000/svg">
<path opacity="0.3" d="M49.7443 285.665C50.4163 285.923 51.1029 286.132 51.7854 286.359L147.916 190.846C147.687 190.168 147.467 189.488 147.217 188.814L49.7443 285.665ZM148.659 193.161C148.869 193.864 149.073 194.569 149.267 195.28L56.244 287.701C55.5283 287.509 54.8188 287.308 54.1114 287.097L148.659 193.161ZM149.872 197.724C150.043 198.462 150.22 199.2 150.369 199.948L60.944 288.799C60.1909 288.65 59.4481 288.476 58.7054 288.305L149.872 197.724ZM150.835 202.538C150.969 203.324 151.077 204.12 151.183 204.916L65.9374 289.605C65.1364 289.5 64.3375 289.39 63.5448 289.26L150.835 202.538ZM145.544 184.704C145.821 185.343 146.09 185.98 146.35 186.627L47.5306 284.815C46.8793 284.553 46.2365 284.29 45.5956 284.015L145.544 184.704ZM139.417 173.475C139.781 174.021 140.139 174.577 140.491 175.131L35.9584 278.992C35.4008 278.649 34.8453 278.293 34.2919 277.929L139.417 173.475ZM141.643 177.041C141.978 177.618 142.326 178.186 142.642 178.767L39.6452 281.107C39.0377 280.788 38.4655 280.447 37.8871 280.114L141.643 177.041ZM137.039 170.066C137.426 170.592 137.805 171.125 138.177 171.656L32.4506 276.679C31.9138 276.302 31.377 275.93 30.8506 275.548L137.039 170.066ZM143.68 180.789C143.988 181.393 144.296 181.994 144.585 182.606L43.4714 283.044C42.8513 282.756 42.2438 282.45 41.6384 282.144L143.68 180.789ZM128.916 160.82C129.38 161.268 129.836 161.723 130.283 162.184L22.9153 268.836C22.4513 268.387 21.9957 267.934 21.5462 267.476L128.919 160.822L128.916 160.82ZM151.813 213.112C151.826 213.689 151.857 214.257 151.857 214.834C151.857 215.167 151.83 215.489 151.83 215.818L76.9146 290.248C76.5837 290.252 76.2592 290.275 75.9304 290.275C75.3458 290.275 74.7736 290.231 74.1973 290.231L151.813 213.114V213.112ZM75.9304 139.391C76.5109 139.391 77.0831 139.435 77.6594 139.435L0.0435028 216.552C0.0310211 215.979 -0.000183105 215.411 -0.000183105 214.83C-0.000183105 214.501 0.0268555 214.179 0.0268555 213.852L74.9422 139.414C75.273 139.41 75.6059 139.391 75.9325 139.391H75.9304ZM142.384 251.362C140.942 253.937 139.351 256.426 137.617 258.816L120.197 276.121C117.792 277.838 115.287 279.416 112.694 280.84L142.386 251.362H142.384ZM151.497 207.646C151.576 208.481 151.638 209.325 151.69 210.172L71.2554 290.118C70.4065 290.066 69.5576 290.004 68.7129 289.925L151.497 207.648V207.646ZM151.106 225.356C150.952 226.448 150.771 227.533 150.573 228.612L89.8141 288.997C88.7364 289.194 87.6378 289.373 86.5372 289.526L151.104 225.356H151.106ZM147.284 240.732C146.72 242.289 146.071 243.812 145.401 245.321L106.611 283.858C105.071 284.526 103.558 285.165 101.994 285.733L147.284 240.734V240.732ZM151.738 218.954C151.686 219.942 151.607 220.92 151.514 221.9L83.0543 289.95C82.0681 290.041 81.084 290.12 80.0895 290.173L151.738 218.956V218.954ZM149.745 232.478C149.446 233.728 149.113 234.964 148.751 236.188L97.4353 287.205C96.2036 287.563 94.9594 287.895 93.7007 288.193L149.745 232.48V232.478ZM100.069 143.304C100.752 143.532 101.436 143.751 102.11 143.995L4.63326 240.846C4.37735 240.178 4.16719 239.496 3.93832 238.818L100.069 143.304ZM68.8128 139.73C69.7927 139.639 70.7831 139.561 71.7776 139.503L0.116302 210.708C0.16832 209.72 0.249466 208.738 0.341019 207.762L68.8128 139.73ZM80.618 139.546C81.4669 139.598 82.3157 139.66 83.1604 139.738L0.351425 222.015C0.272369 221.176 0.209946 220.333 0.157928 219.489L80.6201 139.544L80.618 139.546ZM85.9089 140.057C86.7099 140.162 87.5089 140.272 88.3016 140.402L1.0193 227.111C0.886139 226.326 0.777939 225.53 0.671829 224.734L85.9089 140.057ZM90.9085 140.865C91.6617 141.014 92.4044 141.188 93.1472 141.359L1.98051 231.926C1.80991 231.184 1.63306 230.45 1.48326 229.701L90.9085 140.865ZM45.2627 145.808C46.7836 145.144 48.3191 144.505 49.8858 143.937L4.58539 188.944C5.14923 187.388 5.79836 185.864 6.46831 184.351L45.2627 145.806V145.808ZM31.6599 153.552C34.0671 151.832 36.5722 150.25 39.1625 148.82L9.48932 178.302C10.9312 175.726 12.5228 173.238 14.2559 170.848L31.6579 153.554L31.6599 153.552ZM134.499 166.819C134.913 167.317 135.304 167.832 135.703 168.344L29.1404 274.223C28.6264 273.826 28.1063 273.435 27.6049 273.026L134.499 166.821V166.819ZM62.0593 140.667C63.137 140.47 64.2355 140.29 65.3362 140.137L0.746719 204.304C0.900681 203.212 1.0817 202.131 1.27936 201.052L62.0593 140.667ZM54.4339 142.475C55.6656 142.109 56.9098 141.779 58.1686 141.487L2.10744 197.184C2.40704 195.933 2.73994 194.697 3.10196 193.473L54.436 142.473L54.4339 142.475ZM95.6293 141.954C96.3451 142.147 97.0545 142.347 97.7619 142.558L3.20598 236.507C2.99376 235.804 2.79195 235.099 2.59845 234.388L95.6293 141.954ZM125.895 158.052C126.384 158.459 126.867 158.895 127.346 159.331L20.0795 265.915C19.6405 265.443 19.2306 264.958 18.7916 264.478L125.898 158.056L125.895 158.052ZM119.392 152.979C119.928 153.351 120.465 153.721 120.994 154.11L14.826 259.595C14.4349 259.07 14.0603 258.537 13.6879 258.006L119.394 152.979H119.392ZM122.725 155.462C123.239 155.859 123.759 156.247 124.26 156.659L17.3664 262.843C16.9523 262.345 16.5612 261.826 16.1617 261.317L122.725 155.464V155.462ZM131.786 163.743C132.225 164.214 132.634 164.7 133.073 165.184L25.9696 271.61C25.4869 271.203 24.9979 270.767 24.5194 270.33L131.786 163.745V163.743ZM104.316 144.861C104.967 145.119 105.608 145.386 106.251 145.661L6.31851 244.955C6.04179 244.321 5.77341 243.68 5.51334 243.037L104.314 144.861H104.316ZM115.892 150.686C116.45 151.034 117.005 151.389 117.559 151.753L12.4458 256.189C12.0817 255.639 11.7239 255.087 11.3723 254.529L115.89 150.686H115.892ZM108.385 146.597C109.005 146.889 109.609 147.195 110.218 147.501L8.1848 248.879C7.87688 248.271 7.56894 247.667 7.27974 247.056L108.385 146.595V146.597ZM112.203 148.551C112.811 148.869 113.381 149.214 113.961 149.547L10.23 252.639C9.895 252.044 9.54758 251.477 9.23132 250.89L112.201 148.551H112.203Z" fill="url(#paint0_linear_1216_3252)"/>
<path d="M55.2609 117.232C55.0111 52.9864 106.89 0.702146 171.136 0.452328C235.382 0.202511 287.667 52.0817 287.917 116.328L288.655 306.278L55.9995 307.183L55.2609 117.232Z" fill="url(#paint1_linear_1216_3252)"/>
<circle cx="311.015" cy="153.695" r="48.1854" fill="#0033AD"/>
<rect x="151.857" y="277.62" width="137.255" height="59.38" rx="29.69" fill="#F3A31D"/>
<defs>
<linearGradient id="paint0_linear_1216_3252" x1="151.857" y1="214.832" x2="-0.00226495" y2="214.832" gradientUnits="userSpaceOnUse">
<stop stop-color="#048DE6"/>
<stop offset="0.31" stop-color="#007BCC"/>
<stop offset="0.71" stop-color="#006EBC"/>
<stop offset="1" stop-color="#0062AC"/>
</linearGradient>
<linearGradient id="paint1_linear_1216_3252" x1="171.136" y1="0.452328" x2="172.327" y2="306.731" gradientUnits="userSpaceOnUse">
<stop stop-color="#68B8A5"/>
<stop offset="0.59375" stop-color="#68B8A5" stop-opacity="0"/>
</linearGradient>
</defs>
</svg>
