<svg width="288" height="338" viewBox="0 0 288 338" fill="none" xmlns="http://www.w3.org/2000/svg">
<path d="M288 69.3101C288 88.1852 284.282 106.875 277.059 124.314C269.836 141.752 259.249 157.597 245.902 170.944C232.555 184.29 216.71 194.878 199.272 202.101C181.834 209.324 163.143 213.042 144.268 213.042C125.393 213.042 106.703 209.324 89.2645 202.101C71.8262 194.878 55.9813 184.29 42.6346 170.944C29.2879 157.597 18.7007 141.752 11.4775 124.314C4.25435 106.875 0.536619 88.1852 0.536621 69.31L144.268 69.3101H288Z" fill="url(#paint0_linear_2918_892)"/>
<path opacity="0.3" d="M114.415 332.059C115.179 332.353 115.96 332.591 116.735 332.85L226.015 224.047C225.755 223.274 225.504 222.5 225.22 221.732L114.415 332.059ZM226.859 226.684C227.098 227.485 227.33 228.288 227.55 229.098L121.804 334.378C120.99 334.159 120.184 333.931 119.38 333.691L226.859 226.684ZM228.238 231.881C228.432 232.722 228.633 233.563 228.804 234.415L127.147 335.629C126.291 335.459 125.446 335.261 124.602 335.066L228.238 231.881ZM229.333 237.366C229.485 238.261 229.608 239.167 229.728 240.074L132.823 336.547C131.913 336.427 131.004 336.302 130.103 336.154L229.333 237.366ZM223.319 217.051C223.633 217.778 223.938 218.504 224.234 219.241L111.899 331.091C111.158 330.792 110.427 330.493 109.699 330.18L223.319 217.051ZM216.353 204.259C216.767 204.881 217.174 205.514 217.574 206.145L98.7435 324.457C98.1097 324.066 97.4782 323.661 96.8491 323.247L216.353 204.259ZM218.884 208.321C219.265 208.978 219.66 209.626 220.019 210.288L102.935 326.866C102.244 326.504 101.594 326.115 100.936 325.736L218.884 208.321ZM213.65 200.376C214.09 200.974 214.52 201.582 214.944 202.187L94.7559 321.822C94.1457 321.394 93.5355 320.97 92.9371 320.534L213.65 200.376ZM221.2 212.591C221.55 213.278 221.9 213.963 222.228 214.66L107.284 329.073C106.579 328.745 105.889 328.397 105.2 328.048L221.2 212.591ZM204.416 189.843C204.944 190.354 205.462 190.872 205.97 191.397L83.9164 312.888C83.389 312.377 82.871 311.861 82.3601 311.338L204.419 189.845L204.416 189.843ZM230.445 249.411C230.459 250.068 230.495 250.715 230.495 251.372C230.495 251.752 230.464 252.119 230.464 252.493L145.302 337.279C144.926 337.284 144.557 337.31 144.183 337.31C143.518 337.31 142.868 337.261 142.213 337.261L230.445 249.413V249.411ZM144.183 165.432C144.843 165.432 145.493 165.482 146.148 165.482L57.9162 253.329C57.902 252.677 57.8666 252.029 57.8666 251.368C57.8666 250.993 57.8973 250.626 57.8973 250.254L143.06 165.458C143.436 165.454 143.814 165.432 144.185 165.432H144.183ZM219.726 292.982C218.087 295.917 216.278 298.752 214.307 301.474L194.504 321.186C191.77 323.143 188.922 324.94 185.975 326.562L219.728 292.982H219.726ZM230.085 243.185C230.175 244.136 230.246 245.097 230.305 246.062L138.868 337.131C137.903 337.072 136.938 337.001 135.978 336.912L230.085 243.187V243.185ZM229.641 263.359C229.466 264.602 229.26 265.838 229.035 267.067L159.966 335.855C158.74 336.078 157.492 336.283 156.241 336.458L229.638 263.359H229.641ZM225.296 280.874C224.655 282.647 223.917 284.383 223.156 286.102L179.06 330.001C177.309 330.761 175.59 331.489 173.811 332.136L225.296 280.876V280.874ZM230.36 256.066C230.301 257.191 230.211 258.305 230.104 259.421L152.281 336.94C151.16 337.044 150.041 337.133 148.911 337.195L230.36 256.068V256.066ZM228.094 271.471C227.753 272.896 227.375 274.304 226.963 275.698L168.629 333.813C167.229 334.22 165.815 334.6 164.384 334.939L228.094 271.473V271.471ZM171.624 169.89C172.399 170.149 173.177 170.399 173.944 170.677L63.1338 281.003C62.8428 280.243 62.604 279.466 62.3438 278.693L171.624 169.89ZM136.092 165.819C137.206 165.715 138.332 165.626 139.462 165.56L57.999 246.672C58.0581 245.547 58.1504 244.428 58.2544 243.317L136.092 165.819ZM149.512 165.609C150.477 165.668 151.442 165.739 152.402 165.828L58.2663 259.553C58.1764 258.597 58.1054 257.636 58.0463 256.676L149.514 165.607L149.512 165.609ZM155.526 166.191C156.437 166.311 157.345 166.436 158.246 166.584L59.0255 265.358C58.8741 264.463 58.7511 263.556 58.6305 262.65L155.526 166.191ZM161.21 167.111C162.066 167.281 162.91 167.479 163.755 167.674L60.1182 270.842C59.9243 269.997 59.7232 269.161 59.5529 268.308L161.21 167.111ZM109.321 172.742C111.049 171.986 112.795 171.258 114.576 170.611L63.0793 221.88C63.7203 220.107 64.4582 218.372 65.2198 216.648L109.321 172.74V172.742ZM93.8571 181.563C96.5936 179.604 99.4413 177.802 102.386 176.173L68.654 209.758C70.2931 206.824 72.1024 203.988 74.0726 201.266L93.8548 181.566L93.8571 181.563ZM210.762 196.677C211.233 197.244 211.677 197.83 212.132 198.414L90.9929 319.025C90.4087 318.573 89.8175 318.127 89.2475 317.661L210.762 196.679V196.677ZM128.414 166.885C129.64 166.662 130.888 166.457 132.14 166.283L58.7156 239.377C58.8907 238.133 59.0964 236.902 59.3211 235.673L128.414 166.885ZM119.746 168.946C121.146 168.529 122.561 168.152 123.992 167.82L60.2625 231.267C60.603 229.842 60.9815 228.434 61.393 227.04L119.749 168.944L119.746 168.946ZM166.576 168.352C167.39 168.571 168.196 168.8 169.001 169.04L61.5113 276.061C61.27 275.26 61.0406 274.457 60.8206 273.647L166.576 168.352ZM200.982 186.69C201.538 187.154 202.087 187.65 202.631 188.147L80.6927 309.561C80.1936 309.024 79.7277 308.47 79.2287 307.924L200.985 186.694L200.982 186.69ZM193.589 180.911C194.199 181.335 194.809 181.756 195.41 182.199L74.7207 302.362C74.276 301.764 73.8503 301.156 73.4269 300.551L193.591 180.911H193.589ZM197.378 183.739C197.962 184.191 198.553 184.634 199.123 185.102L77.6085 306.061C77.1378 305.494 76.6932 304.903 76.2391 304.323L197.378 183.741V183.739ZM207.678 193.173C208.177 193.709 208.643 194.263 209.142 194.814L87.3884 316.048C86.8397 315.584 86.2839 315.087 85.7399 314.59L207.678 193.175V193.173ZM176.451 171.663C177.191 171.958 177.92 172.262 178.65 172.575L65.0495 285.685C64.735 284.962 64.4299 284.232 64.1342 283.5L176.448 171.663H176.451ZM189.611 178.299C190.244 178.695 190.876 179.1 191.505 179.514L72.0149 298.481C71.601 297.855 71.1942 297.226 70.7945 296.59L189.608 178.299H189.611ZM181.077 173.641C181.782 173.974 182.468 174.322 183.161 174.671L67.1711 290.154C66.821 289.462 66.471 288.774 66.1422 288.077L181.077 173.639V173.641ZM185.417 175.867C186.108 176.229 186.756 176.623 187.416 177.002L69.496 294.438C69.1152 293.76 68.7203 293.114 68.3608 292.446L185.415 175.867H185.417Z" fill="url(#paint1_linear_2918_892)"/>
<circle cx="143.804" cy="37.4626" r="37.1526" fill="#0033AD"/>
<defs>
<linearGradient id="paint0_linear_2918_892" x1="144.268" y1="213.042" x2="144.268" y2="-74.4216" gradientUnits="userSpaceOnUse">
<stop stop-color="#F3A31D"/>
<stop offset="0.526261" stop-color="white" stop-opacity="0"/>
</linearGradient>
<linearGradient id="paint1_linear_2918_892" x1="230.495" y1="251.37" x2="57.8642" y2="251.37" gradientUnits="userSpaceOnUse">
<stop stop-color="#048DE6"/>
<stop offset="0.31" stop-color="#007BCC"/>
<stop offset="0.71" stop-color="#006EBC"/>
<stop offset="1" stop-color="#0062AC"/>
</linearGradient>
</defs>
</svg>
