<svg width="288" height="337" viewBox="0 0 288 337" fill="none" xmlns="http://www.w3.org/2000/svg">
<path d="M288 69.0001C288 87.8752 284.282 106.565 277.059 124.004C269.836 141.442 259.249 157.287 245.902 170.634C232.555 183.98 216.71 194.568 199.272 201.791C181.834 209.014 163.143 212.732 144.268 212.732C125.393 212.732 106.703 209.014 89.2645 201.791C71.8262 194.568 55.9813 183.98 42.6346 170.634C29.2879 157.287 18.7007 141.442 11.4775 124.004C4.25435 106.565 0.536619 87.8752 0.536621 69L144.268 69.0001H288Z" fill="url(#paint0_linear_1216_3243)"/>
<path opacity="0.3" d="M114.415 331.749C115.179 332.043 115.96 332.281 116.735 332.54L226.015 223.737C225.755 222.965 225.504 222.19 225.22 221.422L114.415 331.749ZM226.859 226.374C227.098 227.175 227.33 227.978 227.55 228.788L121.804 334.068C120.99 333.849 120.184 333.621 119.38 333.381L226.859 226.374ZM228.238 231.571C228.432 232.412 228.633 233.253 228.804 234.105L127.147 335.319C126.291 335.149 125.446 334.951 124.602 334.756L228.238 231.571ZM229.333 237.056C229.485 237.951 229.608 238.857 229.728 239.764L132.823 336.237C131.913 336.117 131.004 335.992 130.103 335.844L229.333 237.056ZM223.319 216.741C223.633 217.468 223.938 218.194 224.234 218.931L111.899 330.781C111.158 330.482 110.427 330.183 109.699 329.87L223.319 216.741ZM216.353 203.949C216.767 204.571 217.174 205.204 217.574 205.835L98.7435 324.147C98.1097 323.756 97.4782 323.351 96.8491 322.937L216.353 203.949ZM218.884 208.011C219.265 208.668 219.66 209.316 220.019 209.978L102.935 326.556C102.244 326.194 101.594 325.805 100.936 325.426L218.884 208.011ZM213.65 200.066C214.09 200.664 214.52 201.272 214.944 201.877L94.7559 321.512C94.1457 321.084 93.5355 320.66 92.9371 320.224L213.65 200.066ZM221.2 212.281C221.55 212.968 221.9 213.653 222.228 214.351L107.284 328.763C106.579 328.436 105.889 328.087 105.2 327.738L221.2 212.281ZM204.416 189.533C204.944 190.044 205.462 190.562 205.97 191.087L83.9164 312.578C83.389 312.067 82.871 311.551 82.3601 311.029L204.419 189.535L204.416 189.533ZM230.445 249.101C230.459 249.758 230.495 250.405 230.495 251.062C230.495 251.442 230.464 251.809 230.464 252.183L145.302 336.969C144.926 336.974 144.557 337 144.183 337C143.518 337 142.868 336.951 142.213 336.951L230.445 249.103V249.101ZM144.183 165.123C144.843 165.123 145.493 165.172 146.148 165.172L57.9162 253.019C57.902 252.367 57.8666 251.719 57.8666 251.058C57.8666 250.683 57.8973 250.316 57.8973 249.944L143.06 165.148C143.436 165.144 143.814 165.123 144.185 165.123H144.183ZM219.726 292.673C218.087 295.607 216.278 298.442 214.307 301.164L194.504 320.876C191.77 322.833 188.922 324.63 185.975 326.253L219.728 292.673H219.726ZM230.085 242.875C230.175 243.826 230.246 244.787 230.305 245.752L138.868 336.821C137.903 336.762 136.938 336.692 135.978 336.602L230.085 242.877V242.875ZM229.641 263.049C229.466 264.292 229.26 265.528 229.035 266.757L159.966 335.545C158.74 335.768 157.492 335.973 156.241 336.148L229.638 263.049H229.641ZM225.296 280.564C224.655 282.337 223.917 284.073 223.156 285.792L179.06 329.691C177.309 330.451 175.59 331.179 173.811 331.826L225.296 280.566V280.564ZM230.36 255.756C230.301 256.881 230.211 257.995 230.104 259.111L152.281 336.63C151.16 336.734 150.041 336.823 148.911 336.885L230.36 255.758V255.756ZM228.094 271.161C227.753 272.586 227.375 273.994 226.963 275.388L168.629 333.503C167.229 333.911 165.815 334.29 164.384 334.629L228.094 271.163V271.161ZM171.624 169.58C172.399 169.839 173.177 170.089 173.944 170.367L63.1338 280.693C62.8428 279.933 62.604 279.156 62.3438 278.383L171.624 169.58ZM136.092 165.509C137.206 165.405 138.332 165.316 139.462 165.25L57.999 246.362C58.0581 245.237 58.1504 244.118 58.2544 243.007L136.092 165.509ZM149.512 165.299C150.477 165.358 151.442 165.429 152.402 165.518L58.2663 259.243C58.1764 258.287 58.1054 257.326 58.0463 256.366L149.514 165.297L149.512 165.299ZM155.526 165.881C156.437 166.001 157.345 166.126 158.246 166.274L59.0255 265.048C58.8741 264.153 58.7511 263.246 58.6305 262.34L155.526 165.881ZM161.21 166.802C162.066 166.971 162.91 167.169 163.755 167.364L60.1182 270.532C59.9243 269.687 59.7232 268.851 59.5529 267.998L161.21 166.802ZM109.321 172.432C111.049 171.676 112.795 170.948 114.576 170.301L63.0793 221.57C63.7203 219.797 64.4582 218.062 65.2198 216.338L109.321 172.43V172.432ZM93.8571 181.253C96.5936 179.294 99.4413 177.493 102.386 175.863L68.654 209.448C70.2931 206.514 72.1024 203.678 74.0726 200.956L93.8548 181.256L93.8571 181.253ZM210.762 196.367C211.233 196.934 211.677 197.52 212.132 198.104L90.9929 318.715C90.4087 318.263 89.8175 317.818 89.2475 317.351L210.762 196.369V196.367ZM128.414 166.575C129.64 166.352 130.888 166.147 132.14 165.973L58.7156 239.067C58.8907 237.824 59.0964 236.592 59.3211 235.363L128.414 166.575ZM119.746 168.636C121.146 168.219 122.561 167.842 123.992 167.51L60.2625 230.957C60.603 229.532 60.9815 228.124 61.393 226.73L119.749 168.634L119.746 168.636ZM166.576 168.043C167.39 168.262 168.196 168.49 169.001 168.73L61.5113 275.751C61.27 274.95 61.0406 274.147 60.8206 273.337L166.576 168.043ZM200.982 186.38C201.538 186.844 202.087 187.34 202.631 187.837L80.6927 309.251C80.1936 308.714 79.7277 308.16 79.2287 307.614L200.985 186.384L200.982 186.38ZM193.589 180.601C194.199 181.025 194.809 181.446 195.41 181.889L74.7207 302.052C74.276 301.454 73.8503 300.846 73.4269 300.241L193.591 180.601H193.589ZM197.378 183.429C197.962 183.881 198.553 184.324 199.123 184.793L77.6085 305.751C77.1378 305.184 76.6932 304.593 76.2391 304.013L197.378 183.431V183.429ZM207.678 192.863C208.177 193.399 208.643 193.953 209.142 194.504L87.3884 315.738C86.8397 315.274 86.2839 314.777 85.7399 314.281L207.678 192.865V192.863ZM176.451 171.353C177.191 171.648 177.92 171.952 178.65 172.265L65.0495 285.375C64.735 284.652 64.4299 283.922 64.1342 283.19L176.448 171.353H176.451ZM189.611 177.989C190.244 178.385 190.876 178.79 191.505 179.205L72.0149 298.171C71.601 297.545 71.1942 296.916 70.7945 296.28L189.608 177.989H189.611ZM181.077 173.332C181.782 173.664 182.468 174.012 183.161 174.361L67.1711 289.844C66.821 289.152 66.471 288.464 66.1422 287.767L181.077 173.329V173.332ZM185.417 175.557C186.108 175.92 186.756 176.313 187.416 176.692L69.496 294.128C69.1152 293.45 68.7203 292.804 68.3608 292.136L185.415 175.557H185.417Z" fill="url(#paint1_linear_1216_3243)"/>
<circle cx="143.804" cy="37.1526" r="37.1526" fill="#0033AD"/>
<defs>
<linearGradient id="paint0_linear_1216_3243" x1="144.268" y1="212.732" x2="144.268" y2="-74.7316" gradientUnits="userSpaceOnUse">
<stop stop-color="#F3A31D"/>
<stop offset="0.526261" stop-color="white" stop-opacity="0"/>
</linearGradient>
<linearGradient id="paint1_linear_1216_3243" x1="230.495" y1="251.06" x2="57.8642" y2="251.06" gradientUnits="userSpaceOnUse">
<stop stop-color="#048DE6"/>
<stop offset="0.31" stop-color="#007BCC"/>
<stop offset="0.71" stop-color="#006EBC"/>
<stop offset="1" stop-color="#0062AC"/>
</linearGradient>
</defs>
</svg>
