<svg width="344" height="310" viewBox="0 0 344 310" fill="none" xmlns="http://www.w3.org/2000/svg">
<path d="M148.72 0.00292969C169.05 0.00292969 189.181 4.0072 207.963 11.7871C226.746 19.5671 243.812 30.9703 258.187 45.3458C272.563 59.7212 283.966 76.7873 291.746 95.5697C299.526 114.352 303.53 134.483 303.53 154.813C303.53 175.143 299.526 195.274 291.746 214.056C283.966 232.839 272.563 249.905 258.187 264.28C243.812 278.656 226.746 290.059 207.963 297.839C189.181 305.619 169.05 309.623 148.72 309.623L148.72 154.813L148.72 0.00292969Z" fill="url(#paint0_linear_2918_4860)"/>
<path opacity="0.3" d="M100.843 244.097C101.666 244.414 102.506 244.67 103.342 244.949L221.044 127.76C220.764 126.928 220.494 126.093 220.189 125.267L100.843 244.097ZM221.954 130.6C222.211 131.463 222.461 132.328 222.698 133.2L108.801 246.595C107.925 246.359 107.056 246.113 106.19 245.855L221.954 130.6ZM223.439 136.198C223.648 137.104 223.865 138.009 224.048 138.927L114.556 247.942C113.634 247.759 112.724 247.546 111.815 247.336L223.439 136.198ZM224.619 142.105C224.782 143.069 224.914 144.046 225.044 145.022L120.67 248.931C119.689 248.802 118.711 248.667 117.74 248.508L224.619 142.105ZM218.14 120.224C218.479 121.008 218.808 121.789 219.126 122.583L98.1323 243.054C97.3349 242.732 96.5478 242.41 95.7632 242.073L218.14 120.224ZM210.638 106.447C211.084 107.116 211.522 107.799 211.953 108.478L83.9633 235.91C83.2806 235.488 82.6004 235.052 81.9228 234.606L210.638 106.447ZM213.364 110.822C213.774 111.53 214.199 112.227 214.587 112.94L88.4774 238.504C87.7335 238.114 87.033 237.695 86.3248 237.287L213.364 110.822ZM207.726 102.264C208.2 102.909 208.664 103.563 209.12 104.215L79.6683 233.071C79.0111 232.61 78.3538 232.153 77.7093 231.684L207.726 102.264ZM215.858 115.42C216.235 116.161 216.612 116.899 216.966 117.65L93.1622 240.881C92.403 240.528 91.6592 240.153 90.9179 239.777L215.858 115.42ZM197.781 90.9193C198.349 91.4697 198.907 92.0277 199.455 92.5933L67.9933 223.448C67.4252 222.898 66.8673 222.343 66.3171 221.78L197.784 90.9219L197.781 90.9193ZM225.816 155.079C225.831 155.786 225.869 156.484 225.869 157.191C225.869 157.6 225.836 157.996 225.836 158.399L134.11 249.72C133.705 249.725 133.308 249.753 132.905 249.753C132.189 249.753 131.489 249.7 130.783 249.7L225.816 155.081V155.079ZM132.905 64.6276C133.616 64.6276 134.316 64.6808 135.022 64.6808L39.9891 159.299C39.9738 158.597 39.9356 157.899 39.9356 157.186C39.9356 156.783 39.9688 156.387 39.9688 155.987L131.695 64.6555C132.1 64.6504 132.508 64.6276 132.908 64.6276H132.905ZM214.271 202.009C212.505 205.169 210.557 208.223 208.435 211.155L187.105 232.387C184.16 234.494 181.093 236.429 177.919 238.177L214.273 202.009H214.271ZM225.429 148.373C225.525 149.397 225.602 150.432 225.666 151.472L127.181 249.56C126.142 249.497 125.102 249.421 124.068 249.324L225.429 148.375V148.373ZM224.95 170.102C224.761 171.441 224.54 172.772 224.298 174.096L149.904 248.185C148.585 248.426 147.24 248.647 145.892 248.835L224.947 170.102H224.95ZM220.27 188.967C219.58 190.877 218.785 192.746 217.965 194.598L170.47 241.88C168.585 242.699 166.733 243.483 164.817 244.181L220.27 188.969V188.967ZM225.724 162.246C225.66 163.459 225.564 164.658 225.449 165.861L141.628 249.355C140.42 249.466 139.215 249.563 137.997 249.629L225.724 162.249V162.246ZM223.284 178.839C222.917 180.374 222.509 181.89 222.066 183.392L159.236 245.986C157.727 246.425 156.204 246.834 154.663 247.199L223.284 178.842V178.839ZM162.461 69.4289C163.296 69.7079 164.134 69.9767 164.96 70.276L45.6088 189.106C45.2955 188.287 45.0382 187.45 44.7579 186.618L162.461 69.4289ZM124.19 65.0435C125.39 64.9319 126.603 64.8355 127.82 64.7645L40.0783 152.129C40.142 150.917 40.2413 149.712 40.3534 148.515L124.19 65.0435ZM138.644 64.8178C139.684 64.8812 140.723 64.9573 141.757 65.0537L40.3661 166.003C40.2693 164.973 40.1929 163.938 40.1292 162.903L138.647 64.8153L138.644 64.8178ZM145.123 65.4443C146.103 65.5736 147.082 65.708 148.052 65.8678L41.1839 172.255C41.0209 171.291 40.8884 170.315 40.7585 169.338L145.123 65.4443ZM151.244 66.436C152.166 66.6186 153.076 66.8316 153.985 67.0422L42.3608 178.162C42.1519 177.251 41.9354 176.351 41.752 175.433L151.244 66.436ZM95.3555 72.5004C97.2177 71.6862 99.0978 70.9025 101.016 70.205L45.5502 125.426C46.2406 123.516 47.0354 121.647 47.8557 119.791L95.3555 72.4978V72.5004ZM78.7003 82.0015C81.6477 79.8913 84.7148 77.951 87.8864 76.1958L51.5546 112.369C53.32 109.209 55.2688 106.155 57.3908 103.223L78.6977 82.0041L78.7003 82.0015ZM204.616 98.2798C205.123 98.8911 205.602 99.5226 206.091 100.152L75.6153 230.058C74.9861 229.571 74.3492 229.092 73.7353 228.59L204.616 98.2823V98.2798ZM115.921 66.1925C117.241 65.9515 118.586 65.7309 119.933 65.5432L40.8502 144.271C41.0387 142.932 41.2603 141.606 41.5023 140.282L115.921 66.1925ZM106.585 68.4118C108.093 67.9629 109.616 67.557 111.157 67.1994L42.5162 135.536C42.883 134.002 43.2906 132.485 43.7339 130.983L106.587 68.4093L106.585 68.4118ZM157.024 67.7726C157.901 68.0085 158.769 68.2545 159.636 68.5132L43.8613 183.783C43.6014 182.92 43.3543 182.055 43.1174 181.183L157.024 67.7726ZM194.082 87.5232C194.681 88.0228 195.272 88.558 195.858 89.0932L64.5211 219.865C63.9836 219.286 63.4818 218.69 62.9442 218.102L194.085 87.5282L194.082 87.5232ZM186.119 81.299C186.776 81.7555 187.433 82.2095 188.08 82.6863L58.0888 212.111C57.6099 211.467 57.1513 210.812 56.6953 210.161L186.121 81.299H186.119ZM190.2 84.3451C190.829 84.8321 191.466 85.3089 192.08 85.8137L61.1992 216.096C60.6923 215.484 60.2134 214.848 59.7243 214.224L190.2 84.3477V84.3451ZM201.294 94.5057C201.832 95.084 202.333 95.68 202.871 96.2735L71.733 226.852C71.142 226.353 70.5433 225.817 69.9574 225.282L201.294 94.5082V94.5057ZM167.66 71.3387C168.457 71.6558 169.242 71.983 170.029 72.3203L47.6723 194.149C47.3335 193.37 47.0048 192.584 46.6864 191.795L167.657 71.3387H167.66ZM181.834 78.4862C182.517 78.9123 183.197 79.3485 183.875 79.7949L55.1745 207.931C54.7287 207.256 54.2906 206.579 53.86 205.894L181.832 78.4862H181.834ZM172.643 73.4693C173.402 73.8269 174.141 74.2023 174.887 74.5776L49.9573 198.963C49.5803 198.217 49.2033 197.476 48.8492 196.726L172.643 73.4667V73.4693ZM177.317 75.8661C178.061 76.2567 178.759 76.6803 179.47 77.0886L52.4615 203.576C52.0513 202.846 51.6259 202.151 51.2387 201.43L177.315 75.8661H177.317Z" fill="url(#paint1_linear_2918_4860)"/>
<circle cx="303.984" cy="155.266" r="40.0162" fill="#F3A31D"/>
<circle cx="263.429" cy="154.564" r="19.9259" fill="#030321"/>
<circle cx="40.0999" cy="157.421" r="40.0162" fill="#0033AD"/>
<defs>
<linearGradient id="paint0_linear_2918_4860" x1="303.53" y1="154.813" x2="-6.08984" y2="154.813" gradientUnits="userSpaceOnUse">
<stop stop-color="#1FD9CA"/>
<stop offset="0.526261" stop-color="white" stop-opacity="0"/>
</linearGradient>
<linearGradient id="paint1_linear_2918_4860" x1="225.869" y1="157.189" x2="39.9331" y2="157.189" gradientUnits="userSpaceOnUse">
<stop stop-color="#048DE6"/>
<stop offset="0.31" stop-color="#007BCC"/>
<stop offset="0.71" stop-color="#006EBC"/>
<stop offset="1" stop-color="#0062AC"/>
</linearGradient>
</defs>
</svg>
