<svg width="360" height="338" viewBox="0 0 360 338" fill="none" xmlns="http://www.w3.org/2000/svg">
<path opacity="0.3" d="M49.7446 285.975C50.4166 286.233 51.1032 286.442 51.7856 286.669L147.917 191.156C147.688 190.478 147.467 189.798 147.217 189.124L49.7446 285.975ZM148.659 193.471C148.869 194.174 149.073 194.879 149.267 195.59L56.2443 288.011C55.5286 287.819 54.8191 287.618 54.1117 287.407L148.659 193.471ZM149.872 198.034C150.043 198.772 150.22 199.51 150.37 200.258L60.9443 289.109C60.1911 288.96 59.4484 288.786 58.7056 288.615L149.872 198.034ZM150.836 202.848C150.969 203.634 151.077 204.43 151.183 205.226L65.9377 289.915C65.1367 289.81 64.3377 289.7 63.545 289.57L150.836 202.848ZM145.545 185.014C145.821 185.653 146.09 186.29 146.35 186.937L47.5308 285.125C46.8796 284.863 46.2367 284.6 45.5959 284.325L145.545 185.014ZM139.417 173.785C139.782 174.331 140.139 174.887 140.491 175.441L35.9586 279.302C35.401 278.959 34.8455 278.603 34.2921 278.239L139.417 173.785ZM141.644 177.351C141.979 177.928 142.326 178.496 142.642 179.077L39.6454 281.417C39.0379 281.098 38.4658 280.757 37.8874 280.424L141.644 177.351ZM137.039 170.376C137.426 170.902 137.805 171.435 138.177 171.966L32.4508 276.989C31.914 276.613 31.3772 276.24 30.8508 275.858L137.039 170.376ZM143.681 181.099C143.988 181.703 144.296 182.304 144.586 182.916L43.4716 283.354C42.8516 283.066 42.2441 282.76 41.6386 282.454L143.681 181.099ZM128.917 161.13C129.381 161.578 129.836 162.033 130.284 162.494L22.9155 269.146C22.4516 268.697 21.9959 268.244 21.5465 267.786L128.919 161.132L128.917 161.13ZM151.813 213.422C151.826 213.999 151.857 214.567 151.857 215.144C151.857 215.477 151.83 215.799 151.83 216.128L76.9148 290.558C76.584 290.562 76.2594 290.585 75.9307 290.585C75.346 290.585 74.7739 290.541 74.1976 290.541L151.813 213.424V213.422ZM75.9307 139.701C76.5112 139.701 77.0833 139.745 77.6597 139.745L0.0437469 216.862C0.03125 216.289 6.10352e-05 215.721 6.10352e-05 215.14C6.10352e-05 214.811 0.0270996 214.489 0.0270996 214.162L74.9424 139.724C75.2732 139.72 75.6061 139.701 75.9328 139.701H75.9307ZM142.384 251.672C140.942 254.247 139.351 256.736 137.618 259.126L120.197 276.431C117.792 278.148 115.287 279.726 112.694 281.15L142.386 251.672H142.384ZM151.497 207.956C151.576 208.791 151.639 209.635 151.691 210.482L71.2556 290.428C70.4068 290.376 69.5579 290.314 68.7132 290.235L151.497 207.958V207.956ZM151.106 225.666C150.952 226.758 150.771 227.843 150.573 228.922L89.8144 289.307C88.7366 289.504 87.6381 289.683 86.5375 289.836L151.104 225.666H151.106ZM147.284 241.042C146.72 242.599 146.071 244.122 145.401 245.631L106.611 284.168C105.071 284.836 103.559 285.475 101.994 286.043L147.284 241.044V241.042ZM151.739 219.264C151.687 220.252 151.608 221.23 151.514 222.21L83.0546 290.26C82.0684 290.351 81.0843 290.43 80.0898 290.483L151.739 219.266V219.264ZM149.745 232.788C149.446 234.038 149.113 235.274 148.751 236.498L97.4355 287.515C96.2038 287.873 94.9596 288.205 93.7009 288.503L149.745 232.79V232.788ZM100.07 143.614C100.752 143.842 101.436 144.061 102.111 144.305L4.6335 241.156C4.37758 240.488 4.16743 239.806 3.93857 239.128L100.07 143.614ZM68.813 140.04C69.793 139.949 70.7833 139.871 71.7779 139.813L0.116547 211.018C0.168564 210.03 0.249725 209.048 0.341263 208.072L68.813 140.04ZM80.6182 139.856C81.4671 139.908 82.316 139.97 83.1607 140.048L0.351669 222.325C0.272598 221.486 0.21019 220.643 0.158173 219.799L80.6203 139.854L80.6182 139.856ZM85.9091 140.367C86.7102 140.472 87.5091 140.582 88.3018 140.712L1.01955 227.421C0.886383 226.636 0.778183 225.84 0.672073 225.044L85.9091 140.367ZM90.9088 141.175C91.6619 141.324 92.4047 141.498 93.1475 141.669L1.98076 232.236C1.81017 231.494 1.6333 230.76 1.48351 230.011L90.9088 141.175ZM45.263 146.118C46.7839 145.454 48.3194 144.815 49.886 144.247L4.58563 189.254C5.14946 187.698 5.79861 186.174 6.46855 184.661L45.263 146.116V146.118ZM31.6602 153.862C34.0674 152.142 36.5724 150.56 39.1627 149.13L9.48956 178.612C10.9314 176.036 12.523 173.548 14.2562 171.158L31.6581 153.864L31.6602 153.862ZM134.499 167.129C134.913 167.627 135.304 168.142 135.704 168.654L29.1406 274.533C28.6267 274.136 28.1066 273.745 27.6051 273.336L134.499 167.131V167.129ZM62.0595 140.977C63.1372 140.78 64.2358 140.6 65.3364 140.447L0.746964 204.614C0.900925 203.522 1.08195 202.441 1.2796 201.362L62.0595 140.977ZM54.4342 142.785C55.6659 142.419 56.9101 142.089 58.1688 141.797L2.10768 197.494C2.40729 196.243 2.74017 195.007 3.1022 193.783L54.4363 142.783L54.4342 142.785ZM95.6296 142.264C96.3453 142.457 97.0548 142.657 97.7622 142.868L3.20622 236.817C2.994 236.114 2.79219 235.409 2.59869 234.698L95.6296 142.264ZM125.896 158.362C126.385 158.769 126.867 159.205 127.346 159.641L20.0797 266.225C19.6407 265.753 19.2308 265.268 18.7918 264.788L125.898 158.366L125.896 158.362ZM119.392 153.289C119.929 153.661 120.465 154.031 120.994 154.42L14.8262 259.905C14.4351 259.38 14.0606 258.847 13.6882 258.316L119.394 153.289H119.392ZM122.725 155.772C123.239 156.169 123.759 156.557 124.26 156.969L17.3666 263.153C16.9526 262.655 16.5614 262.136 16.162 261.627L122.725 155.774V155.772ZM131.786 164.053C132.225 164.524 132.635 165.01 133.074 165.494L25.9698 271.92C25.4871 271.513 24.9982 271.077 24.5196 270.64L131.786 164.055V164.053ZM104.316 145.171C104.967 145.429 105.608 145.696 106.251 145.971L6.31876 245.265C6.04205 244.631 5.77365 243.99 5.51358 243.347L104.314 145.171H104.316ZM115.892 150.996C116.45 151.344 117.005 151.699 117.559 152.063L12.446 256.499C12.082 255.949 11.7241 255.397 11.3725 254.839L115.89 150.996H115.892ZM108.386 146.907C109.006 147.199 109.609 147.505 110.219 147.811L8.18504 249.189C7.87711 248.581 7.56918 247.977 7.27998 247.366L108.386 146.905V146.907ZM112.203 148.861C112.811 149.179 113.381 149.524 113.962 149.857L10.2302 252.949C9.89525 252.354 9.54782 251.787 9.23157 251.2L112.201 148.861H112.203Z" fill="url(#paint0_linear_2918_898)"/>
<path d="M55.2608 117.543C55.011 53.2965 106.89 1.01217 171.136 0.762356C235.382 0.512539 287.667 52.3917 287.916 116.638L288.655 306.588L55.9994 307.493L55.2608 117.543Z" fill="url(#paint1_linear_2918_898)"/>
<circle cx="311.015" cy="154.005" r="48.1854" fill="#0033AD"/>
<rect x="151.857" y="277.93" width="137.255" height="59.38" rx="29.69" fill="#F3A31D"/>
<defs>
<linearGradient id="paint0_linear_2918_898" x1="151.857" y1="215.142" x2="-0.00202081" y2="215.142" gradientUnits="userSpaceOnUse">
<stop stop-color="#048DE6"/>
<stop offset="0.31" stop-color="#007BCC"/>
<stop offset="0.71" stop-color="#006EBC"/>
<stop offset="1" stop-color="#0062AC"/>
</linearGradient>
<linearGradient id="paint1_linear_2918_898" x1="171.136" y1="0.762356" x2="172.327" y2="307.041" gradientUnits="userSpaceOnUse">
<stop stop-color="#1FD9CA"/>
<stop offset="0.59375" stop-color="#68B8A5" stop-opacity="0"/>
</linearGradient>
</defs>
</svg>
