<svg width="90" height="90" viewBox="0 0 90 90" fill="none" xmlns="http://www.w3.org/2000/svg">
<g clip-path="url(#clip0_2926_199)">
<path d="M87.1875 26.7188V81.5625H2.8125V26.7188C2.8125 25.5999 3.25697 24.5268 4.04814 23.7357C4.83931 22.9445 5.91237 22.5 7.03125 22.5H82.9688C84.0876 22.5 85.1607 22.9445 85.9519 23.7357C86.743 24.5268 87.1875 25.5999 87.1875 26.7188Z" fill="#1FD9CA"/>
<path d="M1.40625 81.5625H88.5938C88.9667 81.5625 89.3244 81.7107 89.5881 81.9744C89.8518 82.2381 90 82.5958 90 82.9688V85.7812C90 86.9001 89.5555 87.9732 88.7644 88.7644C87.9732 89.5555 86.9001 90 85.7812 90H4.21875C3.09987 90 2.02681 89.5555 1.23564 88.7644C0.444474 87.9732 0 86.9001 0 85.7812L0 82.9688C0 82.5958 0.148158 82.2381 0.411881 81.9744C0.675604 81.7107 1.03329 81.5625 1.40625 81.5625Z" fill="#338F8A"/>
<path d="M84.375 26.7188V32.3438H28.125L22.5 25.3125H82.9688C83.3417 25.3125 83.6994 25.4607 83.9631 25.7244C84.2268 25.9881 84.375 26.3458 84.375 26.7188Z" fill="#338F8A"/>
<path d="M84.375 32.3438V78.75H5.625V26.7188C5.625 26.3458 5.77316 25.9881 6.03688 25.7244C6.3006 25.4607 6.65829 25.3125 7.03125 25.3125H26.8313C27.6739 25.313 28.5056 25.5029 29.265 25.868C30.0244 26.2331 30.6921 26.7641 31.2187 27.4219C32.625 29.25 32.1609 28.6031 33.4688 30.2344C33.9954 30.8921 34.6631 31.4232 35.4225 31.7883C36.1819 32.1534 37.0136 32.3432 37.8562 32.3438H84.375Z" fill="#FCFCFC"/>
<path d="M68.9062 22.5H21.0938V25.3125H68.9062V22.5Z" fill="#338F8A"/>
<path d="M68.9061 25.3125V32.3438H37.856C37.0134 32.3432 36.1817 32.1534 35.4223 31.7883C34.6629 31.4232 33.9952 30.8921 33.4686 30.2344C32.1607 28.6031 32.667 29.25 31.2185 27.4219C30.6919 26.7641 30.0242 26.2331 29.2648 25.868C28.5054 25.5029 27.6737 25.313 26.8311 25.3125H68.9061Z" fill="#338F8A"/>
<path d="M68.9062 32.3438V35.1562C68.9052 35.9788 68.6637 36.7831 68.2114 37.4702C67.7592 38.1573 67.116 38.6972 66.3609 39.0234C44.7047 48.3047 46.3641 47.6156 46.1109 47.6578C45.3891 47.8616 44.625 47.8616 43.9031 47.6578C43.5516 47.6578 45.3094 48.2906 23.6531 39.0375C22.8932 38.7124 22.2456 38.1712 21.7906 37.4812C21.3356 36.7912 21.0933 35.9828 21.0938 35.1562V25.3125H26.8313C27.6739 25.313 28.5056 25.5029 29.265 25.868C30.0244 26.2331 30.6921 26.7641 31.2187 27.4219C31.95 28.35 33.4969 30.2344 33.6797 30.4735C34.2107 31.0658 34.8612 31.5387 35.5884 31.8611C36.3156 32.1835 37.103 32.348 37.8984 32.3438H68.9062Z" fill="#D0FFFB"/>
<path d="M54.8438 84.375H35.1562C34.4103 84.375 33.695 84.0787 33.1675 83.5512C32.6401 83.0238 32.3438 82.3084 32.3438 81.5625H57.6562C57.6562 82.3084 57.3599 83.0238 56.8325 83.5512C56.305 84.0787 55.5897 84.375 54.8438 84.375Z" fill="#D0FFFB"/>
<path d="M64.6876 60.4687H25.3126C25.0593 60.4674 24.8111 60.3977 24.5942 60.2671C24.3773 60.1364 24.1997 59.9496 24.0801 59.7263C23.9606 59.5031 23.9035 59.2517 23.915 58.9987C23.9265 58.7457 24.0061 58.5005 24.1454 58.289L43.8329 28.7578C43.9615 28.5664 44.1353 28.4095 44.3388 28.301C44.5424 28.1926 44.7694 28.1359 45.0001 28.1359C45.2307 28.1359 45.4578 28.1926 45.6613 28.301C45.8649 28.4095 46.0386 28.5664 46.1673 28.7578L65.8548 58.289C65.9941 58.5005 66.0736 58.7457 66.0851 58.9987C66.0966 59.2517 66.0396 59.5031 65.92 59.7263C65.8005 59.9496 65.6229 60.1364 65.4059 60.2671C65.189 60.3977 64.9408 60.4674 64.6876 60.4687ZM27.9423 57.6562H62.0579L45.0001 32.0624L27.9423 57.6562Z" fill="#338F8A"/>
<path d="M45 1.40625L25.3125 9.84375V35.1562L45 43.5938L64.6875 35.1562V9.84375L45 1.40625Z" fill="#FCFCFC"/>
<path d="M45 1.40625L25.3125 9.84375V35.1562L45 43.5938L64.6875 35.1562V9.84375L45 1.40625Z" fill="#F3A31D" fill-opacity="0.2"/>
<path d="M66.0938 9.84369C66.0935 9.56765 66.0121 9.2978 65.8595 9.06774C65.707 8.83768 65.4901 8.65757 65.2359 8.54992L45.5484 0.112421C45.3749 0.0389347 45.1884 0.00109863 45 0.00109863C44.8116 0.00109863 44.6251 0.0389347 44.4516 0.112421L24.7641 8.54992C24.5099 8.65757 24.293 8.83768 24.1405 9.06774C23.9879 9.2978 23.9065 9.56765 23.9062 9.84369V35.1562C23.9065 35.4322 23.9879 35.7021 24.1405 35.9321C24.293 36.1622 24.5099 36.3423 24.7641 36.45C46.35 45.7031 44.7187 45.1828 45.4922 44.8875L65.1797 36.45C65.4444 36.3511 65.6732 36.1748 65.8362 35.944C65.9993 35.7133 66.089 35.4387 66.0938 35.1562V9.84369ZM45 2.939L61.1156 9.84369L45 16.7484L28.8844 9.84369L45 2.939ZM26.7188 11.9812L43.5938 19.2093V41.4562L26.7188 34.2281V11.9812ZM63.2812 34.2281L46.4062 41.4562V19.2093L63.2812 11.9812V34.2281Z" fill="#F3A31D"/>
<path d="M25.3125 45L11.25 50.625V67.5L25.3125 73.125L39.375 67.5V50.625L25.3125 45Z" fill="#CDF9F5"/>
<path d="M25.3125 57.6563C24.9188 57.6563 26.1 58.0781 10.7297 51.9328C10.4674 51.8291 10.2423 51.649 10.0837 51.4158C9.92514 51.1826 9.84033 50.907 9.84033 50.625C9.84033 50.343 9.92514 50.0674 10.0837 49.8342C10.2423 49.601 10.4674 49.4209 10.7297 49.3172L24.7922 43.6922C25.1263 43.5591 25.4987 43.5591 25.8328 43.6922L39.8953 49.3172C40.1576 49.4209 40.3827 49.601 40.5413 49.8342C40.6999 50.0674 40.7847 50.343 40.7847 50.625C40.7847 50.907 40.6999 51.1826 40.5413 51.4158C40.3827 51.649 40.1576 51.8291 39.8953 51.9328C24.525 58.0781 25.7063 57.6563 25.3125 57.6563ZM15.0328 50.625L25.3125 54.7313L35.5922 50.625L25.3125 46.5187L15.0328 50.625Z" fill="#1FD9CA"/>
<path d="M25.3125 74.5313C24.9187 74.5313 26.1 74.9531 10.7297 68.8078C10.468 68.7036 10.2437 68.5233 10.0857 68.2901C9.92778 68.0569 9.84348 67.7816 9.84375 67.5V50.625C9.84353 50.3953 9.89959 50.169 10.0071 49.9659C10.1145 49.7628 10.2701 49.5892 10.4602 49.4602C10.6503 49.3311 10.8691 49.2506 11.0975 49.2257C11.3259 49.2008 11.5569 49.2322 11.7703 49.3172L25.3125 54.7313L38.8547 49.3172C39.0681 49.2322 39.2991 49.2008 39.5275 49.2257C39.7559 49.2506 39.9747 49.3311 40.1648 49.4602C40.3549 49.5892 40.5105 49.7628 40.6179 49.9659C40.7254 50.169 40.7815 50.3953 40.7812 50.625V67.5C40.7815 67.7816 40.6972 68.0569 40.5393 68.2901C40.3813 68.5233 40.157 68.7036 39.8953 68.8078C24.525 74.9531 25.7063 74.5313 25.3125 74.5313ZM12.6563 66.5438L25.3125 71.6063L37.9688 66.5438V52.7063L25.8328 57.5578C25.4987 57.6909 25.1263 57.6909 24.7922 57.5578L12.6563 52.7063V66.5438Z" fill="#1FD9CA"/>
<path d="M25.3125 74.5312C24.9395 74.5312 24.5819 74.3831 24.3181 74.1193C24.0544 73.8556 23.9062 73.498 23.9062 73.125V56.25C23.9062 55.877 24.0544 55.5194 24.3181 55.2557C24.5819 54.9919 24.9395 54.8438 25.3125 54.8438C25.6855 54.8438 26.0431 54.9919 26.3069 55.2557C26.5706 55.5194 26.7188 55.877 26.7188 56.25V73.125C26.7188 73.498 26.5706 73.8556 26.3069 74.1193C26.0431 74.3831 25.6855 74.5312 25.3125 74.5312Z" fill="#1FD9CA"/>
<path d="M64.6875 45L50.625 50.625V67.5L64.6875 73.125L78.75 67.5V50.625L64.6875 45Z" fill="#CDF9F5"/>
<path d="M64.6875 57.6563C64.2938 57.6563 65.475 58.0781 50.1047 51.9328C49.8424 51.8291 49.6173 51.649 49.4587 51.4158C49.3001 51.1826 49.2153 50.907 49.2153 50.625C49.2153 50.343 49.3001 50.0674 49.4587 49.8342C49.6173 49.601 49.8424 49.4209 50.1047 49.3172L64.1672 43.6922C64.5013 43.5591 64.8737 43.5591 65.2078 43.6922L79.2703 49.3172C79.5326 49.4209 79.7577 49.601 79.9163 49.8342C80.0749 50.0674 80.1597 50.343 80.1597 50.625C80.1597 50.907 80.0749 51.1826 79.9163 51.4158C79.7577 51.649 79.5326 51.8291 79.2703 51.9328C63.9 58.0781 65.0813 57.6563 64.6875 57.6563ZM54.4078 50.625L64.6875 54.7313L74.9672 50.625L64.6875 46.5187L54.4078 50.625Z" fill="#1FD9CA"/>
<path d="M64.6875 74.5313C64.2937 74.5313 65.475 74.9531 50.1047 68.8078C49.843 68.7036 49.6187 68.5233 49.4607 68.2901C49.3028 68.0569 49.2185 67.7816 49.2188 67.5V50.625C49.2185 50.3953 49.2746 50.169 49.3821 49.9659C49.4895 49.7628 49.6451 49.5892 49.8352 49.4602C50.0253 49.3311 50.2441 49.2506 50.4725 49.2257C50.7009 49.2008 50.9319 49.2322 51.1453 49.3172L64.6875 54.7313L78.2297 49.3172C78.4431 49.2322 78.6741 49.2008 78.9025 49.2257C79.1309 49.2506 79.3497 49.3311 79.5398 49.4602C79.7299 49.5892 79.8855 49.7628 79.9929 49.9659C80.1004 50.169 80.1565 50.3953 80.1562 50.625V67.5C80.1565 67.7816 80.0722 68.0569 79.9143 68.2901C79.7563 68.5233 79.532 68.7036 79.2703 68.8078C63.9 74.9531 65.0813 74.5313 64.6875 74.5313ZM52.0313 66.5438L64.6875 71.6063L77.3438 66.5438V52.7063L65.2078 57.5578C64.8737 57.6909 64.5013 57.6909 64.1672 57.5578L52.0313 52.7063V66.5438Z" fill="#1FD9CA"/>
<path d="M64.6875 74.5312C64.3145 74.5312 63.9569 74.3831 63.6931 74.1193C63.4294 73.8556 63.2812 73.498 63.2812 73.125V56.25C63.2812 55.877 63.4294 55.5194 63.6931 55.2557C63.9569 54.9919 64.3145 54.8438 64.6875 54.8438C65.0605 54.8438 65.4181 54.9919 65.6819 55.2557C65.9456 55.5194 66.0938 55.877 66.0938 56.25V73.125C66.0938 73.498 65.9456 73.8556 65.6819 74.1193C65.4181 74.3831 65.0605 74.5312 64.6875 74.5312Z" fill="#1FD9CA"/>
<path d="M7.03125 19.6875C7.8079 19.6875 8.4375 19.0579 8.4375 18.2812C8.4375 17.5046 7.8079 16.875 7.03125 16.875C6.2546 16.875 5.625 17.5046 5.625 18.2812C5.625 19.0579 6.2546 19.6875 7.03125 19.6875Z" fill="#F3A31D"/>
<path d="M12.6562 19.6875C13.4329 19.6875 14.0625 19.0579 14.0625 18.2812C14.0625 17.5046 13.4329 16.875 12.6562 16.875C11.8796 16.875 11.25 17.5046 11.25 18.2812C11.25 19.0579 11.8796 19.6875 12.6562 19.6875Z" fill="#F3A31D"/>
<path d="M18.2812 19.6875C19.0579 19.6875 19.6875 19.0579 19.6875 18.2812C19.6875 17.5046 19.0579 16.875 18.2812 16.875C17.5046 16.875 16.875 17.5046 16.875 18.2812C16.875 19.0579 17.5046 19.6875 18.2812 19.6875Z" fill="#F3A31D"/>
</g>
<defs>
<clipPath id="clip0_2926_199">
<rect width="90" height="90" fill="white"/>
</clipPath>
</defs>
</svg>
