<svg width="41" height="50" viewBox="0 0 41 50" fill="none" xmlns="http://www.w3.org/2000/svg">
<g clip-path="url(#clip0_2932_802)">
<path d="M26.8399 0H5.17008C2.60553 0 0.52655 2.09867 0.52655 4.6875V45.3125C0.52655 47.9013 2.60553 50 5.17008 50H26.8399C29.4044 50 31.4834 47.9013 31.4834 45.3125V4.6875C31.4834 2.09867 29.4044 0 26.8399 0Z" fill="#50D9D7"/>
<path d="M29.7948 5.03844V44.9757C29.7948 46.7409 28.4305 48.1707 26.746 48.1707H5.40459C3.72013 48.1707 2.3558 46.7409 2.3558 44.9757V5.03844C2.3558 3.8563 2.96556 2.82592 3.88019 2.27478C4.81769 1.70767 5.19879 1.84346 9.42898 1.84346C9.75672 1.84346 10.0464 2.06711 10.1531 2.38661C10.3589 3.04957 10.5799 4.2397 11.8375 4.2397H20.3131C20.9686 4.2397 21.5479 3.80039 21.7613 3.14542L21.9976 2.38661C22.1043 2.06711 22.3939 1.84346 22.7217 1.84346H26.746C28.4305 1.84346 29.7948 3.27322 29.7948 5.03844Z" fill="white"/>
<path d="M25.292 45.3125H8.26576C7.22871 45.3125 7.2674 43.75 8.26576 43.75H25.292C26.3291 43.75 26.2904 45.3125 25.292 45.3125Z" fill="#84C4C4" fill-opacity="0.54"/>
<path d="M36.1269 8.59375V13.2812L30.7095 15.625L25.292 13.2812V8.59375H36.1269Z" fill="#00BEBD"/>
<path d="M40.7705 7.8125L30.7095 11.7188L20.6485 7.8125L30.7095 3.90625L40.7705 7.8125Z" fill="#50D9D7"/>
<path d="M17.3825 14.0625H3.62222V15.625H17.3825V14.0625Z" fill="#84C4C4" fill-opacity="0.54"/>
<path d="M34.5791 14.8438V10.6407L30.3612 8.51566C29.448 8.05472 30.1368 6.65628 31.05 7.11722L35.6935 9.46097C35.9567 9.59378 36.1192 9.86722 36.1192 10.1563V14.8438C36.1192 15.875 34.5713 15.875 34.5713 14.8438H34.5791Z" fill="#00AAA8"/>
<path d="M28.3877 34.375H3.62222V35.9375H28.3877V34.375Z" fill="#84C4C4" fill-opacity="0.54"/>
<path d="M19.1006 37.5H3.62222V39.0625H19.1006V37.5Z" fill="#84C4C4" fill-opacity="0.54"/>
<path d="M16.005 34.375C21.1341 34.375 25.292 30.1777 25.292 25C25.292 19.8223 21.1341 15.625 16.005 15.625C10.8759 15.625 6.71793 19.8223 6.71793 25C6.71793 30.1777 10.8759 34.375 16.005 34.375Z" fill="white"/>
<path d="M25.1295 36.1016C21.941 32.8828 21.6314 32.5859 21.5772 32.5078C21.9874 32.1953 22.3743 31.8438 22.7304 31.4609C24.3169 33.0625 23.4037 32.1406 26.2285 34.9922C26.9482 35.7188 25.8802 36.8203 25.1295 36.1016Z" fill="#976511"/>
<path d="M25.0676 36.1641L26.2981 34.9219C26.6 34.6172 27.0875 34.6172 27.3894 34.9219L36.5139 44.1328C37.1562 44.7812 37.1562 45.8281 36.5139 46.4766C35.8715 47.125 34.8345 47.125 34.1921 46.4766L25.0676 37.2656C24.7658 36.9609 24.7658 36.4688 25.0676 36.1641Z" fill="#E09000"/>
<path d="M19.1007 7.8125H6.71793V9.375H19.1007V7.8125Z" fill="#84C4C4" fill-opacity="0.54"/>
<path d="M19.1006 10.9375H3.62222V12.5H19.1006V10.9375Z" fill="#84C4C4" fill-opacity="0.54"/>
<path d="M16.005 14.0625C10.0226 14.0625 5.17007 18.9609 5.17007 25C5.17007 34.9531 17.2819 39.5938 23.8216 32.5625C30.3612 25.6875 25.6016 14.0625 16.005 14.0625ZM22.7303 31.4609C17.0885 37.5312 6.71792 33.5234 6.71792 25C6.71792 19.8203 10.8739 15.625 16.005 15.625C24.2008 15.625 28.3103 25.5859 22.7303 31.4609Z" fill="#F3A31D"/>
<path d="M16.005 27.3125C14.7512 27.3125 15.0221 24.9922 16.7479 24.0312C17.3361 23.7031 17.6457 23.0547 17.5219 22.3672C17.3206 21.2109 15.9121 20.6875 14.9989 21.4609C14.3952 21.9687 14.2869 22.8437 14.6738 23.4609C15.2156 24.3359 13.8999 25.1641 13.3582 24.2891C12.5688 23.0156 12.8087 21.2812 14.0005 20.2656C15.8347 18.7109 18.6441 19.7734 19.0388 22.1016C19.2632 23.4297 18.6441 24.7578 17.4832 25.3984C17.0343 25.6484 16.7634 26.0625 16.7634 26.5C16.7634 26.9375 16.4152 27.3125 15.9895 27.3125H16.005Z" fill="#F3A31D"/>
<path d="M16.7789 29.6875C16.7789 28.6562 15.231 28.6562 15.231 29.6875C15.231 30.7188 16.7789 30.7188 16.7789 29.6875Z" fill="#F3A31D"/>
</g>
<defs>
<clipPath id="clip0_2932_802">
<rect width="40.2439" height="50" fill="white" transform="translate(0.52655)"/>
</clipPath>
</defs>
</svg>
