<svg width="48" height="51" viewBox="0 0 48 51" fill="none" xmlns="http://www.w3.org/2000/svg">
<path d="M46.8677 21.92H4.68016V42.2325H46.8677V21.92Z" fill="#1FD9CA"/>
<path d="M47.0317 22.0528L25.7739 26.6075L4.5161 22.0528C4.15672 21.9747 3.89891 21.6544 3.89891 21.2872V8.63875C3.89891 8.20906 4.25047 7.8575 4.68016 7.8575H46.8677C47.2974 7.8575 47.6489 8.20906 47.6489 8.63875V21.2872C47.6489 21.6544 47.3911 21.9747 47.0317 22.0528Z" fill="#00BEBD"/>
<path d="M27.3364 22.7012H24.2114C23.3485 22.7012 22.6489 23.4008 22.6489 24.2637V28.9512C22.6489 29.8142 23.3485 30.5137 24.2114 30.5137H27.3364C28.1994 30.5137 28.8989 29.8142 28.8989 28.9512V24.2637C28.8989 23.4008 28.1994 22.7012 27.3364 22.7012Z" fill="#CD8A1B"/>
<path d="M36.7114 7.57625V7.8575H33.5864C33.1567 7.8575 32.8051 7.50594 32.8051 7.07625V4.7325C32.8051 3.00594 31.4067 1.6075 29.6801 1.6075H21.8676C20.1411 1.6075 18.7426 3.00594 18.7426 4.7325V7.07625C18.7426 7.50594 18.3911 7.8575 17.9614 7.8575H14.8364C14.8364 7.22469 15.3286 6.295 16.3989 6.295H17.1801V4.7325C17.1801 2.14656 19.2817 0.0449982 21.8676 0.0449982H29.6801C32.2661 0.0449982 34.3676 2.14656 34.3676 4.7325V6.295H35.4301C36.1333 6.295 36.7114 6.86531 36.7114 7.57625Z" fill="#CD8A1B"/>
<path d="M27.3364 35.9825V42.2325H4.68016V32.8575H24.2114C25.938 32.8575 27.3364 34.2559 27.3364 35.9825Z" fill="#00BEBD"/>
<path d="M24.2114 34.42H2.3364C1.47345 34.42 0.773895 35.1196 0.773895 35.9825V48.4825C0.773895 49.3455 1.47345 50.045 2.3364 50.045H24.2114C25.0743 50.045 25.7739 49.3455 25.7739 48.4825V35.9825C25.7739 35.1196 25.0743 34.42 24.2114 34.42Z" fill="#AEECEC"/>
<path d="M24.2114 35.9825H2.33639V48.4825H24.2114V35.9825Z" fill="#1FD9CA"/>
<path d="M13.2739 46.92C15.4312 46.92 17.1801 44.8213 17.1801 42.2325C17.1801 39.6437 15.4312 37.545 13.2739 37.545C11.1165 37.545 9.36763 39.6437 9.36763 42.2325C9.36763 44.8213 11.1165 46.92 13.2739 46.92Z" fill="#AEECEC"/>
<path d="M21.8677 43.0137H20.3052C19.2739 43.0137 19.2739 41.4512 20.3052 41.4512H21.8677C22.8989 41.4512 22.8989 43.0137 21.8677 43.0137Z" fill="#AEECEC"/>
<path d="M6.24265 43.0137H4.68015C3.63328 43.0137 3.67234 41.4512 4.68015 41.4512H6.24265C7.28953 41.4512 7.25047 43.0137 6.24265 43.0137Z" fill="#AEECEC"/>
<path d="M41.3989 47.7012V49.2637C41.3989 49.6934 41.0942 50.045 40.7114 50.045H31.1411C30.7661 50.045 30.4536 49.6934 30.4536 49.2637V47.7012C30.4536 47.2716 30.7583 46.92 31.1411 46.92H40.7114C41.0864 46.92 41.3989 47.2716 41.3989 47.7012Z" fill="#FFAC00"/>
<path d="M41.3989 44.5762V46.1387C41.3989 46.5684 41.0942 46.92 40.7114 46.92H31.1411C30.7661 46.92 30.4536 46.5684 30.4536 46.1387V44.5762C30.4536 44.1466 30.7583 43.795 31.1411 43.795H40.7114C41.0864 43.795 41.3989 44.1466 41.3989 44.5762Z" fill="#F3A31D"/>
<path d="M25.7739 42.2325V48.4825C25.7739 49.3419 25.0708 50.045 24.2114 50.045H18.0942C17.9223 49.5684 17.9614 49.2247 17.9614 48.4825H24.2114V42.2325H25.7739Z" fill="#1FD9CA"/>
<path d="M24.2114 42.2325V48.4825H17.9614C17.9614 47.7247 17.9301 47.3809 18.0942 46.92C17.9145 46.4122 17.9614 46.084 17.9614 44.5762C17.9614 43.5294 18.6254 42.6387 19.5317 42.3419C19.5864 42.7247 19.9145 43.0137 20.3051 43.0137H21.8676C22.2973 43.0137 22.6489 42.6622 22.6489 42.2325H24.2114Z" fill="#00BEBD"/>
<path d="M30.4614 47.7012V49.2637C30.4614 49.6934 30.1567 50.045 29.7739 50.045H20.2036C19.8286 50.045 19.5161 49.6934 19.5161 49.2637V47.7012C19.5161 47.2716 19.8208 46.92 20.2036 46.92H29.7739C30.1489 46.92 30.4614 47.2716 30.4614 47.7012Z" fill="#F3A31D"/>
<path d="M22.6489 42.2325C22.6489 42.6622 22.2974 43.0137 21.8677 43.0137H20.3052C19.9145 43.0137 19.5864 42.7247 19.5317 42.3419C20.0083 42.1856 20.2661 42.2325 22.6489 42.2325Z" fill="#1FD9CA"/>
<path d="M42.9614 41.4512V42.2325H28.8989V41.4512C28.8989 40.1622 29.9067 39.1075 31.1489 39.1075H40.7114C41.9536 39.1075 42.9614 40.1622 42.9614 41.4512Z" fill="#00BEBD"/>
<path d="M41.3989 41.4513V43.0138C41.3989 43.4435 41.0942 43.795 40.7114 43.795H31.1411C30.7661 43.795 30.4536 43.4435 30.4536 43.0138V41.4513C30.4536 41.0216 30.7583 40.67 31.1411 40.67H40.7114C41.0864 40.67 41.3989 41.0216 41.3989 41.4513Z" fill="#CD8A1B"/>
<path d="M30.4614 44.5762V46.1387C30.4614 46.5684 30.1567 46.92 29.7739 46.92H20.2036C19.8286 46.92 19.5161 46.5684 19.5161 46.1387V44.5762C19.5161 44.1466 19.8208 43.795 20.2036 43.795H29.7739C30.1489 43.795 30.4614 44.1466 30.4614 44.5762Z" fill="#CD8A1B"/>
<path d="M24.9926 27.3887V25.8262C24.9926 24.7794 26.5551 24.8184 26.5551 25.8262V27.3887C26.5551 28.4356 24.9926 28.3966 24.9926 27.3887Z" fill="#F3F3F3"/>
<path d="M16.3989 10.2012H7.02389V11.7637H16.3989V10.2012Z" fill="#1FD9CA"/>
<path d="M11.7114 13.3262H7.02389V14.8887H11.7114V13.3262Z" fill="#1FD9CA"/>
</svg>
