<svg width="47" height="40" viewBox="0 0 47 40" fill="none" xmlns="http://www.w3.org/2000/svg">
<g clip-path="url(#clip0_2933_1597)">
<path d="M44.6488 0.984985H2.9284C1.73659 0.984985 0.770447 1.93091 0.770447 3.09776V29.8596C0.770447 31.0265 1.73659 31.9724 2.9284 31.9724H44.6488C45.8406 31.9724 46.8068 31.0265 46.8068 29.8596V3.09776C46.8068 1.93091 45.8406 0.984985 44.6488 0.984985Z" fill="#1FD9CA"/>
<path d="M44.7927 6.61907V27.0426C42.8074 27.0426 41.6277 28.14 41.6277 30.0837H5.66182C5.66182 28.14 4.76986 27.0426 2.78455 27.0426V6.61907C4.76986 6.61907 5.80568 5.04153 5.80568 3.09778H41.7715C41.7715 5.04153 42.8074 6.61907 44.7927 6.61907Z" fill="white"/>
<path d="M41.7715 16.4786H7.96362V17.8872H41.7715V16.4786Z" fill="#93E6E5"/>
<path d="M41.7715 19.2958H5.80566V20.7043H41.7715V19.2958Z" fill="#93E6E5"/>
<path d="M25.9466 22.1128H5.80566V23.5213H25.9466V22.1128Z" fill="#93E6E5"/>
<path d="M15.1568 27.0426H7.96362V28.4511H15.1568V27.0426Z" fill="#93E6E5"/>
<path d="M41.0522 29.1554V35.3213C41.0522 36.9099 39.2894 37.8644 37.9591 36.9961L36.7363 36.198L35.5136 36.9961C34.1833 37.8644 32.4204 36.9099 32.4204 35.3213V29.1554H41.0522Z" fill="#CD8A1B"/>
<path d="M36.7363 33.381C40.709 33.381 43.9295 30.2279 43.9295 26.3384C43.9295 22.4489 40.709 19.2958 36.7363 19.2958C32.7636 19.2958 29.5432 22.4489 29.5432 26.3384C29.5432 30.2279 32.7636 33.381 36.7363 33.381Z" fill="#F3A31D"/>
<path d="M36.7363 31.9724C39.9144 31.9724 42.4908 29.4499 42.4908 26.3383C42.4908 23.2267 39.9144 20.7042 36.7363 20.7042C33.5581 20.7042 30.9818 23.2267 30.9818 26.3383C30.9818 29.4499 33.5581 31.9724 36.7363 31.9724Z" fill="white"/>
<path d="M33.9022 27.0426C33.9885 28.0145 34.2691 29.1272 34.7222 30.078C33.557 29.4723 32.7082 28.3596 32.4852 27.0426H33.9022Z" fill="#CD8A1B"/>
<path d="M33.9022 25.6341H32.4852C32.7082 24.3171 33.557 23.2044 34.7222 22.5988C34.2691 23.5495 33.9885 24.6622 33.9022 25.6341Z" fill="#CD8A1B"/>
<path d="M39.5704 27.0426H40.9875C40.7645 28.3596 39.9157 29.4723 38.7504 30.078C39.2036 29.1272 39.4841 28.0145 39.5704 27.0426Z" fill="#CD8A1B"/>
<path d="M39.5704 25.6341C39.4841 24.6622 39.2036 23.5495 38.7504 22.5988C39.9157 23.2044 40.7645 24.3171 40.9875 25.6341H39.5704Z" fill="#CD8A1B"/>
<path d="M35.348 27.0426H38.1318C37.9879 28.3032 37.4844 29.8244 36.7363 30.5639C35.9882 29.8244 35.4847 28.3032 35.348 27.0426Z" fill="#338F8A"/>
<path d="M38.1318 25.6341H35.348C35.4847 24.3735 35.9882 22.8523 36.7363 22.1128C37.4844 22.8523 37.9879 24.3735 38.1318 25.6341Z" fill="#338F8A"/>
<path d="M35.348 27.0426H38.1318C37.9879 28.3032 37.4844 29.8244 36.7363 30.5639C35.9882 29.8244 35.4847 28.3032 35.348 27.0426Z" fill="#CD8A1B"/>
<path d="M38.1318 25.6341H35.348C35.4847 24.3735 35.9882 22.8523 36.7363 22.1128C37.4844 22.8523 37.9879 24.3735 38.1318 25.6341Z" fill="#CD8A1B"/>
<path d="M36.7363 5.21057H10.8409V10.8446H36.7363V5.21057Z" fill="#93E6E5"/>
<path d="M38.8943 12.2532H8.68292V13.6617H38.8943V12.2532Z" fill="#93E6E5"/>
</g>
<defs>
<clipPath id="clip0_2933_1597">
<rect width="46.0363" height="38.03" fill="white" transform="translate(0.770447 0.984985)"/>
</clipPath>
</defs>
</svg>
