<svg width="74" height="74" viewBox="0 0 74 74" fill="none" xmlns="http://www.w3.org/2000/svg">
<g clip-path="url(#clip0_639_8696)">
<g clip-path="url(#clip1_639_8696)">
<path d="M71.6875 21.9688V67.0625H2.3125V21.9688C2.3125 21.0488 2.67796 20.1665 3.32847 19.516C3.97899 18.8655 4.86128 18.5 5.78125 18.5H68.2188C69.1387 18.5 70.021 18.8655 70.6715 19.516C71.322 20.1665 71.6875 21.0488 71.6875 21.9688Z" fill="#68B8A5"/>
<path d="M1.15625 67.0625H72.8438C73.1504 67.0625 73.4445 67.1843 73.6613 67.4012C73.8782 67.618 74 67.9121 74 68.2188V70.5312C74 71.4512 73.6345 72.3335 72.984 72.984C72.3335 73.6345 71.4512 74 70.5312 74H3.46875C2.54878 74 1.66649 73.6345 1.01597 72.984C0.365457 72.3335 0 71.4512 0 70.5312L0 68.2188C0 67.9121 0.121819 67.618 0.338658 67.4012C0.555497 67.1843 0.849593 67.0625 1.15625 67.0625Z" fill="#68B8A5"/>
<path d="M69.375 21.9688V64.75H4.625V21.9688C4.625 21.6621 4.74682 21.368 4.96366 21.1512C5.1805 20.9343 5.47459 20.8125 5.78125 20.8125H68.2188C68.5254 20.8125 68.8195 20.9343 69.0363 21.1512C69.2532 21.368 69.375 21.6621 69.375 21.9688Z" fill="white"/>
<path d="M45.0938 69.375H28.9063C28.2929 69.375 27.7048 69.1314 27.2711 68.6977C26.8374 68.264 26.5938 67.6758 26.5938 67.0625C26.5938 66.9469 25.6225 67.0625 47.4063 67.0625C47.4063 67.6758 47.1626 68.264 46.7289 68.6977C46.2953 69.1314 45.7071 69.375 45.0938 69.375Z" fill="#B6EDE2"/>
<path d="M50.875 18.5C50.5428 19.3089 50.1323 20.0835 49.6494 20.8125H24.3506C23.8677 20.0835 23.4572 19.3089 23.125 18.5H50.875Z" fill="#68B8A5"/>
<path d="M49.6494 20.8125C48.2888 22.932 46.4174 24.6757 44.2072 25.8834C41.9969 27.091 39.5186 27.7239 37 27.7239C34.4813 27.7239 32.0031 27.091 29.7928 25.8834C27.5826 24.6757 25.7112 22.932 24.3506 20.8125H49.6494Z" fill="#338F7E"/>
<path d="M37 25.4375C44.0244 25.4375 49.7188 19.7431 49.7188 12.7188C49.7188 5.69438 44.0244 0 37 0C29.9756 0 24.2812 5.69438 24.2812 12.7188C24.2812 19.7431 29.9756 25.4375 37 25.4375Z" fill="#68B8A5"/>
<path d="M37.5781 11.5625H36.4219C35.9619 11.5625 35.5208 11.3798 35.1955 11.0545C34.8702 10.7293 34.6875 10.2881 34.6875 9.82812C34.6875 9.36814 34.8702 8.92699 35.1955 8.60174C35.5208 8.27648 35.9619 8.09375 36.4219 8.09375H40.4688C40.7754 8.09375 41.0695 7.97193 41.2863 7.75509C41.5032 7.53825 41.625 7.24416 41.625 6.9375C41.625 6.63084 41.5032 6.33675 41.2863 6.11991C41.0695 5.90307 40.7754 5.78125 40.4688 5.78125H38.1563V4.625C38.1563 4.31834 38.0344 4.02425 37.8176 3.80741C37.6008 3.59057 37.3067 3.46875 37 3.46875C36.6933 3.46875 36.3993 3.59057 36.1824 3.80741C35.9656 4.02425 35.8438 4.31834 35.8438 4.625V5.78125C34.7705 5.85791 33.7716 6.3578 33.0668 7.17095C32.3621 7.9841 32.0093 9.04389 32.0859 10.1172C32.1626 11.1905 32.6625 12.1894 33.4756 12.8941C34.2888 13.5988 35.3486 13.9517 36.4219 13.875H37.5781C38.0381 13.875 38.4793 14.0577 38.8045 14.383C39.1298 14.7082 39.3125 15.1494 39.3125 15.6094C39.3125 16.0694 39.1298 16.5105 38.8045 16.8358C38.4793 17.161 38.0381 17.3438 37.5781 17.3438H33.5313C33.2246 17.3438 32.9305 17.4656 32.7137 17.6824C32.4968 17.8992 32.375 18.1933 32.375 18.5C32.375 18.8067 32.4968 19.1008 32.7137 19.3176C32.9305 19.5344 33.2246 19.6562 33.5313 19.6562H35.8438V20.8125C35.8438 21.1192 35.9656 21.4133 36.1824 21.6301C36.3993 21.8469 36.6933 21.9688 37 21.9688C37.3067 21.9688 37.6008 21.8469 37.8176 21.6301C38.0344 21.4133 38.1563 21.1192 38.1563 20.8125V19.6562C39.2296 19.5796 40.2284 19.0797 40.9332 18.2665C41.6379 17.4534 41.9907 16.3936 41.9141 15.3203C41.8374 14.247 41.3375 13.2481 40.5244 12.5434C39.7112 11.8387 38.6514 11.4858 37.5781 11.5625Z" fill="white"/>
<path d="M52.0312 60.125H47.4062V39.7866L49.7188 37.4741V38.1562C49.7188 38.4629 49.8406 38.757 50.0574 38.9738C50.2742 39.1907 50.5683 39.3125 50.875 39.3125C51.1817 39.3125 51.4758 39.1907 51.6926 38.9738C51.9094 38.757 52.0312 38.4629 52.0312 38.1562C52.0312 32.8953 52.725 33.5312 47.4062 33.5312C47.0996 33.5312 46.8055 33.6531 46.5887 33.8699C46.3718 34.0867 46.25 34.3808 46.25 34.6875C46.25 34.9942 46.3718 35.2883 46.5887 35.5051C46.8055 35.7219 47.0996 35.8437 47.4062 35.8437H48.0884L38.0869 45.8453C31.7506 40.5612 31.9125 40.6653 31.6234 40.5497C30.6291 40.1797 30.6175 40.5497 22.9747 48.2272C16.7194 44.0647 16.6962 43.9375 16.1875 43.9375C15.6788 43.9375 15.5631 44.1225 9.25 48.6319V34.6875C9.25 34.3808 9.12818 34.0867 8.91134 33.8699C8.6945 33.6531 8.40041 33.5312 8.09375 33.5312C7.78709 33.5312 7.493 33.6531 7.27616 33.8699C7.05932 34.0867 6.9375 34.3808 6.9375 34.6875V61.2812C6.9375 61.5879 7.05932 61.882 7.27616 62.0988C7.493 62.3157 7.78709 62.4375 8.09375 62.4375H52.0312C52.3379 62.4375 52.632 62.3157 52.8488 62.0988C53.0657 61.882 53.1875 61.5879 53.1875 61.2812C53.1875 60.9746 53.0657 60.6805 52.8488 60.4637C52.632 60.2468 52.3379 60.125 52.0312 60.125ZM45.0938 60.125H39.3125V47.8803L45.0938 42.0991V60.125ZM32.375 44.0994L37 47.9497V60.125H32.375V44.0994ZM9.25 51.4647L15.0312 47.3369V60.125H9.25V51.4647ZM17.3438 60.125V47.2559L21.9688 50.3431V60.125H17.3438ZM24.2812 50.1928L30.0625 44.4116V60.125H24.2812V50.1928Z" fill="#68B8A5"/>
<path d="M28.9062 28.9062H12.7188V31.2188H28.9062V28.9062Z" fill="#68B8A5"/>
<path d="M67.0625 42.7812H55.5V45.0938H67.0625V42.7812Z" fill="#68B8A5"/>
<path d="M67.0625 47.4062H55.5V49.7188H67.0625V47.4062Z" fill="#68B8A5"/>
<path d="M67.0625 52.0312H60.125V54.3438H67.0625V52.0312Z" fill="#68B8A5"/>
<path d="M18.5 33.5312H12.7188V35.8438H18.5V33.5312Z" fill="#68B8A5"/>
</g>
</g>
<defs>
<clipPath id="clip0_639_8696">
<rect width="74" height="74" fill="white"/>
</clipPath>
<clipPath id="clip1_639_8696">
<rect width="74" height="74" fill="white"/>
</clipPath>
</defs>
</svg>
