<svg width="66" height="74" viewBox="0 0 66 74" fill="none" xmlns="http://www.w3.org/2000/svg">
<g clip-path="url(#clip0_2948_289)">
<path d="M37.6106 3.45789H33V12.6791H37.6106V3.45789Z" fill="#338F7E"/>
<path d="M39.9161 4.61059H30.6949C29.427 4.61059 28.3896 3.57321 28.3896 2.3053C28.3896 1.37165 29.1158 0 30.6949 0H39.9161C41.184 0 42.2214 1.03738 42.2214 2.3053C42.2214 3.23894 41.4953 4.61059 39.9161 4.61059Z" fill="#1FD9CA"/>
<path d="M58.2531 15.3583L55.6694 12.7747L50.2983 18.1458L52.882 20.7295L58.2531 15.3583Z" fill="#338F7E"/>
<path d="M59.419 18.1427L52.895 11.6187C51.9959 10.7196 51.9959 9.25577 52.895 8.3567C53.552 7.6997 55.0389 7.23864 56.157 8.3567L62.681 14.8807C63.5801 15.7798 63.5801 17.2436 62.681 18.1427C62.024 18.7997 60.5371 19.2608 59.419 18.1427Z" fill="#1FD9CA"/>
<path d="M65.2741 40.3426C65.2741 60.7445 45.3448 75.0489 26.1878 68.8937C13.9467 64.9978 5.33643 53.5866 5.33643 40.3426C5.33643 23.7906 18.7532 10.3738 35.3053 10.3738C51.8573 10.3738 65.2741 23.7906 65.2741 40.3426Z" fill="#1FD9CA"/>
<path d="M61.8162 40.3427C61.8162 58.2318 44.4689 70.8533 27.6518 65.724C16.448 62.3583 8.79443 51.9729 8.79443 40.3427C8.79443 25.7041 20.6667 13.8318 35.3053 13.8318C49.944 13.8318 61.8162 25.7041 61.8162 40.3427Z" fill="white"/>
<path d="M35.3055 59.9377C46.1275 59.9377 54.9005 51.1647 54.9005 40.3427C54.9005 29.5207 46.1275 20.7477 35.3055 20.7477C24.4834 20.7477 15.7104 29.5207 15.7104 40.3427C15.7104 51.1647 24.4834 59.9377 35.3055 59.9377Z" fill="#D8F8F2"/>
<path d="M56.0529 40.3427C56.0529 54.6701 41.7716 64.7212 28.3318 59.8801C19.9174 56.8717 13.8199 48.515 14.6498 38.3602C14.7882 36.8271 17.0934 37.0577 16.9551 38.5676C16.1368 46.2327 20.4822 53.967 27.8822 57.2175C40.0311 62.5773 53.7477 53.6327 53.7477 40.3427C53.7477 21.2894 27.9514 14.7539 19.0414 31.6748L21.0355 31.1561C22.5455 30.7988 23.0757 33.0119 21.6118 33.3922C16.8053 34.6371 17.0819 34.5795 16.8629 34.5795C16.3442 34.5795 15.8832 34.2337 15.7448 33.715L14.5922 29.2542C14.2118 27.7788 16.448 27.191 16.8283 28.6779L17.2202 30.1879C27.8015 11.4804 56.0529 19.2608 56.0529 40.3427Z" fill="#1FD9CA"/>
<path d="M40.2503 46.9243L34.487 41.1611C34.0029 40.677 34.1528 41.3455 34.1528 27.6636C34.1528 26.1421 36.4581 26.1421 36.4581 27.6636V39.8701L41.887 45.2991C42.9705 46.3826 41.3222 47.9963 40.2618 46.9243H40.2503Z" fill="#1FD9CA"/>
<path d="M27.652 65.724C27.2947 66.8421 26.7991 67.9025 26.1882 68.8938C16.4483 65.7932 8.87539 57.8514 6.29346 47.8925C7.31931 47.3393 8.4028 46.9128 9.55545 46.6016C11.757 55.7421 18.7075 63.0383 27.652 65.724Z" fill="#338F7E"/>
<path d="M27.8824 57.2175C23.364 55.2349 19.8023 51.4773 18.0503 46.8436C22.8453 48.3997 26.5799 52.3187 27.8824 57.2175Z" fill="#338F7E"/>
<path d="M27.6518 65.724C18.7072 63.0383 11.7567 55.7421 9.55518 46.6016C11.5608 46.0829 13.5894 45.9907 15.4222 46.2442C17.301 52.5838 22.1421 57.667 28.3318 59.8801C28.5047 61.3555 28.3549 63.6031 27.6518 65.724Z" fill="#F3F3F3"/>
<path d="M28.332 59.8801C22.1423 57.667 17.3012 52.5838 15.4224 46.2443C16.3214 46.3595 17.209 46.567 18.0504 46.8436C19.8024 51.4773 23.3641 55.2349 27.8825 57.2175C28.113 58.082 28.2629 58.9695 28.332 59.8801Z" fill="#338F7E"/>
<path d="M13.5205 74C20.5866 74 26.3149 68.2718 26.3149 61.2056C26.3149 54.1395 20.5866 48.4113 13.5205 48.4113C6.45432 48.4113 0.726074 54.1395 0.726074 61.2056C0.726074 68.2718 6.45432 74 13.5205 74Z" fill="#F3A31D"/>
<path d="M14.3157 51.0392C9.01352 50.3591 3.29639 54.9121 3.29639 61.2171C3.29639 66.0236 6.67364 70.7725 12.8749 71.4065C13.0017 71.4065 13.5665 71.4987 14.2465 71.4065C19.5718 71.0607 23.7444 66.5769 23.7444 61.2286C23.7444 55.8803 19.5718 51.3965 14.3157 51.0507V51.0392ZM21.0702 59.9376H18.569C18.4076 58.0012 17.8659 56.1224 17.0129 54.4049C19.1222 55.4884 20.6668 57.5286 21.0702 59.9376ZM13.5204 68.8476C12.1257 67.0034 11.2727 64.7903 11.0307 62.485H15.9986C15.768 64.7903 14.9036 66.9918 13.5088 68.8476H13.5204ZM11.0307 59.9376C11.2612 57.6323 12.1257 55.4308 13.5204 53.575C14.9151 55.4193 15.768 57.6323 16.0101 59.9376H11.0422H11.0307ZM10.0048 54.4165C9.15184 56.1339 8.62162 58.0012 8.46025 59.9376H5.959C6.36243 57.5401 7.88393 55.5115 10.0048 54.4165ZM5.959 62.485H8.46025C8.62162 64.4214 9.16337 66.3003 10.0163 68.0177C7.90698 66.9342 6.36243 64.894 5.959 62.485ZM17.0244 68.0062C17.8774 66.2887 18.4076 64.4214 18.569 62.485H21.0702C20.6668 64.8825 19.1453 66.9112 17.0244 68.0062Z" fill="#FDFDFD"/>
</g>
<defs>
<clipPath id="clip0_2948_289">
<rect width="64.5483" height="74" fill="white" transform="translate(0.726074)"/>
</clipPath>
</defs>
</svg>
