<svg width="66" height="75" viewBox="0 0 66 75" fill="none" xmlns="http://www.w3.org/2000/svg">
<g clip-path="url(#clip0_2918_786)">
<path d="M37.6106 3.51794H33V12.7391H37.6106V3.51794Z" fill="#030321"/>
<path d="M39.9159 4.67059H30.6947C29.4268 4.67059 28.3894 3.63321 28.3894 2.36529C28.3894 1.43165 29.1156 0.0599976 30.6947 0.0599976H39.9159C41.1838 0.0599976 42.2212 1.09738 42.2212 2.36529C42.2212 3.29894 41.495 4.67059 39.9159 4.67059Z" fill="#0033AD"/>
<path d="M58.2529 15.4183L55.6692 12.8346L50.2981 18.2057L52.8818 20.7894L58.2529 15.4183Z" fill="#030321"/>
<path d="M59.4187 18.2027L52.8947 11.6787C51.9956 10.7796 51.9956 9.31577 52.8947 8.4167C53.5517 7.75969 55.0386 7.29863 56.1567 8.4167L62.6807 14.9407C63.5797 15.8398 63.5797 17.3036 62.6807 18.2027C62.0237 18.8597 60.5368 19.3208 59.4187 18.2027Z" fill="#0033AD"/>
<path d="M65.2742 40.4027C65.2742 60.8046 45.3449 75.1089 26.1879 68.9538C13.9467 65.0578 5.33646 53.6466 5.33646 40.4027C5.33646 23.8507 18.7533 10.4338 35.3053 10.4338C51.8573 10.4338 65.2742 23.8507 65.2742 40.4027Z" fill="#0033AD"/>
<path d="M61.8162 40.4027C61.8162 58.2918 44.4689 70.9133 27.6517 65.784C16.448 62.4183 8.7944 52.0329 8.7944 40.4027C8.7944 25.7641 20.6667 13.8918 35.3053 13.8918C49.9439 13.8918 61.8162 25.7641 61.8162 40.4027Z" fill="white"/>
<path d="M35.3053 59.9977C46.1273 59.9977 54.9003 51.2247 54.9003 40.4027C54.9003 29.5807 46.1273 20.8077 35.3053 20.8077C24.4833 20.8077 15.7103 29.5807 15.7103 40.4027C15.7103 51.2247 24.4833 59.9977 35.3053 59.9977Z" fill="#CCE7FF"/>
<path d="M56.0529 40.4027C56.0529 54.7301 41.7716 64.7812 28.3318 59.9401C19.9174 56.9317 13.8199 48.575 14.6498 38.4201C14.7882 36.8871 17.0934 37.1176 16.9551 38.6276C16.1368 46.2927 20.4822 54.027 27.8822 57.2774C40.0311 62.6373 53.7477 53.6927 53.7477 40.4027C53.7477 21.3494 27.9514 14.8139 19.0414 31.7348L21.0355 31.2161C22.5455 30.8588 23.0757 33.0718 21.6118 33.4522C16.8053 34.6971 17.0819 34.6394 16.8629 34.6394C16.3442 34.6394 15.8832 34.2936 15.7448 33.775L14.5922 29.3142C14.2118 27.8388 16.448 27.251 16.8283 28.7379L17.2202 30.2479C27.8015 11.5404 56.0529 19.3207 56.0529 40.4027Z" fill="#0033AD"/>
<path d="M40.2502 46.9843L34.4869 41.2211C34.0028 40.7369 34.1526 41.4055 34.1526 27.7235C34.1526 26.2021 36.4579 26.2021 36.4579 27.7235V39.9301L41.8869 45.3591C42.9704 46.4426 41.3221 48.0563 40.2617 46.9843H40.2502Z" fill="#0033AD"/>
<path d="M27.6517 65.784C27.2944 66.9021 26.7988 67.9625 26.1879 68.9538C16.448 65.8532 8.87508 57.9114 6.29315 47.9525C7.31901 47.3993 8.4025 46.9728 9.55515 46.6616C11.7567 55.8021 18.7072 63.0983 27.6517 65.784Z" fill="#030321"/>
<path d="M27.8823 57.2775C23.3639 55.2949 19.8022 51.5373 18.0502 46.9036C22.8452 48.4597 26.5798 52.3787 27.8823 57.2775Z" fill="#90AAF9"/>
<path d="M27.6517 65.784C18.7072 63.0983 11.7567 55.8021 9.55515 46.6616C11.5608 46.1429 13.5894 46.0507 15.4221 46.3042C17.3009 52.6438 22.1421 57.727 28.3318 59.9401C28.5047 61.4155 28.3548 63.6631 27.6517 65.784Z" fill="#F3F3F3"/>
<path d="M28.3318 59.9401C22.1421 57.727 17.3009 52.6438 15.4221 46.3042C16.3212 46.4195 17.2087 46.627 18.0502 46.9036C19.8022 51.5373 23.3639 55.2949 27.8822 57.2774C28.1128 58.1419 28.2626 59.0295 28.3318 59.9401Z" fill="#05153D"/>
<path d="M13.5203 74.06C20.5864 74.06 26.3146 68.3318 26.3146 61.2656C26.3146 54.1995 20.5864 48.4712 13.5203 48.4712C6.45411 48.4712 0.725861 54.1995 0.725861 61.2656C0.725861 68.3318 6.45411 74.06 13.5203 74.06Z" fill="#0033AD"/>
<path d="M14.3156 51.0993C9.0134 50.4192 3.29626 54.9722 3.29626 61.2771C3.29626 66.0837 6.67352 70.8326 12.8748 71.4665C13.0016 71.4665 13.5664 71.5588 14.2464 71.4665C19.5717 71.1208 23.7442 66.6369 23.7442 61.2887C23.7442 55.9404 19.5717 51.4566 14.3156 51.1108V51.0993ZM21.0701 59.9977H18.5689C18.4075 58.0612 17.8657 56.1824 17.0128 54.465C19.1221 55.5485 20.6667 57.5887 21.0701 59.9977ZM13.5203 68.9077C12.1255 67.0634 11.2726 64.8503 11.0305 62.545H15.9984C15.7679 64.8503 14.9034 67.0519 13.5087 68.9077H13.5203ZM11.0305 59.9977C11.2611 57.6924 12.1255 55.4908 13.5203 53.6351C14.915 55.4793 15.7679 57.6924 16.01 59.9977H11.0421H11.0305ZM10.0047 54.4765C9.15172 56.194 8.6215 58.0612 8.46013 59.9977H5.95888C6.36231 57.6002 7.8838 55.5715 10.0047 54.4765ZM5.95888 62.545H8.46013C8.6215 64.4815 9.16324 66.3603 10.0162 68.0778C7.90686 66.9943 6.36231 64.9541 5.95888 62.545ZM17.0243 68.0662C17.8773 66.3488 18.4075 64.4815 18.5689 62.545H21.0701C20.6667 64.9426 19.1452 66.9712 17.0243 68.0662Z" fill="#FDFDFD"/>
</g>
<defs>
<clipPath id="clip0_2918_786">
<rect width="64.5483" height="74" fill="white" transform="translate(0.725861 0.0599976)"/>
</clipPath>
</defs>
</svg>
