<svg width="92" height="74" viewBox="0 0 92 74" fill="none" xmlns="http://www.w3.org/2000/svg">
<g clip-path="url(#clip0_639_8634)">
<path d="M92 41.464C92 45.6382 90.334 49.6413 87.3686 52.5929C84.4032 55.5445 80.3812 57.2026 76.1875 57.2026H18.6875C13.7312 57.2178 8.97194 55.2727 5.45657 51.7952C1.9412 48.3178 -0.0422787 43.5928 -0.0575286 38.6597C-0.0727785 33.7266 1.88145 28.9896 5.37526 25.4907C8.86906 21.9917 13.6162 20.0175 18.5725 20.0023C26.2775 -4.50695 60.26 -7.18251 71.76 15.8817C73.0914 15.5888 74.479 15.6789 75.7609 16.1415C77.0427 16.6041 78.1659 17.4201 78.9994 18.4941C79.8329 19.5682 80.3422 20.8561 80.4679 22.2075C80.5936 23.5589 80.3305 24.9179 79.7094 26.1261C83.2001 26.9199 86.3169 28.8694 88.5496 31.6557C90.7823 34.442 91.9988 37.9001 92 41.464Z" fill="#B6EDE2"/>
<path d="M58.9375 47.7594V57.2026H25.1562L14.375 52.9102L43.125 41.464L58.9375 47.7594Z" fill="#B6EDE2"/>
<path d="M61.8125 54.0549V64.9432C61.8106 65.1981 61.7403 65.448 61.6089 65.6668C61.4775 65.8857 61.2897 66.0656 61.065 66.188L47.3225 73.6566C46.912 73.8698 46.4558 73.9811 45.9928 73.9811C45.5298 73.9811 45.0736 73.8698 44.6631 73.6566L29.5406 66.188C29.3013 66.068 29.1005 65.8838 28.9608 65.6563C28.8211 65.4288 28.7481 65.1669 28.75 64.9003V54.0549L46 61.495L61.8125 54.0549Z" fill="#68B8A5"/>
<path d="M74.75 50.0487L46 61.4949L17.25 50.0487L46 38.6024L74.75 50.0487Z" fill="#338F7E"/>
<path d="M58.9375 71.5105V55.314L45.4681 49.9486C45.1136 49.8082 44.8296 49.5334 44.6786 49.1845C44.5276 48.8357 44.5221 48.4415 44.6631 48.0886C44.8042 47.7357 45.0803 47.453 45.4308 47.3028C45.7813 47.1525 46.1773 47.147 46.5319 47.2874L60.9069 53.0105C61.1744 53.1165 61.4037 53.3 61.5651 53.5373C61.7266 53.7745 61.8128 54.0546 61.8125 54.3411V71.5105C61.8125 71.8899 61.6611 72.2539 61.3915 72.5222C61.1219 72.7905 60.7563 72.9413 60.375 72.9413C59.9938 72.9413 59.6281 72.7905 59.3585 72.5222C59.089 72.2539 58.9375 71.8899 58.9375 71.5105Z" fill="#68B8A5"/>
</g>
<defs>
<clipPath id="clip0_639_8634">
<rect width="92" height="74" fill="white"/>
</clipPath>
</defs>
</svg>
