<svg width="74" height="74" viewBox="0 0 74 74" fill="none" xmlns="http://www.w3.org/2000/svg">
<g clip-path="url(#clip0_2918_1617)">
<path d="M2.3125 39.3125H71.6875C72.3008 39.3125 72.889 39.5561 73.3227 39.9898C73.7564 40.4235 74 41.0117 74 41.625V69.375H0V41.625C0 41.0117 0.243638 40.4235 0.677316 39.9898C1.11099 39.5561 1.69919 39.3125 2.3125 39.3125Z" fill="#338F7E"/>
<path d="M71.6875 74L2.3125 74C1.69919 74 1.11099 73.7564 0.677315 73.3227C0.243637 72.889 0 72.3008 0 71.6875V69.375L74 69.375V71.6875C74 72.3008 73.7564 72.889 73.3227 73.3227C72.889 73.7564 72.3008 74 71.6875 74Z" fill="#1FD9CA"/>
<path d="M6.9375 41.625H4.625C3.98642 41.625 3.46875 42.1427 3.46875 42.7812V45.0938C3.46875 45.7323 3.98642 46.25 4.625 46.25H6.9375C7.57608 46.25 8.09375 45.7323 8.09375 45.0938V42.7812C8.09375 42.1427 7.57608 41.625 6.9375 41.625Z" fill="#F3F3F3"/>
<path d="M11.5625 55.5H4.625C3.98642 55.5 3.46875 56.0177 3.46875 56.6562V58.9688C3.46875 59.6073 3.98642 60.125 4.625 60.125H11.5625C12.2011 60.125 12.7188 59.6073 12.7188 58.9688V56.6562C12.7188 56.0177 12.2011 55.5 11.5625 55.5Z" fill="#F3F3F3"/>
<path d="M6.9375 62.4375H4.625C3.98642 62.4375 3.46875 62.9552 3.46875 63.5938V65.9062C3.46875 66.5448 3.98642 67.0625 4.625 67.0625H6.9375C7.57608 67.0625 8.09375 66.5448 8.09375 65.9062V63.5938C8.09375 62.9552 7.57608 62.4375 6.9375 62.4375Z" fill="#F3F3F3"/>
<path d="M13.875 62.4375H11.5625C10.9239 62.4375 10.4062 62.9552 10.4062 63.5938V65.9062C10.4062 66.5448 10.9239 67.0625 11.5625 67.0625H13.875C14.5136 67.0625 15.0312 66.5448 15.0312 65.9062V63.5938C15.0312 62.9552 14.5136 62.4375 13.875 62.4375Z" fill="#F3F3F3"/>
<path d="M62.4375 62.4375H60.125C59.4864 62.4375 58.9688 62.9552 58.9688 63.5938V65.9062C58.9688 66.5448 59.4864 67.0625 60.125 67.0625H62.4375C63.0761 67.0625 63.5938 66.5448 63.5938 65.9062V63.5938C63.5938 62.9552 63.0761 62.4375 62.4375 62.4375Z" fill="#F3F3F3"/>
<path d="M69.375 62.4375H67.0625C66.4239 62.4375 65.9062 62.9552 65.9062 63.5938V65.9062C65.9062 66.5448 66.4239 67.0625 67.0625 67.0625H69.375C70.0136 67.0625 70.5312 66.5448 70.5312 65.9062V63.5938C70.5312 62.9552 70.0136 62.4375 69.375 62.4375Z" fill="#F3F3F3"/>
<path d="M13.875 41.625H11.5625C10.9239 41.625 10.4062 42.1427 10.4062 42.7812V45.0938C10.4062 45.7323 10.9239 46.25 11.5625 46.25H13.875C14.5136 46.25 15.0312 45.7323 15.0312 45.0938V42.7812C15.0312 42.1427 14.5136 41.625 13.875 41.625Z" fill="#F3F3F3"/>
<path d="M16.1875 48.5625H13.875C13.2364 48.5625 12.7188 49.0802 12.7188 49.7188V52.0312C12.7188 52.6698 13.2364 53.1875 13.875 53.1875H16.1875C16.8261 53.1875 17.3438 52.6698 17.3438 52.0312V49.7188C17.3438 49.0802 16.8261 48.5625 16.1875 48.5625Z" fill="#F3F3F3"/>
<path d="M18.5 55.5H16.1875C15.5489 55.5 15.0312 56.0177 15.0312 56.6562V58.9688C15.0312 59.6073 15.5489 60.125 16.1875 60.125H18.5C19.1386 60.125 19.6562 59.6073 19.6562 58.9688V56.6562C19.6562 56.0177 19.1386 55.5 18.5 55.5Z" fill="#F3F3F3"/>
<path d="M25.4375 55.5H23.125C22.4864 55.5 21.9688 56.0177 21.9688 56.6562V58.9688C21.9688 59.6073 22.4864 60.125 23.125 60.125H25.4375C26.0761 60.125 26.5938 59.6073 26.5938 58.9688V56.6562C26.5938 56.0177 26.0761 55.5 25.4375 55.5Z" fill="#F3F3F3"/>
<path d="M32.375 55.5H30.0625C29.4239 55.5 28.9062 56.0177 28.9062 56.6562V58.9688C28.9062 59.6073 29.4239 60.125 30.0625 60.125H32.375C33.0136 60.125 33.5312 59.6073 33.5312 58.9688V56.6562C33.5312 56.0177 33.0136 55.5 32.375 55.5Z" fill="#F3F3F3"/>
<path d="M39.3125 55.5H37C36.3614 55.5 35.8438 56.0177 35.8438 56.6562V58.9688C35.8438 59.6073 36.3614 60.125 37 60.125H39.3125C39.9511 60.125 40.4688 59.6073 40.4688 58.9688V56.6562C40.4688 56.0177 39.9511 55.5 39.3125 55.5Z" fill="#F3F3F3"/>
<path d="M46.25 55.5H43.9375C43.2989 55.5 42.7812 56.0177 42.7812 56.6562V58.9688C42.7812 59.6073 43.2989 60.125 43.9375 60.125H46.25C46.8886 60.125 47.4062 59.6073 47.4062 58.9688V56.6562C47.4062 56.0177 46.8886 55.5 46.25 55.5Z" fill="#F3F3F3"/>
<path d="M53.1875 55.5H50.875C50.2364 55.5 49.7188 56.0177 49.7188 56.6562V58.9688C49.7188 59.6073 50.2364 60.125 50.875 60.125H53.1875C53.8261 60.125 54.3438 59.6073 54.3438 58.9688V56.6562C54.3438 56.0177 53.8261 55.5 53.1875 55.5Z" fill="#F3F3F3"/>
<path d="M23.125 48.5625H20.8125C20.1739 48.5625 19.6562 49.0802 19.6562 49.7188V52.0312C19.6562 52.6698 20.1739 53.1875 20.8125 53.1875H23.125C23.7636 53.1875 24.2812 52.6698 24.2812 52.0312V49.7188C24.2812 49.0802 23.7636 48.5625 23.125 48.5625Z" fill="#F3F3F3"/>
<path d="M30.0625 48.5625H27.75C27.1114 48.5625 26.5938 49.0802 26.5938 49.7188V52.0312C26.5938 52.6698 27.1114 53.1875 27.75 53.1875H30.0625C30.7011 53.1875 31.2188 52.6698 31.2188 52.0312V49.7188C31.2188 49.0802 30.7011 48.5625 30.0625 48.5625Z" fill="#F3F3F3"/>
<path d="M37 48.5625H34.6875C34.0489 48.5625 33.5312 49.0802 33.5312 49.7188V52.0312C33.5312 52.6698 34.0489 53.1875 34.6875 53.1875H37C37.6386 53.1875 38.1562 52.6698 38.1562 52.0312V49.7188C38.1562 49.0802 37.6386 48.5625 37 48.5625Z" fill="#F3F3F3"/>
<path d="M43.9375 48.5625H41.625C40.9864 48.5625 40.4688 49.0802 40.4688 49.7188V52.0312C40.4688 52.6698 40.9864 53.1875 41.625 53.1875H43.9375C44.5761 53.1875 45.0938 52.6698 45.0938 52.0312V49.7188C45.0938 49.0802 44.5761 48.5625 43.9375 48.5625Z" fill="#F3F3F3"/>
<path d="M50.875 48.5625H48.5625C47.9239 48.5625 47.4062 49.0802 47.4062 49.7188V52.0312C47.4062 52.6698 47.9239 53.1875 48.5625 53.1875H50.875C51.5136 53.1875 52.0312 52.6698 52.0312 52.0312V49.7188C52.0312 49.0802 51.5136 48.5625 50.875 48.5625Z" fill="#F3F3F3"/>
<path d="M20.8125 41.625H18.5C17.8614 41.625 17.3438 42.1427 17.3438 42.7812V45.0938C17.3438 45.7323 17.8614 46.25 18.5 46.25H20.8125C21.4511 46.25 21.9688 45.7323 21.9688 45.0938V42.7812C21.9688 42.1427 21.4511 41.625 20.8125 41.625Z" fill="#F3F3F3"/>
<path d="M27.75 41.625H25.4375C24.7989 41.625 24.2812 42.1427 24.2812 42.7812V45.0938C24.2812 45.7323 24.7989 46.25 25.4375 46.25H27.75C28.3886 46.25 28.9062 45.7323 28.9062 45.0938V42.7812C28.9062 42.1427 28.3886 41.625 27.75 41.625Z" fill="#F3F3F3"/>
<path d="M34.6875 41.625H32.375C31.7364 41.625 31.2188 42.1427 31.2188 42.7812V45.0938C31.2188 45.7323 31.7364 46.25 32.375 46.25H34.6875C35.3261 46.25 35.8438 45.7323 35.8438 45.0938V42.7812C35.8438 42.1427 35.3261 41.625 34.6875 41.625Z" fill="#F3F3F3"/>
<path d="M41.625 41.625H39.3125C38.6739 41.625 38.1562 42.1427 38.1562 42.7812V45.0938C38.1562 45.7323 38.6739 46.25 39.3125 46.25H41.625C42.2636 46.25 42.7812 45.7323 42.7812 45.0938V42.7812C42.7812 42.1427 42.2636 41.625 41.625 41.625Z" fill="#F3F3F3"/>
<path d="M48.5625 41.625H46.25C45.6114 41.625 45.0938 42.1427 45.0938 42.7812V45.0938C45.0938 45.7323 45.6114 46.25 46.25 46.25H48.5625C49.2011 46.25 49.7188 45.7323 49.7188 45.0938V42.7812C49.7188 42.1427 49.2011 41.625 48.5625 41.625Z" fill="#F3F3F3"/>
<path d="M55.5 41.625H53.1875C52.5489 41.625 52.0312 42.1427 52.0312 42.7812V45.0938C52.0312 45.7323 52.5489 46.25 53.1875 46.25H55.5C56.1386 46.25 56.6562 45.7323 56.6562 45.0938V42.7812C56.6562 42.1427 56.1386 41.625 55.5 41.625Z" fill="#F3F3F3"/>
<path d="M57.8125 48.5625H55.5C54.8614 48.5625 54.3438 49.0802 54.3438 49.7188V52.0312C54.3438 52.6698 54.8614 53.1875 55.5 53.1875H57.8125C58.4511 53.1875 58.9688 52.6698 58.9688 52.0312V49.7188C58.9688 49.0802 58.4511 48.5625 57.8125 48.5625Z" fill="#F3F3F3"/>
<path d="M60.125 55.5H57.8125C57.1739 55.5 56.6562 56.0177 56.6562 56.6562V58.9688C56.6562 59.6073 57.1739 60.125 57.8125 60.125H60.125C60.7636 60.125 61.2812 59.6073 61.2812 58.9688V56.6562C61.2812 56.0177 60.7636 55.5 60.125 55.5Z" fill="#F3F3F3"/>
<path d="M62.4375 41.625H60.125C59.4864 41.625 58.9688 42.1427 58.9688 42.7812V45.0938C58.9688 45.7323 59.4864 46.25 60.125 46.25H62.4375C63.0761 46.25 63.5938 45.7323 63.5938 45.0938V42.7812C63.5938 42.1427 63.0761 41.625 62.4375 41.625Z" fill="#F3F3F3"/>
<path d="M69.375 41.625H67.0625C66.4239 41.625 65.9062 42.1427 65.9062 42.7812V45.0938C65.9062 45.7323 66.4239 46.25 67.0625 46.25H69.375C70.0136 46.25 70.5312 45.7323 70.5312 45.0938V42.7812C70.5312 42.1427 70.0136 41.625 69.375 41.625Z" fill="#F3F3F3"/>
<path d="M9.25 48.5625H4.625C3.98642 48.5625 3.46875 49.0802 3.46875 49.7188V52.0312C3.46875 52.6698 3.98642 53.1875 4.625 53.1875H9.25C9.88858 53.1875 10.4062 52.6698 10.4062 52.0312V49.7188C10.4062 49.0802 9.88858 48.5625 9.25 48.5625Z" fill="#F3F3F3"/>
<path d="M69.375 48.5625H62.4375C61.7989 48.5625 61.2812 49.0802 61.2812 49.7188V52.0312C61.2812 52.6698 61.7989 53.1875 62.4375 53.1875H69.375C70.0136 53.1875 70.5312 52.6698 70.5312 52.0312V49.7188C70.5312 49.0802 70.0136 48.5625 69.375 48.5625Z" fill="#F3F3F3"/>
<path d="M69.375 55.5H64.75C64.1114 55.5 63.5938 56.0177 63.5938 56.6562V58.9688C63.5938 59.6073 64.1114 60.125 64.75 60.125H69.375C70.0136 60.125 70.5312 59.6073 70.5312 58.9688V56.6562C70.5312 56.0177 70.0136 55.5 69.375 55.5Z" fill="#F3F3F3"/>
<path d="M55.5 62.4375H18.5C17.8614 62.4375 17.3438 62.9552 17.3438 63.5938V65.9062C17.3438 66.5448 17.8614 67.0625 18.5 67.0625H55.5C56.1386 67.0625 56.6562 66.5448 56.6562 65.9062V63.5938C56.6562 62.9552 56.1386 62.4375 55.5 62.4375Z" fill="#F3F3F3"/>
<path d="M69.375 10.4062V31.2188C69.375 31.8321 69.1314 32.4203 68.6977 32.8539C68.264 33.2876 67.6758 33.5312 67.0625 33.5312C15.5053 33.5312 18.8006 33.2306 17.8178 34.2134L15.0312 37C10.9728 32.9416 12.4066 33.5312 6.9375 33.5312C6.32419 33.5312 5.73599 33.2876 5.30231 32.8539C4.86864 32.4203 4.625 31.8321 4.625 31.2188V10.4062C4.625 9.79294 4.86864 9.20474 5.30231 8.77106C5.73599 8.33739 6.32419 8.09375 6.9375 8.09375H67.0625C67.6758 8.09375 68.264 8.33739 68.6977 8.77106C69.1314 9.20474 69.375 9.79294 69.375 10.4062Z" fill="#E2FFFF"/>
<path d="M30.0625 11.5625H13.875V13.875H30.0625V11.5625Z" fill="#AEECEC"/>
<path d="M30.0625 21.9688H13.875V24.2812H30.0625V21.9688Z" fill="#AEECEC"/>
<path d="M43.9375 11.5625H32.375V13.875H43.9375V11.5625Z" fill="#AEECEC"/>
<path d="M25.4375 16.1875H13.875V18.5H25.4375V16.1875Z" fill="#AEECEC"/>
<path d="M43.9375 27.75H27.75V30.0625H43.9375V27.75Z" fill="#AEECEC"/>
<path d="M25.4375 27.75H13.875V30.0625H25.4375V27.75Z" fill="#AEECEC"/>
<path d="M65.9062 11.5625H46.25V13.875H65.9062V11.5625Z" fill="#AEECEC"/>
<path d="M60.125 21.9688H32.375V24.2812H60.125V21.9688Z" fill="#AEECEC"/>
<path d="M10.4062 11.5625H8.09375V30.0625H10.4062V11.5625Z" fill="#AEECEC"/>
<path d="M46.25 11.5625V13.875H48.5625C48.5625 15.1016 48.0752 16.278 47.2079 17.1454C46.3405 18.0127 45.1641 18.5 43.9375 18.5C23.4256 18.5 25.4375 19.0203 25.4375 16.1875H23.7494C23.3418 15.4849 23.1264 14.6873 23.125 13.875H30.0625V11.5625H23.125V8.09375H48.5625V11.5625H46.25Z" fill="#AEECEC"/>
<path d="M23.7493 16.1875H25.4374V17.8756C24.7343 17.4734 24.1515 16.8906 23.7493 16.1875Z" fill="#93E6E5"/>
<path d="M30.0625 11.5625H23.125V13.875H30.0625V11.5625Z" fill="#93E6E5"/>
<path d="M48.5625 11.5625H46.25V13.875H48.5625V11.5625Z" fill="#93E6E5"/>
<path d="M43.9375 0H27.75C26.4728 0 25.4375 1.03534 25.4375 2.3125V13.875C25.4375 15.1522 26.4728 16.1875 27.75 16.1875H43.9375C45.2147 16.1875 46.25 15.1522 46.25 13.875V2.3125C46.25 1.03534 45.2147 0 43.9375 0Z" fill="#1FD9CA"/>
<path d="M31.2189 11.5625C30.5945 11.5625 30.5598 11.389 28.0854 8.91466C27.977 8.80717 27.891 8.67929 27.8323 8.53839C27.7736 8.39749 27.7434 8.24636 27.7434 8.09372C27.7434 7.94108 27.7736 7.78994 27.8323 7.64904C27.891 7.50814 27.977 7.38026 28.0854 7.27277L30.3979 4.96027C30.6156 4.74255 30.911 4.62024 31.2189 4.62024C31.5268 4.62024 31.8221 4.74255 32.0398 4.96027C32.2575 5.178 32.3798 5.47331 32.3798 5.78122C32.3798 6.08913 32.2575 6.38444 32.0398 6.60216L30.5367 8.09372L32.0398 9.58527C32.2029 9.747 32.3141 9.95362 32.3593 10.1788C32.4044 10.404 32.3815 10.6375 32.2934 10.8496C32.2054 11.0617 32.0561 11.2428 31.8648 11.3698C31.6734 11.4967 31.4485 11.5638 31.2189 11.5625Z" fill="#F3F3F3"/>
<path d="M40.4686 11.5625C40.239 11.5638 40.0141 11.4967 39.8227 11.3698C39.6314 11.2428 39.4821 11.0617 39.3941 10.8496C39.306 10.6375 39.2831 10.404 39.3283 10.1788C39.3734 9.95362 39.4846 9.747 39.6477 9.58527L41.1508 8.09372L39.6477 6.60216C39.43 6.38444 39.3077 6.08913 39.3077 5.78122C39.3077 5.47331 39.43 5.178 39.6477 4.96027C39.8654 4.74255 40.1607 4.62024 40.4686 4.62024C40.7766 4.62024 41.0719 4.74255 41.2896 4.96027L43.6021 7.27277C43.7105 7.38026 43.7965 7.50814 43.8552 7.64904C43.9139 7.78994 43.9441 7.94108 43.9441 8.09372C43.9441 8.24636 43.9139 8.39749 43.8552 8.53839C43.7965 8.67929 43.7105 8.80717 43.6021 8.91466C41.0815 11.4353 41.093 11.5625 40.4686 11.5625Z" fill="#F3F3F3"/>
<path d="M33.5313 12.4412L35.8438 3.19124C35.9267 2.90408 36.1177 2.66022 36.3766 2.5108C36.6354 2.36138 36.9421 2.31801 37.2323 2.3898C37.5224 2.4616 37.7735 2.64296 37.9328 2.89586C38.0922 3.14875 38.1474 3.45353 38.0869 3.74625L35.7744 12.9963C35.6914 13.2834 35.5005 13.5273 35.2416 13.6767C34.9827 13.8261 34.676 13.8695 34.3859 13.7977C34.0957 13.7259 33.8446 13.5445 33.6853 13.2916C33.526 13.0387 33.4708 12.734 33.5313 12.4412Z" fill="#F3F3F3"/>
</g>
<defs>
<clipPath id="clip0_2918_1617">
<rect width="74" height="74" fill="white"/>
</clipPath>
</defs>
</svg>
