<svg width="75" height="74" viewBox="0 0 75 74" fill="none" xmlns="http://www.w3.org/2000/svg">
<g clip-path="url(#clip0_652_2672)">
<path d="M2.8125 39.3125H72.1875C72.8008 39.3125 73.389 39.5561 73.8227 39.9898C74.2564 40.4235 74.5 41.0117 74.5 41.625V69.375H0.5V41.625C0.5 41.0117 0.743638 40.4235 1.17732 39.9898C1.61099 39.5561 2.19919 39.3125 2.8125 39.3125Z" fill="#338F7E"/>
<path d="M72.1875 74L2.8125 74C2.19919 74 1.61099 73.7564 1.17731 73.3227C0.743637 72.889 0.5 72.3008 0.5 71.6875V69.375L74.5 69.375V71.6875C74.5 72.3008 74.2564 72.889 73.8227 73.3227C73.389 73.7564 72.8008 74 72.1875 74Z" fill="#68B8A5"/>
<path d="M7.4375 41.625H5.125C4.48642 41.625 3.96875 42.1427 3.96875 42.7812V45.0938C3.96875 45.7323 4.48642 46.25 5.125 46.25H7.4375C8.07608 46.25 8.59375 45.7323 8.59375 45.0938V42.7812C8.59375 42.1427 8.07608 41.625 7.4375 41.625Z" fill="#F3F3F3"/>
<path d="M12.0625 55.5H5.125C4.48642 55.5 3.96875 56.0177 3.96875 56.6562V58.9688C3.96875 59.6073 4.48642 60.125 5.125 60.125H12.0625C12.7011 60.125 13.2188 59.6073 13.2188 58.9688V56.6562C13.2188 56.0177 12.7011 55.5 12.0625 55.5Z" fill="#F3F3F3"/>
<path d="M7.4375 62.4375H5.125C4.48642 62.4375 3.96875 62.9552 3.96875 63.5938V65.9062C3.96875 66.5448 4.48642 67.0625 5.125 67.0625H7.4375C8.07608 67.0625 8.59375 66.5448 8.59375 65.9062V63.5938C8.59375 62.9552 8.07608 62.4375 7.4375 62.4375Z" fill="#F3F3F3"/>
<path d="M14.375 62.4375H12.0625C11.4239 62.4375 10.9062 62.9552 10.9062 63.5938V65.9062C10.9062 66.5448 11.4239 67.0625 12.0625 67.0625H14.375C15.0136 67.0625 15.5312 66.5448 15.5312 65.9062V63.5938C15.5312 62.9552 15.0136 62.4375 14.375 62.4375Z" fill="#F3F3F3"/>
<path d="M62.9375 62.4375H60.625C59.9864 62.4375 59.4688 62.9552 59.4688 63.5938V65.9062C59.4688 66.5448 59.9864 67.0625 60.625 67.0625H62.9375C63.5761 67.0625 64.0938 66.5448 64.0938 65.9062V63.5938C64.0938 62.9552 63.5761 62.4375 62.9375 62.4375Z" fill="#F3F3F3"/>
<path d="M69.875 62.4375H67.5625C66.9239 62.4375 66.4062 62.9552 66.4062 63.5938V65.9062C66.4062 66.5448 66.9239 67.0625 67.5625 67.0625H69.875C70.5136 67.0625 71.0312 66.5448 71.0312 65.9062V63.5938C71.0312 62.9552 70.5136 62.4375 69.875 62.4375Z" fill="#F3F3F3"/>
<path d="M14.375 41.625H12.0625C11.4239 41.625 10.9062 42.1427 10.9062 42.7812V45.0938C10.9062 45.7323 11.4239 46.25 12.0625 46.25H14.375C15.0136 46.25 15.5312 45.7323 15.5312 45.0938V42.7812C15.5312 42.1427 15.0136 41.625 14.375 41.625Z" fill="#F3F3F3"/>
<path d="M16.6875 48.5625H14.375C13.7364 48.5625 13.2188 49.0802 13.2188 49.7188V52.0312C13.2188 52.6698 13.7364 53.1875 14.375 53.1875H16.6875C17.3261 53.1875 17.8438 52.6698 17.8438 52.0312V49.7188C17.8438 49.0802 17.3261 48.5625 16.6875 48.5625Z" fill="#F3F3F3"/>
<path d="M19 55.5H16.6875C16.0489 55.5 15.5312 56.0177 15.5312 56.6562V58.9688C15.5312 59.6073 16.0489 60.125 16.6875 60.125H19C19.6386 60.125 20.1562 59.6073 20.1562 58.9688V56.6562C20.1562 56.0177 19.6386 55.5 19 55.5Z" fill="#F3F3F3"/>
<path d="M25.9375 55.5H23.625C22.9864 55.5 22.4688 56.0177 22.4688 56.6562V58.9688C22.4688 59.6073 22.9864 60.125 23.625 60.125H25.9375C26.5761 60.125 27.0938 59.6073 27.0938 58.9688V56.6562C27.0938 56.0177 26.5761 55.5 25.9375 55.5Z" fill="#F3F3F3"/>
<path d="M32.875 55.5H30.5625C29.9239 55.5 29.4062 56.0177 29.4062 56.6562V58.9688C29.4062 59.6073 29.9239 60.125 30.5625 60.125H32.875C33.5136 60.125 34.0312 59.6073 34.0312 58.9688V56.6562C34.0312 56.0177 33.5136 55.5 32.875 55.5Z" fill="#F3F3F3"/>
<path d="M39.8125 55.5H37.5C36.8614 55.5 36.3438 56.0177 36.3438 56.6562V58.9688C36.3438 59.6073 36.8614 60.125 37.5 60.125H39.8125C40.4511 60.125 40.9688 59.6073 40.9688 58.9688V56.6562C40.9688 56.0177 40.4511 55.5 39.8125 55.5Z" fill="#F3F3F3"/>
<path d="M46.75 55.5H44.4375C43.7989 55.5 43.2812 56.0177 43.2812 56.6562V58.9688C43.2812 59.6073 43.7989 60.125 44.4375 60.125H46.75C47.3886 60.125 47.9062 59.6073 47.9062 58.9688V56.6562C47.9062 56.0177 47.3886 55.5 46.75 55.5Z" fill="#F3F3F3"/>
<path d="M53.6875 55.5H51.375C50.7364 55.5 50.2188 56.0177 50.2188 56.6562V58.9688C50.2188 59.6073 50.7364 60.125 51.375 60.125H53.6875C54.3261 60.125 54.8438 59.6073 54.8438 58.9688V56.6562C54.8438 56.0177 54.3261 55.5 53.6875 55.5Z" fill="#F3F3F3"/>
<path d="M23.625 48.5625H21.3125C20.6739 48.5625 20.1562 49.0802 20.1562 49.7188V52.0312C20.1562 52.6698 20.6739 53.1875 21.3125 53.1875H23.625C24.2636 53.1875 24.7812 52.6698 24.7812 52.0312V49.7188C24.7812 49.0802 24.2636 48.5625 23.625 48.5625Z" fill="#F3F3F3"/>
<path d="M30.5625 48.5625H28.25C27.6114 48.5625 27.0938 49.0802 27.0938 49.7188V52.0312C27.0938 52.6698 27.6114 53.1875 28.25 53.1875H30.5625C31.2011 53.1875 31.7188 52.6698 31.7188 52.0312V49.7188C31.7188 49.0802 31.2011 48.5625 30.5625 48.5625Z" fill="#F3F3F3"/>
<path d="M37.5 48.5625H35.1875C34.5489 48.5625 34.0312 49.0802 34.0312 49.7188V52.0312C34.0312 52.6698 34.5489 53.1875 35.1875 53.1875H37.5C38.1386 53.1875 38.6562 52.6698 38.6562 52.0312V49.7188C38.6562 49.0802 38.1386 48.5625 37.5 48.5625Z" fill="#F3F3F3"/>
<path d="M44.4375 48.5625H42.125C41.4864 48.5625 40.9688 49.0802 40.9688 49.7188V52.0312C40.9688 52.6698 41.4864 53.1875 42.125 53.1875H44.4375C45.0761 53.1875 45.5938 52.6698 45.5938 52.0312V49.7188C45.5938 49.0802 45.0761 48.5625 44.4375 48.5625Z" fill="#F3F3F3"/>
<path d="M51.375 48.5625H49.0625C48.4239 48.5625 47.9062 49.0802 47.9062 49.7188V52.0312C47.9062 52.6698 48.4239 53.1875 49.0625 53.1875H51.375C52.0136 53.1875 52.5312 52.6698 52.5312 52.0312V49.7188C52.5312 49.0802 52.0136 48.5625 51.375 48.5625Z" fill="#F3F3F3"/>
<path d="M21.3125 41.625H19C18.3614 41.625 17.8438 42.1427 17.8438 42.7812V45.0938C17.8438 45.7323 18.3614 46.25 19 46.25H21.3125C21.9511 46.25 22.4688 45.7323 22.4688 45.0938V42.7812C22.4688 42.1427 21.9511 41.625 21.3125 41.625Z" fill="#F3F3F3"/>
<path d="M28.25 41.625H25.9375C25.2989 41.625 24.7812 42.1427 24.7812 42.7812V45.0938C24.7812 45.7323 25.2989 46.25 25.9375 46.25H28.25C28.8886 46.25 29.4062 45.7323 29.4062 45.0938V42.7812C29.4062 42.1427 28.8886 41.625 28.25 41.625Z" fill="#F3F3F3"/>
<path d="M35.1875 41.625H32.875C32.2364 41.625 31.7188 42.1427 31.7188 42.7812V45.0938C31.7188 45.7323 32.2364 46.25 32.875 46.25H35.1875C35.8261 46.25 36.3438 45.7323 36.3438 45.0938V42.7812C36.3438 42.1427 35.8261 41.625 35.1875 41.625Z" fill="#F3F3F3"/>
<path d="M42.125 41.625H39.8125C39.1739 41.625 38.6562 42.1427 38.6562 42.7812V45.0938C38.6562 45.7323 39.1739 46.25 39.8125 46.25H42.125C42.7636 46.25 43.2812 45.7323 43.2812 45.0938V42.7812C43.2812 42.1427 42.7636 41.625 42.125 41.625Z" fill="#F3F3F3"/>
<path d="M49.0625 41.625H46.75C46.1114 41.625 45.5938 42.1427 45.5938 42.7812V45.0938C45.5938 45.7323 46.1114 46.25 46.75 46.25H49.0625C49.7011 46.25 50.2188 45.7323 50.2188 45.0938V42.7812C50.2188 42.1427 49.7011 41.625 49.0625 41.625Z" fill="#F3F3F3"/>
<path d="M56 41.625H53.6875C53.0489 41.625 52.5312 42.1427 52.5312 42.7812V45.0938C52.5312 45.7323 53.0489 46.25 53.6875 46.25H56C56.6386 46.25 57.1562 45.7323 57.1562 45.0938V42.7812C57.1562 42.1427 56.6386 41.625 56 41.625Z" fill="#F3F3F3"/>
<path d="M58.3125 48.5625H56C55.3614 48.5625 54.8438 49.0802 54.8438 49.7188V52.0312C54.8438 52.6698 55.3614 53.1875 56 53.1875H58.3125C58.9511 53.1875 59.4688 52.6698 59.4688 52.0312V49.7188C59.4688 49.0802 58.9511 48.5625 58.3125 48.5625Z" fill="#F3F3F3"/>
<path d="M60.625 55.5H58.3125C57.6739 55.5 57.1562 56.0177 57.1562 56.6562V58.9688C57.1562 59.6073 57.6739 60.125 58.3125 60.125H60.625C61.2636 60.125 61.7812 59.6073 61.7812 58.9688V56.6562C61.7812 56.0177 61.2636 55.5 60.625 55.5Z" fill="#F3F3F3"/>
<path d="M62.9375 41.625H60.625C59.9864 41.625 59.4688 42.1427 59.4688 42.7812V45.0938C59.4688 45.7323 59.9864 46.25 60.625 46.25H62.9375C63.5761 46.25 64.0938 45.7323 64.0938 45.0938V42.7812C64.0938 42.1427 63.5761 41.625 62.9375 41.625Z" fill="#F3F3F3"/>
<path d="M69.875 41.625H67.5625C66.9239 41.625 66.4062 42.1427 66.4062 42.7812V45.0938C66.4062 45.7323 66.9239 46.25 67.5625 46.25H69.875C70.5136 46.25 71.0312 45.7323 71.0312 45.0938V42.7812C71.0312 42.1427 70.5136 41.625 69.875 41.625Z" fill="#F3F3F3"/>
<path d="M9.75 48.5625H5.125C4.48642 48.5625 3.96875 49.0802 3.96875 49.7188V52.0312C3.96875 52.6698 4.48642 53.1875 5.125 53.1875H9.75C10.3886 53.1875 10.9062 52.6698 10.9062 52.0312V49.7188C10.9062 49.0802 10.3886 48.5625 9.75 48.5625Z" fill="#F3F3F3"/>
<path d="M69.875 48.5625H62.9375C62.2989 48.5625 61.7812 49.0802 61.7812 49.7188V52.0312C61.7812 52.6698 62.2989 53.1875 62.9375 53.1875H69.875C70.5136 53.1875 71.0312 52.6698 71.0312 52.0312V49.7188C71.0312 49.0802 70.5136 48.5625 69.875 48.5625Z" fill="#F3F3F3"/>
<path d="M69.875 55.5H65.25C64.6114 55.5 64.0938 56.0177 64.0938 56.6562V58.9688C64.0938 59.6073 64.6114 60.125 65.25 60.125H69.875C70.5136 60.125 71.0312 59.6073 71.0312 58.9688V56.6562C71.0312 56.0177 70.5136 55.5 69.875 55.5Z" fill="#F3F3F3"/>
<path d="M56 62.4375H19C18.3614 62.4375 17.8438 62.9552 17.8438 63.5938V65.9062C17.8438 66.5448 18.3614 67.0625 19 67.0625H56C56.6386 67.0625 57.1562 66.5448 57.1562 65.9062V63.5938C57.1562 62.9552 56.6386 62.4375 56 62.4375Z" fill="#F3F3F3"/>
<path d="M69.875 10.4062V31.2188C69.875 31.8321 69.6314 32.4203 69.1977 32.8539C68.764 33.2876 68.1758 33.5312 67.5625 33.5312C16.0053 33.5312 19.3006 33.2306 18.3178 34.2134L15.5312 37C11.4728 32.9416 12.9066 33.5312 7.4375 33.5312C6.82419 33.5312 6.23599 33.2876 5.80231 32.8539C5.36864 32.4203 5.125 31.8321 5.125 31.2188V10.4062C5.125 9.79294 5.36864 9.20474 5.80231 8.77106C6.23599 8.33739 6.82419 8.09375 7.4375 8.09375H67.5625C68.1758 8.09375 68.764 8.33739 69.1977 8.77106C69.6314 9.20474 69.875 9.79294 69.875 10.4062Z" fill="#E2FFFF"/>
<path d="M30.5625 11.5625H14.375V13.875H30.5625V11.5625Z" fill="#AEECEC"/>
<path d="M30.5625 21.9688H14.375V24.2812H30.5625V21.9688Z" fill="#AEECEC"/>
<path d="M44.4375 11.5625H32.875V13.875H44.4375V11.5625Z" fill="#AEECEC"/>
<path d="M25.9375 16.1875H14.375V18.5H25.9375V16.1875Z" fill="#AEECEC"/>
<path d="M44.4375 27.75H28.25V30.0625H44.4375V27.75Z" fill="#AEECEC"/>
<path d="M25.9375 27.75H14.375V30.0625H25.9375V27.75Z" fill="#AEECEC"/>
<path d="M66.4062 11.5625H46.75V13.875H66.4062V11.5625Z" fill="#AEECEC"/>
<path d="M60.625 21.9688H32.875V24.2812H60.625V21.9688Z" fill="#AEECEC"/>
<path d="M10.9062 11.5625H8.59375V30.0625H10.9062V11.5625Z" fill="#AEECEC"/>
<path d="M46.75 11.5625V13.875H49.0625C49.0625 15.1016 48.5752 16.278 47.7079 17.1454C46.8405 18.0127 45.6641 18.5 44.4375 18.5C23.9256 18.5 25.9375 19.0203 25.9375 16.1875H24.2494C23.8418 15.4849 23.6264 14.6873 23.625 13.875H30.5625V11.5625H23.625V8.09375H49.0625V11.5625H46.75Z" fill="#AEECEC"/>
<path d="M24.2494 16.1875H25.9375V17.8756C25.2344 17.4734 24.6516 16.8906 24.2494 16.1875Z" fill="#93E6E5"/>
<path d="M30.5625 11.5625H23.625V13.875H30.5625V11.5625Z" fill="#93E6E5"/>
<path d="M49.0625 11.5625H46.75V13.875H49.0625V11.5625Z" fill="#93E6E5"/>
<path d="M44.4375 0H28.25C26.9728 0 25.9375 1.03534 25.9375 2.3125V13.875C25.9375 15.1522 26.9728 16.1875 28.25 16.1875H44.4375C45.7147 16.1875 46.75 15.1522 46.75 13.875V2.3125C46.75 1.03534 45.7147 0 44.4375 0Z" fill="#68B8A5"/>
<path d="M31.7187 11.5625C31.0944 11.5625 31.0597 11.3891 28.5853 8.9147C28.4769 8.80721 28.3909 8.67932 28.3322 8.53842C28.2735 8.39752 28.2433 8.24639 28.2433 8.09375C28.2433 7.94111 28.2735 7.78998 28.3322 7.64908C28.3909 7.50818 28.4769 7.38029 28.5853 7.2728L30.8978 4.9603C31.1155 4.74258 31.4108 4.62027 31.7187 4.62027C32.0267 4.62027 32.322 4.74258 32.5397 4.9603C32.7574 5.17803 32.8797 5.47334 32.8797 5.78125C32.8797 6.08916 32.7574 6.38447 32.5397 6.6022L31.0366 8.09375L32.5397 9.5853C32.7028 9.74703 32.814 9.95366 32.8591 10.1788C32.9043 10.404 32.8814 10.6375 32.7933 10.8497C32.7053 11.0618 32.556 11.2428 32.3646 11.3698C32.1732 11.4967 31.9484 11.5638 31.7187 11.5625Z" fill="#F3F3F3"/>
<path d="M40.9688 11.5625C40.7391 11.5638 40.5143 11.4967 40.3229 11.3698C40.1315 11.2428 39.9822 11.0618 39.8942 10.8497C39.8061 10.6375 39.7832 10.404 39.8284 10.1788C39.8735 9.95366 39.9848 9.74703 40.1478 9.5853L41.6509 8.09375L40.1478 6.6022C39.9301 6.38447 39.8078 6.08916 39.8078 5.78125C39.8078 5.47334 39.9301 5.17803 40.1478 4.9603C40.3655 4.74258 40.6609 4.62027 40.9688 4.62027C41.2767 4.62027 41.572 4.74258 41.7897 4.9603L44.1022 7.2728C44.2106 7.38029 44.2966 7.50818 44.3553 7.64908C44.414 7.78998 44.4442 7.94111 44.4442 8.09375C44.4442 8.24639 44.414 8.39752 44.3553 8.53842C44.2966 8.67932 44.2106 8.80721 44.1022 8.9147C41.5816 11.4353 41.5931 11.5625 40.9688 11.5625Z" fill="#F3F3F3"/>
<path d="M34.0313 12.4413L36.3438 3.19125C36.4267 2.9041 36.6177 2.66024 36.8766 2.51082C37.1354 2.3614 37.4421 2.31803 37.7323 2.38982C38.0224 2.46161 38.2735 2.64298 38.4328 2.89587C38.5922 3.14877 38.6474 3.45355 38.5869 3.74626L36.2744 12.9963C36.1914 13.2834 36.0005 13.5273 35.7416 13.6767C35.4827 13.8261 35.176 13.8695 34.8859 13.7977C34.5957 13.7259 34.3446 13.5445 34.1853 13.2916C34.026 13.0387 33.9708 12.734 34.0313 12.4413Z" fill="#F3F3F3"/>
</g>
<defs>
<clipPath id="clip0_652_2672">
<rect width="74" height="74" fill="white" transform="translate(0.5)"/>
</clipPath>
</defs>
</svg>
