<svg width="117" height="90" viewBox="0 0 117 90" fill="none" xmlns="http://www.w3.org/2000/svg">
<g clip-path="url(#clip0_2918_4753)">
<path d="M9.9001 79.2H107.1C108.09 79.2 108.9 80.01 108.9 81V84.6C108.9 87.588 106.488 90 103.5 90H13.5001C10.5121 90 8.1001 87.588 8.1001 84.6V81C8.1001 80.01 8.9101 79.2 9.9001 79.2Z" fill="#00AAA8"/>
<path d="M103.5 23.4V79.2H13.5V23.4C13.5 20.412 15.912 18 18.9 18H98.1C101.088 18 103.5 20.412 103.5 23.4Z" fill="#50D9D7"/>
<path d="M99.9001 23.4V75.6H17.1001V23.4C17.1001 22.41 17.9101 21.6 18.9001 21.6H98.1001C99.0901 21.6 99.9001 22.41 99.9001 23.4Z" fill="white"/>
<path d="M44.1 59.4H22.5V63H44.1V59.4Z" fill="#D9D9D9"/>
<path d="M51.3 66.6H22.5V70.2H51.3V66.6Z" fill="#D9D9D9"/>
<path d="M33.3 18C33.3 19.242 33.174 20.448 32.94 21.6H18.9C17.91 21.6 17.1 22.41 17.1 23.4V35.91C15.786 36.036 14.814 36.036 13.5 35.91V23.4C13.5 20.412 15.912 18 18.9 18H33.3Z" fill="#00BEBD"/>
<path d="M32.9401 21.6C31.3741 29.25 24.9841 35.118 17.1001 35.91V23.4C17.1001 22.41 17.9101 21.6 18.9001 21.6H32.9401Z" fill="#F3F3F3"/>
<path d="M15.2999 32.4C23.2528 32.4 29.6999 25.9529 29.6999 18C29.6999 10.0471 23.2528 3.59998 15.2999 3.59998C7.347 3.59998 0.899902 10.0471 0.899902 18C0.899902 25.9529 7.347 32.4 15.2999 32.4Z" fill="#FFAC00"/>
<path d="M80.0999 0V54H36.8999V0L40.4999 3.6L44.0999 0L47.6999 3.6L51.2999 0L54.8999 3.6L58.4999 0L62.0999 3.6L65.6999 0L69.2999 3.6L72.8999 0L76.4999 3.6L80.0999 0Z" fill="#D9D9D9"/>
<path d="M103.5 41.49V77.31C100.026 77.634 96.8041 77.04 93.8701 75.6H99.9001V41.49C101.214 41.364 102.186 41.364 103.5 41.49Z" fill="#00BEBD"/>
<path d="M99.8997 41.49V75.6H93.8697C77.4897 67.662 81.9897 43.272 99.8997 41.49Z" fill="#F3F3F3"/>
<path d="M101.7 73.8C109.653 73.8 116.1 67.3529 116.1 59.4C116.1 51.4471 109.653 45 101.7 45C93.7469 45 87.2998 51.4471 87.2998 59.4C87.2998 67.3529 93.7469 73.8 101.7 73.8Z" fill="#FFAC00"/>
<path d="M96.3 66.6C94.716 66.6 93.888 64.674 95.022 63.522L105.822 52.722C107.514 51.03 110.052 53.586 108.36 55.26C96.48 67.14 97.308 66.582 96.282 66.582L96.3 66.6Z" fill="#FDFDFD"/>
<path d="M107.1 68.4C105.12 68.4 103.5 66.78 103.5 64.8C103.5 62.82 105.12 61.2 107.1 61.2C109.08 61.2 110.7 62.82 110.7 64.8C110.7 66.78 109.08 68.4 107.1 68.4Z" fill="#FDFDFD"/>
<path d="M96.2997 57.6C94.3197 57.6 92.6997 55.98 92.6997 54C92.6997 52.02 94.3197 50.4 96.2997 50.4C98.2797 50.4 99.8997 52.02 99.8997 54C99.8997 55.98 98.2797 57.6 96.2997 57.6Z" fill="#FDFDFD"/>
<path d="M45.9001 16.2C43.5241 16.2 43.5241 12.6 45.9001 12.6H49.5001C51.8761 12.6 51.8761 9.00001 49.5001 9.00001H47.7001C47.7001 6.71401 44.1001 6.37201 44.1001 9.32401C38.3761 11.376 39.9061 19.8 45.9001 19.8C48.2761 19.8 48.2761 23.4 45.9001 23.4H42.3001C39.9241 23.4 39.9241 27 42.3001 27H44.1001C44.1001 29.232 47.7001 29.682 47.7001 26.676C53.4241 24.624 51.8941 16.2 45.9001 16.2Z" fill="#F3F3F3"/>
<path d="M71.0997 82.8H45.8997C43.9197 82.8 42.2997 81.18 42.2997 79.2C42.2997 79.02 40.7877 79.2 74.6997 79.2C74.6997 80.658 73.5657 82.8 71.0997 82.8Z" fill="#F3F3F3"/>
<path d="M76.4999 9H54.8999V12.6H76.4999V9Z" fill="#F3F3F3"/>
<path d="M76.4999 16.2H54.8999V19.8H76.4999V16.2Z" fill="#F3F3F3"/>
<path d="M76.4999 23.4H54.8999V27H76.4999V23.4Z" fill="#F3F3F3"/>
<path d="M76.5 30.6H40.5V34.2H76.5V30.6Z" fill="#F3F3F3"/>
<path d="M76.5 37.8H40.5V41.4H76.5V37.8Z" fill="#F3F3F3"/>
<path d="M76.5 45H40.5V48.6H76.5V45Z" fill="#F3F3F3"/>
<path d="M23.8861 15.0659C23.5441 14.6339 23.0401 14.3999 22.5001 14.3999H21.9961L20.6101 10.2239C19.854 7.95595 16.4521 9.10795 17.1901 11.3579L18.198 14.3819H12.3841L13.3921 11.3579C14.1481 9.10795 10.7281 7.95595 9.97205 10.2239L8.58605 14.3999H8.08205C6.93005 14.3999 6.10205 15.4799 6.31805 16.5599L7.83005 24.1019C8.15405 25.7759 9.64805 26.9999 11.3581 26.9999H19.2061C20.916 26.9999 22.4101 25.7759 22.7341 24.1019C24.3541 15.9839 24.6061 15.9659 23.8681 15.0659H23.8861Z" fill="#FDFDFD"/>
</g>
<defs>
<clipPath id="clip0_2918_4753">
<rect width="115.2" height="90" fill="white" transform="translate(0.899902)"/>
</clipPath>
</defs>
</svg>
