<svg width="75" height="74" viewBox="0 0 75 74" fill="none" xmlns="http://www.w3.org/2000/svg">
<g clip-path="url(#clip0_649_1659)">
<path d="M74.5 3.46875V19.6562C74.5 20.5762 74.1345 21.4585 73.484 22.109C72.8335 22.7595 71.9512 23.125 71.0312 23.125H56L52.5312 26.5938L49.0625 23.125H45.5938C44.6738 23.125 43.7915 22.7595 43.141 22.109C42.4905 21.4585 42.125 20.5762 42.125 19.6562V3.46875C42.125 2.54878 42.4905 1.66649 43.141 1.01597C43.7915 0.365457 44.6738 0 45.5938 0L71.0312 0C71.9512 0 72.8335 0.365457 73.484 1.01597C74.1345 1.66649 74.5 2.54878 74.5 3.46875Z" fill="#68B8A5"/>
<path d="M54.8438 44.8625V57.8125H20.1563V44.8625C20.1462 43.9055 20.4334 42.969 20.978 42.182C21.5227 41.3951 22.298 40.7965 23.1972 40.4688L32.875 37H42.125L51.8028 40.4688C52.702 40.7965 53.4774 41.3951 54.022 42.182C54.5667 42.969 54.8538 43.9055 54.8438 44.8625Z" fill="#93E6E5"/>
<path d="M37.5 42.7812C36.2734 42.7812 35.097 42.294 34.2296 41.4266C33.3623 40.5593 32.875 39.3829 32.875 38.1562V35.8438H42.125V38.1562C42.125 39.3829 41.6377 40.5593 40.7704 41.4266C39.903 42.294 38.7266 42.7812 37.5 42.7812Z" fill="#338F7E"/>
<path d="M37.5 38.1562C35.0467 38.1562 32.694 37.1817 30.9593 35.447C29.2246 33.7123 28.25 31.3595 28.25 28.9062V23.125H46.75V28.9062C46.75 31.3595 45.7754 33.7123 44.0407 35.447C42.306 37.1817 39.9533 38.1562 37.5 38.1562Z" fill="#B6EDE2"/>
<path d="M56 50.875V69.375H19V50.875C19.0004 50.4695 19.1075 50.0712 19.3104 49.7201C19.5134 49.369 19.8051 49.0774 20.1562 48.8747C20.9194 48.4237 18.26 48.5625 53.6875 48.5625C54.3008 48.5625 54.889 48.8061 55.3227 49.2398C55.7564 49.6735 56 50.2617 56 50.875Z" fill="#338F7E"/>
<path d="M19 69.375H56C56.3067 69.375 56.6008 69.4968 56.8176 69.7137C57.0344 69.9305 57.1562 70.2246 57.1562 70.5312V71.6875C57.1562 72.3008 56.9126 72.889 56.4789 73.3227C56.0453 73.7564 55.4571 74 54.8438 74H20.1562C19.5429 74 18.9547 73.7564 18.5211 73.3227C18.0874 72.889 17.8438 72.3008 17.8438 71.6875V70.5312C17.8438 70.2246 17.9656 69.9305 18.1824 69.7137C18.3992 69.4968 18.6933 69.375 19 69.375Z" fill="#68B8A5"/>
<path d="M49.0625 19.6562V23.125H45.5938C44.6738 23.125 43.7915 22.7595 43.141 22.109C42.4905 21.4585 42.125 20.5762 42.125 19.6562V12.7188C43.9649 12.7188 45.7295 13.4497 47.0306 14.7507C48.3316 16.0517 49.0625 17.8163 49.0625 19.6562Z" fill="#338F7E"/>
<path d="M46.75 19.6562V23.125H28.25C27.33 23.125 26.4477 22.7595 25.7972 22.109C25.1467 21.4585 24.7813 20.5762 24.7812 19.6562V10.4062C27.325 12.95 28.8281 15.0312 32.2853 15.0312H42.125C43.3516 15.0312 44.528 15.5185 45.3954 16.3859C46.2627 17.2532 46.75 18.4296 46.75 19.6562Z" fill="#68B8A5"/>
<path d="M40.8415 61.0384C40.6584 61.7171 40.2735 62.3241 39.7376 62.7791C39.2018 63.234 38.5404 63.5155 37.841 63.5861C37.1416 63.6567 36.4373 63.5131 35.8213 63.1745C35.2054 62.8358 34.7068 62.318 34.3918 61.6896C34.0767 61.0612 33.96 60.352 34.057 59.6558C34.1541 58.9596 34.4604 58.3093 34.9354 57.7911C35.4103 57.2729 36.0315 56.9112 36.7166 56.754C37.4018 56.5968 38.1185 56.6514 38.7719 56.9106C38.311 57.1467 37.9427 57.5307 37.726 58.001C37.5092 58.4713 37.4566 59.0007 37.5766 59.5044C37.6965 60.0082 37.9821 60.4571 38.3875 60.7792C38.7929 61.1014 39.2947 61.2782 39.8125 61.2813C40.1701 61.2848 40.5232 61.2015 40.8415 61.0384Z" fill="#F3F3F3"/>
<path d="M20.1563 48.8747V53.1875L19 52.3203C19 50.875 18.8035 49.7188 20.1563 48.8747Z" fill="#68B8A5"/>
<path d="M25.9375 39.5206V43.9375C25.9375 44.8575 25.5721 45.7398 24.9215 46.3903C24.271 47.0408 23.3887 47.4063 22.4688 47.4063H20.1563V44.8625C20.1462 43.9055 20.4334 42.969 20.978 42.182C21.5227 41.3951 22.298 40.7965 23.1972 40.4688L25.9375 39.5206Z" fill="#338F7E"/>
<path d="M23.625 26.5938V43.9375C23.625 44.2442 23.5032 44.5383 23.2863 44.7551C23.0695 44.9719 22.7754 45.0938 22.4688 45.0938H17.8438V48.5625L13.2188 45.0938H1.65625C1.34959 45.0938 1.0555 44.9719 0.838658 44.7551C0.621819 44.5383 0.5 44.2442 0.5 43.9375V26.5938H23.625Z" fill="#F3F3F3"/>
<path d="M1.65625 24.2812H22.4688C22.7754 24.2812 23.0695 24.4031 23.2863 24.6199C23.5032 24.8367 23.625 25.1308 23.625 25.4375V26.5938H0.5V25.4375C0.5 25.1308 0.621819 24.8367 0.838658 24.6199C1.0555 24.4031 1.34959 24.2812 1.65625 24.2812Z" fill="#68B8A5"/>
<path d="M1.65625 24.2812H7.4375C8.05081 24.2812 8.63901 24.5249 9.07268 24.9586C9.50636 25.3922 9.75 25.9804 9.75 26.5938V27.75H0.5V25.4375C0.5 25.1308 0.621819 24.8367 0.838658 24.6199C1.0555 24.4031 1.34959 24.2812 1.65625 24.2812Z" fill="#F3F3F3"/>
<path d="M12.0625 30.0625H2.8125V32.375H12.0625V30.0625Z" fill="#D9D9D9"/>
<path d="M20.1562 34.6875H9.75V37H20.1562V34.6875Z" fill="#D9D9D9"/>
<path d="M20.1562 30.0625H14.375V32.375H20.1562V30.0625Z" fill="#D9D9D9"/>
<path d="M12.0625 39.3125H2.8125V41.625H12.0625V39.3125Z" fill="#D9D9D9"/>
<path d="M20.1562 39.3125H14.375V41.625H20.1562V39.3125Z" fill="#D9D9D9"/>
<path d="M7.4375 34.6875H2.8125V37H7.4375V34.6875Z" fill="#D9D9D9"/>
<path d="M34.1585 33.0109C34.2971 32.7386 34.5379 32.5322 34.8282 32.4369C35.1185 32.3416 35.4348 32.365 35.7078 32.5022C36.2657 32.7758 36.8787 32.918 37.5 32.918C38.1213 32.918 38.7344 32.7758 39.2922 32.5022C39.5617 32.3899 39.8637 32.3838 40.1376 32.485C40.4114 32.5863 40.6368 32.7873 40.7686 33.0479C40.9003 33.3084 40.9286 33.6091 40.8478 33.8897C40.7669 34.1702 40.583 34.4098 40.3328 34.5603C37.5 35.9709 33.2103 34.9072 34.1585 33.0109Z" fill="#338F7E"/>
</g>
<defs>
<clipPath id="clip0_649_1659">
<rect width="74" height="74" fill="white" transform="translate(0.5)"/>
</clipPath>
</defs>
</svg>
