<svg width="74" height="74" viewBox="0 0 74 74" fill="none" xmlns="http://www.w3.org/2000/svg">
<g clip-path="url(#clip0_2918_1526)">
<path d="M74 3.46875V19.6562C74 20.5762 73.6345 21.4585 72.984 22.109C72.3335 22.7595 71.4512 23.125 70.5312 23.125H55.5L52.0312 26.5938L48.5625 23.125H45.0938C44.1738 23.125 43.2915 22.7595 42.641 22.109C41.9905 21.4585 41.625 20.5762 41.625 19.6562V3.46875C41.625 2.54878 41.9905 1.66649 42.641 1.01597C43.2915 0.365457 44.1738 0 45.0938 0L70.5312 0C71.4512 0 72.3335 0.365457 72.984 1.01597C73.6345 1.66649 74 2.54878 74 3.46875Z" fill="#1FD9CA"/>
<path d="M54.3438 44.8625V57.8125H19.6563V44.8625C19.6462 43.9055 19.9334 42.969 20.478 42.182C21.0227 41.3951 21.798 40.7965 22.6972 40.4688L32.375 37H41.625L51.3028 40.4688C52.202 40.7965 52.9774 41.3951 53.522 42.182C54.0667 42.969 54.3538 43.9055 54.3438 44.8625Z" fill="#93E6E5"/>
<path d="M37 42.7812C35.7734 42.7812 34.597 42.294 33.7296 41.4266C32.8623 40.5593 32.375 39.3829 32.375 38.1562V35.8438H41.625V38.1562C41.625 39.3829 41.1377 40.5593 40.2704 41.4266C39.403 42.294 38.2266 42.7812 37 42.7812Z" fill="#338F7E"/>
<path d="M37 38.1562C34.5467 38.1562 32.194 37.1817 30.4593 35.447C28.7246 33.7123 27.75 31.3595 27.75 28.9062V23.125H46.25V28.9062C46.25 31.3595 45.2754 33.7123 43.5407 35.447C41.806 37.1817 39.4533 38.1562 37 38.1562Z" fill="#B6EDE2"/>
<path d="M55.5 50.875V69.375H18.5V50.875C18.5004 50.4695 18.6075 50.0712 18.8104 49.7201C19.0134 49.369 19.3051 49.0774 19.6562 48.8747C20.4194 48.4237 17.76 48.5625 53.1875 48.5625C53.8008 48.5625 54.389 48.8061 54.8227 49.2398C55.2564 49.6735 55.5 50.2617 55.5 50.875Z" fill="#338F7E"/>
<path d="M18.5 69.375H55.5C55.8067 69.375 56.1008 69.4968 56.3176 69.7137C56.5344 69.9305 56.6562 70.2246 56.6562 70.5312V71.6875C56.6562 72.3008 56.4126 72.889 55.9789 73.3227C55.5453 73.7564 54.9571 74 54.3438 74H19.6562C19.0429 74 18.4547 73.7564 18.0211 73.3227C17.5874 72.889 17.3438 72.3008 17.3438 71.6875V70.5312C17.3438 70.2246 17.4656 69.9305 17.6824 69.7137C17.8992 69.4968 18.1933 69.375 18.5 69.375Z" fill="#1FD9CA"/>
<path d="M48.5625 19.6562V23.125H45.0938C44.1738 23.125 43.2915 22.7595 42.641 22.109C41.9905 21.4585 41.625 20.5762 41.625 19.6562V12.7188C43.4649 12.7188 45.2295 13.4497 46.5306 14.7507C47.8316 16.0517 48.5625 17.8163 48.5625 19.6562Z" fill="#338F7E"/>
<path d="M46.25 19.6562V23.125H27.75C26.83 23.125 25.9477 22.7595 25.2972 22.109C24.6467 21.4585 24.2813 20.5762 24.2812 19.6562V10.4062C26.825 12.95 28.3281 15.0312 31.7853 15.0312H41.625C42.8516 15.0312 44.028 15.5185 44.8954 16.3859C45.7627 17.2532 46.25 18.4296 46.25 19.6562Z" fill="#1FD9CA"/>
<path d="M40.3415 61.0384C40.1584 61.7171 39.7735 62.3241 39.2376 62.779C38.7018 63.234 38.0404 63.5154 37.341 63.586C36.6416 63.6566 35.9373 63.5131 35.3213 63.1744C34.7054 62.8358 34.2068 62.3179 33.8918 61.6896C33.5767 61.0612 33.46 60.3519 33.557 59.6557C33.6541 58.9596 33.9604 58.3093 34.4354 57.7911C34.9103 57.2729 35.5315 56.9112 36.2166 56.754C36.9018 56.5967 37.6185 56.6514 38.2719 56.9106C37.811 57.1467 37.4427 57.5306 37.226 58.0009C37.0092 58.4712 36.9566 59.0006 37.0766 59.5044C37.1965 60.0081 37.4821 60.457 37.8875 60.7792C38.2929 61.1014 38.7947 61.2782 39.3125 61.2812C39.6701 61.2848 40.0232 61.2015 40.3415 61.0384Z" fill="#F3F3F3"/>
<path d="M19.6562 48.8747V53.1875L18.5 52.3203C18.5 50.875 18.3034 49.7188 19.6562 48.8747Z" fill="#1FD9CA"/>
<path d="M25.4375 39.5206V43.9375C25.4375 44.8575 25.0721 45.7398 24.4215 46.3903C23.771 47.0408 22.8887 47.4063 21.9688 47.4063H19.6563V44.8625C19.6462 43.9055 19.9334 42.969 20.478 42.182C21.0227 41.3951 21.798 40.7965 22.6972 40.4688L25.4375 39.5206Z" fill="#338F7E"/>
<path d="M23.125 26.5938V43.9375C23.125 44.2442 23.0032 44.5383 22.7863 44.7551C22.5695 44.9719 22.2754 45.0938 21.9688 45.0938H17.3438V48.5625L12.7188 45.0938H1.15625C0.849593 45.0938 0.555497 44.9719 0.338658 44.7551C0.121819 44.5383 0 44.2442 0 43.9375V26.5938H23.125Z" fill="#F3F3F3"/>
<path d="M1.15625 24.2812H21.9688C22.2754 24.2812 22.5695 24.4031 22.7863 24.6199C23.0032 24.8367 23.125 25.1308 23.125 25.4375V26.5938H0V25.4375C0 25.1308 0.121819 24.8367 0.338658 24.6199C0.555497 24.4031 0.849593 24.2812 1.15625 24.2812Z" fill="#1FD9CA"/>
<path d="M1.15625 24.2812H6.9375C7.55081 24.2812 8.13901 24.5249 8.57268 24.9586C9.00636 25.3922 9.25 25.9804 9.25 26.5938V27.75H0V25.4375C0 25.1308 0.121819 24.8367 0.338658 24.6199C0.555497 24.4031 0.849593 24.2812 1.15625 24.2812Z" fill="#F3F3F3"/>
<path d="M11.5625 30.0625H2.3125V32.375H11.5625V30.0625Z" fill="#D9D9D9"/>
<path d="M19.6562 34.6875H9.25V37H19.6562V34.6875Z" fill="#D9D9D9"/>
<path d="M19.6562 30.0625H13.875V32.375H19.6562V30.0625Z" fill="#D9D9D9"/>
<path d="M11.5625 39.3125H2.3125V41.625H11.5625V39.3125Z" fill="#D9D9D9"/>
<path d="M19.6562 39.3125H13.875V41.625H19.6562V39.3125Z" fill="#D9D9D9"/>
<path d="M6.9375 34.6875H2.3125V37H6.9375V34.6875Z" fill="#D9D9D9"/>
<path d="M33.6585 33.011C33.7971 32.7386 34.0379 32.5322 34.3282 32.4369C34.6185 32.3416 34.9348 32.3651 35.2078 32.5022C35.7657 32.7758 36.3787 32.918 37 32.918C37.6213 32.918 38.2344 32.7758 38.7922 32.5022C39.0617 32.39 39.3637 32.3839 39.6376 32.4851C39.9114 32.5863 40.1368 32.7873 40.2686 33.0479C40.4003 33.3084 40.4286 33.6091 40.3478 33.8897C40.2669 34.1702 40.083 34.4098 39.8328 34.5603C37 35.971 32.7103 34.9072 33.6585 33.011Z" fill="#338F7E"/>
</g>
<defs>
<clipPath id="clip0_2918_1526">
<rect width="74" height="74" fill="white"/>
</clipPath>
</defs>
</svg>
