<svg width="70" height="74" viewBox="0 0 70 74" fill="none" xmlns="http://www.w3.org/2000/svg">
<g clip-path="url(#clip0_649_1410)">
<path d="M52.3438 0H3.78125C1.86551 0 0.3125 1.55301 0.3125 3.46875V70.5312C0.3125 72.447 1.86551 74 3.78125 74H52.3438C54.2595 74 55.8125 72.447 55.8125 70.5312V3.46875C55.8125 1.55301 54.2595 0 52.3438 0Z" fill="#0033AD"/>
<path d="M53.5 3.46875V70.5312C53.5 70.8379 53.3782 71.132 53.1613 71.3488C52.9445 71.5657 52.6504 71.6875 52.3438 71.6875H3.78125C3.47459 71.6875 3.1805 71.5657 2.96366 71.3488C2.74682 71.132 2.625 70.8379 2.625 70.5312V3.46875C2.625 3.16209 2.74682 2.868 2.96366 2.65116C3.1805 2.43432 3.47459 2.3125 3.78125 2.3125H18.8125C18.8125 2.92581 19.0561 3.51401 19.4898 3.94768C19.9235 4.38136 20.5117 4.625 21.125 4.625C35.7747 4.625 35.6937 4.9025 36.6303 3.94281C37.0646 3.51113 37.3099 2.92482 37.3125 2.3125H52.3438C52.6504 2.3125 52.9445 2.43432 53.1613 2.65116C53.3782 2.868 53.5 3.16209 53.5 3.46875Z" fill="white"/>
<path d="M48.875 69.375H7.25C6.94334 69.375 6.64925 69.2532 6.43241 69.0363C6.21557 68.8195 6.09375 68.5254 6.09375 68.2188C6.09375 67.9121 6.21557 67.618 6.43241 67.4012C6.64925 67.1843 6.94334 67.0625 7.25 67.0625H48.875C49.1817 67.0625 49.4758 67.1843 49.6926 67.4012C49.9094 67.618 50.0312 67.9121 50.0312 68.2188C50.0312 68.5254 49.9094 68.8195 49.6926 69.0363C49.4758 69.2532 49.1817 69.375 48.875 69.375Z" fill="#CCE7FF"/>
<path d="M48.875 21.9688H7.25V24.2812H48.875V21.9688Z" fill="#CCE7FF"/>
<path d="M48.625 18H7V20.3125H48.625V18Z" fill="#CCE7FF"/>
<path d="M48.625 14H7V16.3125H48.625V14Z" fill="#CCE7FF"/>
<path d="M48.625 10H7V12.3125H48.625V10Z" fill="#CCE7FF"/>
<path d="M48.875 28.9062H18.8125V31.2188H48.875V28.9062Z" fill="#CCE7FF"/>
<path d="M29.2188 48.5625H7.25V50.875H29.2188V48.5625Z" fill="#CCE7FF"/>
<path d="M29.2188 53.1875H7.25V55.5H29.2188V53.1875Z" fill="#CCE7FF"/>
<path d="M29.2188 57.8125H7.25V60.125H29.2188V57.8125Z" fill="#CCE7FF"/>
<path d="M48.5 35H16.5V37H48.5V35Z" fill="#CCE7FF"/>
<path d="M48.5 39H16.5V41H48.5V39Z" fill="#CCE7FF"/>
<path d="M48.5 43H16.5V45H48.5V43Z" fill="#CCE7FF"/>
<path d="M7.5 29V33H9.5V41H13.5V31C13.5 30.4696 13.2893 29.9609 12.9142 29.5858C12.5391 29.2107 12.0304 29 11.5 29H7.5Z" fill="#CCE7FF"/>
<path d="M48.875 48.5625H32.6875V62.4375H48.875V48.5625Z" fill="#CCE7FF"/>
<path d="M51.5 74C61.7173 74 70 65.7173 70 55.5C70 45.2827 61.7173 37 51.5 37C41.2827 37 33 45.2827 33 55.5C33 65.7173 41.2827 74 51.5 74Z" fill="#0033AD"/>
<path d="M51.5 71C60.0604 71 67 64.0604 67 55.5C67 46.9396 60.0604 40 51.5 40C42.9396 40 36 46.9396 36 55.5C36 64.0604 42.9396 71 51.5 71Z" fill="white"/>
<path d="M51.5 39C53.9853 39 56 36.9853 56 34.5C56 32.0147 53.9853 30 51.5 30C49.0147 30 47 32.0147 47 34.5C47 36.9853 49.0147 39 51.5 39Z" fill="#0033AD" stroke="#0033AD" stroke-width="2" stroke-miterlimit="10"/>
<path d="M47.3995 63C47.1232 63.0017 46.8526 62.9169 46.6223 62.7564C46.3919 62.5959 46.2124 62.367 46.1064 62.0989C46.0004 61.8308 45.9728 61.5356 46.0272 61.251C46.0815 60.9664 46.2154 60.7052 46.4116 60.5007L50.1825 56.5546V45.4615C50.1825 45.0739 50.3291 44.7022 50.59 44.4281C50.851 44.154 51.2049 44 51.5739 44C51.943 44 52.2969 44.154 52.5578 44.4281C52.8188 44.7022 52.9654 45.0739 52.9654 45.4615C52.9654 57.1538 53.2576 57.4608 52.1444 58.6154C48.1092 62.8538 48.1788 63 47.3995 63Z" fill="#0033AD"/>
</g>
<defs>
<clipPath id="clip0_649_1410">
<rect width="69.375" height="74" fill="white" transform="translate(0.3125)"/>
</clipPath>
</defs>
</svg>
