<svg width="74" height="74" viewBox="0 0 74 74" fill="none" xmlns="http://www.w3.org/2000/svg">
<path d="M53.7534 61.8243C53.1885 61.8223 52.6472 61.5976 52.2469 61.1989L29.5068 38.4589C29.1302 38.0547 28.9252 37.5202 28.935 36.9679C28.9447 36.4156 29.1685 35.8886 29.5591 35.498C29.9497 35.1074 30.4766 34.8837 31.0289 34.874C31.5812 34.8642 32.1157 35.0692 32.5199 35.4458L55.2599 58.1859C55.5577 58.484 55.7604 58.8637 55.8426 59.277C55.9247 59.6903 55.8824 60.1187 55.7212 60.508C55.56 60.8973 55.2871 61.2301 54.9369 61.4644C54.5866 61.6987 54.1748 61.8239 53.7534 61.8243Z" fill="#338F7E"/>
<path d="M58.017 36.9526C58.017 42.016 56.5144 46.9655 53.6996 51.1743C50.8848 55.3832 46.8843 58.6621 42.2047 60.5959C37.5251 62.5296 32.3769 63.0312 27.4121 62.0372C22.4473 61.0431 17.8891 58.5982 14.3147 55.0118C10.7403 51.4255 8.31055 46.8592 7.33309 41.8911C6.35563 36.9229 6.87444 31.7764 8.8238 27.1033C10.7732 22.4302 14.0654 18.4407 18.2837 15.6399C22.5019 12.8392 27.4564 11.3531 32.5197 11.37C39.2899 11.3926 45.775 14.0979 50.5542 18.8931C55.3335 23.6883 58.0171 30.1824 58.017 36.9526Z" fill="#1FD9CA"/>
<path d="M52.1758 20.6791C50.9082 21.5056 49.5026 22.0978 48.0257 22.4273C44.3503 18.4268 39.2763 15.9941 33.8558 15.6336C33.1815 14.2988 32.7485 12.8554 32.5767 11.3699C36.3261 11.3905 40.0252 12.235 43.412 13.8437C46.7989 15.4524 49.7907 17.7859 52.1758 20.6791Z" fill="#338F7E"/>
<path d="M53.7534 36.9526C53.7534 42.6067 51.5073 48.0293 47.5093 52.0273C43.5112 56.0254 38.0887 58.2714 32.4346 58.2714C26.7805 58.2714 21.358 56.0254 17.3599 52.0273C13.3619 48.0293 11.1158 42.6067 11.1158 36.9526C11.1158 24.2608 22.2442 14.6105 33.8559 15.6338C39.2601 15.9948 44.3243 18.3994 48.0199 22.359C51.7155 26.3186 53.7655 31.5363 53.7534 36.9526Z" fill="white"/>
<path d="M48.0684 22.4273C45.281 23.0432 42.3678 22.7089 39.7923 21.4779C37.2168 20.2468 35.1271 18.1896 33.8558 15.6337C39.2914 15.9834 44.3825 18.417 48.0684 22.4273Z" fill="#F3F3F3"/>
<path d="M45.2258 19.8976C50.7203 19.8976 55.1745 15.4433 55.1745 9.94878C55.1745 4.45422 50.7203 0 45.2258 0C39.7312 0 35.277 4.45422 35.277 9.94878C35.277 15.4433 39.7312 19.8976 45.2258 19.8976Z" fill="#1FD9CA"/>
<path d="M43.8046 14.2128C43.0371 14.2128 42.9945 13.9996 39.953 10.9581C39.6854 10.6905 39.535 10.3275 39.535 9.94902C39.535 9.57054 39.6854 9.20752 39.953 8.9399C40.2206 8.67227 40.5836 8.52195 40.9621 8.52195C41.3406 8.52195 41.7036 8.67227 41.9712 8.9399L43.8046 10.7876L48.4805 6.09739C48.7482 5.82976 49.1111 5.67944 49.4896 5.67944C49.8681 5.67944 50.2311 5.82976 50.4987 6.09739C50.7664 6.36502 50.9167 6.72803 50.9167 7.10651C50.9167 7.48499 50.7664 7.848 50.4987 8.11563L44.8137 13.8006C44.6809 13.9324 44.5234 14.0366 44.3502 14.1073C44.1771 14.178 43.9917 14.2139 43.8046 14.2128Z" fill="white"/>
<path opacity="0.1" d="M32.4345 22.7402L18.222 28.4253V45.4803L32.4345 51.1653L46.6471 45.4803V28.4253L32.4345 22.7402Z" fill="#1FD9CA"/>
<path d="M47.1728 27.1034L32.9603 21.4184C32.6226 21.2839 32.2462 21.2839 31.9085 21.4184L17.696 27.1034C17.4315 27.2087 17.2048 27.391 17.0452 27.6266C16.8855 27.8623 16.8003 28.1405 16.8006 28.4251V45.4802C16.8003 45.7648 16.8855 46.043 17.0452 46.2787C17.2048 46.5144 17.4315 46.6966 17.696 46.802L31.9085 52.487C32.2462 52.6215 32.6226 52.6215 32.9603 52.487L47.1728 46.802C47.4372 46.6966 47.664 46.5144 47.8236 46.2787C47.9833 46.043 48.0685 45.7648 48.0682 45.4802V28.4251C48.0685 28.1405 47.9833 27.8623 47.8236 27.6266C47.664 27.391 47.4372 27.2087 47.1728 27.1034ZM32.4344 24.2609L42.8238 28.4109L32.4344 32.5752L22.045 28.4251L32.4344 24.2609ZM19.6431 30.5143L31.0131 35.0624V49.0476L19.6431 44.4995V30.5143ZM45.2257 44.4995L33.8557 49.0476V35.0624L45.2257 30.5143V44.4995Z" fill="#1FD9CA"/>
<path d="M54.1654 56.4379L50.4986 60.1047C50.3654 60.2368 50.2596 60.394 50.1875 60.5672C50.1153 60.7404 50.0782 60.9262 50.0782 61.1138C50.0782 61.3014 50.1153 61.4872 50.1875 61.6604C50.2596 61.8336 50.3654 61.9908 50.4986 62.1229L61.1012 72.7254C61.4697 73.1194 61.9137 73.4352 62.4068 73.6541C62.8999 73.8729 63.432 73.9904 63.9714 73.9994C64.5108 74.0084 65.0465 73.9087 65.5466 73.7065C66.0468 73.5042 66.5011 73.2033 66.8826 72.8218C67.264 72.4403 67.5649 71.986 67.7672 71.4859C67.9695 70.9858 68.0691 70.4501 68.0601 69.9107C68.0511 69.3713 67.9337 68.8392 67.7148 68.3461C67.496 67.853 67.1801 67.409 66.7862 67.0404L56.1836 56.4379C56.0515 56.3047 55.8943 56.1989 55.7211 56.1268C55.5479 56.0546 55.3621 56.0175 55.1745 56.0175C54.9869 56.0175 54.8011 56.0546 54.6279 56.1268C54.4547 56.1989 54.2975 56.3047 54.1654 56.4379Z" fill="#1FD9CA"/>
</svg>
