<svg width="74" height="74" viewBox="0 0 74 74" fill="none" xmlns="http://www.w3.org/2000/svg">
<path d="M53.7534 61.8243C53.1884 61.8223 52.6471 61.5976 52.2468 61.1989L29.5068 38.4589C29.1302 38.0547 28.9252 37.5202 28.9349 36.9679C28.9446 36.4156 29.1684 35.8886 29.559 35.498C29.9496 35.1074 30.4766 34.8837 31.0289 34.874C31.5812 34.8642 32.1157 35.0692 32.5198 35.4458L55.2599 58.1859C55.5577 58.484 55.7604 58.8637 55.8425 59.277C55.9246 59.6903 55.8824 60.1187 55.7212 60.508C55.56 60.8973 55.287 61.2301 54.9368 61.4644C54.5866 61.6987 54.1747 61.8239 53.7534 61.8243Z" fill="#338F7E"/>
<path d="M58.017 36.9526C58.017 42.016 56.5144 46.9655 53.6995 51.1743C50.8847 55.3832 46.8842 58.6621 42.2046 60.5959C37.5251 62.5296 32.3769 63.0312 27.412 62.0372C22.4472 61.0431 17.889 58.5982 14.3146 55.0118C10.7403 51.4255 8.31048 46.8592 7.33303 41.8911C6.35557 36.9229 6.87438 31.7764 8.82374 27.1033C10.7731 22.4302 14.0654 18.4407 18.2836 15.6399C22.5018 12.8392 27.4563 11.3531 32.5197 11.37C39.2898 11.3926 45.7749 14.0979 50.5542 18.8931C55.3334 23.6883 58.017 30.1824 58.017 36.9526Z" fill="#68B8A5"/>
<path d="M52.1756 20.6791C50.9081 21.5056 49.5024 22.0978 48.0256 22.4273C44.3501 18.4268 39.2762 15.9941 33.8557 15.6336C33.1814 14.2988 32.7484 12.8554 32.5765 11.3699C36.326 11.3905 40.025 12.235 43.4119 13.8437C46.7987 15.4524 49.7906 17.7859 52.1756 20.6791Z" fill="#338F7E"/>
<path d="M53.7533 36.9526C53.7533 42.6068 51.5073 48.0293 47.5092 52.0274C43.5112 56.0254 38.0886 58.2715 32.4345 58.2715C26.7804 58.2715 21.3579 56.0254 17.3599 52.0274C13.3618 48.0293 11.1157 42.6068 11.1157 36.9526C11.1157 24.2608 22.2441 14.6105 33.8558 15.6338C39.26 15.9949 44.3242 18.3994 48.0198 22.359C51.7154 26.3186 53.7654 31.5364 53.7533 36.9526Z" fill="white"/>
<path d="M48.0683 22.4273C45.2809 23.0432 42.3676 22.7089 39.7921 21.4779C37.2167 20.2468 35.127 18.1896 33.8557 15.6337C39.2913 15.9834 44.3824 18.417 48.0683 22.4273Z" fill="#F3F3F3"/>
<path d="M45.2256 19.8976C50.7202 19.8976 55.1744 15.4433 55.1744 9.94878C55.1744 4.45422 50.7202 0 45.2256 0C39.7311 0 35.2769 4.45422 35.2769 9.94878C35.2769 15.4433 39.7311 19.8976 45.2256 19.8976Z" fill="#68B8A5"/>
<path d="M43.8045 14.2128C43.037 14.2128 42.9944 13.9996 39.9529 10.9581C39.6853 10.6905 39.5349 10.3275 39.5349 9.94902C39.5349 9.57054 39.6853 9.20752 39.9529 8.9399C40.2205 8.67227 40.5835 8.52195 40.962 8.52195C41.3405 8.52195 41.7035 8.67227 41.9711 8.9399L43.8045 10.7876L48.4804 6.09739C48.748 5.82976 49.111 5.67944 49.4895 5.67944C49.868 5.67944 50.231 5.82976 50.4986 6.09739C50.7662 6.36502 50.9166 6.72803 50.9166 7.10651C50.9166 7.48499 50.7662 7.848 50.4986 8.11563L44.8136 13.8006C44.6808 13.9324 44.5233 14.0366 44.3501 14.1073C44.177 14.178 43.9915 14.2139 43.8045 14.2128Z" fill="white"/>
<path opacity="0.1" d="M32.4345 22.7403L18.2219 28.4253V45.4804L32.4345 51.1654L46.647 45.4804V28.4253L32.4345 22.7403Z" fill="#68B8A5"/>
<path d="M47.1727 27.1034L32.9602 21.4184C32.6225 21.2839 32.2462 21.2839 31.9085 21.4184L17.6959 27.1034C17.4315 27.2087 17.2047 27.391 17.0451 27.6266C16.8855 27.8623 16.8003 28.1405 16.8005 28.4251V45.4802C16.8003 45.7648 16.8855 46.043 17.0451 46.2787C17.2047 46.5144 17.4315 46.6966 17.6959 46.802L31.9085 52.487C32.2462 52.6215 32.6225 52.6215 32.9602 52.487L47.1727 46.802C47.4372 46.6966 47.6639 46.5144 47.8236 46.2787C47.9832 46.043 48.0684 45.7648 48.0681 45.4802V28.4251C48.0684 28.1405 47.9832 27.8623 47.8236 27.6266C47.6639 27.391 47.4372 27.2087 47.1727 27.1034ZM32.4343 24.2609L42.8237 28.4109L32.4343 32.5752L22.045 28.4251L32.4343 24.2609ZM19.643 30.5143L31.0131 35.0624V49.0476L19.643 44.4995V30.5143ZM45.2256 44.4995L33.8556 49.0476V35.0624L45.2256 30.5143V44.4995Z" fill="#68B8A5"/>
<path d="M54.1654 56.4379L50.4985 60.1047C50.3653 60.2368 50.2596 60.394 50.1874 60.5672C50.1153 60.7404 50.0781 60.9262 50.0781 61.1138C50.0781 61.3014 50.1153 61.4872 50.1874 61.6604C50.2596 61.8336 50.3653 61.9908 50.4985 62.1229L61.1011 72.7254C61.4696 73.1194 61.9137 73.4352 62.4068 73.6541C62.8999 73.8729 63.4319 73.9904 63.9714 73.9994C64.5108 74.0084 65.0465 73.9087 65.5466 73.7065C66.0467 73.5042 66.501 73.2033 66.8825 72.8218C67.264 72.4403 67.5648 71.986 67.7671 71.4859C67.9694 70.9858 68.069 70.4501 68.06 69.9107C68.051 69.3713 67.9336 68.8392 67.7148 68.3461C67.4959 67.853 67.1801 67.409 66.7861 67.0404L56.1836 56.4379C56.0514 56.3047 55.8942 56.1989 55.721 56.1268C55.5479 56.0546 55.3621 56.0175 55.1745 56.0175C54.9868 56.0175 54.8011 56.0546 54.6279 56.1268C54.4547 56.1989 54.2975 56.3047 54.1654 56.4379Z" fill="#68B8A5"/>
</svg>
