<svg width="58" height="74" viewBox="0 0 58 74" fill="none" xmlns="http://www.w3.org/2000/svg">
<g clip-path="url(#clip0_649_1456)">
<path d="M56.75 46.2501C56.75 61.8711 43.6613 74.0001 30.006 74.0001C24.31 74.2032 18.6897 72.6475 13.9089 69.5444C9.12811 66.4414 5.41876 61.9415 3.28505 56.6564C-4.2537 39.1623 9.20504 17.8064 30.006 18.5001C43.5572 18.5001 56.75 30.502 56.75 46.2501Z" fill="#CCE7FF"/>
<path d="M43.06 38.1562H55.5938C55.3578 37.3711 55.0799 36.5991 54.7612 35.8438H42.4241C40.2437 28.9245 35.9543 22.8603 30.1562 18.5C29.4625 18.5 29.4625 18.5 27.9709 18.5C27.4159 18.5 19.0678 24.6975 15.5528 35.8438H3.285C2.95068 36.5982 2.65734 37.3702 2.40625 38.1562H14.8937C13.5984 43.4743 13.5984 49.0257 14.8937 54.3438H2.40625C2.64221 55.1289 2.92011 55.9009 3.23875 56.6562H15.5759C17.7563 63.5755 22.0457 69.6397 27.8438 74C28.5375 74 28.5375 74 30.0291 74C30.5841 74 38.9322 67.8025 42.4472 56.6562H54.715C55.0493 55.9018 55.3427 55.1298 55.5938 54.3438H43.06C44.3553 49.0257 44.3553 43.4743 43.06 38.1562ZM29 20.535C34.0982 24.436 37.9216 29.7647 39.9844 35.8438H18.0156C20.0784 29.7647 23.9018 24.436 29 20.535ZM29 71.965C23.9018 68.064 20.0784 62.7353 18.0156 56.6562H39.9844C37.9216 62.7353 34.0982 68.064 29 71.965ZM17.3219 54.3438C15.9343 49.0371 15.9343 43.4629 17.3219 38.1562H40.6897C42.066 43.4643 42.066 49.0357 40.6897 54.3438H17.3219Z" fill="#F3F3F3"/>
<path d="M41.7188 12.4875V21.2866C41.7173 21.4926 41.6607 21.6945 41.555 21.8714C41.4493 22.0483 41.2983 22.1937 41.1175 22.2925L30.0638 28.3282C29.7336 28.5004 29.3667 28.5904 28.9942 28.5904C28.6218 28.5904 28.2549 28.5004 27.9247 28.3282L15.761 22.2925C15.5685 22.1956 15.407 22.0468 15.2946 21.8629C15.1823 21.679 15.1235 21.4674 15.125 21.2519V12.4875L29 18.5L41.7188 12.4875Z" fill="#0033AD"/>
<path d="M52.125 9.25L29 18.5L5.875 9.25L29 0L52.125 9.25Z" fill="#CCE7FF"/>
<path d="M39.4062 27.7501V14.6613L28.5721 10.3254C28.2869 10.2119 28.0585 9.98981 27.9371 9.70792C27.8156 9.42602 27.8112 9.10744 27.9246 8.82225C28.0381 8.53706 28.2602 8.30862 28.5421 8.18719C28.824 8.06576 29.1426 8.06129 29.4278 8.17475L40.9903 12.7998C41.2054 12.8854 41.3898 13.0337 41.5197 13.2255C41.6496 13.4172 41.7189 13.6435 41.7187 13.8751V27.7501C41.7187 28.0567 41.5969 28.3508 41.38 28.5677C41.1632 28.7845 40.8691 28.9063 40.5624 28.9063C40.2558 28.9063 39.9617 28.7845 39.7448 28.5677C39.528 28.3508 39.4062 28.0567 39.4062 27.7501Z" fill="#0033AD"/>
<path d="M54.4375 40.4688C56.3532 40.4688 57.9062 38.9157 57.9062 37C57.9062 35.0843 56.3532 33.5312 54.4375 33.5312C52.5218 33.5312 50.9688 35.0843 50.9688 37C50.9688 38.9157 52.5218 40.4688 54.4375 40.4688Z" fill="#0033AD"/>
<path d="M41.7188 58.9688C43.6345 58.9688 45.1875 57.4157 45.1875 55.5C45.1875 53.5843 43.6345 52.0312 41.7188 52.0312C39.803 52.0312 38.25 53.5843 38.25 55.5C38.25 57.4157 39.803 58.9688 41.7188 58.9688Z" fill="#0033AD"/>
<path d="M3.5625 58.9688C5.47824 58.9688 7.03125 57.4157 7.03125 55.5C7.03125 53.5843 5.47824 52.0312 3.5625 52.0312C1.64676 52.0312 0.09375 53.5843 0.09375 55.5C0.09375 57.4157 1.64676 58.9688 3.5625 58.9688Z" fill="#0033AD"/>
</g>
<defs>
<clipPath id="clip0_649_1456">
<rect width="57.8125" height="74" fill="white" transform="translate(0.09375)"/>
</clipPath>
</defs>
</svg>
