<svg width="74" height="74" viewBox="0 0 74 74" fill="none" xmlns="http://www.w3.org/2000/svg">
<path d="M71.6875 21.9688V67.0625H2.3125V21.9688C2.3125 21.0488 2.67796 20.1665 3.32847 19.516C3.97899 18.8655 4.86128 18.5 5.78125 18.5H68.2188C69.1387 18.5 70.021 18.8655 70.6715 19.516C71.322 20.1665 71.6875 21.0488 71.6875 21.9688Z" fill="#68B8A5"/>
<path d="M1.15625 67.0625H72.8438C73.1504 67.0625 73.4445 67.1843 73.6613 67.4012C73.8782 67.618 74 67.9121 74 68.2188V70.5312C74 71.4512 73.6345 72.3335 72.984 72.984C72.3335 73.6345 71.4512 74 70.5312 74H3.46875C2.54878 74 1.66649 73.6345 1.01597 72.984C0.365457 72.3335 0 71.4512 0 70.5312L0 68.2188C0 67.9121 0.121819 67.618 0.338658 67.4012C0.555497 67.1843 0.849593 67.0625 1.15625 67.0625Z" fill="#68B8A5"/>
<path d="M69.375 21.9688V64.75H4.625V21.9688C4.625 21.6621 4.74682 21.368 4.96366 21.1512C5.1805 20.9343 5.47459 20.8125 5.78125 20.8125H68.2188C68.5254 20.8125 68.8195 20.9343 69.0363 21.1512C69.2532 21.368 69.375 21.6621 69.375 21.9688Z" fill="white"/>
<path d="M45.0937 69.375H28.9062C28.2929 69.375 27.7047 69.1314 27.271 68.6977C26.8374 68.264 26.5937 67.6758 26.5937 67.0625C26.5937 66.9469 25.6225 67.0625 47.4062 67.0625C47.4062 67.6758 47.1626 68.264 46.7289 68.6977C46.2952 69.1314 45.707 69.375 45.0937 69.375Z" fill="#B6EDE2"/>
<path d="M50.875 18.5C50.5428 19.3089 50.1323 20.0835 49.6494 20.8125H24.3506C23.8677 20.0835 23.4572 19.3089 23.125 18.5H50.875Z" fill="#68B8A5"/>
<path d="M52.0312 60.1251H47.4062V39.7866L49.7188 37.4741V38.1563C49.7188 38.463 49.8406 38.7571 50.0574 38.9739C50.2742 39.1907 50.5683 39.3126 50.875 39.3126C51.1817 39.3126 51.4758 39.1907 51.6926 38.9739C51.9094 38.7571 52.0312 38.463 52.0312 38.1563C52.0312 32.8954 52.725 33.5313 47.4062 33.5313C47.0996 33.5313 46.8055 33.6531 46.5887 33.87C46.3718 34.0868 46.25 34.3809 46.25 34.6876C46.25 34.9942 46.3718 35.2883 46.5887 35.5052C46.8055 35.722 47.0996 35.8438 47.4062 35.8438H48.0884L38.0869 45.8454C31.7506 40.5613 31.9125 40.6654 31.6234 40.5497C30.6291 40.1797 30.6175 40.5497 22.9747 48.2272C16.7194 44.0647 16.6962 43.9376 16.1875 43.9376C15.6788 43.9376 15.5631 44.1226 9.25 48.6319V34.6876C9.25 34.3809 9.12818 34.0868 8.91134 33.87C8.6945 33.6531 8.40041 33.5313 8.09375 33.5313C7.78709 33.5313 7.493 33.6531 7.27616 33.87C7.05932 34.0868 6.9375 34.3809 6.9375 34.6876V61.2813C6.9375 61.588 7.05932 61.8821 7.27616 62.0989C7.493 62.3157 7.78709 62.4376 8.09375 62.4376H52.0312C52.3379 62.4376 52.632 62.3157 52.8488 62.0989C53.0657 61.8821 53.1875 61.588 53.1875 61.2813C53.1875 60.9746 53.0657 60.6806 52.8488 60.4637C52.632 60.2469 52.3379 60.1251 52.0312 60.1251ZM45.0938 60.1251H39.3125V47.8804L45.0938 42.0991V60.1251ZM32.375 44.0994L37 47.9497V60.1251H32.375V44.0994ZM9.25 51.4647L15.0312 47.3369V60.1251H9.25V51.4647ZM17.3438 60.1251V47.256L21.9688 50.3432V60.1251H17.3438ZM24.2812 50.1929L30.0625 44.4116V60.1251H24.2812V50.1929Z" fill="#68B8A5"/>
<path d="M28.9062 28.9062H12.7188V31.2188H28.9062V28.9062Z" fill="#68B8A5"/>
<path d="M67.0625 42.7812H55.5V45.0938H67.0625V42.7812Z" fill="#68B8A5"/>
<path d="M67.0625 47.4062H55.5V49.7188H67.0625V47.4062Z" fill="#68B8A5"/>
<path d="M67.0625 52.0312H60.125V54.3438H67.0625V52.0312Z" fill="#68B8A5"/>
<path d="M18.5 33.5312H12.7188V35.8438H18.5V33.5312Z" fill="#68B8A5"/>
</svg>
