<svg width="56" height="74" viewBox="0 0 56 74" fill="none" xmlns="http://www.w3.org/2000/svg">
<g clip-path="url(#clip0_3007_358)">
<path d="M33.7185 27.7428C32.9849 28.2622 32.3946 28.9586 32.0024 29.7673C31.6101 30.5761 31.4287 31.4709 31.475 32.3685H22.2236C22.2865 31.4932 22.1213 30.6165 21.7444 29.824C21.3674 29.0316 20.7914 28.3504 20.0726 27.8469C10.4974 20.9083 16.3489 5.67808 28.1677 7.0311C30.4544 7.31225 32.6051 8.27006 34.3438 9.7817C36.0825 11.2933 37.3301 13.2899 37.9266 15.5153C38.523 17.7408 38.4411 20.0936 37.6913 22.2722C36.9416 24.4508 35.5582 26.3557 33.7185 27.7428Z" fill="#1FD9CA"/>
<path d="M41.8829 41.62V74.0001H23.38V70.5308C23.38 70.2241 23.2582 69.9299 23.0413 69.713C22.8245 69.4962 22.5303 69.3743 22.2236 69.3743H17.5979C17.2912 69.3743 16.997 69.2525 16.7802 69.0356C16.5633 68.8187 16.4415 68.5246 16.4415 68.2179V61.2793L9.50287 58.9665L14.1286 41.62H41.8829Z" fill="#1FD9CA"/>
<path d="M28.0058 39.3071H25.6929C25.0795 39.3071 24.4912 39.0635 24.0575 38.6297C23.6237 38.196 23.38 37.6077 23.38 36.9943H30.3186C30.3186 37.6077 30.0749 38.196 29.6412 38.6297C29.2075 39.0635 28.6192 39.3071 28.0058 39.3071Z" fill="#338F7E"/>
<path d="M25.6929 3.4577V1.14483C25.6929 0.83813 25.8147 0.543987 26.0316 0.327114C26.2485 0.110241 26.5426 -0.0115967 26.8493 -0.0115967C27.156 -0.0115967 27.4502 0.110241 27.6671 0.327114C27.8839 0.543987 28.0058 0.83813 28.0058 1.14483V3.4577C28.0058 3.7644 27.8839 4.05854 27.6671 4.27542C27.4502 4.49229 27.156 4.61413 26.8493 4.61413C26.5426 4.61413 26.2485 4.49229 26.0316 4.27542C25.8147 4.05854 25.6929 3.7644 25.6929 3.4577Z" fill="#1FD9CA"/>
<path d="M37.4769 9.02017C37.2482 9.01921 37.0249 8.95045 36.8353 8.8226C36.6457 8.69474 36.4982 8.51352 36.4115 8.30185C36.3249 8.09019 36.303 7.85759 36.3485 7.63345C36.3941 7.40932 36.505 7.20373 36.6674 7.04267L38.298 5.41211C38.5192 5.22265 38.8038 5.12365 39.0948 5.1349C39.3859 5.14614 39.662 5.26679 39.8679 5.47274C40.0739 5.6787 40.1945 5.95478 40.2058 6.24583C40.217 6.53688 40.118 6.82145 39.9286 7.04267C38.1592 8.82358 38.0898 9.02017 37.4769 9.02017Z" fill="#1FD9CA"/>
<path d="M44.1958 19.6477H41.8829C41.5762 19.6477 41.2821 19.5259 41.0652 19.309C40.8483 19.0921 40.7265 18.798 40.7265 18.4913C40.7265 18.1846 40.8483 17.8904 41.0652 17.6735C41.2821 17.4567 41.5762 17.3348 41.8829 17.3348H44.1958C44.5025 17.3348 44.7966 17.4567 45.0135 17.6735C45.2304 17.8904 45.3522 18.1846 45.3522 18.4913C45.3522 18.798 45.2304 19.0921 45.0135 19.309C44.7966 19.5259 44.5025 19.6477 44.1958 19.6477Z" fill="#1FD9CA"/>
<path d="M39.1191 31.9174C38.4252 31.9174 38.1592 31.4317 36.6674 29.9399C36.5596 29.8329 36.4739 29.7056 36.4153 29.5654C36.3566 29.4253 36.3262 29.2749 36.3256 29.123C36.3245 28.8161 36.4454 28.5214 36.6616 28.3036C36.8779 28.0858 37.1717 27.9629 37.4786 27.9618C37.7855 27.9607 38.0802 28.0816 38.298 28.2978L39.9286 29.9399C40.0909 30.101 40.2019 30.3066 40.2475 30.5307C40.293 30.7549 40.2711 30.9875 40.1844 31.1991C40.0978 31.4108 39.9503 31.592 39.7607 31.7199C39.5711 31.8477 39.3478 31.9165 39.1191 31.9174Z" fill="#1FD9CA"/>
<path d="M14.5796 31.9174C14.3509 31.9165 14.1276 31.8477 13.938 31.7199C13.7483 31.592 13.6009 31.4108 13.5142 31.1991C13.4276 30.9875 13.4057 30.7549 13.4512 30.5307C13.4967 30.3066 13.6077 30.101 13.7701 29.9399L15.4007 28.2978C15.6184 28.0816 15.9132 27.9607 16.2201 27.9618C16.5269 27.9629 16.8208 28.0858 17.037 28.3036C17.2533 28.5214 17.3741 28.8161 17.373 29.123C17.372 29.4298 17.249 29.7237 17.0313 29.9399C15.285 31.7208 15.1925 31.9174 14.5796 31.9174Z" fill="#1FD9CA"/>
<path d="M11.8157 19.6477H9.50287C9.19616 19.6477 8.90202 19.5259 8.68515 19.309C8.46827 19.0921 8.34644 18.798 8.34644 18.4913C8.34644 18.1846 8.46827 17.8904 8.68515 17.6735C8.90202 17.4567 9.19616 17.3348 9.50287 17.3348H11.8157C12.1224 17.3348 12.4166 17.4567 12.6334 17.6735C12.8503 17.8904 12.9722 18.1846 12.9722 18.4913C12.9722 18.798 12.8503 19.0921 12.6334 19.309C12.4166 19.5259 12.1224 19.6477 11.8157 19.6477Z" fill="#1FD9CA"/>
<path d="M16.2217 9.02017C15.5279 9.02017 15.2619 8.53447 13.7701 7.04267C13.5807 6.82145 13.4817 6.53688 13.4929 6.24583C13.5041 5.95478 13.6248 5.6787 13.8307 5.47274C14.0367 5.26679 14.3128 5.14614 14.6038 5.1349C14.8949 5.12365 15.1794 5.22265 15.4007 5.41211L17.0312 7.04267C17.1936 7.20373 17.3046 7.40932 17.3502 7.63345C17.3957 7.85759 17.3738 8.09019 17.2871 8.30185C17.2005 8.51352 17.053 8.69474 16.8634 8.8226C16.6737 8.95045 16.4504 9.01921 16.2217 9.02017Z" fill="#1FD9CA"/>
<path d="M24.2011 63.2568C21.5991 65.905 18.9047 65.905 16.4415 65.905V63.5921C18.5462 63.5921 20.5121 63.6615 22.559 61.6146C22.7767 61.3969 23.0721 61.2745 23.3801 61.2745C23.688 61.2745 23.9834 61.3969 24.2011 61.6146C24.4189 61.8324 24.5412 62.1277 24.5412 62.4357C24.5412 62.7437 24.4189 63.039 24.2011 63.2568Z" fill="#338F7E"/>
<path d="M25.7739 32.7964L21.1481 21.2321C21.0782 21.0565 21.0524 20.8666 21.0729 20.6787C21.0934 20.4909 21.1596 20.311 21.2657 20.1547C21.3718 19.9984 21.5146 19.8704 21.6816 19.782C21.8486 19.6937 22.0347 19.6476 22.2236 19.6478C32.4233 19.6478 31.9608 19.4627 32.4349 20.1566C32.909 20.8504 32.8628 20.4457 27.9248 32.7964C27.8396 33.0121 27.6914 33.1971 27.4996 33.3276C27.3079 33.458 27.0813 33.5277 26.8493 33.5277C26.6174 33.5277 26.3908 33.458 26.199 33.3276C26.0073 33.1971 25.8591 33.0121 25.7739 32.7964ZM23.9351 21.9606L26.8493 29.2577L29.7635 21.9606H23.9351Z" fill="#F3F3F3"/>
<path d="M31.4751 32.3685H22.2236C21.585 32.3685 21.0672 32.8863 21.0672 33.525V35.8378C21.0672 36.4765 21.585 36.9943 22.2236 36.9943H31.4751C32.1138 36.9943 32.6315 36.4765 32.6315 35.8378V33.525C32.6315 32.8863 32.1138 32.3685 31.4751 32.3685Z" fill="#338F7E"/>
<path d="M32.6315 49.715H34.9444C35.2511 49.715 35.5452 49.8368 35.7621 50.0537C35.979 50.2705 36.1008 50.5647 36.1008 50.8714C36.1008 57.4631 36.7253 56.2372 32.6315 58.9664" stroke="#338F7E" stroke-width="2" stroke-linecap="round" stroke-linejoin="round"/>
<path d="M46.844 30.391L43.3747 33.8603C43.157 34.0781 43.0346 34.3734 43.0346 34.6814C43.0346 34.9893 43.157 35.2847 43.3747 35.5024C43.5925 35.7202 43.8878 35.8425 44.1958 35.8425C44.5038 35.8425 44.7991 35.7202 45.0169 35.5024L48.4862 32.0331C48.594 31.9253 48.6795 31.7973 48.7379 31.6564C48.7962 31.5155 48.8263 31.3646 48.8263 31.2121C48.8263 31.0596 48.7962 30.9086 48.7379 30.7677C48.6795 30.6268 48.594 30.4988 48.4862 30.391C48.3783 30.2832 48.2503 30.1976 48.1095 30.1393C47.9686 30.0809 47.8176 30.0509 47.6651 30.0509C47.5126 30.0509 47.3616 30.0809 47.2207 30.1393C47.0799 30.1976 46.9519 30.2832 46.844 30.391Z" fill="#CEE0D9"/>
<path d="M4.54179 23.4524L2.22893 21.1395C2.12111 21.0317 1.9931 20.9462 1.85222 20.8878C1.71135 20.8295 1.56035 20.7994 1.40787 20.7994C1.25538 20.7994 1.10439 20.8295 0.963508 20.8878C0.822629 20.9462 0.694624 21.0317 0.5868 21.1395C0.478976 21.2474 0.393445 21.3754 0.335092 21.5162C0.276738 21.6571 0.246704 21.8081 0.246704 21.9606C0.246704 22.1131 0.276738 22.2641 0.335092 22.405C0.393445 22.5458 0.478976 22.6738 0.5868 22.7817C3.10782 25.3027 3.09625 25.4299 3.72073 25.4299C3.95042 25.4312 4.17531 25.3641 4.36672 25.2372C4.55814 25.1102 4.7074 24.9291 4.79548 24.7169C4.88356 24.5048 4.90647 24.2712 4.86129 24.046C4.81611 23.8208 4.70488 23.6141 4.54179 23.4524Z" fill="#CEE0D9"/>
<path d="M9.50289 34.6814H8.34646V33.525C8.34646 33.2183 8.22462 32.9241 8.00775 32.7072C7.79087 32.4904 7.49673 32.3685 7.19003 32.3685C6.88332 32.3685 6.58918 32.4904 6.37231 32.7072C6.15543 32.9241 6.0336 33.2183 6.0336 33.525V34.6814H4.87716C4.57046 34.6814 4.27632 34.8032 4.05944 35.0201C3.84257 35.237 3.72073 35.5311 3.72073 35.8378C3.72073 36.1445 3.84257 36.4387 4.05944 36.6555C4.27632 36.8724 4.57046 36.9943 4.87716 36.9943H6.0336V38.1507C6.0336 38.4574 6.15543 38.7515 6.37231 38.9684C6.58918 39.1853 6.88332 39.3071 7.19003 39.3071C7.49673 39.3071 7.79087 39.1853 8.00775 38.9684C8.22462 38.7515 8.34646 38.4574 8.34646 38.1507V36.9943H9.50289C9.80959 36.9943 10.1037 36.8724 10.3206 36.6555C10.5375 36.4387 10.6593 36.1445 10.6593 35.8378C10.6593 35.5311 10.5375 35.237 10.3206 35.0201C10.1037 34.8032 9.80959 34.6814 9.50289 34.6814Z" fill="#CEE0D9"/>
<path d="M54.6037 19.6477H53.4473V18.4913C53.4473 18.1846 53.3254 17.8904 53.1085 17.6735C52.8917 17.4567 52.5975 17.3348 52.2908 17.3348C51.9841 17.3348 51.69 17.4567 51.4731 17.6735C51.2562 17.8904 51.1344 18.1846 51.1344 18.4913V19.6477H49.978C49.6713 19.6477 49.3771 19.7695 49.1602 19.9864C48.9434 20.2033 48.8215 20.4974 48.8215 20.8041C48.8215 21.1108 48.9434 21.405 49.1602 21.6219C49.3771 21.8387 49.6713 21.9606 49.978 21.9606H51.1344V23.117C51.1344 23.4237 51.2562 23.7178 51.4731 23.9347C51.69 24.1516 51.9841 24.2734 52.2908 24.2734C52.5975 24.2734 52.8917 24.1516 53.1085 23.9347C53.3254 23.7178 53.4473 23.4237 53.4473 23.117V21.9606H54.6037C54.9104 21.9606 55.2045 21.8387 55.4214 21.6219C55.6383 21.405 55.7601 21.1108 55.7601 20.8041C55.7601 20.4974 55.6383 20.2033 55.4214 19.9864C55.2045 19.7695 54.9104 19.6477 54.6037 19.6477Z" fill="#CEE0D9"/>
</g>
<defs>
<clipPath id="clip0_3007_358">
<rect width="55.5202" height="74" fill="white" transform="translate(0.239868)"/>
</clipPath>
</defs>
</svg>
