<svg width="56" height="74" viewBox="0 0 56 74" fill="none" xmlns="http://www.w3.org/2000/svg">
<g clip-path="url(#clip0_639_8712)">
<path d="M33.7185 27.7428C32.985 28.2622 32.3946 28.9586 32.0024 29.7673C31.6101 30.5761 31.4288 31.4709 31.4751 32.3685H22.2236C22.2865 31.4932 22.1214 30.6165 21.7444 29.824C21.3674 29.0316 20.7914 28.3504 20.0727 27.8469C10.4974 20.9083 16.349 5.67808 28.1677 7.0311C30.4544 7.31225 32.6051 8.27006 34.3438 9.7817C36.0826 11.2933 37.3302 13.2899 37.9266 15.5153C38.523 17.7408 38.4411 20.0936 37.6914 22.2722C36.9416 24.4508 35.5582 26.3557 33.7185 27.7428Z" fill="#68B8A5"/>
<path d="M41.8829 41.6199V74H23.38V70.5307C23.38 70.224 23.2582 69.9299 23.0413 69.713C22.8245 69.4961 22.5303 69.3743 22.2236 69.3743H17.5979C17.2912 69.3743 16.997 69.2524 16.7802 69.0356C16.5633 68.8187 16.4415 68.5245 16.4415 68.2178V61.2793L9.50287 58.9664L14.1286 41.6199H41.8829Z" fill="#68B8A5"/>
<path d="M28.0058 39.3071H25.6929C25.0795 39.3071 24.4912 39.0634 24.0575 38.6296C23.6237 38.1959 23.3801 37.6076 23.3801 36.9942H30.3187C30.3187 37.6076 30.075 38.1959 29.6412 38.6296C29.2075 39.0634 28.6192 39.3071 28.0058 39.3071Z" fill="#338F7E"/>
<path d="M25.6929 3.45776V1.1449C25.6929 0.838191 25.8148 0.544048 26.0316 0.327175C26.2485 0.110302 26.5427 -0.0115356 26.8494 -0.0115356C27.1561 -0.0115356 27.4502 0.110302 27.6671 0.327175C27.884 0.544048 28.0058 0.838191 28.0058 1.1449V3.45776C28.0058 3.76446 27.884 4.0586 27.6671 4.27548C27.4502 4.49235 27.1561 4.61419 26.8494 4.61419C26.5427 4.61419 26.2485 4.49235 26.0316 4.27548C25.8148 4.0586 25.6929 3.76446 25.6929 3.45776Z" fill="#68B8A5"/>
<path d="M37.477 9.02017C37.2482 9.01921 37.025 8.95045 36.8353 8.8226C36.6457 8.69474 36.4982 8.51352 36.4116 8.30185C36.3249 8.09019 36.303 7.85759 36.3485 7.63345C36.3941 7.40932 36.5051 7.20373 36.6675 7.04267L38.298 5.41211C38.5193 5.22265 38.8038 5.12365 39.0949 5.1349C39.3859 5.14614 39.662 5.26679 39.868 5.47274C40.0739 5.6787 40.1946 5.95478 40.2058 6.24583C40.217 6.53688 40.118 6.82145 39.9286 7.04267C38.1593 8.82358 38.0899 9.02017 37.477 9.02017Z" fill="#68B8A5"/>
<path d="M44.1958 19.6478H41.8829C41.5762 19.6478 41.2821 19.5259 41.0652 19.3091C40.8483 19.0922 40.7265 18.798 40.7265 18.4913C40.7265 18.1846 40.8483 17.8905 41.0652 17.6736C41.2821 17.4567 41.5762 17.3349 41.8829 17.3349H44.1958C44.5025 17.3349 44.7966 17.4567 45.0135 17.6736C45.2304 17.8905 45.3522 18.1846 45.3522 18.4913C45.3522 18.798 45.2304 19.0922 45.0135 19.3091C44.7966 19.5259 44.5025 19.6478 44.1958 19.6478Z" fill="#68B8A5"/>
<path d="M39.1191 31.9175C38.4252 31.9175 38.1592 31.4318 36.6674 29.94C36.5596 29.8329 36.4739 29.7057 36.4153 29.5655C36.3566 29.4253 36.3262 29.275 36.3256 29.123C36.3245 28.8161 36.4454 28.5214 36.6616 28.3037C36.8779 28.0859 37.1717 27.9629 37.4786 27.9619C37.7855 27.9608 38.0802 28.0816 38.298 28.2979L39.9286 29.94C40.0909 30.1011 40.2019 30.3067 40.2475 30.5308C40.293 30.7549 40.2711 30.9875 40.1844 31.1992C40.0978 31.4108 39.9503 31.5921 39.7607 31.7199C39.5711 31.8478 39.3478 31.9165 39.1191 31.9175Z" fill="#68B8A5"/>
<path d="M14.5796 31.9175C14.3509 31.9165 14.1276 31.8478 13.938 31.7199C13.7483 31.5921 13.6009 31.4108 13.5142 31.1992C13.4276 30.9875 13.4057 30.7549 13.4512 30.5308C13.4967 30.3067 13.6077 30.1011 13.7701 29.94L15.4007 28.2979C15.6184 28.0816 15.9132 27.9608 16.2201 27.9619C16.5269 27.9629 16.8208 28.0859 17.037 28.3037C17.2533 28.5214 17.3741 28.8161 17.373 29.123C17.372 29.4299 17.249 29.7238 17.0313 29.94C15.285 31.7209 15.1925 31.9175 14.5796 31.9175Z" fill="#68B8A5"/>
<path d="M11.8157 19.6478H9.50287C9.19616 19.6478 8.90202 19.5259 8.68515 19.3091C8.46827 19.0922 8.34644 18.798 8.34644 18.4913C8.34644 18.1846 8.46827 17.8905 8.68515 17.6736C8.90202 17.4567 9.19616 17.3349 9.50287 17.3349H11.8157C12.1224 17.3349 12.4166 17.4567 12.6334 17.6736C12.8503 17.8905 12.9722 18.1846 12.9722 18.4913C12.9722 18.798 12.8503 19.0922 12.6334 19.3091C12.4166 19.5259 12.1224 19.6478 11.8157 19.6478Z" fill="#68B8A5"/>
<path d="M16.2218 9.02017C15.5279 9.02017 15.2619 8.53447 13.7701 7.04267C13.5807 6.82145 13.4817 6.53688 13.4929 6.24583C13.5042 5.95478 13.6248 5.6787 13.8308 5.47274C14.0367 5.26679 14.3128 5.14614 14.6039 5.1349C14.8949 5.12365 15.1795 5.22265 15.4007 5.41211L17.0313 7.04267C17.1937 7.20373 17.3046 7.40932 17.3502 7.63345C17.3957 7.85759 17.3738 8.09019 17.2872 8.30185C17.2005 8.51352 17.053 8.69474 16.8634 8.8226C16.6738 8.95045 16.4505 9.01921 16.2218 9.02017Z" fill="#68B8A5"/>
<path d="M24.2011 63.2568C21.5991 65.905 18.9047 65.905 16.4415 65.905V63.5921C18.5462 63.5921 20.5121 63.6615 22.559 61.6146C22.7767 61.3969 23.0721 61.2745 23.3801 61.2745C23.688 61.2745 23.9834 61.3969 24.2011 61.6146C24.4189 61.8324 24.5412 62.1277 24.5412 62.4357C24.5412 62.7437 24.4189 63.039 24.2011 63.2568Z" fill="#338F7E"/>
<path d="M25.7738 32.7964L21.1481 21.2321C21.0782 21.0565 21.0524 20.8666 21.0729 20.6787C21.0934 20.4909 21.1596 20.311 21.2657 20.1547C21.3718 19.9984 21.5146 19.8704 21.6816 19.782C21.8486 19.6937 22.0347 19.6476 22.2236 19.6478C32.4233 19.6478 31.9607 19.4627 32.4349 20.1566C32.909 20.8504 32.8628 20.4457 27.9248 32.7964C27.8395 33.0121 27.6914 33.1971 27.4996 33.3276C27.3078 33.458 27.0812 33.5277 26.8493 33.5277C26.6174 33.5277 26.3908 33.458 26.199 33.3276C26.0072 33.1971 25.8591 33.0121 25.7738 32.7964ZM23.9351 21.9606L26.8493 29.2577L29.7635 21.9606H23.9351Z" fill="#F3F3F3"/>
<path d="M31.4751 32.3685H22.2236C21.585 32.3685 21.0672 32.8862 21.0672 33.5249V35.8378C21.0672 36.4764 21.585 36.9942 22.2236 36.9942H31.4751C32.1138 36.9942 32.6315 36.4764 32.6315 35.8378V33.5249C32.6315 32.8862 32.1138 32.3685 31.4751 32.3685Z" fill="#338F7E"/>
<path d="M32.6315 49.715H34.9443C35.251 49.715 35.5452 49.8368 35.7621 50.0537C35.9789 50.2705 36.1008 50.5647 36.1008 50.8714C36.1008 57.4631 36.7252 56.2372 32.6315 58.9664" stroke="#338F7E" stroke-width="2" stroke-linecap="round" stroke-linejoin="round"/>
<path d="M46.844 30.391L43.3747 33.8603C43.1569 34.0781 43.0346 34.3734 43.0346 34.6814C43.0346 34.9893 43.1569 35.2847 43.3747 35.5024C43.5925 35.7202 43.8878 35.8425 44.1958 35.8425C44.5037 35.8425 44.7991 35.7202 45.0168 35.5024L48.4861 32.0331C48.594 31.9253 48.6795 31.7973 48.7378 31.6564C48.7962 31.5155 48.8262 31.3646 48.8262 31.2121C48.8262 31.0596 48.7962 30.9086 48.7378 30.7677C48.6795 30.6268 48.594 30.4988 48.4861 30.391C48.3783 30.2832 48.2503 30.1976 48.1094 30.1393C47.9685 30.0809 47.8175 30.0509 47.6651 30.0509C47.5126 30.0509 47.3616 30.0809 47.2207 30.1393C47.0798 30.1976 46.9518 30.2832 46.844 30.391Z" fill="#CEE0D9"/>
<path d="M4.54179 23.4524L2.22893 21.1395C2.12111 21.0317 1.9931 20.9462 1.85222 20.8878C1.71135 20.8295 1.56035 20.7994 1.40787 20.7994C1.25538 20.7994 1.10439 20.8295 0.963508 20.8878C0.822629 20.9462 0.694624 21.0317 0.5868 21.1395C0.478976 21.2474 0.393445 21.3754 0.335092 21.5162C0.276738 21.6571 0.246704 21.8081 0.246704 21.9606C0.246704 22.1131 0.276738 22.2641 0.335092 22.405C0.393445 22.5458 0.478976 22.6738 0.5868 22.7817C3.10782 25.3027 3.09625 25.4299 3.72073 25.4299C3.95042 25.4312 4.17531 25.3641 4.36672 25.2372C4.55814 25.1102 4.7074 24.9291 4.79548 24.7169C4.88356 24.5048 4.90647 24.2712 4.86129 24.046C4.81611 23.8208 4.70488 23.6141 4.54179 23.4524Z" fill="#CEE0D9"/>
<path d="M9.50286 34.6813H8.34643V33.5249C8.34643 33.2182 8.22459 32.9241 8.00772 32.7072C7.79084 32.4903 7.4967 32.3685 7.19 32.3685C6.88329 32.3685 6.58915 32.4903 6.37228 32.7072C6.1554 32.9241 6.03356 33.2182 6.03356 33.5249V34.6813H4.87713C4.57043 34.6813 4.27629 34.8032 4.05941 35.02C3.84254 35.2369 3.7207 35.5311 3.7207 35.8378C3.7207 36.1445 3.84254 36.4386 4.05941 36.6555C4.27629 36.8724 4.57043 36.9942 4.87713 36.9942H6.03356V38.1506C6.03356 38.4573 6.1554 38.7515 6.37228 38.9683C6.58915 39.1852 6.88329 39.3071 7.19 39.3071C7.4967 39.3071 7.79084 39.1852 8.00772 38.9683C8.22459 38.7515 8.34643 38.4573 8.34643 38.1506V36.9942H9.50286C9.80956 36.9942 10.1037 36.8724 10.3206 36.6555C10.5375 36.4386 10.6593 36.1445 10.6593 35.8378C10.6593 35.5311 10.5375 35.2369 10.3206 35.02C10.1037 34.8032 9.80956 34.6813 9.50286 34.6813Z" fill="#CEE0D9"/>
<path d="M54.6037 19.6478H53.4473V18.4913C53.4473 18.1846 53.3254 17.8905 53.1085 17.6736C52.8917 17.4567 52.5975 17.3349 52.2908 17.3349C51.9841 17.3349 51.69 17.4567 51.4731 17.6736C51.2562 17.8905 51.1344 18.1846 51.1344 18.4913V19.6478H49.978C49.6713 19.6478 49.3771 19.7696 49.1602 19.9865C48.9434 20.2033 48.8215 20.4975 48.8215 20.8042C48.8215 21.1109 48.9434 21.405 49.1602 21.6219C49.3771 21.8388 49.6713 21.9606 49.978 21.9606H51.1344V23.1171C51.1344 23.4238 51.2562 23.7179 51.4731 23.9348C51.69 24.1516 51.9841 24.2735 52.2908 24.2735C52.5975 24.2735 52.8917 24.1516 53.1085 23.9348C53.3254 23.7179 53.4473 23.4238 53.4473 23.1171V21.9606H54.6037C54.9104 21.9606 55.2045 21.8388 55.4214 21.6219C55.6383 21.405 55.7601 21.1109 55.7601 20.8042C55.7601 20.4975 55.6383 20.2033 55.4214 19.9865C55.2045 19.7696 54.9104 19.6478 54.6037 19.6478Z" fill="#CEE0D9"/>
</g>
<defs>
<clipPath id="clip0_639_8712">
<rect width="55.5202" height="74" fill="white" transform="translate(0.239868)"/>
</clipPath>
</defs>
</svg>
