<svg width="74" height="74" viewBox="0 0 74 74" fill="none" xmlns="http://www.w3.org/2000/svg">
<g clip-path="url(#clip0_2948_277)">
<path d="M16.1875 61.2812C16.1875 63.4278 17.0402 65.4865 18.5581 67.0044C20.076 68.5223 22.1347 69.375 24.2812 69.375H71.6875C72.3008 69.375 72.889 69.6186 73.3227 70.0523C73.7564 70.486 74 71.0742 74 71.6875C74 72.3008 73.7564 72.889 73.3227 73.3227C72.889 73.7564 72.3008 74 71.6875 74H24.2812C20.908 74 17.673 72.66 15.2877 70.2748C12.9025 67.8895 11.5625 64.6545 11.5625 61.2812C11.5625 57.908 12.9025 54.673 15.2877 52.2877C17.673 49.9025 20.908 48.5625 24.2812 48.5625H71.6875C72.3008 48.5625 72.889 48.8061 73.3227 49.2398C73.7564 49.6735 74 50.2617 74 50.875C74 51.4883 73.7564 52.0765 73.3227 52.5102C72.889 52.9439 72.3008 53.1875 71.6875 53.1875H24.2812C22.1347 53.1875 20.076 54.0402 18.5581 55.5581C17.0402 57.076 16.1875 59.1347 16.1875 61.2812Z" fill="#1FD9CA"/>
<path d="M71.6875 69.375H24.2812C22.1347 69.375 20.076 68.5223 18.5581 67.0044C17.0402 65.4865 16.1875 63.4278 16.1875 61.2812C16.1875 59.1347 17.0402 57.076 18.5581 55.5581C20.076 54.0402 22.1347 53.1875 24.2812 53.1875H71.6875C69.5409 53.1875 67.4822 54.0402 65.9644 55.5581C64.4465 57.076 63.5938 59.1347 63.5938 61.2812C63.5938 63.4278 64.4465 65.4865 65.9644 67.0044C67.4822 68.5223 69.5409 69.375 71.6875 69.375Z" fill="#C2F1E7"/>
<path d="M74.0001 38.1562C74.0001 40.9161 72.9037 43.563 70.9521 45.5145C69.0006 47.4661 66.3537 48.5625 63.5938 48.5625H27.7501C27.2941 48.5605 26.8489 48.4239 26.4704 48.1697C26.0919 47.9154 25.797 47.555 25.6227 47.1336C25.4485 46.7123 25.4027 46.2488 25.4912 45.8015C25.5796 45.3542 25.7983 44.943 26.1197 44.6196C27.0679 43.6484 24.6051 43.9375 63.5938 43.9375C65.1271 43.9375 66.5976 43.3284 67.6818 42.2442C68.766 41.16 69.3751 39.6895 69.3751 38.1562C69.3751 36.6229 68.766 35.1524 67.6818 34.0683C66.5976 32.9841 65.1271 32.375 63.5938 32.375H27.7501C27.2941 32.373 26.8489 32.2364 26.4704 31.9822C26.0919 31.7279 25.797 31.3675 25.6227 30.9461C25.4485 30.5248 25.4027 30.0613 25.4912 29.614C25.5796 29.1667 25.7983 28.7555 26.1197 28.4322C27.0679 27.4609 24.6051 27.75 63.5938 27.75C66.3537 27.75 69.0006 28.8463 70.9521 30.7979C72.9037 32.7494 74.0001 35.3963 74.0001 38.1562Z" fill="#F3A31D"/>
<path d="M69.375 38.1562C69.375 39.6895 68.7659 41.16 67.6817 42.2442C66.5975 43.3284 65.127 43.9375 63.5938 43.9375H27.75C29.2833 43.9375 30.7538 43.3284 31.838 42.2442C32.9222 41.16 33.5312 39.6895 33.5312 38.1562C33.5312 36.623 32.9222 35.1525 31.838 34.0683C30.7538 32.9841 29.2833 32.375 27.75 32.375H63.5938C65.127 32.375 66.5975 32.9841 67.6817 34.0683C68.7659 35.1525 69.375 36.623 69.375 38.1562Z" fill="#FFE9C4"/>
<path d="M42.8738 27.75C42.3682 29.3639 41.6816 30.9155 40.8272 32.375H27.75C27.1367 32.375 26.5485 32.1314 26.1148 31.6977C25.6811 31.264 25.4375 30.6758 25.4375 30.0625C25.4375 29.4492 25.6811 28.861 26.1148 28.4273C26.5485 27.9936 27.1367 27.75 27.75 27.75H42.8738Z" fill="#1FD9CA"/>
<path d="M40.8272 32.375C38.9503 35.6731 36.2845 38.4541 33.0688 40.4688C33.4534 39.5874 33.6121 38.624 33.5306 37.6659C33.449 36.7077 33.1297 35.785 32.6016 34.9813C32.0735 34.1777 31.3532 33.5184 30.5061 33.0634C29.6589 32.6083 28.7116 32.3717 27.75 32.375H40.8272Z" fill="#B6EDE2"/>
<path d="M20.8125 41.625C32.3069 41.625 41.625 32.3069 41.625 20.8125C41.625 9.31807 32.3069 0 20.8125 0C9.31807 0 0 9.31807 0 20.8125C0 32.3069 9.31807 41.625 20.8125 41.625Z" fill="#1FD9CA"/>
<path d="M32.5484 13.8751H40.4688C40.1933 13.0831 39.865 12.3105 39.4859 11.5626H31.7622C29.9668 6.9582 26.8691 2.97653 22.8475 0.104122C21.4941 -0.0288481 20.1309 -0.0288481 18.7775 0.104122C14.7588 2.97945 11.6617 6.96019 9.86281 11.5626H2.17375C1.78569 12.3109 1.44583 13.0833 1.15625 13.8751H9.07656C7.76416 18.407 7.76416 23.2182 9.07656 27.7501H1.15625C1.43169 28.542 1.76004 29.3146 2.13906 30.0626H9.86281C11.6586 34.6634 14.7515 38.644 18.7659 41.521C20.1271 41.654 21.4979 41.654 22.8591 41.521C26.8712 38.6416 29.9635 34.6618 31.7622 30.0626H39.4512C39.8442 29.3165 40.1842 28.5438 40.4688 27.7501H32.5484C33.8608 23.2182 33.8608 18.407 32.5484 13.8751ZM20.8125 1.52631C24.5419 3.9863 27.481 7.47149 29.2762 11.5626H12.3488C14.144 7.47149 17.0831 3.9863 20.8125 1.52631ZM20.8125 40.0988C17.0831 37.6388 14.144 34.1536 12.3488 30.0626H29.2762C27.481 34.1536 24.5419 37.6388 20.8125 40.0988ZM30.1319 27.7501H11.4931C10.0417 23.2389 10.0417 18.3862 11.4931 13.8751H30.1319C31.5779 18.387 31.5779 23.2381 30.1319 27.7501Z" fill="#F3F3F3"/>
<path d="M31.2188 16.1875C33.1345 16.1875 34.6875 14.6345 34.6875 12.7188C34.6875 10.803 33.1345 9.25 31.2188 9.25C29.303 9.25 27.75 10.803 27.75 12.7188C27.75 14.6345 29.303 16.1875 31.2188 16.1875Z" fill="#1FD9CA"/>
<path d="M10.4062 31.2188C11.6834 31.2188 12.7188 30.1834 12.7188 28.9062C12.7188 27.6291 11.6834 26.5938 10.4062 26.5938C9.12909 26.5938 8.09375 27.6291 8.09375 28.9062C8.09375 30.1834 9.12909 31.2188 10.4062 31.2188Z" fill="#1FD9CA"/>
</g>
<defs>
<clipPath id="clip0_2948_277">
<rect width="74" height="74" fill="white"/>
</clipPath>
</defs>
</svg>
