<svg width="44" height="50" viewBox="0 0 44 50" fill="none" xmlns="http://www.w3.org/2000/svg">
<g clip-path="url(#clip0_2932_782)">
<path d="M39.6575 11.7188H2.51467C1.23258 11.7188 0.193237 12.7681 0.193237 14.0625V40.625C0.193237 41.9194 1.23258 42.9688 2.51467 42.9688H39.6575C40.9396 42.9688 41.979 41.9194 41.979 40.625V14.0625C41.979 12.7681 40.9396 11.7188 39.6575 11.7188Z" fill="#1FD9CA"/>
<path d="M40.4313 14.0625V38.2812H1.74086V14.0625C1.74086 13.8553 1.82239 13.6566 1.9675 13.5101C2.11262 13.3636 2.30944 13.2812 2.51467 13.2812H39.6575C39.8628 13.2812 40.0596 13.3636 40.2047 13.5101C40.3498 13.6566 40.4313 13.8553 40.4313 14.0625Z" fill="#FCFCFC"/>
<path d="M27.2766 49.2188H16.4432L17.217 42.9688H26.5028L27.2766 49.2188Z" fill="#338F8A"/>
<path d="M31.9194 50H11.8004C11.5952 50 11.3983 49.9177 11.2532 49.7712C11.1081 49.6247 11.0266 49.426 11.0266 49.2188C11.0266 49.0115 11.1081 48.8128 11.2532 48.6663C11.3983 48.5198 11.5952 48.4375 11.8004 48.4375H31.9194C32.1247 48.4375 32.3215 48.5198 32.4666 48.6663C32.6117 48.8128 32.6932 49.0115 32.6932 49.2188C32.6932 49.426 32.6117 49.6247 32.4666 49.7712C32.3215 49.9177 32.1247 50 31.9194 50Z" fill="#1FD9CA"/>
<path d="M19.5385 13.2813H10.2528V11.7188H15.9635L19.5385 13.2813Z" fill="#338F8A"/>
<path d="M28.0504 13.2812V15.625C19.3295 20.4297 19.6932 20.3906 19.1748 20.1328L10.6629 15.8438C10.1212 15.5625 10.2373 15.1719 10.2373 13.2812H28.0504Z" fill="#C3F5F1"/>
<path d="M29.598 8.4375V14.3828C29.597 14.522 29.5592 14.6584 29.4884 14.7779C29.4177 14.8974 29.3166 14.9957 29.1956 15.0625L21.798 19.1406C21.577 19.257 21.3315 19.3178 21.0822 19.3178C20.833 19.3178 20.5874 19.257 20.3664 19.1406L12.226 15.0391C12.0972 14.9735 11.9891 14.873 11.9139 14.7488C11.8387 14.6245 11.7994 14.4815 11.8004 14.3359V8.4375L21.0861 12.5L29.598 8.4375Z" fill="#FFCC32"/>
<path d="M34.2663 5.32276C35.1003 5.65959 35.1003 6.84041 34.2663 7.17724L21.4606 12.3488C21.2203 12.4458 20.9518 12.4458 20.7116 12.3488L7.90593 7.17724C7.07188 6.84041 7.07188 5.65959 7.90593 5.32276L20.7116 0.151226C20.9518 0.054215 21.2203 0.0542146 21.4606 0.151225L34.2663 5.32276Z" fill="#F3A31D"/>
<path d="M28.0504 18.75V9.90622L20.7998 6.97653C20.6089 6.89987 20.456 6.7498 20.3748 6.55933C20.2935 6.36886 20.2905 6.1536 20.3664 5.96091C20.4424 5.76821 20.591 5.61386 20.7797 5.53181C20.9683 5.44977 21.1815 5.44674 21.3724 5.52341L29.1105 8.64841C29.2545 8.7063 29.3779 8.80651 29.4648 8.93605C29.5518 9.06559 29.5981 9.2185 29.598 9.37497V18.75C29.598 18.9572 29.5165 19.1559 29.3713 19.3024C29.2262 19.4489 29.0294 19.5312 28.8242 19.5312C28.619 19.5312 28.4221 19.4489 28.277 19.3024C28.1319 19.1559 28.0504 18.9572 28.0504 18.75Z" fill="#B77C02"/>
<path d="M11.8956 23.4375H7.06229C5.40543 23.4375 4.06229 24.7806 4.06229 26.4375V32.9375C4.06229 34.5944 5.40543 35.9375 7.06228 35.9375H11.8956C13.5525 35.9375 14.8956 34.5944 14.8956 32.9375V26.4375C14.8956 24.7806 13.5525 23.4375 11.8956 23.4375Z" fill="#C3F5F1"/>
<path d="M24.9477 23.4375H17.2245C16.793 23.4375 16.4432 23.7873 16.4432 24.2188C16.4432 24.6502 16.793 25 17.2245 25H24.9477C25.3792 25 25.729 24.6502 25.729 24.2188C25.729 23.7873 25.3792 23.4375 24.9477 23.4375Z" fill="#C3F5F1"/>
<path d="M32.6858 26.5625H17.2245C16.793 26.5625 16.4432 26.9123 16.4432 27.3438C16.4432 27.7752 16.793 28.125 17.2245 28.125H32.6858C33.1173 28.125 33.467 27.7752 33.467 27.3438C33.467 26.9123 33.1173 26.5625 32.6858 26.5625Z" fill="#C3F5F1"/>
<path d="M30.467 29.6875H19.4432C17.7864 29.6875 16.4432 31.0306 16.4432 32.6875V32.9375C16.4432 34.5944 17.7864 35.9375 19.4432 35.9375H30.467C32.1239 35.9375 33.467 34.5944 33.467 32.9375V32.6875C33.467 31.0306 32.1239 29.6875 30.467 29.6875Z" fill="#C3F5F1"/>
<path d="M39.4022 34.6327C38.8448 35.1955 37.8854 34.9176 37.7151 34.144L36.9001 30.441C36.7428 29.7261 37.3814 29.09 38.0956 29.2503L41.7634 30.0732C42.5303 30.2452 42.8081 31.1942 42.2549 31.7526L39.4022 34.6327Z" fill="#338F8A"/>
<path d="M42.755 33.5878L40.435 31.2455C40.0074 30.8138 39.3141 30.8138 38.8865 31.2455C38.4589 31.6772 38.4589 32.3772 38.8865 32.8089L41.2065 35.1512C41.6341 35.5829 42.3274 35.5829 42.755 35.1512C43.1826 34.7195 43.1826 34.0195 42.755 33.5878Z" fill="#338F8A"/>
</g>
<defs>
<clipPath id="clip0_2932_782">
<rect width="43.3333" height="50" fill="white" transform="translate(0.193237)"/>
</clipPath>
</defs>
</svg>
