<svg width="424" height="372" viewBox="0 0 424 372" fill="none" xmlns="http://www.w3.org/2000/svg">
<g filter="url(#filter0_d_799_1528)">
<rect x="12" y="10" width="400" height="348" rx="22" fill="white"/>
<rect x="12.5" y="10.5" width="399" height="347" rx="21.5" stroke="#E5EBEC"/>
</g>
<path d="M12 32C12 19.8497 21.8497 10 34 10H390C402.15 10 412 19.8497 412 32V358.4H12V32Z" fill="#05153D"/>
<mask id="mask0_799_1528" style="mask-type:alpha" maskUnits="userSpaceOnUse" x="12" y="10" width="400" height="349">
<path d="M12 32C12 19.8497 21.8497 10 34 10H390C402.15 10 412 19.8497 412 32V358.4H12V32Z" fill="#DCFFF0"/>
</mask>
<g mask="url(#mask0_799_1528)">
<g filter="url(#filter1_d_799_1528)">
<g filter="url(#filter2_d_799_1528)">
<path d="M86.2734 81.0835C86.2734 59.8761 103.465 42.6841 124.673 42.6841H301.73C322.938 42.6841 340.13 59.8761 340.13 81.0835V405.758H86.2734V81.0835Z" fill="white"/>
</g>
<path fill-rule="evenodd" clip-rule="evenodd" d="M264.742 56.5705C263.875 56.684 263.267 56.982 262.71 57.5693C262.037 58.2772 261.846 59.0978 261.698 61.917C261.622 63.3446 261.492 64.8783 261.409 65.3252C260.862 68.2299 259.531 70.6641 257.432 72.6006C255.726 74.1716 253.523 75.299 251.183 75.7978C249.987 76.0528 248.125 76.0663 214.285 76.0663C180.039 76.0663 178.601 76.0555 177.461 75.7901C174.821 75.175 172.972 74.2125 171.202 72.5306C168.866 70.3117 167.606 67.8664 167.181 64.7303C167.099 64.119 166.987 62.6523 166.933 61.471C166.796 58.4671 166.403 57.5352 164.968 56.8107C164.515 56.5824 163.077 56.5674 146.519 56.6193C127.528 56.6787 127.114 56.6925 122.944 57.4082C112.57 59.1882 105.175 65.2987 102.119 74.6162C100.933 78.2311 100.424 81.7686 100.178 88.1273C99.9383 94.2819 100.065 517.806 100.307 520.543C100.729 525.322 101.202 527.998 102.139 530.916C104.208 537.354 108.306 542.287 114.122 545.34C117.734 547.235 121.539 548.222 127.746 548.874C130.039 549.114 291.93 549.237 297.416 549.003C303.389 548.747 306.984 548.213 310.478 547.066C319.59 544.074 325.483 537.298 327.551 527.433C328.089 524.868 328.364 522.182 328.542 517.801C328.781 511.927 328.652 87.7325 328.41 85.0314C327.825 78.4617 327.016 75.0403 325.132 71.1762C323.822 68.4861 322.649 66.8474 320.459 64.6485C317.224 61.3992 313.537 59.3236 308.764 58.0638C305.296 57.1481 301.945 56.771 295.564 56.5779C290.468 56.4238 265.909 56.4179 264.742 56.5705Z" fill="#F6FAFB"/>
</g>
</g>
<rect x="116.477" y="122.599" width="192.958" height="144.634" rx="20" fill="#05A6EC" fill-opacity="0.07" stroke="#0033AD" stroke-width="4" stroke-linecap="round" stroke-dasharray="14 14"/>
<g filter="url(#filter3_d_799_1528)">
<rect x="185.836" y="144.326" width="181.742" height="135.171" rx="20" fill="#FF0000" fill-opacity="0.01" shape-rendering="crispEdges"/>
</g>
<rect x="179.043" y="140.081" width="192.958" height="144.634" rx="20" fill="#F7F9F9" stroke="#E5EBEC" stroke-linecap="round"/>
<rect x="116.477" y="304.99" width="192.956" height="9.87" rx="4.935" fill="#E5EBEC"/>
<rect x="116.477" y="322.86" width="164.98" height="9.87" rx="4.935" fill="#E5EBEC"/>
<rect x="116.477" y="287.12" width="89.0601" height="9.87" rx="4.935" fill="#7D888A"/>
<g filter="url(#filter4_d_799_1528)">
<path d="M326.504 180.224V191.718C326.504 193.533 325.899 195.348 324.84 196.709L283.089 241.323V241.474L280.971 264.613C277.643 268.091 265.088 267.486 263.575 264.613L261.458 241.625V241.171L219.707 196.709C218.648 195.348 218.043 193.533 218.043 191.718V180.224L272.349 181.132L326.504 180.224Z" fill="white"/>
<path d="M311.528 177.501L265.844 175.687L218.043 180.224V191.264C218.043 197.313 242.397 202.152 272.349 202.152C302.301 202.152 326.655 197.313 326.655 191.264V180.224L311.528 177.501Z" fill="#F7FBFC"/>
<path d="M326.504 180.224C326.504 184.156 319.243 187.634 307.746 190.054H307.595C305.628 190.508 303.51 190.81 301.393 191.113C300.939 191.264 300.334 191.264 299.88 191.415C293.527 192.323 286.266 192.928 278.551 193.079C276.433 193.079 274.466 193.23 272.197 193.23C270.08 193.23 267.811 193.23 265.693 193.079C254.953 192.776 245.271 191.718 237.405 190.205C225.455 187.786 217.74 184.156 217.74 180.073C217.74 175.989 225.455 172.36 237.405 169.94C239.22 169.638 241.036 169.184 243.153 168.881C243.456 168.881 243.91 168.73 244.212 168.73C247.087 168.277 250.263 167.974 253.44 167.672C253.742 167.672 254.196 167.52 254.499 167.52C257.222 167.218 260.096 167.067 263.121 167.067C263.424 167.067 263.878 167.067 264.18 167.067C264.634 167.067 265.088 167.067 265.542 167.067C267.659 166.915 269.777 166.915 272.046 166.915C272.651 166.915 273.256 166.915 273.861 166.915C274.164 166.915 274.618 166.915 274.92 166.915C276.433 166.915 277.794 166.915 279.156 167.067C282.938 167.218 286.719 167.369 290.199 167.672C290.35 167.672 290.35 167.672 290.501 167.672C292.014 167.823 293.527 167.974 295.039 168.125C297.611 168.428 300.031 168.73 302.452 169.184C304.116 169.486 305.779 169.789 307.292 170.091C319.091 172.662 326.504 176.292 326.504 180.224Z" fill="#F6F8F9"/>
<path d="M272.197 169.335C286.568 169.335 300.031 170.696 310.015 173.116C321.209 175.838 324.234 178.863 324.234 180.375C324.234 181.736 321.209 184.912 310.015 187.634C299.88 190.054 286.417 191.415 272.197 191.415C257.827 191.415 244.364 190.054 234.38 187.634C223.186 184.912 220.16 181.888 220.16 180.375C220.16 179.014 223.186 175.838 234.38 173.116C244.515 170.696 257.827 169.335 272.197 169.335ZM272.197 167.218C242.246 167.218 217.891 173.116 217.891 180.375C217.891 187.634 242.246 193.533 272.197 193.533C302.149 193.533 326.504 187.634 326.504 180.375C326.504 172.965 302.149 167.218 272.197 167.218Z" fill="white"/>
<path d="M283.089 241.473L280.971 264.612C277.643 268.09 265.087 267.486 263.575 264.612L261.457 241.625C264.634 242.532 268.113 242.986 271.895 242.986C275.828 243.137 279.761 242.532 283.089 241.473Z" fill="#F6FAFB"/>
</g>
<g filter="url(#filter5_d_799_1528)">
<rect x="239.008" y="162.192" width="23.2401" height="23.2401" rx="11.62" transform="rotate(-7.277 239.008 162.192)" fill="white"/>
</g>
<path d="M254.389 168.154C254.592 169.748 253.466 171.204 251.872 171.408C250.278 171.611 248.821 170.485 248.618 168.891C248.414 167.297 249.541 165.84 251.135 165.637C252.729 165.433 254.185 166.56 254.389 168.154Z" fill="#0033AD"/>
<path d="M247.474 175.456C247.326 174.299 248.222 173.232 249.476 173.072L254.663 172.409C255.916 172.249 257.052 173.057 257.199 174.214L257.552 176.98C257.632 177.601 257.193 178.169 256.571 178.248L249.095 179.203C248.474 179.282 247.906 178.843 247.827 178.222L247.474 175.456Z" fill="#0033AD"/>
<g filter="url(#filter6_d_799_1528)">
<rect x="211.251" y="214.589" width="20.2521" height="20.2521" rx="10.1261" transform="rotate(11.8552 211.251 214.589)" fill="white"/>
</g>
<path d="M222.541 223.607C222.223 225.122 220.738 226.092 219.223 225.774C217.709 225.456 216.739 223.971 217.057 222.456C217.375 220.942 218.86 219.972 220.374 220.289C221.889 220.607 222.859 222.093 222.541 223.607Z" fill="#D8DDDE"/>
<path d="M213.943 228.069C214.174 226.97 215.326 226.281 216.517 226.531L221.447 227.566C222.638 227.816 223.416 228.91 223.185 230.009L222.605 232.775C222.497 233.289 221.992 233.619 221.478 233.511L214.098 231.962C213.584 231.854 213.255 231.349 213.363 230.835L213.943 228.069Z" fill="#D8DDDE"/>
<g filter="url(#filter7_d_799_1528)">
<rect x="321.216" y="232.892" width="19.3445" height="19.3445" rx="9.67223" transform="rotate(-12.5957 321.216 232.892)" fill="white"/>
</g>
<path d="M334.394 236.709C334.681 237.991 333.874 239.263 332.591 239.549C331.309 239.836 330.038 239.029 329.751 237.746C329.464 236.464 330.272 235.192 331.554 234.906C332.836 234.619 334.108 235.427 334.394 236.709Z" fill="#D8DDDE"/>
<path d="M329.317 243.179C329.109 242.248 329.758 241.311 330.766 241.085L334.94 240.153C335.948 239.928 336.934 240.5 337.142 241.43L337.673 243.807C337.766 244.223 337.504 244.636 337.088 244.729L330.77 246.14C330.354 246.233 329.941 245.971 329.848 245.555L329.317 243.179Z" fill="#D8DDDE"/>
<g filter="url(#filter8_d_799_1528)">
<rect x="288.082" y="157.917" width="19.0657" height="19.0657" rx="9.53284" transform="rotate(13.6327 288.082 157.917)" fill="white"/>
</g>
<path d="M298.233 166.902C297.911 168.229 296.574 169.044 295.247 168.722C293.92 168.4 293.105 167.063 293.427 165.736C293.749 164.409 295.085 163.594 296.412 163.916C297.74 164.238 298.554 165.575 298.233 166.902Z" fill="#F3A31D"/>
<path d="M290.527 170.602C290.761 169.638 291.796 169.063 292.84 169.316L297.159 170.363C298.203 170.616 298.859 171.603 298.626 172.566L298.026 175.037C297.923 175.461 297.496 175.722 297.072 175.619L290.51 174.027C290.085 173.925 289.825 173.497 289.928 173.073L290.527 170.602Z" fill="#F3A31D"/>
<defs>
<filter id="filter0_d_799_1528" x="0" y="0" width="424" height="372" filterUnits="userSpaceOnUse" color-interpolation-filters="sRGB">
<feFlood flood-opacity="0" result="BackgroundImageFix"/>
<feColorMatrix in="SourceAlpha" type="matrix" values="0 0 0 0 0 0 0 0 0 0 0 0 0 0 0 0 0 0 127 0" result="hardAlpha"/>
<feOffset dy="2"/>
<feGaussianBlur stdDeviation="6"/>
<feComposite in2="hardAlpha" operator="out"/>
<feColorMatrix type="matrix" values="0 0 0 0 0.00317323 0 0 0 0 0.223714 0 0 0 0 0.254344 0 0 0 0.04 0"/>
<feBlend mode="normal" in2="BackgroundImageFix" result="effect1_dropShadow_799_1528"/>
<feBlend mode="normal" in="SourceGraphic" in2="effect1_dropShadow_799_1528" result="shape"/>
</filter>
<filter id="filter1_d_799_1528" x="52.674" y="18.6845" width="321.055" height="573.643" filterUnits="userSpaceOnUse" color-interpolation-filters="sRGB">
<feFlood flood-opacity="0" result="BackgroundImageFix"/>
<feColorMatrix in="SourceAlpha" type="matrix" values="0 0 0 0 0 0 0 0 0 0 0 0 0 0 0 0 0 0 127 0" result="hardAlpha"/>
<feOffset dy="9.59984"/>
<feGaussianBlur stdDeviation="16.7997"/>
<feComposite in2="hardAlpha" operator="out"/>
<feColorMatrix type="matrix" values="0 0 0 0 0.128404 0 0 0 0 0.294444 0 0 0 0 0.321011 0 0 0 0.09 0"/>
<feBlend mode="normal" in2="BackgroundImageFix" result="effect1_dropShadow_799_1528"/>
<feBlend mode="normal" in="SourceGraphic" in2="effect1_dropShadow_799_1528" result="shape"/>
</filter>
<filter id="filter2_d_799_1528" x="71.8737" y="30.6843" width="282.656" height="391.873" filterUnits="userSpaceOnUse" color-interpolation-filters="sRGB">
<feFlood flood-opacity="0" result="BackgroundImageFix"/>
<feColorMatrix in="SourceAlpha" type="matrix" values="0 0 0 0 0 0 0 0 0 0 0 0 0 0 0 0 0 0 127 0" result="hardAlpha"/>
<feOffset dy="2.39996"/>
<feGaussianBlur stdDeviation="7.19988"/>
<feComposite in2="hardAlpha" operator="out"/>
<feColorMatrix type="matrix" values="0 0 0 0 0.00317323 0 0 0 0 0.223714 0 0 0 0 0.254344 0 0 0 0.04 0"/>
<feBlend mode="normal" in2="BackgroundImageFix" result="effect1_dropShadow_799_1528"/>
<feBlend mode="normal" in="SourceGraphic" in2="effect1_dropShadow_799_1528" result="shape"/>
</filter>
<filter id="filter3_d_799_1528" x="151.836" y="116.326" width="249.742" height="203.171" filterUnits="userSpaceOnUse" color-interpolation-filters="sRGB">
<feFlood flood-opacity="0" result="BackgroundImageFix"/>
<feColorMatrix in="SourceAlpha" type="matrix" values="0 0 0 0 0 0 0 0 0 0 0 0 0 0 0 0 0 0 127 0" result="hardAlpha"/>
<feOffset dy="6"/>
<feGaussianBlur stdDeviation="17"/>
<feComposite in2="hardAlpha" operator="out"/>
<feColorMatrix type="matrix" values="0 0 0 0 0.00300777 0 0 0 0 0.724964 0 0 0 0 0.41321 0 0 0 0.2 0"/>
<feBlend mode="normal" in2="BackgroundImageFix" result="effect1_dropShadow_799_1528"/>
<feBlend mode="normal" in="SourceGraphic" in2="effect1_dropShadow_799_1528" result="shape"/>
</filter>
<filter id="filter4_d_799_1528" x="189.74" y="146.915" width="164.915" height="156.085" filterUnits="userSpaceOnUse" color-interpolation-filters="sRGB">
<feFlood flood-opacity="0" result="BackgroundImageFix"/>
<feColorMatrix in="SourceAlpha" type="matrix" values="0 0 0 0 0 0 0 0 0 0 0 0 0 0 0 0 0 0 127 0" result="hardAlpha"/>
<feOffset dy="8"/>
<feGaussianBlur stdDeviation="14"/>
<feComposite in2="hardAlpha" operator="out"/>
<feColorMatrix type="matrix" values="0 0 0 0 0.128404 0 0 0 0 0.294444 0 0 0 0 0.321011 0 0 0 0.09 0"/>
<feBlend mode="normal" in2="BackgroundImageFix" result="effect1_dropShadow_799_1528"/>
<feBlend mode="normal" in="SourceGraphic" in2="effect1_dropShadow_799_1528" result="shape"/>
</filter>
<filter id="filter5_d_799_1528" x="200.622" y="132.224" width="102.767" height="102.767" filterUnits="userSpaceOnUse" color-interpolation-filters="sRGB">
<feFlood flood-opacity="0" result="BackgroundImageFix"/>
<feColorMatrix in="SourceAlpha" type="matrix" values="0 0 0 0 0 0 0 0 0 0 0 0 0 0 0 0 0 0 127 0" result="hardAlpha"/>
<feOffset dy="11.3607"/>
<feGaussianBlur stdDeviation="19.8812"/>
<feComposite in2="hardAlpha" operator="out"/>
<feColorMatrix type="matrix" values="0 0 0 0 0.00340516 0 0 0 0 0.10301 0 0 0 0 0.116844 0 0 0 0.07 0"/>
<feBlend mode="normal" in2="BackgroundImageFix" result="effect1_dropShadow_799_1528"/>
<feBlend mode="normal" in="SourceGraphic" in2="effect1_dropShadow_799_1528" result="shape"/>
</filter>
<filter id="filter6_d_799_1528" x="174.302" y="191.701" width="89.5565" height="89.5565" filterUnits="userSpaceOnUse" color-interpolation-filters="sRGB">
<feFlood flood-opacity="0" result="BackgroundImageFix"/>
<feColorMatrix in="SourceAlpha" type="matrix" values="0 0 0 0 0 0 0 0 0 0 0 0 0 0 0 0 0 0 127 0" result="hardAlpha"/>
<feOffset dy="9.90004"/>
<feGaussianBlur stdDeviation="17.3251"/>
<feComposite in2="hardAlpha" operator="out"/>
<feColorMatrix type="matrix" values="0 0 0 0 0.00340516 0 0 0 0 0.10301 0 0 0 0 0.116844 0 0 0 0.07 0"/>
<feBlend mode="normal" in2="BackgroundImageFix" result="effect1_dropShadow_799_1528"/>
<feBlend mode="normal" in="SourceGraphic" in2="effect1_dropShadow_799_1528" result="shape"/>
</filter>
<filter id="filter7_d_799_1528" x="289.993" y="206.907" width="85.5431" height="85.5431" filterUnits="userSpaceOnUse" color-interpolation-filters="sRGB">
<feFlood flood-opacity="0" result="BackgroundImageFix"/>
<feColorMatrix in="SourceAlpha" type="matrix" values="0 0 0 0 0 0 0 0 0 0 0 0 0 0 0 0 0 0 127 0" result="hardAlpha"/>
<feOffset dy="9.45635"/>
<feGaussianBlur stdDeviation="16.5486"/>
<feComposite in2="hardAlpha" operator="out"/>
<feColorMatrix type="matrix" values="0 0 0 0 0.00340516 0 0 0 0 0.10301 0 0 0 0 0.116844 0 0 0 0.07 0"/>
<feBlend mode="normal" in2="BackgroundImageFix" result="effect1_dropShadow_799_1528"/>
<feBlend mode="normal" in="SourceGraphic" in2="effect1_dropShadow_799_1528" result="shape"/>
</filter>
<filter id="filter8_d_799_1528" x="252.944" y="136.593" width="84.3105" height="84.3105" filterUnits="userSpaceOnUse" color-interpolation-filters="sRGB">
<feFlood flood-opacity="0" result="BackgroundImageFix"/>
<feColorMatrix in="SourceAlpha" type="matrix" values="0 0 0 0 0 0 0 0 0 0 0 0 0 0 0 0 0 0 127 0" result="hardAlpha"/>
<feOffset dy="9.32006"/>
<feGaussianBlur stdDeviation="16.3101"/>
<feComposite in2="hardAlpha" operator="out"/>
<feColorMatrix type="matrix" values="0 0 0 0 0.00340516 0 0 0 0 0.10301 0 0 0 0 0.116844 0 0 0 0.07 0"/>
<feBlend mode="normal" in2="BackgroundImageFix" result="effect1_dropShadow_799_1528"/>
<feBlend mode="normal" in="SourceGraphic" in2="effect1_dropShadow_799_1528" result="shape"/>
</filter>
</defs>
</svg>
