<svg width="400" height="349" viewBox="0 0 400 349" fill="none" xmlns="http://www.w3.org/2000/svg">
<rect width="400" height="348.4" fill="#030321"/>
<mask id="mask0_845_273" style="mask-type:alpha" maskUnits="userSpaceOnUse" x="0" y="0" width="400" height="349">
<path d="M0 22C0 9.84973 9.84974 0 22 0H378C390.15 0 400 9.84974 400 22V348.4H0V22Z" fill="#DCFFF0"/>
</mask>
<g mask="url(#mask0_845_273)">
<g filter="url(#filter0_d_845_273)">
<g filter="url(#filter1_d_845_273)">
<path d="M74.2734 71.0835C74.2734 49.8761 91.4654 32.6841 112.673 32.6841H289.73C310.938 32.6841 328.13 49.8761 328.13 71.0835V395.758H74.2734V71.0835Z" fill="white"/>
</g>
<path fill-rule="evenodd" clip-rule="evenodd" d="M252.742 46.5705C251.875 46.684 251.267 46.982 250.71 47.5693C250.037 48.2771 249.846 49.0978 249.698 51.917C249.622 53.3446 249.492 54.8783 249.409 55.3252C248.862 58.2299 247.531 60.6641 245.432 62.6006C243.726 64.1716 241.523 65.299 239.183 65.7978C237.987 66.0528 236.125 66.0663 202.285 66.0663C168.039 66.0663 166.601 66.0555 165.461 65.7901C162.821 65.175 160.972 64.2125 159.202 62.5306C156.866 60.3117 155.606 57.8664 155.181 54.7302C155.099 54.119 154.987 52.6523 154.933 51.4709C154.796 48.4671 154.403 47.5352 152.968 46.8107C152.515 46.5824 151.077 46.5674 134.519 46.6193C115.528 46.6787 115.114 46.6925 110.944 47.4082C100.57 49.1882 93.1753 55.2987 90.1186 64.6162C88.9326 68.2311 88.4244 71.7685 88.1775 78.1272C87.9383 84.2819 88.065 507.806 88.3067 510.543C88.7289 515.322 89.2017 517.998 90.1393 520.916C92.2082 527.354 96.3064 532.287 102.122 535.34C105.734 537.235 109.539 538.222 115.746 538.874C118.039 539.114 279.93 539.237 285.416 539.003C291.389 538.747 294.984 538.213 298.478 537.066C307.59 534.074 313.483 527.298 315.551 517.433C316.089 514.868 316.364 512.182 316.542 507.801C316.781 501.927 316.652 77.7325 316.41 75.0314C315.825 68.4617 315.016 65.0403 313.132 61.1762C311.822 58.4861 310.649 56.8473 308.459 54.6484C305.224 51.3992 301.537 49.3236 296.764 48.0638C293.296 47.1481 289.945 46.771 283.564 46.5779C278.468 46.4238 253.909 46.4179 252.742 46.5705Z" fill="#F6FAFB"/>
</g>
</g>
<rect x="104.477" y="112.599" width="192.958" height="144.634" rx="20" fill="#05A6EC" fill-opacity="0.07" stroke="#0033AD" stroke-width="4" stroke-linecap="round" stroke-dasharray="14 14"/>
<g filter="url(#filter2_d_845_273)">
<rect x="173.836" y="134.326" width="181.742" height="135.171" rx="20" fill="#FF0000" fill-opacity="0.01" shape-rendering="crispEdges"/>
</g>
<rect x="167.043" y="130.081" width="192.958" height="144.634" rx="20" fill="#F7F9F9" stroke="#E5EBEC" stroke-linecap="round"/>
<rect x="104.477" y="294.99" width="192.956" height="9.87" rx="4.935" fill="#E5EBEC"/>
<rect x="104.477" y="312.86" width="164.98" height="9.87" rx="4.935" fill="#E5EBEC"/>
<rect x="104.477" y="277.12" width="89.0601" height="9.87" rx="4.935" fill="#7D888A"/>
<g filter="url(#filter3_d_845_273)">
<path d="M314.504 170.224V181.718C314.504 183.533 313.899 185.348 312.84 186.709L271.089 231.323V231.474L268.971 254.613C265.643 258.091 253.088 257.486 251.575 254.613L249.458 231.625V231.171L207.707 186.709C206.648 185.348 206.043 183.533 206.043 181.718V170.224L260.349 171.132L314.504 170.224Z" fill="white"/>
<path d="M299.528 167.501L253.844 165.687L206.043 170.224V181.264C206.043 187.313 230.397 192.152 260.349 192.152C290.301 192.152 314.655 187.313 314.655 181.264V170.224L299.528 167.501Z" fill="#F7FBFC"/>
<path d="M314.504 170.224C314.504 174.156 307.243 177.634 295.746 180.054H295.595C293.628 180.508 291.51 180.81 289.393 181.113C288.939 181.264 288.334 181.264 287.88 181.415C281.527 182.323 274.266 182.928 266.551 183.079C264.433 183.079 262.466 183.23 260.197 183.23C258.08 183.23 255.811 183.23 253.693 183.079C242.953 182.776 233.271 181.718 225.405 180.205C213.455 177.786 205.74 174.156 205.74 170.073C205.74 165.989 213.455 162.36 225.405 159.94C227.22 159.638 229.036 159.184 231.153 158.881C231.456 158.881 231.91 158.73 232.212 158.73C235.087 158.277 238.263 157.974 241.44 157.672C241.742 157.672 242.196 157.52 242.499 157.52C245.222 157.218 248.096 157.067 251.121 157.067C251.424 157.067 251.878 157.067 252.18 157.067C252.634 157.067 253.088 157.067 253.542 157.067C255.659 156.915 257.777 156.915 260.046 156.915C260.651 156.915 261.256 156.915 261.861 156.915C262.164 156.915 262.618 156.915 262.92 156.915C264.433 156.915 265.794 156.915 267.156 157.067C270.938 157.218 274.719 157.369 278.199 157.672C278.35 157.672 278.35 157.672 278.501 157.672C280.014 157.823 281.527 157.974 283.039 158.125C285.611 158.428 288.031 158.73 290.452 159.184C292.116 159.486 293.779 159.789 295.292 160.091C307.091 162.662 314.504 166.292 314.504 170.224Z" fill="#F6F8F9"/>
<path d="M260.197 159.335C274.568 159.335 288.031 160.696 298.015 163.116C309.209 165.838 312.234 168.863 312.234 170.375C312.234 171.736 309.209 174.912 298.015 177.634C287.88 180.054 274.417 181.415 260.197 181.415C245.827 181.415 232.364 180.054 222.38 177.634C211.186 174.912 208.16 171.888 208.16 170.375C208.16 169.014 211.186 165.838 222.38 163.116C232.515 160.696 245.827 159.335 260.197 159.335ZM260.197 157.218C230.246 157.218 205.891 163.116 205.891 170.375C205.891 177.634 230.246 183.533 260.197 183.533C290.149 183.533 314.504 177.634 314.504 170.375C314.504 162.965 290.149 157.218 260.197 157.218Z" fill="white"/>
<path d="M271.089 231.473L268.971 254.612C265.643 258.09 253.087 257.486 251.575 254.612L249.457 231.625C252.634 232.532 256.113 232.986 259.895 232.986C263.828 233.137 267.761 232.532 271.089 231.473Z" fill="#F6FAFB"/>
</g>
<g filter="url(#filter4_d_845_273)">
<rect x="227.008" y="152.192" width="23.2401" height="23.2401" rx="11.62" transform="rotate(-7.277 227.008 152.192)" fill="white"/>
</g>
<path d="M242.389 158.154C242.592 159.748 241.466 161.204 239.872 161.408C238.278 161.611 236.821 160.484 236.618 158.891C236.414 157.297 237.541 155.84 239.135 155.637C240.729 155.433 242.185 156.56 242.389 158.154Z" fill="#0033AD"/>
<path d="M235.474 165.456C235.326 164.299 236.222 163.232 237.476 163.072L242.663 162.409C243.916 162.249 245.052 163.057 245.199 164.214L245.552 166.98C245.632 167.601 245.193 168.169 244.571 168.248L237.095 169.203C236.474 169.282 235.906 168.843 235.827 168.222L235.474 165.456Z" fill="#0033AD"/>
<g filter="url(#filter5_d_845_273)">
<rect x="199.251" y="204.589" width="20.2521" height="20.2521" rx="10.1261" transform="rotate(11.8552 199.251 204.589)" fill="white"/>
</g>
<path d="M210.541 213.607C210.223 215.122 208.738 216.092 207.223 215.774C205.709 215.456 204.739 213.97 205.057 212.456C205.375 210.942 206.86 209.972 208.374 210.289C209.889 210.607 210.859 212.093 210.541 213.607Z" fill="#D8DDDE"/>
<path d="M201.943 218.069C202.174 216.97 203.326 216.281 204.517 216.531L209.447 217.566C210.638 217.816 211.416 218.91 211.185 220.009L210.605 222.775C210.497 223.289 209.992 223.619 209.478 223.511L202.098 221.962C201.584 221.854 201.255 221.349 201.363 220.835L201.943 218.069Z" fill="#D8DDDE"/>
<g filter="url(#filter6_d_845_273)">
<rect x="309.216" y="222.892" width="19.3445" height="19.3445" rx="9.67223" transform="rotate(-12.5957 309.216 222.892)" fill="white"/>
</g>
<path d="M322.394 226.709C322.681 227.991 321.874 229.263 320.591 229.549C319.309 229.836 318.038 229.029 317.751 227.746C317.465 226.464 318.272 225.192 319.554 224.906C320.836 224.619 322.108 225.427 322.394 226.709Z" fill="#D8DDDE"/>
<path d="M317.317 233.179C317.109 232.248 317.758 231.311 318.767 231.085L322.94 230.153C323.948 229.928 324.934 230.5 325.142 231.43L325.673 233.807C325.766 234.223 325.504 234.636 325.088 234.729L318.77 236.14C318.354 236.233 317.941 235.971 317.848 235.555L317.317 233.179Z" fill="#D8DDDE"/>
<g filter="url(#filter7_d_845_273)">
<rect x="276.082" y="147.917" width="19.0657" height="19.0657" rx="9.53284" transform="rotate(13.6327 276.082 147.917)" fill="white"/>
</g>
<path d="M286.233 156.902C285.911 158.229 284.574 159.044 283.247 158.722C281.92 158.4 281.105 157.063 281.427 155.736C281.749 154.409 283.085 153.594 284.412 153.916C285.739 154.238 286.554 155.575 286.233 156.902Z" fill="#F3A31D"/>
<path d="M278.527 160.602C278.761 159.638 279.796 159.063 280.84 159.316L285.159 160.363C286.203 160.616 286.859 161.602 286.626 162.566L286.026 165.037C285.923 165.461 285.496 165.722 285.071 165.619L278.51 164.027C278.085 163.925 277.825 163.497 277.928 163.073L278.527 160.602Z" fill="#F3A31D"/>
<defs>
<filter id="filter0_d_845_273" x="40.674" y="8.68452" width="321.055" height="573.643" filterUnits="userSpaceOnUse" color-interpolation-filters="sRGB">
<feFlood flood-opacity="0" result="BackgroundImageFix"/>
<feColorMatrix in="SourceAlpha" type="matrix" values="0 0 0 0 0 0 0 0 0 0 0 0 0 0 0 0 0 0 127 0" result="hardAlpha"/>
<feOffset dy="9.59984"/>
<feGaussianBlur stdDeviation="16.7997"/>
<feComposite in2="hardAlpha" operator="out"/>
<feColorMatrix type="matrix" values="0 0 0 0 0.128404 0 0 0 0 0.294444 0 0 0 0 0.321011 0 0 0 0.09 0"/>
<feBlend mode="normal" in2="BackgroundImageFix" result="effect1_dropShadow_845_273"/>
<feBlend mode="normal" in="SourceGraphic" in2="effect1_dropShadow_845_273" result="shape"/>
</filter>
<filter id="filter1_d_845_273" x="59.8737" y="20.6843" width="282.656" height="391.873" filterUnits="userSpaceOnUse" color-interpolation-filters="sRGB">
<feFlood flood-opacity="0" result="BackgroundImageFix"/>
<feColorMatrix in="SourceAlpha" type="matrix" values="0 0 0 0 0 0 0 0 0 0 0 0 0 0 0 0 0 0 127 0" result="hardAlpha"/>
<feOffset dy="2.39996"/>
<feGaussianBlur stdDeviation="7.19988"/>
<feComposite in2="hardAlpha" operator="out"/>
<feColorMatrix type="matrix" values="0 0 0 0 0.00317323 0 0 0 0 0.223714 0 0 0 0 0.254344 0 0 0 0.04 0"/>
<feBlend mode="normal" in2="BackgroundImageFix" result="effect1_dropShadow_845_273"/>
<feBlend mode="normal" in="SourceGraphic" in2="effect1_dropShadow_845_273" result="shape"/>
</filter>
<filter id="filter2_d_845_273" x="139.836" y="106.326" width="249.742" height="203.171" filterUnits="userSpaceOnUse" color-interpolation-filters="sRGB">
<feFlood flood-opacity="0" result="BackgroundImageFix"/>
<feColorMatrix in="SourceAlpha" type="matrix" values="0 0 0 0 0 0 0 0 0 0 0 0 0 0 0 0 0 0 127 0" result="hardAlpha"/>
<feOffset dy="6"/>
<feGaussianBlur stdDeviation="17"/>
<feComposite in2="hardAlpha" operator="out"/>
<feColorMatrix type="matrix" values="0 0 0 0 0.00300777 0 0 0 0 0.724964 0 0 0 0 0.41321 0 0 0 0.2 0"/>
<feBlend mode="normal" in2="BackgroundImageFix" result="effect1_dropShadow_845_273"/>
<feBlend mode="normal" in="SourceGraphic" in2="effect1_dropShadow_845_273" result="shape"/>
</filter>
<filter id="filter3_d_845_273" x="177.74" y="136.915" width="164.915" height="156.085" filterUnits="userSpaceOnUse" color-interpolation-filters="sRGB">
<feFlood flood-opacity="0" result="BackgroundImageFix"/>
<feColorMatrix in="SourceAlpha" type="matrix" values="0 0 0 0 0 0 0 0 0 0 0 0 0 0 0 0 0 0 127 0" result="hardAlpha"/>
<feOffset dy="8"/>
<feGaussianBlur stdDeviation="14"/>
<feComposite in2="hardAlpha" operator="out"/>
<feColorMatrix type="matrix" values="0 0 0 0 0.128404 0 0 0 0 0.294444 0 0 0 0 0.321011 0 0 0 0.09 0"/>
<feBlend mode="normal" in2="BackgroundImageFix" result="effect1_dropShadow_845_273"/>
<feBlend mode="normal" in="SourceGraphic" in2="effect1_dropShadow_845_273" result="shape"/>
</filter>
<filter id="filter4_d_845_273" x="188.622" y="122.224" width="102.767" height="102.767" filterUnits="userSpaceOnUse" color-interpolation-filters="sRGB">
<feFlood flood-opacity="0" result="BackgroundImageFix"/>
<feColorMatrix in="SourceAlpha" type="matrix" values="0 0 0 0 0 0 0 0 0 0 0 0 0 0 0 0 0 0 127 0" result="hardAlpha"/>
<feOffset dy="11.3607"/>
<feGaussianBlur stdDeviation="19.8812"/>
<feComposite in2="hardAlpha" operator="out"/>
<feColorMatrix type="matrix" values="0 0 0 0 0.00340516 0 0 0 0 0.10301 0 0 0 0 0.116844 0 0 0 0.07 0"/>
<feBlend mode="normal" in2="BackgroundImageFix" result="effect1_dropShadow_845_273"/>
<feBlend mode="normal" in="SourceGraphic" in2="effect1_dropShadow_845_273" result="shape"/>
</filter>
<filter id="filter5_d_845_273" x="162.302" y="181.701" width="89.5565" height="89.5565" filterUnits="userSpaceOnUse" color-interpolation-filters="sRGB">
<feFlood flood-opacity="0" result="BackgroundImageFix"/>
<feColorMatrix in="SourceAlpha" type="matrix" values="0 0 0 0 0 0 0 0 0 0 0 0 0 0 0 0 0 0 127 0" result="hardAlpha"/>
<feOffset dy="9.90004"/>
<feGaussianBlur stdDeviation="17.3251"/>
<feComposite in2="hardAlpha" operator="out"/>
<feColorMatrix type="matrix" values="0 0 0 0 0.00340516 0 0 0 0 0.10301 0 0 0 0 0.116844 0 0 0 0.07 0"/>
<feBlend mode="normal" in2="BackgroundImageFix" result="effect1_dropShadow_845_273"/>
<feBlend mode="normal" in="SourceGraphic" in2="effect1_dropShadow_845_273" result="shape"/>
</filter>
<filter id="filter6_d_845_273" x="277.993" y="196.907" width="85.5431" height="85.5431" filterUnits="userSpaceOnUse" color-interpolation-filters="sRGB">
<feFlood flood-opacity="0" result="BackgroundImageFix"/>
<feColorMatrix in="SourceAlpha" type="matrix" values="0 0 0 0 0 0 0 0 0 0 0 0 0 0 0 0 0 0 127 0" result="hardAlpha"/>
<feOffset dy="9.45635"/>
<feGaussianBlur stdDeviation="16.5486"/>
<feComposite in2="hardAlpha" operator="out"/>
<feColorMatrix type="matrix" values="0 0 0 0 0.00340516 0 0 0 0 0.10301 0 0 0 0 0.116844 0 0 0 0.07 0"/>
<feBlend mode="normal" in2="BackgroundImageFix" result="effect1_dropShadow_845_273"/>
<feBlend mode="normal" in="SourceGraphic" in2="effect1_dropShadow_845_273" result="shape"/>
</filter>
<filter id="filter7_d_845_273" x="240.944" y="126.593" width="84.3105" height="84.3105" filterUnits="userSpaceOnUse" color-interpolation-filters="sRGB">
<feFlood flood-opacity="0" result="BackgroundImageFix"/>
<feColorMatrix in="SourceAlpha" type="matrix" values="0 0 0 0 0 0 0 0 0 0 0 0 0 0 0 0 0 0 127 0" result="hardAlpha"/>
<feOffset dy="9.32006"/>
<feGaussianBlur stdDeviation="16.3101"/>
<feComposite in2="hardAlpha" operator="out"/>
<feColorMatrix type="matrix" values="0 0 0 0 0.00340516 0 0 0 0 0.10301 0 0 0 0 0.116844 0 0 0 0.07 0"/>
<feBlend mode="normal" in2="BackgroundImageFix" result="effect1_dropShadow_845_273"/>
<feBlend mode="normal" in="SourceGraphic" in2="effect1_dropShadow_845_273" result="shape"/>
</filter>
</defs>
</svg>
