<svg width="440" height="389" viewBox="0 0 440 389" fill="none" xmlns="http://www.w3.org/2000/svg">
<g filter="url(#filter0_dd_799_1570)">
<g filter="url(#filter1_d_799_1570)">
<rect x="20" y="16" width="400" height="348" rx="22" fill="white"/>
<rect x="20.5" y="16.5" width="399" height="347" rx="21.5" stroke="#E5EBEC"/>
</g>
<path d="M20 38C20 25.8497 29.8497 16 42 16H398C410.15 16 420 25.8497 420 38V364.4H20V38Z" fill="#05153D"/>
<mask id="mask0_799_1570" style="mask-type:alpha" maskUnits="userSpaceOnUse" x="20" y="16" width="400" height="349">
<path d="M20 38C20 25.8497 29.8497 16 42 16H398C410.15 16 420 25.8497 420 38V364.4H20V38Z" fill="#DCFFF0"/>
</mask>
<g mask="url(#mask0_799_1570)">
<g filter="url(#filter2_d_799_1570)">
<rect x="75.168" y="72.6362" width="296.701" height="317.42" rx="23" fill="#F3A31D"/>
</g>
<path d="M65.4883 84.8003C65.4883 72.0977 75.7857 61.8003 88.4883 61.8003H351.509C364.212 61.8003 374.509 72.0977 374.509 84.8003V381.931H65.4883V84.8003Z" fill="white"/>
<line x1="65.5586" y1="98.5625" x2="373.688" y2="98.5625" stroke="#E5EBEC"/>
<line x1="101.93" y1="99.5396" x2="101.93" y2="387.598" stroke="#E5EBEC"/>
<rect x="148.867" y="181.331" width="133.378" height="7.86996" rx="3.93498" fill="#E5EBEC"/>
<rect x="148.867" y="288.551" width="133.378" height="7.86996" rx="3.93498" fill="#E5EBEC"/>
<rect x="128.43" y="217.071" width="108.516" height="7.86996" rx="3.93498" fill="#E5EBEC"/>
<rect x="244.182" y="217.071" width="75.4803" height="7.86996" rx="3.93498" fill="#E5EBEC"/>
<rect x="128.43" y="324.292" width="108.516" height="7.86996" rx="3.93498" fill="#E5EBEC"/>
<rect x="244.182" y="324.292" width="75.4803" height="7.86996" rx="3.93498" fill="#E5EBEC"/>
<rect x="281.127" y="199.201" width="64.0746" height="7.86996" rx="3.93498" fill="#030321"/>
<rect x="209.904" y="199.201" width="64.0746" height="7.86996" rx="3.93498" fill="#0033AD"/>
<rect x="281.127" y="306.422" width="64.0746" height="7.86996" rx="3.93498" fill="#030321"/>
<rect x="209.904" y="306.421" width="64.0746" height="7.86996" rx="3.93498" fill="#F3A31D"/>
<rect x="156.488" y="145.59" width="80.4601" height="7.86996" rx="3.93498" fill="#E5EBEC"/>
<rect x="244.186" y="145.59" width="69.1575" height="7.86996" rx="3.93498" fill="#E5EBEC"/>
<rect x="156.488" y="252.811" width="80.4601" height="7.86996" rx="3.93498" fill="#E5EBEC"/>
<rect x="244.186" y="252.811" width="69.1575" height="7.86996" rx="3.93498" fill="#E5EBEC"/>
<rect x="130.678" y="127.72" width="42.9294" height="7.86996" rx="3.93498" fill="#E5EBEC"/>
<rect x="281.992" y="127.72" width="68.8776" height="7.86996" rx="3.93498" fill="#E5EBEC"/>
<rect x="181.206" y="127.72" width="93.1883" height="7.86996" rx="3.93498" fill="#0033AD"/>
<rect x="130.678" y="234.941" width="42.9294" height="7.86996" rx="3.93498" fill="#E5EBEC"/>
<rect x="281.992" y="234.941" width="68.8776" height="7.86996" rx="3.93498" fill="#E5EBEC"/>
<rect x="181.206" y="234.941" width="93.1883" height="7.86996" rx="3.93498" fill="#F3A31D"/>
<rect x="130.678" y="163.46" width="42.9294" height="7.86996" rx="3.93498" fill="#030321"/>
<rect x="266.016" y="163.46" width="66.4114" height="7.86996" rx="3.93498" fill="#E5EBEC"/>
<rect x="181.206" y="163.46" width="77.2167" height="7.86996" rx="3.93498" fill="#F3A31D"/>
<rect x="130.678" y="270.681" width="42.9294" height="7.86996" rx="3.93498" fill="#E5EBEC"/>
<rect x="266.016" y="270.681" width="66.4114" height="7.86996" rx="3.93498" fill="#E5EBEC"/>
<rect x="181.206" y="270.681" width="77.2167" height="7.86996" rx="3.93498" fill="#0033AD"/>
<circle cx="91.3297" cy="80.2853" r="5.05235" fill="#0033AD"/>
<circle cx="107.354" cy="80.2853" r="5.05235" fill="#F3A31D"/>
<circle cx="123.379" cy="80.2853" r="5.05235" fill="#030321"/>
</g>
</g>
<defs>
<filter id="filter0_dd_799_1570" x="0" y="0" width="440" height="388.4" filterUnits="userSpaceOnUse" color-interpolation-filters="sRGB">
<feFlood flood-opacity="0" result="BackgroundImageFix"/>
<feColorMatrix in="SourceAlpha" type="matrix" values="0 0 0 0 0 0 0 0 0 0 0 0 0 0 0 0 0 0 127 0" result="hardAlpha"/>
<feOffset dy="2"/>
<feGaussianBlur stdDeviation="6"/>
<feComposite in2="hardAlpha" operator="out"/>
<feColorMatrix type="matrix" values="0 0 0 0 0.00317323 0 0 0 0 0.223714 0 0 0 0 0.254344 0 0 0 0.04 0"/>
<feBlend mode="normal" in2="BackgroundImageFix" result="effect1_dropShadow_799_1570"/>
<feColorMatrix in="SourceAlpha" type="matrix" values="0 0 0 0 0 0 0 0 0 0 0 0 0 0 0 0 0 0 127 0" result="hardAlpha"/>
<feOffset dy="4"/>
<feGaussianBlur stdDeviation="10"/>
<feComposite in2="hardAlpha" operator="out"/>
<feColorMatrix type="matrix" values="0 0 0 0 0.00392157 0 0 0 0 0.223529 0 0 0 0 0.254902 0 0 0 0.04 0"/>
<feBlend mode="normal" in2="effect1_dropShadow_799_1570" result="effect2_dropShadow_799_1570"/>
<feBlend mode="normal" in="SourceGraphic" in2="effect2_dropShadow_799_1570" result="shape"/>
</filter>
<filter id="filter1_d_799_1570" x="8" y="6" width="424" height="372" filterUnits="userSpaceOnUse" color-interpolation-filters="sRGB">
<feFlood flood-opacity="0" result="BackgroundImageFix"/>
<feColorMatrix in="SourceAlpha" type="matrix" values="0 0 0 0 0 0 0 0 0 0 0 0 0 0 0 0 0 0 127 0" result="hardAlpha"/>
<feOffset dy="2"/>
<feGaussianBlur stdDeviation="6"/>
<feComposite in2="hardAlpha" operator="out"/>
<feColorMatrix type="matrix" values="0 0 0 0 0.00317323 0 0 0 0 0.223714 0 0 0 0 0.254344 0 0 0 0.04 0"/>
<feBlend mode="normal" in2="BackgroundImageFix" result="effect1_dropShadow_799_1570"/>
<feBlend mode="normal" in="SourceGraphic" in2="effect1_dropShadow_799_1570" result="shape"/>
</filter>
<filter id="filter2_d_799_1570" x="51.168" y="54.6362" width="344.701" height="365.42" filterUnits="userSpaceOnUse" color-interpolation-filters="sRGB">
<feFlood flood-opacity="0" result="BackgroundImageFix"/>
<feColorMatrix in="SourceAlpha" type="matrix" values="0 0 0 0 0 0 0 0 0 0 0 0 0 0 0 0 0 0 127 0" result="hardAlpha"/>
<feOffset dy="6"/>
<feGaussianBlur stdDeviation="12"/>
<feComposite in2="hardAlpha" operator="out"/>
<feColorMatrix type="matrix" values="0 0 0 0 0.00317323 0 0 0 0 0.223714 0 0 0 0 0.254344 0 0 0 0.12 0"/>
<feBlend mode="normal" in2="BackgroundImageFix" result="effect1_dropShadow_799_1570"/>
<feBlend mode="normal" in="SourceGraphic" in2="effect1_dropShadow_799_1570" result="shape"/>
</filter>
</defs>
</svg>
