<svg width="424" height="372" viewBox="0 0 424 372" fill="none" xmlns="http://www.w3.org/2000/svg">
<g filter="url(#filter0_d_799_1621)">
<rect x="12" y="10" width="400" height="348" rx="22" fill="white"/>
<rect x="12.5" y="10.5" width="399" height="347" rx="21.5" stroke="#E5EBEC"/>
</g>
<path d="M12 32C12 19.8497 21.8497 10 34 10H390C402.15 10 412 19.8497 412 32V358.4H12V32Z" fill="#05153D"/>
<mask id="mask0_799_1621" style="mask-type:alpha" maskUnits="userSpaceOnUse" x="12" y="10" width="400" height="349">
<path d="M12 32C12 19.8497 21.8497 10 34 10H390C402.15 10 412 19.8497 412 32V358.4H12V32Z" fill="#DCFFF0"/>
</mask>
<g mask="url(#mask0_799_1621)">
<g filter="url(#filter1_d_799_1621)">
<rect x="57.4883" y="55.8003" width="309.021" height="320.131" rx="23" fill="white"/>
</g>
<rect opacity="0.3" x="80.6459" y="176.044" width="262.552" height="301.49" rx="12" fill="#E5EBEC"/>
<rect x="102.635" y="195.444" width="58.2012" height="11.6402" rx="5.82012" fill="#ACBABC"/>
<path d="M288.051 310.643C288.051 320.567 286.096 330.395 282.298 339.564C278.5 348.733 272.933 357.064 265.916 364.081C258.898 371.099 250.567 376.666 241.398 380.464C232.229 384.262 222.401 386.216 212.477 386.216C202.553 386.216 192.725 384.262 183.556 380.464C174.387 376.666 166.056 371.099 159.038 364.081C152.021 357.064 146.454 348.733 142.656 339.564C138.858 330.395 136.903 320.567 136.903 310.643C136.903 300.718 138.858 290.891 142.656 281.722C146.454 272.553 152.021 264.222 159.038 257.204C166.056 250.186 174.387 244.62 183.556 240.822C192.725 237.024 202.553 235.069 212.477 235.069C222.401 235.069 232.229 237.024 241.398 240.822C250.567 244.62 258.898 250.186 265.916 257.204C272.933 264.222 278.5 272.553 282.298 281.722C286.096 290.891 288.051 300.718 288.051 310.643L288.051 310.643Z" stroke="#E5EBEC" stroke-width="9.41"/>
<path d="M139.823 289.839C143.691 276.331 151.248 264.169 161.645 254.719C172.043 245.268 184.869 238.903 198.684 236.339C212.499 233.774 226.755 235.112 239.851 240.201C252.948 245.291 264.366 253.93 272.824 265.15C281.282 276.37 286.445 289.725 287.733 303.717C289.02 317.709 286.382 331.782 280.114 344.357C273.845 356.932 264.196 367.511 252.248 374.905C240.3 382.299 226.528 386.216 212.477 386.216" stroke="#0033AD" stroke-width="9.41" stroke-linecap="round"/>
<path d="M264.971 310.643C264.971 317.537 263.614 324.363 260.976 330.731C258.337 337.1 254.471 342.887 249.596 347.762C244.722 352.636 238.935 356.503 232.566 359.141C226.197 361.779 219.371 363.136 212.478 363.136C205.584 363.136 198.758 361.779 192.389 359.141C186.021 356.503 180.234 352.636 175.359 347.761C170.485 342.887 166.618 337.1 163.98 330.731C161.342 324.363 159.984 317.537 159.984 310.643C159.984 303.749 161.342 296.923 163.98 290.555C166.618 284.186 170.485 278.399 175.359 273.524C180.234 268.65 186.021 264.783 192.389 262.145C198.758 259.507 205.584 258.149 212.478 258.149C219.371 258.149 226.197 259.507 232.566 262.145C238.935 264.783 244.722 268.65 249.596 273.524C254.471 278.399 258.337 284.186 260.976 290.555C263.614 296.923 264.971 303.749 264.971 310.643L264.971 310.643Z" stroke="#E5EBEC" stroke-width="9.41"/>
<path d="M240.156 310.641C240.156 314.336 239.428 317.995 238.014 321.409C236.6 324.822 234.527 327.924 231.915 330.537C229.302 333.149 226.2 335.222 222.787 336.636C219.373 338.05 215.714 338.777 212.019 338.777C208.324 338.777 204.666 338.05 201.252 336.636C197.838 335.222 194.737 333.149 192.124 330.537C189.511 327.924 187.439 324.822 186.025 321.409C184.611 317.995 183.883 314.336 183.883 310.641C183.883 306.946 184.611 303.288 186.025 299.874C187.439 296.46 189.511 293.359 192.124 290.746C194.737 288.133 197.838 286.061 201.252 284.647C204.666 283.233 208.324 282.505 212.019 282.505C215.714 282.505 219.373 283.233 222.787 284.647C226.2 286.061 229.302 288.133 231.915 290.746C234.527 293.359 236.6 296.46 238.014 299.874C239.428 303.288 240.156 306.946 240.156 310.641L240.156 310.641Z" stroke="#E5EBEC" stroke-width="9.41"/>
<path d="M231.915 290.746C235.705 294.536 238.334 299.331 239.492 304.565C240.649 309.799 240.288 315.255 238.449 320.29C236.611 325.326 233.372 329.731 229.115 332.988C224.857 336.245 219.758 338.218 214.417 338.675" stroke="#F3A31D" stroke-width="9.41" stroke-linecap="round"/>
<path d="M187.068 264.709C194.008 260.87 201.727 258.654 209.645 258.226C217.564 257.798 225.477 259.17 232.789 262.238C240.102 265.307 246.624 269.992 251.867 275.943C257.109 281.893 260.935 288.954 263.057 296.595C265.179 304.236 265.542 312.259 264.12 320.061C262.697 327.862 259.525 335.24 254.842 341.64C250.159 348.04 244.087 353.296 237.082 357.013C230.077 360.73 222.32 362.812 214.395 363.101" stroke="#030321" stroke-width="9.41" stroke-linecap="round"/>
<rect opacity="0.3" x="80.6467" y="101.03" width="124.632" height="61.5068" rx="12" fill="#E5EBEC"/>
<path d="M100.677 135.259C98.584 132.51 98.584 128.65 100.677 125.901C103.133 122.675 107.186 118.965 112.835 118.965C118.483 118.965 122.537 122.675 124.993 125.902C127.086 128.651 127.086 132.511 124.993 135.26C122.537 138.485 118.483 142.196 112.835 142.196C107.186 142.196 103.133 138.485 100.677 135.259Z" fill="#0033AD"/>
<path d="M112.835 124.245C109.335 124.245 106.499 127.081 106.499 130.58C106.499 134.08 109.335 136.916 112.835 136.916C116.334 136.916 119.171 134.08 119.171 130.58C119.171 127.081 116.334 124.245 112.835 124.245Z" fill="#F6FAFB"/>
<rect x="133.678" y="119.942" width="54.3211" height="7.76016" rx="3.88008" fill="#ACBABC"/>
<rect x="133.678" y="133.339" width="32.334" height="7.76016" rx="3.88008" fill="#E5EBEC"/>
<rect opacity="0.3" x="217.74" y="101.03" width="125.211" height="61.7924" rx="12" fill="#E5EBEC"/>
<rect x="268.734" y="120.122" width="54.3211" height="7.76016" rx="3.88008" fill="#ACBABC"/>
<rect x="268.734" y="134.639" width="32.334" height="7.76016" rx="3.88008" fill="#E5EBEC"/>
<circle cx="83.3297" cy="74.2853" r="5.05235" fill="#0033AD"/>
<circle cx="99.3543" cy="74.2853" r="5.05235" fill="#F3A31D"/>
<circle cx="115.379" cy="74.2853" r="5.05235" fill="#030321"/>
</g>
<defs>
<filter id="filter0_d_799_1621" x="0" y="0" width="424" height="372" filterUnits="userSpaceOnUse" color-interpolation-filters="sRGB">
<feFlood flood-opacity="0" result="BackgroundImageFix"/>
<feColorMatrix in="SourceAlpha" type="matrix" values="0 0 0 0 0 0 0 0 0 0 0 0 0 0 0 0 0 0 127 0" result="hardAlpha"/>
<feOffset dy="2"/>
<feGaussianBlur stdDeviation="6"/>
<feComposite in2="hardAlpha" operator="out"/>
<feColorMatrix type="matrix" values="0 0 0 0 0.00317323 0 0 0 0 0.223714 0 0 0 0 0.254344 0 0 0 0.04 0"/>
<feBlend mode="normal" in2="BackgroundImageFix" result="effect1_dropShadow_799_1621"/>
<feBlend mode="normal" in="SourceGraphic" in2="effect1_dropShadow_799_1621" result="shape"/>
</filter>
<filter id="filter1_d_799_1621" x="29.4883" y="35.8003" width="365.021" height="376.131" filterUnits="userSpaceOnUse" color-interpolation-filters="sRGB">
<feFlood flood-opacity="0" result="BackgroundImageFix"/>
<feColorMatrix in="SourceAlpha" type="matrix" values="0 0 0 0 0 0 0 0 0 0 0 0 0 0 0 0 0 0 127 0" result="hardAlpha"/>
<feOffset dy="8"/>
<feGaussianBlur stdDeviation="14"/>
<feComposite in2="hardAlpha" operator="out"/>
<feColorMatrix type="matrix" values="0 0 0 0 0.128404 0 0 0 0 0.294444 0 0 0 0 0.321011 0 0 0 0.09 0"/>
<feBlend mode="normal" in2="BackgroundImageFix" result="effect1_dropShadow_799_1621"/>
<feBlend mode="normal" in="SourceGraphic" in2="effect1_dropShadow_799_1621" result="shape"/>
</filter>
</defs>
</svg>
