<svg width="400" height="349" viewBox="0 0 400 349" fill="none" xmlns="http://www.w3.org/2000/svg">
<rect width="400" height="348.4" fill="#030321"/>
<mask id="mask0_845_360" style="mask-type:alpha" maskUnits="userSpaceOnUse" x="0" y="0" width="400" height="349">
<path d="M0 22C0 9.84973 9.84974 0 22 0H378C390.15 0 400 9.84974 400 22V348.4H0V22Z" fill="#DCFFF0"/>
</mask>
<g mask="url(#mask0_845_360)">
<g filter="url(#filter0_d_845_360)">
<rect x="45.4883" y="45.8003" width="309.021" height="320.131" rx="23" fill="white"/>
</g>
<rect opacity="0.3" x="68.6459" y="166.044" width="262.552" height="301.49" rx="12" fill="#E5EBEC"/>
<rect x="90.6345" y="185.444" width="58.2012" height="11.6402" rx="5.82012" fill="#ACBABC"/>
<path d="M276.051 300.643C276.051 310.567 274.096 320.395 270.298 329.564C266.5 338.733 260.933 347.064 253.916 354.081C246.898 361.099 238.567 366.666 229.398 370.464C220.229 374.262 210.401 376.216 200.477 376.216C190.553 376.216 180.725 374.262 171.556 370.464C162.387 366.666 154.056 361.099 147.038 354.081C140.021 347.064 134.454 338.733 130.656 329.564C126.858 320.395 124.903 310.567 124.903 300.643C124.903 290.718 126.858 280.891 130.656 271.722C134.454 262.553 140.021 254.222 147.038 247.204C154.056 240.186 162.387 234.62 171.556 230.822C180.725 227.024 190.553 225.069 200.477 225.069C210.401 225.069 220.229 227.024 229.398 230.822C238.567 234.62 246.898 240.186 253.916 247.204C260.933 254.222 266.5 262.553 270.298 271.722C274.096 280.891 276.051 290.718 276.051 300.643L276.051 300.643Z" stroke="#E5EBEC" stroke-width="9.41"/>
<path d="M127.823 279.839C131.691 266.331 139.248 254.169 149.645 244.719C160.043 235.268 172.869 228.903 186.684 226.339C200.499 223.774 214.755 225.112 227.851 230.201C240.948 235.291 252.366 243.93 260.824 255.15C269.282 266.37 274.445 279.725 275.733 293.717C277.02 307.709 274.382 321.782 268.114 334.357C261.845 346.932 252.196 357.511 240.248 364.905C228.3 372.299 214.528 376.216 200.477 376.216" stroke="#0033AD" stroke-width="9.41" stroke-linecap="round"/>
<path d="M252.971 300.643C252.971 307.537 251.614 314.363 248.976 320.731C246.337 327.1 242.471 332.887 237.596 337.761C232.722 342.636 226.935 346.503 220.566 349.141C214.197 351.779 207.371 353.136 200.478 353.136C193.584 353.136 186.758 351.779 180.389 349.141C174.021 346.503 168.234 342.636 163.359 337.761C158.485 332.887 154.618 327.1 151.98 320.731C149.342 314.363 147.984 307.537 147.984 300.643C147.984 293.749 149.342 286.923 151.98 280.555C154.618 274.186 158.485 268.399 163.359 263.524C168.234 258.65 174.021 254.783 180.389 252.145C186.758 249.507 193.584 248.149 200.478 248.149C207.371 248.149 214.197 249.507 220.566 252.145C226.935 254.783 232.722 258.65 237.596 263.524C242.471 268.399 246.337 274.186 248.976 280.555C251.614 286.923 252.971 293.749 252.971 300.643L252.971 300.643Z" stroke="#E5EBEC" stroke-width="9.41"/>
<path d="M228.156 300.641C228.156 304.336 227.428 307.995 226.014 311.408C224.6 314.822 222.527 317.924 219.915 320.537C217.302 323.149 214.2 325.222 210.787 326.636C207.373 328.05 203.714 328.777 200.019 328.777C196.324 328.777 192.666 328.05 189.252 326.636C185.838 325.222 182.737 323.149 180.124 320.537C177.511 317.924 175.439 314.822 174.025 311.408C172.611 307.995 171.883 304.336 171.883 300.641C171.883 296.946 172.611 293.288 174.025 289.874C175.439 286.46 177.511 283.359 180.124 280.746C182.737 278.133 185.838 276.061 189.252 274.647C192.666 273.233 196.324 272.505 200.019 272.505C203.714 272.505 207.373 273.233 210.787 274.647C214.2 276.061 217.302 278.133 219.915 280.746C222.527 283.359 224.6 286.46 226.014 289.874C227.428 293.288 228.156 296.946 228.156 300.641L228.156 300.641Z" stroke="#E5EBEC" stroke-width="9.41"/>
<path d="M219.915 280.746C223.705 284.536 226.334 289.331 227.492 294.565C228.649 299.799 228.288 305.255 226.449 310.29C224.611 315.326 221.372 319.731 217.115 322.988C212.857 326.245 207.758 328.218 202.417 328.675" stroke="#F3A31D" stroke-width="9.41" stroke-linecap="round"/>
<path d="M175.068 254.709C182.008 250.87 189.727 248.654 197.645 248.226C205.564 247.798 213.477 249.17 220.789 252.238C228.102 255.307 234.624 259.992 239.867 265.943C245.109 271.893 248.935 278.954 251.057 286.595C253.179 294.236 253.542 302.259 252.12 310.061C250.697 317.862 247.525 325.24 242.842 331.64C238.159 338.04 232.087 343.296 225.082 347.013C218.077 350.73 210.32 352.812 202.395 353.101" stroke="#030321" stroke-width="9.41" stroke-linecap="round"/>
<rect opacity="0.3" x="68.6467" y="91.03" width="124.632" height="61.5068" rx="12" fill="#E5EBEC"/>
<path d="M88.6768 125.259C86.584 122.51 86.584 118.65 88.6768 115.901C91.1331 112.675 95.1862 108.965 100.835 108.965C106.483 108.965 110.537 112.675 112.993 115.902C115.086 118.651 115.086 122.511 112.993 125.26C110.537 128.485 106.483 132.196 100.835 132.196C95.1862 132.196 91.1331 128.485 88.6768 125.259Z" fill="#0033AD"/>
<path d="M100.835 114.245C97.3354 114.245 94.499 117.081 94.499 120.58C94.499 124.08 97.3354 126.916 100.835 126.916C104.334 126.916 107.171 124.08 107.171 120.58C107.171 117.081 104.334 114.245 100.835 114.245Z" fill="#F6FAFB"/>
<rect x="121.678" y="109.942" width="54.3211" height="7.76016" rx="3.88008" fill="#ACBABC"/>
<rect x="121.678" y="123.339" width="32.334" height="7.76016" rx="3.88008" fill="#E5EBEC"/>
<rect opacity="0.3" x="205.74" y="91.03" width="125.211" height="61.7924" rx="12" fill="#E5EBEC"/>
<rect x="256.734" y="110.122" width="54.3211" height="7.76016" rx="3.88008" fill="#ACBABC"/>
<rect x="256.734" y="124.639" width="32.334" height="7.76016" rx="3.88008" fill="#E5EBEC"/>
<circle cx="71.3297" cy="64.2853" r="5.05235" fill="#0033AD"/>
<circle cx="87.3543" cy="64.2853" r="5.05235" fill="#F3A31D"/>
<circle cx="103.379" cy="64.2853" r="5.05235" fill="#030321"/>
</g>
<defs>
<filter id="filter0_d_845_360" x="17.4883" y="25.8003" width="365.021" height="376.131" filterUnits="userSpaceOnUse" color-interpolation-filters="sRGB">
<feFlood flood-opacity="0" result="BackgroundImageFix"/>
<feColorMatrix in="SourceAlpha" type="matrix" values="0 0 0 0 0 0 0 0 0 0 0 0 0 0 0 0 0 0 127 0" result="hardAlpha"/>
<feOffset dy="8"/>
<feGaussianBlur stdDeviation="14"/>
<feComposite in2="hardAlpha" operator="out"/>
<feColorMatrix type="matrix" values="0 0 0 0 0.128404 0 0 0 0 0.294444 0 0 0 0 0.321011 0 0 0 0.09 0"/>
<feBlend mode="normal" in2="BackgroundImageFix" result="effect1_dropShadow_845_360"/>
<feBlend mode="normal" in="SourceGraphic" in2="effect1_dropShadow_845_360" result="shape"/>
</filter>
</defs>
</svg>
