<svg width="424" height="372" viewBox="0 0 424 372" fill="none" xmlns="http://www.w3.org/2000/svg">
<g filter="url(#filter0_d_799_1672)">
<rect x="12" y="10" width="400" height="348" rx="22" fill="white"/>
<rect x="12.5" y="10.5" width="399" height="347" rx="21.5" stroke="#E5EBEC"/>
</g>
<path d="M12 32C12 19.8497 21.8497 10 34 10H390C402.15 10 412 19.8497 412 32V358.4H12V32Z" fill="#05153D"/>
<mask id="mask0_799_1672" style="mask-type:alpha" maskUnits="userSpaceOnUse" x="12" y="10" width="400" height="349">
<path d="M12 32C12 19.8497 21.8497 10 34 10H390C402.15 10 412 19.8497 412 32V358.4H12V32Z" fill="#DCFFF0"/>
</mask>
<g mask="url(#mask0_799_1672)">
<g filter="url(#filter1_d_799_1672)">
<rect x="57.4883" y="55.8003" width="309.021" height="320.131" rx="23" fill="white"/>
</g>
<circle cx="83.3297" cy="74.2853" r="5.05235" fill="#0033AD"/>
<circle cx="99.3543" cy="74.2853" r="5.05235" fill="#F3A31D"/>
<circle cx="115.379" cy="74.2853" r="5.05235" fill="#030321"/>
</g>
<g filter="url(#filter2_d_799_1672)">
<rect x="81" y="96" width="262.412" height="203.24" rx="6.71861" fill="#F7F9F9"/>
</g>
<rect x="117.625" y="137.051" width="61.0374" height="10.1234" rx="5.06169" fill="#E5EBEC"/>
<rect x="112.389" y="161.092" width="70.8619" height="10.1234" rx="5.06169" fill="#E5EBEC"/>
<rect x="194.054" y="160.818" width="70.8619" height="10.1234" rx="5.06169" fill="#E5EBEC"/>
<rect x="112.389" y="208.141" width="47.0423" height="10.1234" rx="5.06169" fill="#E5EBEC"/>
<rect x="189.464" y="137.051" width="132.496" height="10.1234" rx="5.06169" fill="#0033AD"/>
<rect x="167.317" y="208.35" width="112.351" height="9.72266" rx="4.86133" fill="#E5EBEC"/>
<rect x="130.587" y="182.624" width="24.8468" height="9.72266" rx="4.86133" fill="#E5EBEC"/>
<rect x="130.561" y="231.666" width="31.5497" height="10.1234" rx="5.06169" fill="#0033AD"/>
<rect x="119.786" y="255.884" width="50.2053" height="9.72266" rx="4.86133" fill="#E5EBEC"/>
<rect x="241.045" y="182.423" width="33.635" height="10.1234" rx="5.06169" fill="#FDB52A"/>
<rect x="285.069" y="182.624" width="36.73" height="9.72266" rx="4.86133" fill="#E5EBEC"/>
<rect x="275.721" y="160.818" width="33.635" height="10.1234" rx="5.06169" fill="#E5EBEC"/>
<rect x="247.18" y="231.666" width="64.3993" height="10.1234" rx="5.06169" fill="#E5EBEC"/>
<rect x="166.237" y="182.423" width="64.0051" height="10.1234" rx="5.06169" fill="#E5EBEC"/>
<rect x="167.089" y="231.666" width="75.1176" height="10.1234" rx="5.06169" fill="#E5EBEC"/>
<rect x="178.334" y="255.884" width="85.1462" height="10.1234" rx="5.06169" fill="#E5EBEC"/>
<path fill-rule="evenodd" clip-rule="evenodd" d="M303.147 269.383C301.862 267.18 299.503 265.825 296.952 265.825H254.992C252.441 265.825 250.082 267.18 248.797 269.383L227.881 305.239C226.578 307.472 226.578 310.233 227.881 312.466L248.797 348.322C250.082 350.526 252.441 351.88 254.992 351.88H296.952C299.503 351.88 301.862 350.525 303.147 348.322L324.063 312.466C325.366 310.233 325.366 307.472 324.063 305.239L303.147 269.383ZM275.972 329.038C287.267 329.038 296.423 319.882 296.423 308.587C296.423 297.292 287.267 288.136 275.972 288.136C264.677 288.136 255.521 297.292 255.521 308.587C255.521 319.882 264.677 329.038 275.972 329.038Z" fill="#0033AD"/>
<path fill-rule="evenodd" clip-rule="evenodd" d="M330.656 222.155C329.682 220.537 327.895 219.542 325.962 219.542H294.163C292.23 219.542 290.443 220.537 289.469 222.155L273.619 248.494C272.632 250.134 272.632 252.162 273.619 253.803L289.469 280.142C290.443 281.76 292.23 282.755 294.163 282.755H325.962C327.895 282.755 329.682 281.76 330.656 280.142L346.507 253.803C347.494 252.162 347.494 250.134 346.507 248.494L330.656 222.155ZM310.063 265.976C318.622 265.976 325.561 259.25 325.561 250.953C325.561 242.656 318.622 235.93 310.063 235.93C301.503 235.93 294.564 242.656 294.564 250.953C294.564 259.25 301.503 265.976 310.063 265.976Z" fill="#FDB52A"/>
<defs>
<filter id="filter0_d_799_1672" x="0" y="0" width="424" height="372" filterUnits="userSpaceOnUse" color-interpolation-filters="sRGB">
<feFlood flood-opacity="0" result="BackgroundImageFix"/>
<feColorMatrix in="SourceAlpha" type="matrix" values="0 0 0 0 0 0 0 0 0 0 0 0 0 0 0 0 0 0 127 0" result="hardAlpha"/>
<feOffset dy="2"/>
<feGaussianBlur stdDeviation="6"/>
<feComposite in2="hardAlpha" operator="out"/>
<feColorMatrix type="matrix" values="0 0 0 0 0.00317323 0 0 0 0 0.223714 0 0 0 0 0.254344 0 0 0 0.04 0"/>
<feBlend mode="normal" in2="BackgroundImageFix" result="effect1_dropShadow_799_1672"/>
<feBlend mode="normal" in="SourceGraphic" in2="effect1_dropShadow_799_1672" result="shape"/>
</filter>
<filter id="filter1_d_799_1672" x="29.4883" y="35.8003" width="365.021" height="376.131" filterUnits="userSpaceOnUse" color-interpolation-filters="sRGB">
<feFlood flood-opacity="0" result="BackgroundImageFix"/>
<feColorMatrix in="SourceAlpha" type="matrix" values="0 0 0 0 0 0 0 0 0 0 0 0 0 0 0 0 0 0 127 0" result="hardAlpha"/>
<feOffset dy="8"/>
<feGaussianBlur stdDeviation="14"/>
<feComposite in2="hardAlpha" operator="out"/>
<feColorMatrix type="matrix" values="0 0 0 0 0.128404 0 0 0 0 0.294444 0 0 0 0 0.321011 0 0 0 0.09 0"/>
<feBlend mode="normal" in2="BackgroundImageFix" result="effect1_dropShadow_799_1672"/>
<feBlend mode="normal" in="SourceGraphic" in2="effect1_dropShadow_799_1672" result="shape"/>
</filter>
<filter id="filter2_d_799_1672" x="75.961" y="92.6407" width="272.49" height="213.318" filterUnits="userSpaceOnUse" color-interpolation-filters="sRGB">
<feFlood flood-opacity="0" result="BackgroundImageFix"/>
<feColorMatrix in="SourceAlpha" type="matrix" values="0 0 0 0 0 0 0 0 0 0 0 0 0 0 0 0 0 0 127 0" result="hardAlpha"/>
<feOffset dy="1.67965"/>
<feGaussianBlur stdDeviation="2.51948"/>
<feComposite in2="hardAlpha" operator="out"/>
<feColorMatrix type="matrix" values="0 0 0 0 0.078875 0 0 0 0 0.0770833 0 0 0 0 0.166667 0 0 0 0.06 0"/>
<feBlend mode="normal" in2="BackgroundImageFix" result="effect1_dropShadow_799_1672"/>
<feBlend mode="normal" in="SourceGraphic" in2="effect1_dropShadow_799_1672" result="shape"/>
</filter>
</defs>
</svg>
