<svg width="400" height="349" viewBox="0 0 400 349" fill="none" xmlns="http://www.w3.org/2000/svg">
<rect width="400" height="348.4" fill="#030321"/>
<mask id="mask0_845_411" style="mask-type:alpha" maskUnits="userSpaceOnUse" x="0" y="0" width="400" height="349">
<path d="M0 22C0 9.84973 9.84974 0 22 0H378C390.15 0 400 9.84974 400 22V348.4H0V22Z" fill="#DCFFF0"/>
</mask>
<g mask="url(#mask0_845_411)">
<g filter="url(#filter0_d_845_411)">
<rect x="45.4883" y="45.8003" width="309.021" height="320.131" rx="23" fill="white"/>
</g>
<circle cx="71.3297" cy="64.2853" r="5.05235" fill="#0033AD"/>
<circle cx="87.3543" cy="64.2853" r="5.05235" fill="#F3A31D"/>
<circle cx="103.379" cy="64.2853" r="5.05235" fill="#030321"/>
</g>
<g filter="url(#filter1_d_845_411)">
<rect x="69" y="86" width="262.412" height="203.24" rx="6.71861" fill="#F7F9F9"/>
</g>
<rect x="105.625" y="127.051" width="61.0374" height="10.1234" rx="5.06169" fill="#E5EBEC"/>
<rect x="100.389" y="151.092" width="70.8619" height="10.1234" rx="5.06169" fill="#E5EBEC"/>
<rect x="182.054" y="150.818" width="70.8619" height="10.1234" rx="5.06169" fill="#E5EBEC"/>
<rect x="100.389" y="198.141" width="47.0423" height="10.1234" rx="5.06169" fill="#E5EBEC"/>
<rect x="177.464" y="127.051" width="132.496" height="10.1234" rx="5.06169" fill="#0033AD"/>
<rect x="155.317" y="198.35" width="112.351" height="9.72266" rx="4.86133" fill="#E5EBEC"/>
<rect x="118.587" y="172.624" width="24.8468" height="9.72266" rx="4.86133" fill="#E5EBEC"/>
<rect x="118.561" y="221.666" width="31.5497" height="10.1234" rx="5.06169" fill="#0033AD"/>
<rect x="107.786" y="245.884" width="50.2053" height="9.72266" rx="4.86133" fill="#E5EBEC"/>
<rect x="229.045" y="172.423" width="33.635" height="10.1234" rx="5.06169" fill="#FDB52A"/>
<rect x="273.069" y="172.624" width="36.73" height="9.72266" rx="4.86133" fill="#E5EBEC"/>
<rect x="263.721" y="150.818" width="33.635" height="10.1234" rx="5.06169" fill="#E5EBEC"/>
<rect x="235.18" y="221.666" width="64.3993" height="10.1234" rx="5.06169" fill="#E5EBEC"/>
<rect x="154.237" y="172.423" width="64.0051" height="10.1234" rx="5.06169" fill="#E5EBEC"/>
<rect x="155.089" y="221.666" width="75.1176" height="10.1234" rx="5.06169" fill="#E5EBEC"/>
<rect x="166.334" y="245.884" width="85.1462" height="10.1234" rx="5.06169" fill="#E5EBEC"/>
<path fill-rule="evenodd" clip-rule="evenodd" d="M291.147 259.383C289.862 257.18 287.503 255.825 284.952 255.825H242.992C240.441 255.825 238.082 257.18 236.797 259.383L215.881 295.239C214.578 297.472 214.578 300.233 215.881 302.466L236.797 338.322C238.082 340.526 240.441 341.88 242.992 341.88H284.952C287.503 341.88 289.862 340.526 291.147 338.322L312.063 302.466C313.366 300.233 313.366 297.472 312.063 295.239L291.147 259.383ZM263.972 319.038C275.267 319.038 284.423 309.882 284.423 298.587C284.423 287.292 275.267 278.136 263.972 278.136C252.677 278.136 243.521 287.292 243.521 298.587C243.521 309.882 252.677 319.038 263.972 319.038Z" fill="#0033AD"/>
<path fill-rule="evenodd" clip-rule="evenodd" d="M318.656 212.155C317.682 210.537 315.895 209.542 313.962 209.542H282.163C280.23 209.542 278.443 210.537 277.469 212.155L261.619 238.494C260.632 240.134 260.632 242.162 261.619 243.803L277.469 270.142C278.443 271.76 280.23 272.755 282.163 272.755H313.962C315.895 272.755 317.682 271.76 318.656 270.142L334.507 243.803C335.494 242.162 335.494 240.134 334.507 238.494L318.656 212.155ZM298.063 255.976C306.622 255.976 313.561 249.25 313.561 240.953C313.561 232.656 306.622 225.93 298.063 225.93C289.503 225.93 282.564 232.656 282.564 240.953C282.564 249.25 289.503 255.976 298.063 255.976Z" fill="#FDB52A"/>
<defs>
<filter id="filter0_d_845_411" x="17.4883" y="25.8003" width="365.021" height="376.131" filterUnits="userSpaceOnUse" color-interpolation-filters="sRGB">
<feFlood flood-opacity="0" result="BackgroundImageFix"/>
<feColorMatrix in="SourceAlpha" type="matrix" values="0 0 0 0 0 0 0 0 0 0 0 0 0 0 0 0 0 0 127 0" result="hardAlpha"/>
<feOffset dy="8"/>
<feGaussianBlur stdDeviation="14"/>
<feComposite in2="hardAlpha" operator="out"/>
<feColorMatrix type="matrix" values="0 0 0 0 0.128404 0 0 0 0 0.294444 0 0 0 0 0.321011 0 0 0 0.09 0"/>
<feBlend mode="normal" in2="BackgroundImageFix" result="effect1_dropShadow_845_411"/>
<feBlend mode="normal" in="SourceGraphic" in2="effect1_dropShadow_845_411" result="shape"/>
</filter>
<filter id="filter1_d_845_411" x="63.961" y="82.6407" width="272.49" height="213.318" filterUnits="userSpaceOnUse" color-interpolation-filters="sRGB">
<feFlood flood-opacity="0" result="BackgroundImageFix"/>
<feColorMatrix in="SourceAlpha" type="matrix" values="0 0 0 0 0 0 0 0 0 0 0 0 0 0 0 0 0 0 127 0" result="hardAlpha"/>
<feOffset dy="1.67965"/>
<feGaussianBlur stdDeviation="2.51948"/>
<feComposite in2="hardAlpha" operator="out"/>
<feColorMatrix type="matrix" values="0 0 0 0 0.078875 0 0 0 0 0.0770833 0 0 0 0 0.166667 0 0 0 0.06 0"/>
<feBlend mode="normal" in2="BackgroundImageFix" result="effect1_dropShadow_845_411"/>
<feBlend mode="normal" in="SourceGraphic" in2="effect1_dropShadow_845_411" result="shape"/>
</filter>
</defs>
</svg>
