<svg width="74" height="74" viewBox="0 0 74 74" fill="none" xmlns="http://www.w3.org/2000/svg">
<g clip-path="url(#clip0_3114_20247)">
<path d="M37.4112 54.2667C46.7203 54.2667 54.2668 46.7202 54.2668 37.4111C54.2668 28.102 46.7203 20.5555 37.4112 20.5555C28.1022 20.5555 20.5557 28.102 20.5557 37.4111C20.5557 46.7202 28.1022 54.2667 37.4112 54.2667Z" fill="#FCFCFC"/>
<path d="M68.2188 31.2188H64.75C64.2546 31.2177 63.7726 31.0577 63.375 30.7621C62.9774 30.4665 62.6852 30.051 62.5416 29.5769C61.9976 27.7099 61.2533 25.9072 60.3216 24.2003C60.0855 23.7635 59.9962 23.2624 60.067 22.7709C60.1378 22.2795 60.3649 21.8239 60.7147 21.4716L63.1775 19.0088C63.6082 18.5755 63.85 17.9894 63.85 17.3785C63.85 16.7675 63.6082 16.1814 63.1775 15.7481L58.2635 10.8341C57.8302 10.4034 57.2441 10.1616 56.6331 10.1616C56.0222 10.1616 55.4361 10.4034 55.0028 10.8341L52.54 13.2969C52.1876 13.6467 51.732 13.8737 51.2406 13.9445C50.7492 14.0153 50.248 13.9261 49.8112 13.69C48.1043 12.7583 46.3017 12.0139 44.4347 11.47C43.9565 11.3278 43.5371 11.0348 43.2391 10.6347C42.9411 10.2346 42.7805 9.74888 42.7812 9.25V5.78125C42.7812 5.16794 42.5376 4.57978 42.1039 4.1461C41.6703 3.71242 41.0821 3.46875 40.4688 3.46875H33.5312C32.9179 3.46875 32.3297 3.71242 31.8961 4.1461C31.4624 4.57978 31.2188 5.16794 31.2188 5.78125V9.25C31.2177 9.74543 31.0577 10.2274 30.7621 10.625C30.4665 11.0226 30.051 11.3147 29.5769 11.4584C27.7085 11.9985 25.9054 12.7431 24.2003 13.6785C23.7635 13.9145 23.2624 14.0037 22.7709 13.9329C22.2795 13.8621 21.8239 13.6351 21.4716 13.2853L19.0088 10.8225C18.5755 10.3918 17.9894 10.1501 17.3784 10.1501C16.7675 10.1501 16.1814 10.3918 15.7481 10.8225L10.8341 15.7365C10.4034 16.1698 10.1616 16.756 10.1616 17.3669C10.1616 17.9778 10.4034 18.5639 10.8341 18.9972L13.2969 21.46C13.6467 21.8124 13.8738 22.2679 13.9445 22.7594C14.0153 23.2508 13.9261 23.752 13.69 24.1887C12.7546 25.8939 12.0101 27.697 11.47 29.5653C11.3278 30.0435 11.0348 30.4629 10.6347 30.7609C10.2346 31.0589 9.74888 31.2195 9.25 31.2188H5.78125C5.16794 31.2188 4.57974 31.4624 4.14606 31.8961C3.71239 32.3298 3.46875 32.9179 3.46875 33.5312V40.4688C3.46875 41.0821 3.71239 41.6702 4.14606 42.1039C4.57974 42.5376 5.16794 42.7812 5.78125 42.7812H9.25C9.74543 42.7823 10.2274 42.9423 10.625 43.2379C11.0226 43.5335 11.3148 43.949 11.4584 44.4231C12.0042 46.2895 12.7484 48.092 13.6784 49.7997C13.9145 50.2365 14.0038 50.7376 13.933 51.2291C13.8622 51.7205 13.6351 52.1761 13.2853 52.5284L10.8225 54.9912C10.3918 55.4245 10.15 56.0106 10.15 56.6215C10.15 57.2325 10.3918 57.8186 10.8225 58.2519L15.7365 63.1659C16.1698 63.5966 16.7559 63.8384 17.3669 63.8384C17.9778 63.8384 18.5639 63.5966 18.9972 63.1659L21.46 60.7031C21.8124 60.3533 22.268 60.1263 22.7594 60.0555C23.2508 59.9847 23.752 60.0739 24.1888 60.31C25.8982 61.2363 27.7003 61.9804 29.5653 62.53C30.0435 62.6722 30.4629 62.9652 30.7609 63.3653C31.0589 63.7654 31.2195 64.2511 31.2188 64.75V68.2188C31.2188 68.8321 31.4624 69.4202 31.8961 69.8539C32.3297 70.2876 32.9179 70.5312 33.5312 70.5312H40.4688C41.0821 70.5312 41.6703 70.2876 42.1039 69.8539C42.5376 69.4202 42.7812 68.8321 42.7812 68.2188V64.75C42.7823 64.2546 42.9423 63.7726 43.2379 63.375C43.5335 62.9774 43.949 62.6853 44.4231 62.5416C46.2915 62.0015 48.0946 61.2569 49.7997 60.3215C50.2365 60.0855 50.7376 59.9963 51.2291 60.0671C51.7205 60.1379 52.1761 60.3649 52.5284 60.7147L54.9912 63.1775C55.4245 63.6082 56.0106 63.8499 56.6216 63.8499C57.2325 63.8499 57.8186 63.6082 58.2519 63.1775L63.1659 58.2635C63.5966 57.8302 63.8384 57.244 63.8384 56.6331C63.8384 56.0222 63.5966 55.4361 63.1659 55.0028L60.7031 52.54C60.3533 52.1876 60.1263 51.7321 60.0555 51.2406C59.9847 50.7492 60.0739 50.248 60.31 49.8113C61.2454 48.1061 61.9899 46.303 62.53 44.4347C62.6722 43.9565 62.9652 43.5371 63.3653 43.2391C63.7654 42.9411 64.2511 42.7805 64.75 42.7812H68.2188C68.8321 42.7812 69.4203 42.5376 69.8539 42.1039C70.2876 41.6702 70.5312 41.0821 70.5312 40.4688V33.5312C70.5312 32.9179 70.2876 32.3298 69.8539 31.8961C69.4203 31.4624 68.8321 31.2188 68.2188 31.2188ZM37 53.1875C32.7068 53.1875 28.5894 51.482 25.5537 48.4463C22.518 45.4105 20.8125 41.2932 20.8125 37C20.8125 32.7068 22.518 28.5895 25.5537 25.5537C28.5894 22.518 32.7068 20.8125 37 20.8125C41.2932 20.8125 45.4106 22.518 48.4463 25.5537C51.482 28.5895 53.1875 32.7068 53.1875 37C53.1875 41.2932 51.482 45.4105 48.4463 48.4463C45.4106 51.482 41.2932 53.1875 37 53.1875Z" fill="#1FD9CA"/>
<path d="M60.703 21.4716C60.3532 21.8239 60.1261 22.2795 60.0553 22.7709C59.9845 23.2624 60.0738 23.7635 60.3099 24.2003C60.9325 25.3326 61.466 26.5117 61.9055 27.7268C61.6975 27.7384 61.4891 27.7384 61.2811 27.7268C57.2946 27.7268 53.4713 26.1432 50.6524 23.3243C47.8335 20.5054 46.2499 16.6821 46.2499 12.6956C46.2383 12.4876 46.2383 12.2792 46.2499 12.0712C47.465 12.5108 48.6441 13.0443 49.7764 13.6669C50.2132 13.903 50.7144 13.9922 51.2058 13.9214C51.6972 13.8506 52.1528 13.6235 52.5052 13.2737L54.968 10.8109C55.4013 10.3802 55.9874 10.1385 56.5983 10.1385C57.2093 10.1385 57.7953 10.3802 58.2286 10.8109L63.1427 15.725C63.5734 16.1582 63.8151 16.7444 63.8151 17.3553C63.8151 17.9662 63.5734 18.5523 63.1427 18.9856L60.703 21.4716Z" fill="#338F8A"/>
<path d="M61.2812 25.4375C68.3056 25.4375 74 19.7431 74 12.7188C74 5.69438 68.3056 0 61.2812 0C54.2569 0 48.5625 5.69438 48.5625 12.7188C48.5625 19.7431 54.2569 25.4375 61.2812 25.4375Z" fill="#1FD9CA"/>
<path d="M24.2808 49.7188C12.4292 49.7188 13.6317 49.7188 13.6895 49.7997C13.9256 50.2365 14.0149 50.7376 13.9441 51.2291C13.8733 51.7205 13.6462 52.1761 13.2964 52.5284L10.8336 54.9912C10.4029 55.4245 10.1611 56.0106 10.1611 56.6215C10.1611 57.2325 10.4029 57.8186 10.8336 58.2519L15.7476 63.1659C16.1809 63.5966 16.767 63.8384 17.378 63.8384C17.9889 63.8384 18.575 63.5966 19.0083 63.1659L21.4711 60.7031C21.8235 60.3533 22.279 60.1263 22.7705 60.0555C23.2619 59.9847 23.763 60.0739 24.1998 60.31C25.3386 60.939 26.5255 61.4764 27.7495 61.9172V53.1875C27.7495 52.2675 27.384 51.3852 26.7335 50.7347C26.083 50.0842 25.2007 49.7188 24.2808 49.7188Z" fill="#338F8A"/>
<path d="M68.1147 11.8125H68.4117L68.361 11.5198C68.1626 10.3747 67.6895 9.29476 66.9822 8.37259C66.2749 7.45041 65.3546 6.71354 64.3001 6.22505L63.5884 5.89538L63.978 6.57609C64.8576 8.11279 65.3949 9.82131 65.5532 11.5848L65.5736 11.8125H65.8022H68.1147ZM58.7897 11.5343L58.7582 11.8125H59.0381H63.5244H63.8043L63.7728 11.5343C63.5447 9.52198 62.7479 7.61626 61.4758 6.04044L61.2812 5.7995L61.0867 6.04044C59.8146 7.61626 59.0178 9.52198 58.7897 11.5343ZM63.7728 13.9032L63.8043 13.625H63.5244H59.0381H58.7582L58.7897 13.9032C59.0178 15.9155 59.8146 17.8212 61.0867 19.3971L61.2812 19.638L61.4758 19.3971C62.7479 17.8212 63.5447 15.9155 63.7728 13.9032ZM58.5382 6.57609L58.9278 5.89538L58.2162 6.22505C57.1616 6.71354 56.2413 7.45041 55.534 8.37259C54.8267 9.29476 54.3536 10.3747 54.1552 11.5198L54.1045 11.8125H54.4015H56.714H56.9426L56.963 11.5848C57.1213 9.82131 57.6586 8.11279 58.5382 6.57609ZM54.4478 13.625H54.1508L54.2015 13.9177C54.3999 15.0628 54.873 16.1427 55.5803 17.0649C56.2876 17.9871 57.2079 18.724 58.2624 19.2124L58.9741 19.5421L58.5845 18.8614C57.7049 17.3247 57.1676 15.6162 57.0093 13.8527L56.9889 13.625H56.7603H54.4478ZM64.0257 18.859L63.6279 19.5366L64.3441 19.2135C65.4098 18.7327 66.3421 17.9991 67.0602 17.0765C67.7783 16.1538 68.2605 15.0699 68.4649 13.9187L68.5171 13.625H68.2188H65.9062H65.6799L65.6575 13.8503C65.4818 15.6182 64.9251 17.3269 64.0257 18.859ZM54.9173 6.35478C56.6051 4.66695 58.8943 3.71875 61.2812 3.71875C63.6682 3.71875 65.9574 4.66695 67.6452 6.35478C69.333 8.04261 70.2812 10.3318 70.2812 12.7188C70.2812 15.1057 69.333 17.3949 67.6452 19.0827C65.9574 20.7705 63.6682 21.7188 61.2812 21.7188C58.8943 21.7188 56.6051 20.7705 54.9173 19.0827C53.2295 17.3949 52.2812 15.1057 52.2812 12.7188C52.2812 10.3318 53.2295 8.04261 54.9173 6.35478Z" fill="#FCFCFC" stroke="#1FD9CA" stroke-width="0.5"/>
<path d="M0 55.5H25.4375V72.8438C25.4375 73.1504 25.3157 73.4445 25.0988 73.6613C24.882 73.8782 24.5879 74 24.2812 74H1.15625C0.849593 74 0.555497 73.8782 0.338658 73.6613C0.121819 73.4445 0 73.1504 0 72.8438V55.5Z" fill="#C3F5F1"/>
<path d="M1.15625 52.0312H24.2812C24.5879 52.0312 24.882 52.1531 25.0988 52.3699C25.3157 52.5867 25.4375 52.8808 25.4375 53.1875V56.6562H0V53.1875C0 52.8808 0.121819 52.5867 0.338658 52.3699C0.555497 52.1531 0.849593 52.0312 1.15625 52.0312Z" fill="#84C4C4"/>
<path d="M1.15625 52.0312H8.09375C9.01372 52.0312 9.89601 52.3967 10.5465 53.0472C11.197 53.6977 11.5625 54.58 11.5625 55.5V56.6562H0V53.1875C0 52.8808 0.121819 52.5867 0.338658 52.3699C0.555497 52.1531 0.849593 52.0312 1.15625 52.0312Z" fill="#C3F5F1"/>
<path d="M12.7188 60.125H3.46875C2.83017 60.125 2.3125 60.6427 2.3125 61.2812C2.3125 61.9198 2.83017 62.4375 3.46875 62.4375H12.7188C13.3573 62.4375 13.875 61.9198 13.875 61.2812C13.875 60.6427 13.3573 60.125 12.7188 60.125Z" fill="#1FD9CA"/>
<path d="M12.7188 69.375H3.46875C2.83017 69.375 2.3125 69.8927 2.3125 70.5312C2.3125 71.1698 2.83017 71.6875 3.46875 71.6875H12.7188C13.3573 71.6875 13.875 71.1698 13.875 70.5312C13.875 69.8927 13.3573 69.375 12.7188 69.375Z" fill="#1FD9CA"/>
<path d="M21.9688 64.75H12.7188C12.0802 64.75 11.5625 65.2677 11.5625 65.9062C11.5625 66.5448 12.0802 67.0625 12.7188 67.0625H21.9688C22.6073 67.0625 23.125 66.5448 23.125 65.9062C23.125 65.2677 22.6073 64.75 21.9688 64.75Z" fill="#1FD9CA"/>
<path d="M21.9688 60.125H17.3438C16.7052 60.125 16.1875 60.6427 16.1875 61.2812C16.1875 61.9198 16.7052 62.4375 17.3438 62.4375H21.9688C22.6073 62.4375 23.125 61.9198 23.125 61.2812C23.125 60.6427 22.6073 60.125 21.9688 60.125Z" fill="#1FD9CA"/>
<path d="M21.9688 69.375H17.3438C16.7052 69.375 16.1875 69.8927 16.1875 70.5312C16.1875 71.1698 16.7052 71.6875 17.3438 71.6875H21.9688C22.6073 71.6875 23.125 71.1698 23.125 70.5312C23.125 69.8927 22.6073 69.375 21.9688 69.375Z" fill="#1FD9CA"/>
<path d="M8.09375 64.75H3.46875C2.83017 64.75 2.3125 65.2677 2.3125 65.9062C2.3125 66.5448 2.83017 67.0625 3.46875 67.0625H8.09375C8.73233 67.0625 9.25 66.5448 9.25 65.9062C9.25 65.2677 8.73233 64.75 8.09375 64.75Z" fill="#1FD9CA"/>
<path d="M31.2186 42.7812C30.5711 42.7812 30.8718 42.92 25.7727 37.8209C25.6643 37.7134 25.5783 37.5855 25.5196 37.4446C25.4609 37.3037 25.4307 37.1526 25.4307 37C25.4307 36.8473 25.4609 36.6962 25.5196 36.5553C25.5783 36.4144 25.6643 36.2865 25.7727 36.179L30.3977 31.554C30.6154 31.3363 30.9107 31.214 31.2186 31.214C31.5265 31.214 31.8218 31.3363 32.0395 31.554C32.2573 31.7717 32.3796 32.0671 32.3796 32.375C32.3796 32.6829 32.2573 32.9782 32.0395 33.1959L28.2239 37L32.0395 40.804C32.2026 40.9657 32.3138 41.1724 32.359 41.3976C32.4042 41.6228 32.3813 41.8563 32.2932 42.0684C32.2051 42.2805 32.0559 42.4615 31.8645 42.5885C31.6731 42.7154 31.4483 42.7826 31.2186 42.7812Z" fill="#1FD9CA"/>
<path d="M42.7811 42.7813C42.5515 42.7826 42.3266 42.7155 42.1352 42.5886C41.9438 42.4616 41.7946 42.2805 41.7065 42.0684C41.6185 41.8563 41.5956 41.6228 41.6408 41.3976C41.6859 41.1725 41.7971 40.9658 41.9602 40.8041L45.7642 37L41.9602 33.196C41.7425 32.9798 41.6195 32.686 41.6185 32.3791C41.6174 32.0723 41.7382 31.7776 41.9544 31.5599C42.1706 31.3421 42.4644 31.2192 42.7713 31.2181C43.0781 31.2171 43.3728 31.3379 43.5905 31.5541L48.2155 36.1791C48.3239 36.2866 48.4099 36.4145 48.4686 36.5554C48.5273 36.6963 48.5575 36.8474 48.5575 37C48.5575 37.1527 48.5273 37.3038 48.4686 37.4447C48.4099 37.5856 48.3239 37.7135 48.2155 37.821C43.1627 42.8738 43.4286 42.7813 42.7811 42.7813Z" fill="#1FD9CA"/>
<path d="M33.5309 44.7816L38.1559 28.5941C38.2555 28.3198 38.4551 28.0933 38.7147 27.9601C38.9744 27.8269 39.2748 27.7968 39.5557 27.8758C39.8366 27.9548 40.0772 28.137 40.2294 28.3861C40.3815 28.6351 40.4338 28.9325 40.3759 29.2185L35.7509 45.406C35.6512 45.6803 35.4516 45.9067 35.192 46.0399C34.9323 46.1731 34.6319 46.2033 34.351 46.1243C34.0701 46.0452 33.8294 45.863 33.6773 45.6139C33.5252 45.3649 33.4729 45.0676 33.5309 44.7816Z" fill="#1FD9CA"/>
</g>
<defs>
<clipPath id="clip0_3114_20247">
<rect width="74" height="74" fill="white"/>
</clipPath>
</defs>
</svg>
