<svg width="86" height="54" viewBox="0 0 86 54" fill="none" xmlns="http://www.w3.org/2000/svg">
<g clip-path="url(#clip0_3114_20048)">
<path d="M15.0097 40.5H9.40625C8.66719 40.5 8.0625 39.8925 8.0625 39.15C8.0625 38.4075 8.66719 37.8 9.40625 37.8H15.0097C15.3725 37.8 15.7084 37.665 15.9638 37.4085L20.5459 32.805C20.8012 32.5485 21.1372 32.4135 21.5 32.4135H30.9062C31.6453 32.4135 32.25 33.021 32.25 33.7635C32.25 34.506 31.6453 35.1135 30.9062 35.1135H22.0509L17.8584 39.3255C17.0925 40.095 16.0847 40.5135 15.0097 40.5135V40.5Z" fill="#338F8A"/>
<path d="M6.71875 35.1C8.93594 35.1 10.75 36.9225 10.75 39.15C10.75 41.3775 8.93594 43.2 6.71875 43.2C4.50156 43.2 2.6875 41.3775 2.6875 39.15C2.6875 36.9225 4.50156 35.1 6.71875 35.1ZM6.71875 40.5C7.45781 40.5 8.0625 39.8925 8.0625 39.15C8.0625 38.4075 7.45781 37.8 6.71875 37.8C5.97969 37.8 5.375 38.4075 5.375 39.15C5.375 39.8925 5.97969 40.5 6.71875 40.5Z" fill="#338F8A"/>
<path d="M30.9062 21.6H21.5C21.1372 21.6 20.8012 21.4515 20.5459 21.2085L15.9638 16.605C15.7084 16.3485 15.3725 16.2135 15.0097 16.2135H9.40625C8.66719 16.2135 8.0625 15.606 8.0625 14.8635C8.0625 14.121 8.66719 13.5135 9.40625 13.5135H15.0097C16.0847 13.5135 17.1059 13.932 17.8584 14.7016L22.0509 18.9135H30.9062C31.6453 18.9135 32.25 19.521 32.25 20.2635C32.25 21.0061 31.6453 21.6136 30.9062 21.6136V21.6Z" fill="#338F8A"/>
<path d="M2.6875 14.85C2.6875 12.6225 4.50156 10.8 6.71875 10.8C8.93594 10.8 10.75 12.6225 10.75 14.85C10.75 17.0775 8.93594 18.9 6.71875 18.9C4.50156 18.9 2.6875 17.0775 2.6875 14.85ZM5.375 14.85C5.375 15.5925 5.97969 16.2 6.71875 16.2C7.45781 16.2 8.0625 15.5925 8.0625 14.85C8.0625 14.1075 7.45781 13.5 6.71875 13.5C5.97969 13.5 5.375 14.1075 5.375 14.85Z" fill="#338F8A"/>
<path d="M34.9375 28.35H6.71875C5.97969 28.35 5.375 27.7425 5.375 27C5.375 26.2575 5.97969 25.65 6.71875 25.65H34.9375C35.6766 25.65 36.2812 26.2575 36.2812 27C36.2812 27.7425 35.6766 28.35 34.9375 28.35Z" fill="#338F8A"/>
<path d="M0 27C0 24.7725 1.81406 22.95 4.03125 22.95C6.24844 22.95 8.0625 24.7725 8.0625 27C8.0625 29.2275 6.24844 31.05 4.03125 31.05C1.81406 31.05 0 29.2275 0 27ZM2.6875 27C2.6875 27.7425 3.29219 28.35 4.03125 28.35C4.77031 28.35 5.375 27.7425 5.375 27C5.375 26.2575 4.77031 25.65 4.03125 25.65C3.29219 25.65 2.6875 26.2575 2.6875 27Z" fill="#338F8A"/>
<path d="M76.5938 40.5H70.9903C69.9153 40.5 68.9075 40.0815 68.1416 39.312L63.9491 35.1H55.0938C54.3547 35.1 53.75 34.4925 53.75 33.75C53.75 33.0075 54.3547 32.4 55.0938 32.4H64.5C64.8628 32.4 65.1987 32.5485 65.4541 32.7915L70.0362 37.395C70.2916 37.6515 70.6275 37.7865 70.9903 37.7865H76.5938C77.3328 37.7865 77.9375 38.394 77.9375 39.1365C77.9375 39.879 77.3328 40.4865 76.5938 40.4865V40.5Z" fill="#338F8A"/>
<path d="M83.3125 39.15C83.3125 41.3775 81.4984 43.2 79.2812 43.2C77.0641 43.2 75.25 41.3775 75.25 39.15C75.25 36.9225 77.0641 35.1 79.2812 35.1C81.4984 35.1 83.3125 36.9225 83.3125 39.15ZM80.625 39.15C80.625 38.4075 80.0203 37.8 79.2812 37.8C78.5422 37.8 77.9375 38.4075 77.9375 39.15C77.9375 39.8925 78.5422 40.5 79.2812 40.5C80.0203 40.5 80.625 39.8925 80.625 39.15Z" fill="#338F8A"/>
<path d="M64.5 21.6H55.0938C54.3547 21.6 53.75 20.9925 53.75 20.25C53.75 19.5075 54.3547 18.9 55.0938 18.9H63.9491L68.1416 14.688C68.9075 13.9185 69.9153 13.5 70.9903 13.5H76.5938C77.3328 13.5 77.9375 14.1075 77.9375 14.85C77.9375 15.5925 77.3328 16.2 76.5938 16.2H70.9903C70.6409 16.2 70.2916 16.3485 70.0362 16.5915L65.4541 21.195C65.1987 21.4515 64.8628 21.5865 64.5 21.5865V21.6Z" fill="#338F8A"/>
<path d="M79.2812 18.9C77.0641 18.9 75.25 17.0775 75.25 14.85C75.25 12.6225 77.0641 10.8 79.2812 10.8C81.4984 10.8 83.3125 12.6225 83.3125 14.85C83.3125 17.0775 81.4984 18.9 79.2812 18.9ZM79.2812 13.5C78.5422 13.5 77.9375 14.1075 77.9375 14.85C77.9375 15.5925 78.5422 16.2 79.2812 16.2C80.0203 16.2 80.625 15.5925 80.625 14.85C80.625 14.1075 80.0203 13.5 79.2812 13.5Z" fill="#338F8A"/>
<path d="M79.2812 28.35H51.0625C50.3234 28.35 49.7188 27.7425 49.7188 27C49.7188 26.2575 50.3234 25.65 51.0625 25.65H79.2812C80.0203 25.65 80.625 26.2575 80.625 27C80.625 27.7425 80.0203 28.35 79.2812 28.35Z" fill="#338F8A"/>
<path d="M81.9688 31.05C79.7516 31.05 77.9375 29.2275 77.9375 27C77.9375 24.7725 79.7516 22.95 81.9688 22.95C84.1859 22.95 86 24.7725 86 27C86 29.2275 84.1859 31.05 81.9688 31.05ZM81.9688 25.65C81.2297 25.65 80.625 26.2575 80.625 27C80.625 27.7425 81.2297 28.35 81.9688 28.35C82.7078 28.35 83.3125 27.7425 83.3125 27C83.3125 26.2575 82.7078 25.65 81.9688 25.65Z" fill="#338F8A"/>
<path d="M69.875 27C69.875 41.9175 57.8484 54 43 54C28.1516 54 16.125 41.9175 16.125 27C16.125 21.519 17.7509 16.416 20.5594 12.15C23.8516 7.1145 28.7831 3.267 34.6016 1.35C37.2488 0.4725 40.0706 0 43 0C45.9294 0 48.7513 0.4725 51.3984 1.35C57.2169 3.267 62.1484 7.1145 65.4406 12.15C68.2491 16.416 69.875 21.519 69.875 27Z" fill="#D8FFFF"/>
<path d="M60.4688 27C60.4688 36.6929 52.6481 44.5499 43 44.5499C33.3519 44.5499 25.5312 36.6929 25.5312 27C25.5312 20.736 28.7966 15.255 33.7013 12.15C36.3888 10.4355 39.5869 9.44995 43 9.44995C46.4131 9.44995 49.6112 10.4355 52.2987 12.15C57.2034 15.255 60.4688 20.736 60.4688 27Z" fill="#50D9D7"/>
<path d="M43 37.8C48.9371 37.8 53.75 32.9646 53.75 27C53.75 21.0353 48.9371 16.2 43 16.2C37.0629 16.2 32.25 21.0353 32.25 27C32.25 32.9646 37.0629 37.8 43 37.8Z" fill="#00BEBD"/>
<path d="M49.7188 24.3C51.9451 24.3 53.75 22.4867 53.75 20.25C53.75 18.0132 51.9451 16.2 49.7188 16.2C47.4924 16.2 45.6875 18.0132 45.6875 20.25C45.6875 22.4867 47.4924 24.3 49.7188 24.3Z" fill="#93E6E5"/>
<path d="M52.2987 12.15H33.7012C36.3887 10.4355 39.5868 9.44995 42.9999 9.44995C46.413 9.44995 49.6112 10.4355 52.2987 12.15Z" fill="#00BEBD"/>
</g>
<defs>
<clipPath id="clip0_3114_20048">
<rect width="86" height="54" fill="white"/>
</clipPath>
</defs>
</svg>
