<svg width="74" height="74" viewBox="0 0 74 74" fill="none" xmlns="http://www.w3.org/2000/svg">
<path d="M37.3306 72.0178C56.4879 72.0178 72.0181 56.4877 72.0181 37.3303C72.0181 18.1729 56.4879 2.64282 37.3306 2.64282C18.1732 2.64282 2.64307 18.1729 2.64307 37.3303C2.64307 56.4877 18.1732 72.0178 37.3306 72.0178Z" fill="#1FD9CA"/>
<g clip-path="url(#clip0_3114_20181)">
<path d="M10.4064 57.8125C10.1647 57.8142 9.92854 57.7401 9.73112 57.6006C9.53371 57.461 9.38499 57.2632 9.30587 57.0347C9.22675 56.8063 9.22122 56.5588 9.29004 56.3271C9.35887 56.0954 9.49859 55.891 9.68957 55.7428L58.2521 17.5866C58.4943 17.3965 58.8022 17.3104 59.1079 17.3472C59.4137 17.3841 59.6923 17.5409 59.8824 17.7832C60.0725 18.0254 60.1586 18.3333 60.1217 18.639C60.0849 18.9448 59.9281 19.2233 59.6858 19.4135C7.65457 60.2869 11.0193 57.8125 10.4064 57.8125Z" fill="#FCFCFC"/>
<path d="M63.5938 57.8125C62.981 57.8125 65.9757 59.9978 14.3144 19.4135C14.0721 19.2233 13.9153 18.9448 13.8785 18.639C13.8416 18.3333 13.9277 18.0254 14.1178 17.7832C14.308 17.5409 14.5865 17.3841 14.8923 17.3472C15.198 17.3104 15.5059 17.3965 15.7482 17.5866L64.3106 55.7428C64.5016 55.891 64.6414 56.0954 64.7102 56.3271C64.779 56.5588 64.7735 56.8063 64.6944 57.0347C64.6152 57.2632 64.4665 57.461 64.2691 57.6006C64.0717 57.7401 63.8355 57.8142 63.5938 57.8125Z" fill="#FCFCFC"/>
<path d="M19.6562 5.78125L10.4062 10.4062L1.15625 5.78125L10.4062 1.15625L19.6562 5.78125Z" fill="#D0FFFB"/>
<path d="M19.6562 5.78125V17.3438L10.4062 21.9688V10.4063L19.6562 5.78125Z" fill="#D0FFFB"/>
<path d="M10.4062 10.4063V21.9688L1.15625 17.3438V5.78125L10.4062 10.4063Z" fill="#D0FFFB"/>
<path d="M20.1766 4.75247L10.9266 0.12747C10.7652 0.0461458 10.587 0.00378418 10.4062 0.00378418C10.2255 0.00378418 10.0473 0.0461458 9.88594 0.12747L0.635937 4.75247C0.445255 4.84855 0.284903 4.99556 0.172655 5.1772C0.0604067 5.35884 0.000647159 5.56801 0 5.78153L0 17.344C0.000647159 17.5576 0.0604067 17.7667 0.172655 17.9484C0.284903 18.13 0.445255 18.277 0.635937 18.3731L9.88594 22.9981C10.0304 23.0669 10.1884 23.1026 10.3484 23.1026C10.5085 23.1026 10.6665 23.0669 10.8109 22.9981L20.0609 18.3731C20.2732 18.2941 20.4577 18.1544 20.5913 17.9714C20.7249 17.7885 20.8018 17.5703 20.8125 17.344V5.78153C20.8118 5.56801 20.7521 5.35884 20.6398 5.1772C20.5276 4.99556 20.3672 4.84855 20.1766 4.75247ZM10.4062 2.45153L17.0662 5.78153L10.4062 9.11153L3.74625 5.78153L10.4062 2.45153ZM9.25 20.0959L2.3125 16.6272V7.65466L9.25 11.1234V20.0959ZM18.5 16.6272L11.5625 20.0959V11.1234L18.5 7.65466V16.6272Z" fill="#1FD9CA"/>
<path d="M72.8438 5.78125L63.5938 10.4062L54.3438 5.78125L63.5938 1.15625L72.8438 5.78125Z" fill="#D0FFFB"/>
<path d="M72.8438 5.78125V17.3438L63.5938 21.9688V10.4063L72.8438 5.78125Z" fill="#D0FFFB"/>
<path d="M63.5938 10.4063V21.9688L54.3438 17.3438V5.78125L63.5938 10.4063Z" fill="#D0FFFB"/>
<path d="M73.3641 4.75223L64.1141 0.127226C63.9527 0.0459017 63.7745 0.00354004 63.5937 0.00354004C63.413 0.00354004 63.2348 0.0459017 63.0734 0.127226L53.8234 4.75223C53.6328 4.84831 53.4724 4.99532 53.3602 5.17696C53.2479 5.35859 53.1881 5.56777 53.1875 5.78129V17.3438C53.1881 17.5573 53.2479 17.7665 53.3602 17.9481C53.4724 18.1298 53.6328 18.2768 53.8234 18.3728L63.1312 22.9978C63.2757 23.0667 63.4337 23.1024 63.5937 23.1024C63.7538 23.1024 63.9118 23.0667 64.0562 22.9978L73.3641 18.3728C73.5547 18.2768 73.7151 18.1298 73.8273 17.9481C73.9396 17.7665 73.9993 17.5573 74 17.3438V5.78129C73.9993 5.56777 73.9396 5.35859 73.8273 5.17696C73.7151 4.99532 73.5547 4.84831 73.3641 4.75223ZM63.5937 2.45129L70.2537 5.78129L63.5937 9.11129L56.9338 5.78129L63.5937 2.45129ZM62.4375 20.0957L55.5 16.6269V7.65441L62.4375 11.1232V20.0957ZM71.6875 16.6269L64.75 20.0957V11.1232L71.6875 7.65441V16.6269Z" fill="#1FD9CA"/>
<path d="M19.6562 56.6562L10.4062 61.2812L1.15625 56.6562L10.4062 52.0312L19.6562 56.6562Z" fill="#D0FFFB"/>
<path d="M19.6562 56.6562V68.2188L10.4062 72.8438V61.2813L19.6562 56.6562Z" fill="#D0FFFB"/>
<path d="M10.4062 61.2813V72.8438L1.15625 68.2188V56.6562L10.4062 61.2813Z" fill="#D0FFFB"/>
<path d="M20.1766 55.6272L10.9266 51.0022C10.7652 50.9209 10.587 50.8785 10.4062 50.8785C10.2255 50.8785 10.0473 50.9209 9.88594 51.0022L0.635937 55.6272C0.445255 55.7233 0.284903 55.8703 0.172655 56.052C0.0604067 56.2336 0.000647159 56.4428 0 56.6563L0 68.2188C0.000647159 68.4323 0.0604067 68.6415 0.172655 68.8231C0.284903 69.0048 0.445255 69.1518 0.635937 69.2479L9.88594 73.8729C10.0304 73.9417 10.1884 73.9774 10.3484 73.9774C10.5085 73.9774 10.6665 73.9417 10.8109 73.8729L20.0609 69.2479C20.2732 69.1688 20.4577 69.0291 20.5913 68.8462C20.7249 68.6632 20.8018 68.4451 20.8125 68.2188V56.6563C20.8118 56.4428 20.7521 56.2336 20.6398 56.052C20.5276 55.8703 20.3672 55.7233 20.1766 55.6272ZM10.4062 53.3263L17.0662 56.6563L10.4062 59.9863L3.74625 56.6563L10.4062 53.3263ZM9.25 70.9707L2.3125 67.5019V58.5294L9.25 61.9982V70.9707ZM18.5 67.5019L11.5625 70.9707V61.9982L18.5 58.5294V67.5019Z" fill="#1FD9CA"/>
<path d="M63.5938 52.0312L54.3438 56.6562V68.2187L63.5938 72.8437L72.8438 68.2187V56.6562L63.5938 52.0312Z" fill="#D0FFFB"/>
<path d="M73.3641 55.6272L64.1141 51.0022C63.9527 50.9209 63.7745 50.8785 63.5937 50.8785C63.413 50.8785 63.2348 50.9209 63.0734 51.0022L53.8234 55.6272C53.6328 55.7233 53.4724 55.8703 53.3602 56.052C53.2479 56.2336 53.1881 56.4428 53.1875 56.6563V68.2188C53.1881 68.4323 53.2479 68.6415 53.3602 68.8231C53.4724 69.0048 53.6328 69.1518 53.8234 69.2479L63.1312 73.8729C63.2757 73.9417 63.4337 73.9774 63.5937 73.9774C63.7538 73.9774 63.9118 73.9417 64.0562 73.8729L73.3641 69.2479C73.5547 69.1518 73.7151 69.0048 73.8273 68.8231C73.9396 68.6415 73.9993 68.4323 74 68.2188V56.6563C73.9993 56.4428 73.9396 56.2336 73.8273 56.052C73.7151 55.8703 73.5547 55.7233 73.3641 55.6272ZM63.5937 53.3147L70.2537 56.6563L63.5937 59.9863L56.9338 56.6563L63.5937 53.3147ZM62.4375 70.9707L55.5 67.5019V58.5294L62.4375 61.9982V70.9707ZM71.6875 67.5019L64.75 70.9707V61.9982L71.6875 58.5294V67.5019Z" fill="#1FD9CA"/>
<path d="M37 19.6562L20.8125 26.5938V47.4062L37 54.3438L53.1875 47.4062V26.5938L37 19.6562Z" fill="#FCFCFC"/>
<path d="M54.4938 26.5938V26.5937L53.6384 25.53L53.6975 25.3922L53.6975 25.3921C53.6973 25.3921 53.6971 25.392 53.6969 25.3919L37.51 18.4547V18.4547L37.5094 18.4544C37.3483 18.3862 37.175 18.351 37 18.351C36.825 18.351 36.6517 18.3862 36.4906 18.4544L36.49 18.4547L20.3031 25.3919C20.303 25.392 20.3028 25.392 20.3027 25.3921C20.0668 25.4921 19.8654 25.6593 19.7238 25.8729C19.5821 26.0866 19.5065 26.3373 19.5062 26.5937V26.5938L19.5062 47.4063L19.5063 47.4064C19.5065 47.6628 19.5821 47.9135 19.7238 48.1272C19.8655 48.3408 20.0668 48.508 20.3028 48.608C24.3014 50.3221 27.3315 51.6285 29.6337 52.621C32.4396 53.8307 34.1642 54.5742 35.2429 55.0214C36.2188 55.426 36.6819 55.5952 36.942 55.6434C37.0799 55.6689 37.1763 55.6638 37.2662 55.6332C37.3051 55.6199 37.3397 55.6027 37.3672 55.589L37.3702 55.5876C37.3997 55.5729 37.4259 55.56 37.4582 55.5477L37.4582 55.5478L37.4638 55.5454L53.6481 48.6092C53.8925 48.5172 54.1038 48.354 54.2545 48.1406C54.406 47.9262 54.4893 47.6712 54.4938 47.4088V47.4063V26.5938ZM37 21.0798L49.8697 26.5938L37 32.1078L24.1303 26.5938L37 21.0798ZM22.1188 46.5442V28.5787L35.6938 34.3933V52.3589L22.1188 46.5442ZM51.8812 28.5787V46.5442L38.3062 52.3589V34.3933L51.8812 28.5787Z" fill="#1FD9CA" stroke="#1FD9CA" stroke-width="0.3" stroke-linejoin="round"/>
</g>
<defs>
<clipPath id="clip0_3114_20181">
<rect width="74" height="74" fill="white"/>
</clipPath>
</defs>
</svg>
