<svg width="74" height="74" viewBox="0 0 74 74" fill="none" xmlns="http://www.w3.org/2000/svg">
<g clip-path="url(#clip0_3114_20203)">
<path d="M71.6875 21.9688V67.0625H2.3125V21.9688C2.3125 21.0488 2.67795 20.1665 3.32847 19.516C3.97899 18.8655 4.86128 18.5 5.78125 18.5H68.2188C69.1387 18.5 70.021 18.8655 70.6715 19.516C71.322 20.1665 71.6875 21.0488 71.6875 21.9688Z" fill="#1FD9CA"/>
<path d="M1.15625 67.0625H72.8438C73.1504 67.0625 73.4445 67.1843 73.6613 67.4012C73.8782 67.618 74 67.9121 74 68.2188V70.5312C74 71.4512 73.6345 72.3335 72.984 72.984C72.3335 73.6345 71.4512 74 70.5312 74H3.46875C2.54878 74 1.66649 73.6345 1.01597 72.984C0.365457 72.3335 0 71.4512 0 70.5312L0 68.2188C0 67.9121 0.121819 67.618 0.338658 67.4012C0.555497 67.1843 0.849593 67.0625 1.15625 67.0625Z" fill="#338F8A"/>
<path d="M69.375 21.9688V26.5938H23.125L18.5 20.8125H68.2188C68.5254 20.8125 68.8195 20.9343 69.0363 21.1512C69.2532 21.368 69.375 21.6621 69.375 21.9688Z" fill="#338F8A"/>
<path d="M69.375 26.5938V64.75H4.625V21.9688C4.625 21.6621 4.74682 21.368 4.96366 21.1512C5.1805 20.9343 5.47459 20.8125 5.78125 20.8125H22.0613C22.7541 20.8129 23.4379 20.969 24.0623 21.2692C24.6868 21.5694 25.2357 22.006 25.6687 22.5469C26.825 24.05 26.4434 23.5181 27.5188 24.8594C27.9518 25.4002 28.5007 25.8368 29.1252 26.137C29.7496 26.4372 30.4334 26.5933 31.1262 26.5938H69.375Z" fill="#FCFCFC"/>
<path d="M56.6562 18.5H17.3438V20.8125H56.6562V18.5Z" fill="#338F8A"/>
<path d="M56.6565 20.8125V26.5938H31.1265C30.4337 26.5933 29.7498 26.4372 29.1254 26.137C28.501 25.8368 27.952 25.4002 27.519 24.8594C26.4437 23.5181 26.86 24.05 25.669 22.5469C25.236 22.006 24.687 21.5694 24.0626 21.2692C23.4382 20.969 22.7543 20.8129 22.0615 20.8125H56.6565Z" fill="#338F8A"/>
<path d="M56.6562 26.5938V28.9062C56.6554 29.5826 56.4568 30.2439 56.085 30.8088C55.7131 31.3738 55.1843 31.8177 54.5634 32.0859C36.7572 39.7172 38.1216 39.1506 37.9134 39.1853C37.3199 39.3528 36.6916 39.3528 36.0981 39.1853C35.8091 39.1853 37.2544 39.7056 19.4481 32.0975C18.8233 31.8302 18.2908 31.3852 17.9167 30.8179C17.5426 30.2506 17.3433 29.5858 17.3438 28.9062V20.8125H22.0613C22.7541 20.8129 23.4379 20.969 24.0623 21.2692C24.6868 21.5694 25.2357 22.006 25.6687 22.5469C26.27 23.31 27.5419 24.8594 27.6922 25.056C28.1288 25.543 28.6637 25.9318 29.2616 26.1969C29.8595 26.462 30.5069 26.5973 31.1609 26.5938H56.6562Z" fill="#D0FFFB"/>
<path d="M45.0938 69.375H28.9062C28.2929 69.375 27.7047 69.1314 27.2711 68.6977C26.8374 68.264 26.5938 67.6758 26.5938 67.0625H47.4062C47.4062 67.6758 47.1626 68.264 46.7289 68.6977C46.2953 69.1314 45.7071 69.375 45.0938 69.375Z" fill="#D0FFFB"/>
<path d="M53.1874 49.7188H20.8124C20.6042 49.7177 20.4001 49.6604 20.2217 49.553C20.0434 49.4455 19.8973 49.2919 19.799 49.1084C19.7008 48.9248 19.6539 48.7181 19.6633 48.5101C19.6727 48.3021 19.7382 48.1005 19.8527 47.9266L36.0402 23.6453C36.146 23.4879 36.2888 23.359 36.4562 23.2698C36.6236 23.1806 36.8103 23.134 36.9999 23.134C37.1895 23.134 37.3762 23.1806 37.5436 23.2698C37.711 23.359 37.8538 23.4879 37.9596 23.6453L54.1471 47.9266C54.2616 48.1005 54.327 48.3021 54.3365 48.5101C54.3459 48.7181 54.299 48.9248 54.2007 49.1084C54.1025 49.2919 53.9564 49.4455 53.778 49.553C53.5997 49.6604 53.3956 49.7177 53.1874 49.7188ZM22.9746 47.4063H51.0252L36.9999 26.3625L22.9746 47.4063Z" fill="#338F8A"/>
<path d="M37 1.15625L20.8125 8.09375V28.9062L37 35.8438L53.1875 28.9062V8.09375L37 1.15625Z" fill="#FCFCFC"/>
<path d="M37 1.15625L20.8125 8.09375V28.9062L37 35.8438L53.1875 28.9062V8.09375L37 1.15625Z" fill="#CDF9F5"/>
<path d="M54.3438 8.09377C54.3436 7.86681 54.2766 7.64493 54.1512 7.45577C54.0257 7.26661 53.8474 7.11852 53.6384 7.03001L37.4509 0.0925083C37.3083 0.0320862 37.1549 0.000976562 37 0.000976562C36.8451 0.000976562 36.6917 0.0320862 36.5491 0.0925083L20.3616 7.03001C20.1526 7.11852 19.9743 7.26661 19.8488 7.45577C19.7234 7.64493 19.6564 7.86681 19.6562 8.09377V28.9063C19.6564 29.1332 19.7234 29.3551 19.8488 29.5443C19.9743 29.7334 20.1526 29.8815 20.3616 29.97C38.11 37.5782 36.7687 37.1504 37.4047 36.9075L53.5922 29.97C53.8098 29.8888 53.9979 29.7438 54.132 29.5541C54.2661 29.3643 54.3398 29.1386 54.3438 28.9063V8.09377ZM37 2.41658L50.2506 8.09377L37 13.771L23.7494 8.09377L37 2.41658ZM21.9688 9.85126L35.8438 15.7944V34.0863L21.9688 28.1431V9.85126ZM52.0312 28.1431L38.1562 34.0863V15.7944L52.0312 9.85126V28.1431Z" fill="#1FD9CA"/>
<path d="M20.8125 37L9.25 41.625V55.5L20.8125 60.125L32.375 55.5V41.625L20.8125 37Z" fill="#CDF9F5"/>
<path d="M20.8124 47.4063C20.4886 47.4063 21.4599 47.7531 8.82208 42.7003C8.60641 42.6151 8.42136 42.467 8.29095 42.2752C8.16055 42.0835 8.09082 41.8569 8.09082 41.625C8.09082 41.3931 8.16055 41.1666 8.29095 40.9748C8.42136 40.783 8.60641 40.6349 8.82208 40.5497L20.3846 35.9247C20.6593 35.8153 20.9655 35.8153 21.2402 35.9247L32.8027 40.5497C33.0184 40.6349 33.2034 40.783 33.3338 40.9748C33.4642 41.1666 33.534 41.3931 33.534 41.625C33.534 41.8569 33.4642 42.0835 33.3338 42.2752C33.2034 42.467 33.0184 42.6151 32.8027 42.7003C20.1649 47.7531 21.1361 47.4063 20.8124 47.4063ZM12.3602 41.625L20.8124 45.0013L29.2646 41.625L20.8124 38.2487L12.3602 41.625Z" fill="#1FD9CA"/>
<path d="M20.8125 61.2813C20.4888 61.2813 21.46 61.6281 8.82218 56.5753C8.60705 56.4896 8.4226 56.3413 8.29272 56.1496C8.16284 55.9579 8.09353 55.7316 8.09375 55.5V41.625C8.09357 41.4361 8.13967 41.2501 8.22802 41.0831C8.31638 40.9161 8.4443 40.7733 8.60059 40.6672C8.75688 40.5611 8.9368 40.495 9.12459 40.4745C9.31237 40.454 9.50232 40.4798 9.67782 40.5497L20.8125 45.0013L31.9472 40.5497C32.1227 40.4798 32.3126 40.454 32.5004 40.4745C32.6882 40.495 32.8681 40.5611 33.0244 40.6672C33.1807 40.7733 33.3086 40.9161 33.397 41.0831C33.4853 41.2501 33.5314 41.4361 33.5312 41.625V55.5C33.5315 55.7316 33.4622 55.9579 33.3323 56.1496C33.2024 56.3413 33.018 56.4896 32.8028 56.5753C20.165 61.6281 21.1362 61.2813 20.8125 61.2813ZM10.4063 54.7138L20.8125 58.8763L31.2188 54.7138V43.3363L21.2403 47.3253C20.9656 47.4347 20.6594 47.4347 20.3847 47.3253L10.4063 43.3363V54.7138Z" fill="#1FD9CA"/>
<path d="M20.8125 61.2812C20.5058 61.2812 20.2117 61.1594 19.9949 60.9426C19.7781 60.7257 19.6562 60.4317 19.6562 60.125V46.25C19.6562 45.9433 19.7781 45.6493 19.9949 45.4324C20.2117 45.2156 20.5058 45.0938 20.8125 45.0938C21.1192 45.0938 21.4133 45.2156 21.6301 45.4324C21.8469 45.6493 21.9688 45.9433 21.9688 46.25V60.125C21.9688 60.4317 21.8469 60.7257 21.6301 60.9426C21.4133 61.1594 21.1192 61.2812 20.8125 61.2812Z" fill="#1FD9CA"/>
<path d="M53.1875 37L41.625 41.625V55.5L53.1875 60.125L64.75 55.5V41.625L53.1875 37Z" fill="#CDF9F5"/>
<path d="M53.1874 47.4063C52.8636 47.4063 53.8349 47.7531 41.1971 42.7003C40.9814 42.6151 40.7964 42.467 40.666 42.2752C40.5355 42.0835 40.4658 41.8569 40.4658 41.625C40.4658 41.3931 40.5355 41.1666 40.666 40.9748C40.7964 40.783 40.9814 40.6349 41.1971 40.5497L52.7596 35.9247C53.0343 35.8153 53.3405 35.8153 53.6152 35.9247L65.1777 40.5497C65.3934 40.6349 65.5784 40.783 65.7088 40.9748C65.8392 41.1666 65.909 41.3931 65.909 41.625C65.909 41.8569 65.8392 42.0835 65.7088 42.2752C65.5784 42.467 65.3934 42.6151 65.1777 42.7003C52.5399 47.7531 53.5111 47.4063 53.1874 47.4063ZM44.7352 41.625L53.1874 45.0013L61.6396 41.625L53.1874 38.2487L44.7352 41.625Z" fill="#1FD9CA"/>
<path d="M53.1875 61.2813C52.8638 61.2813 53.835 61.6281 41.1972 56.5753C40.982 56.4896 40.7976 56.3413 40.6677 56.1496C40.5378 55.9579 40.4685 55.7316 40.4688 55.5V41.625C40.4686 41.4361 40.5147 41.2501 40.603 41.0831C40.6914 40.9161 40.8193 40.7733 40.9756 40.6672C41.1319 40.5611 41.3118 40.495 41.4996 40.4745C41.6874 40.454 41.8773 40.4798 42.0528 40.5497L53.1875 45.0013L64.3222 40.5497C64.4977 40.4798 64.6876 40.454 64.8754 40.4745C65.0632 40.495 65.2431 40.5611 65.3994 40.6672C65.5557 40.7733 65.6836 40.9161 65.772 41.0831C65.8603 41.2501 65.9064 41.4361 65.9062 41.625V55.5C65.9065 55.7316 65.8372 55.9579 65.7073 56.1496C65.5774 56.3413 65.393 56.4896 65.1778 56.5753C52.54 61.6281 53.5112 61.2813 53.1875 61.2813ZM42.7813 54.7138L53.1875 58.8763L63.5938 54.7138V43.3363L53.6153 47.3253C53.3406 47.4347 53.0344 47.4347 52.7597 47.3253L42.7813 43.3363V54.7138Z" fill="#1FD9CA"/>
<path d="M53.1875 61.2812C52.8808 61.2812 52.5867 61.1594 52.3699 60.9426C52.1531 60.7257 52.0312 60.4317 52.0312 60.125V46.25C52.0312 45.9433 52.1531 45.6493 52.3699 45.4324C52.5867 45.2156 52.8808 45.0938 53.1875 45.0938C53.4942 45.0938 53.7883 45.2156 54.0051 45.4324C54.2219 45.6493 54.3438 45.9433 54.3438 46.25V60.125C54.3438 60.4317 54.2219 60.7257 54.0051 60.9426C53.7883 61.1594 53.4942 61.2812 53.1875 61.2812Z" fill="#1FD9CA"/>
<path d="M5.78125 16.1875C6.41983 16.1875 6.9375 15.6698 6.9375 15.0312C6.9375 14.3927 6.41983 13.875 5.78125 13.875C5.14267 13.875 4.625 14.3927 4.625 15.0312C4.625 15.6698 5.14267 16.1875 5.78125 16.1875Z" fill="#1FD9CA"/>
<path d="M10.4062 16.1875C11.0448 16.1875 11.5625 15.6698 11.5625 15.0312C11.5625 14.3927 11.0448 13.875 10.4062 13.875C9.76767 13.875 9.25 14.3927 9.25 15.0312C9.25 15.6698 9.76767 16.1875 10.4062 16.1875Z" fill="#1FD9CA"/>
<path d="M15.0312 16.1875C15.6698 16.1875 16.1875 15.6698 16.1875 15.0312C16.1875 14.3927 15.6698 13.875 15.0312 13.875C14.3927 13.875 13.875 14.3927 13.875 15.0312C13.875 15.6698 14.3927 16.1875 15.0312 16.1875Z" fill="#1FD9CA"/>
</g>
<defs>
<clipPath id="clip0_3114_20203">
<rect width="74" height="74" fill="white"/>
</clipPath>
</defs>
</svg>
