<svg width="74" height="74" viewBox="0 0 74 74" fill="none" xmlns="http://www.w3.org/2000/svg">
<g clip-path="url(#clip0_3114_20291)">
<path d="M65.9063 5.78125H8.09375C5.53943 5.78125 3.46875 7.85193 3.46875 10.4062V45.0938C3.46875 47.6481 5.53943 49.7188 8.09375 49.7188H65.9063C68.4606 49.7188 70.5312 47.6481 70.5312 45.0938V10.4062C70.5312 7.85193 68.4606 5.78125 65.9063 5.78125Z" fill="#338F8A"/>
<path d="M25.4375 67.0625H15.0312C14.7246 67.0625 14.4305 66.9407 14.2137 66.7238C13.9968 66.507 13.875 66.2129 13.875 65.9062C13.875 65.5996 13.9968 65.3055 14.2137 65.0887C14.4305 64.8718 14.7246 64.75 15.0312 64.75H24.2812V56.6562C24.2812 56.3496 24.4031 56.0555 24.6199 55.8387C24.8367 55.6218 25.1308 55.5 25.4375 55.5C25.7442 55.5 26.0383 55.6218 26.2551 55.8387C26.4719 56.0555 26.5938 56.3496 26.5938 56.6562V65.9062C26.5938 66.2129 26.4719 66.507 26.2551 66.7238C26.0383 66.9407 25.7442 67.0625 25.4375 67.0625Z" fill="#1FD9CA"/>
<path d="M15.0312 69.375C16.947 69.375 18.5 67.822 18.5 65.9062C18.5 63.9905 16.947 62.4375 15.0312 62.4375C13.1155 62.4375 11.5625 63.9905 11.5625 65.9062C11.5625 67.822 13.1155 69.375 15.0312 69.375Z" fill="#338F8A"/>
<path d="M42.7812 63.5938C42.4746 63.5938 42.1805 63.4719 41.9637 63.2551C41.7468 63.0382 41.625 62.7442 41.625 62.4375V56.6562C41.625 56.3496 41.7468 56.0555 41.9637 55.8387C42.1805 55.6218 42.4746 55.5 42.7812 55.5C43.0879 55.5 43.382 55.6218 43.5988 55.8387C43.8157 56.0555 43.9375 56.3496 43.9375 56.6562V62.4375C43.9375 62.7442 43.8157 63.0382 43.5988 63.2551C43.382 63.4719 43.0879 63.5938 42.7812 63.5938Z" fill="#1FD9CA"/>
<path d="M31.2188 63.5938C30.9121 63.5938 30.618 63.4719 30.4012 63.2551C30.1843 63.0382 30.0625 62.7442 30.0625 62.4375V56.6562C30.0625 56.3496 30.1843 56.0555 30.4012 55.8387C30.618 55.6218 30.9121 55.5 31.2188 55.5C31.5254 55.5 31.8195 55.6218 32.0363 55.8387C32.2532 56.0555 32.375 56.3496 32.375 56.6562V62.4375C32.375 62.7442 32.2532 63.0382 32.0363 63.2551C31.8195 63.4719 31.5254 63.5938 31.2188 63.5938Z" fill="#1FD9CA"/>
<path d="M37 71.6875C36.6933 71.6875 36.3992 71.5657 36.1824 71.3488C35.9656 71.132 35.8438 70.8379 35.8438 70.5312V56.6562C35.8438 56.3496 35.9656 56.0555 36.1824 55.8387C36.3992 55.6218 36.6933 55.5 37 55.5C37.3067 55.5 37.6008 55.6218 37.8176 55.8387C38.0344 56.0555 38.1562 56.3496 38.1562 56.6562V70.5312C38.1562 70.8379 38.0344 71.132 37.8176 71.3488C37.6008 71.5657 37.3067 71.6875 37 71.6875Z" fill="#1FD9CA"/>
<path d="M58.9688 67.0625H48.5625C48.2558 67.0625 47.9617 66.9407 47.7449 66.7238C47.5281 66.507 47.4062 66.2129 47.4062 65.9062V56.6562C47.4062 56.3496 47.5281 56.0555 47.7449 55.8387C47.9617 55.6218 48.2558 55.5 48.5625 55.5C48.8692 55.5 49.1633 55.6218 49.3801 55.8387C49.5969 56.0555 49.7188 56.3496 49.7188 56.6562V64.75H58.9688C59.2754 64.75 59.5695 64.8718 59.7863 65.0887C60.0032 65.3055 60.125 65.5996 60.125 65.9062C60.125 66.2129 60.0032 66.507 59.7863 66.7238C59.5695 66.9407 59.2754 67.0625 58.9688 67.0625Z" fill="#1FD9CA"/>
<path d="M37 74C38.9157 74 40.4688 72.447 40.4688 70.5312C40.4688 68.6155 38.9157 67.0625 37 67.0625C35.0843 67.0625 33.5312 68.6155 33.5312 70.5312C33.5312 72.447 35.0843 74 37 74Z" fill="#338F8A"/>
<path d="M58.9688 69.375C60.8845 69.375 62.4375 67.822 62.4375 65.9062C62.4375 63.9905 60.8845 62.4375 58.9688 62.4375C57.053 62.4375 55.5 63.9905 55.5 65.9062C55.5 67.822 57.053 69.375 58.9688 69.375Z" fill="#338F8A"/>
<path d="M74 16.1875V53.1875C74 54.4142 73.5127 55.5906 72.6454 56.4579C71.778 57.3253 70.6016 57.8125 69.375 57.8125H4.625C3.39837 57.8125 2.22199 57.3253 1.35463 56.4579C0.487275 55.5906 0 54.4142 0 53.1875V16.1875C0.000764371 15.1628 0.34184 14.1673 0.969672 13.3574C1.5975 12.5475 2.47654 11.9691 3.46875 11.7129C4.26656 11.4816 0.161874 11.5625 69.375 11.5625C70.6016 11.5625 71.778 12.0498 72.6454 12.9172C73.5127 13.7845 74 14.9609 74 16.1875Z" fill="#1FD9CA"/>
<path d="M69.375 21.9688V47.4062C67.8417 47.4062 66.3712 48.0154 65.287 49.0996C64.2028 50.1837 63.5938 51.6542 63.5938 53.1875H10.4062C10.4062 51.6542 9.79716 50.1837 8.71296 49.0996C7.62877 48.0154 6.15828 47.4062 4.625 47.4062V21.9688C6.15828 21.9688 7.62877 21.3596 8.71296 20.2754C9.79716 19.1913 10.4062 17.7208 10.4062 16.1875H63.5938C63.5938 17.7208 64.2028 19.1913 65.287 20.2754C66.3712 21.3596 67.8417 21.9688 69.375 21.9688Z" fill="#FCFCFC"/>
<path d="M37 48.5625C44.663 48.5625 50.875 42.3505 50.875 34.6875C50.875 27.0245 44.663 20.8125 37 20.8125C29.337 20.8125 23.125 27.0245 23.125 34.6875C23.125 42.3505 29.337 48.5625 37 48.5625Z" fill="#C3F5F1"/>
<path d="M37 26.5938L28.9062 30.0625V39.3125L37 42.7812L45.0938 39.3125V30.0625L37 26.5938Z" fill="#FCFCFC"/>
<path d="M46.25 30.0625C46.2498 29.8355 46.1828 29.6136 46.0574 29.4245C45.932 29.2353 45.7537 29.0873 45.5447 28.9988L37.4509 25.53C37.3083 25.4696 37.1549 25.4384 37 25.4384C36.8451 25.4384 36.6917 25.4696 36.5491 25.53L28.4553 28.9988C28.2463 29.0873 28.068 29.2353 27.9426 29.4245C27.8172 29.6136 27.7502 29.8355 27.75 30.0625V39.3125C27.7502 39.5395 27.8172 39.7614 27.9426 39.9505C28.068 40.1397 28.2463 40.2877 28.4553 40.3762C37.7053 44.3306 36.445 43.845 36.5491 43.845C36.7026 43.9105 36.8678 43.9443 37.0347 43.9443C37.2016 43.9443 37.3668 43.9105 37.5203 43.845L45.5447 40.3762C45.7537 40.2877 45.932 40.1397 46.0574 39.9505C46.1828 39.7614 46.2498 39.5395 46.25 39.3125V30.0625ZM37 27.8541L42.1569 30.0625L37 32.2709L31.8431 30.0625L37 27.8541ZM35.8438 41.0237L30.0625 38.5494V31.82L35.8438 34.2943V41.0237ZM43.9375 38.5494L38.1562 41.0237V34.2943L43.9375 31.82V38.5494Z" fill="#1FD9CA"/>
<path d="M27.3453 16.1875H10.4063C10.4063 17.7208 9.79716 19.1913 8.71296 20.2755C7.62877 21.3597 6.15828 21.9688 4.625 21.9688V25.4375C2.76086 24.2561 1.1814 22.6767 0 20.8125L0 16.1875C0.000764372 15.1628 0.34184 14.1673 0.969672 13.3574C1.5975 12.5475 2.47654 11.969 3.46875 11.7128C4.23188 11.4931 2.52063 11.5625 27.75 11.5625C27.8527 13.1158 27.7162 14.6757 27.3453 16.1875Z" fill="#338F8A"/>
<path d="M27.3453 16.1875C26.7983 18.5269 25.6985 20.7012 24.138 22.528C22.5775 24.3548 20.6019 25.7809 18.3767 26.6868C16.1515 27.5928 13.7416 27.9521 11.3489 27.7347C8.95623 27.5173 6.65051 26.7296 4.625 25.4375V21.9688C6.15828 21.9688 7.62877 21.3596 8.71296 20.2754C9.79715 19.1913 10.4062 17.7208 10.4062 16.1875H27.3453Z" fill="#C3F5F1"/>
<path d="M12.7188 25.4375C19.7431 25.4375 25.4375 19.7431 25.4375 12.7188C25.4375 5.69438 19.7431 0 12.7188 0C5.69438 0 0 5.69438 0 12.7188C0 19.7431 5.69438 25.4375 12.7188 25.4375Z" fill="#FCFCFC"/>
<path d="M22.0378 17.3438C20.9947 19.4462 19.2715 21.1343 17.1481 22.1339C15.0246 23.1335 12.6256 23.386 10.3406 22.8504C8.05561 22.3147 6.01877 21.0222 4.56085 19.183C3.10294 17.3438 2.30957 15.0657 2.30957 12.7188C2.30957 10.3718 3.10294 8.09376 4.56085 6.25453C6.01877 4.4153 8.05561 3.12288 10.3406 2.58719C12.6256 2.0515 15.0246 2.30401 17.1481 3.30364C19.2715 4.30327 20.9947 5.99134 22.0378 8.09377C22.751 9.53122 23.1221 11.1141 23.1221 12.7188C23.1221 14.3234 22.751 15.9063 22.0378 17.3438Z" fill="#C3F5F1"/>
<path d="M11.9441 22.8359C9.3425 20.5003 6.9375 17.6675 6.9375 12.7187C6.9375 7.76997 9.3425 4.93716 11.9441 2.60153C12.1565 2.40978 12.4326 2.30365 12.7187 2.30365C13.0049 2.30365 13.281 2.40978 13.4934 2.60153C16.095 4.91403 18.5 7.76997 18.5 12.7187C18.5 17.6675 16.095 20.5003 13.4934 22.8359C13.281 23.0277 13.0049 23.1338 12.7187 23.1338C12.4326 23.1338 12.1565 23.0277 11.9441 22.8359ZM12.7187 5.05278C11.6295 6.01094 10.7569 7.19022 10.1592 8.51207C9.56145 9.83393 9.25229 11.268 9.25229 12.7187C9.25229 14.1694 9.56145 15.6035 10.1592 16.9254C10.7569 18.2472 11.6295 19.4265 12.7187 20.3847C13.808 19.4265 14.6806 18.2472 15.2783 16.9254C15.876 15.6035 16.1852 14.1694 16.1852 12.7187C16.1852 11.268 15.876 9.83393 15.2783 8.51207C14.6806 7.19022 13.808 6.01094 12.7187 5.05278Z" fill="#1FD9CA"/>
<path d="M22.0377 8.09375H3.39891C3.0327 8.82971 2.75332 9.60575 2.56641 10.4062H22.8702C22.6832 9.60575 22.4039 8.82971 22.0377 8.09375ZM3.39891 17.3438H22.0377C22.4039 16.6078 22.6832 15.8317 22.8702 15.0312H2.56641C2.75332 15.8317 3.0327 16.6078 3.39891 17.3438Z" fill="#1FD9CA"/>
<path d="M10.4062 35.8438H17.3438C17.6504 35.8438 17.9445 35.7219 18.1613 35.5051C18.3782 35.2882 18.5 34.9942 18.5 34.6875C18.5 34.3808 18.3782 34.0868 18.1613 33.8699C17.9445 33.6531 17.6504 33.5312 17.3438 33.5312H10.4062C10.0996 33.5312 9.8055 33.6531 9.58866 33.8699C9.37182 34.0868 9.25 34.3808 9.25 34.6875C9.25 34.9942 9.37182 35.2882 9.58866 35.5051C9.8055 35.7219 10.0996 35.8438 10.4062 35.8438Z" fill="#338F8A"/>
<path d="M56.6562 35.8438H63.5938C63.9004 35.8438 64.1945 35.7219 64.4113 35.5051C64.6282 35.2882 64.75 34.9942 64.75 34.6875C64.75 34.3808 64.6282 34.0868 64.4113 33.8699C64.1945 33.6531 63.9004 33.5312 63.5938 33.5312H56.6562C56.3496 33.5312 56.0555 33.6531 55.8387 33.8699C55.6218 34.0868 55.5 34.3808 55.5 34.6875C55.5 34.9942 55.6218 35.2882 55.8387 35.5051C56.0555 35.7219 56.3496 35.8438 56.6562 35.8438Z" fill="#338F8A"/>
</g>
<defs>
<clipPath id="clip0_3114_20291">
<rect width="74" height="74" fill="white"/>
</clipPath>
</defs>
</svg>
