<svg width="74" height="79" viewBox="0 0 74 79" fill="none" xmlns="http://www.w3.org/2000/svg">
<g clip-path="url(#clip0_3114_20121)">
<path d="M69.0667 7.40625H4.93333C2.20873 7.40625 0 9.61684 0 12.3438V61.7188C0 64.4457 2.20873 66.6562 4.93333 66.6562H69.0667C71.7913 66.6562 74 64.4457 74 61.7188V12.3438C74 9.61684 71.7913 7.40625 69.0667 7.40625Z" fill="#50D9D7"/>
<path d="M51.8002 79H22.2002C25.3575 75.84 27.1335 71.5567 27.1335 67.0759V66.6562H46.8669V67.0759C46.8669 71.5444 48.6429 75.84 51.8002 79Z" fill="#00BEBD"/>
<path d="M53.0334 76.5312H20.9667C20.2856 76.5312 19.7334 77.0839 19.7334 77.7656C19.7334 78.4474 20.2856 79 20.9667 79H53.0334C53.7146 79 54.2667 78.4474 54.2667 77.7656C54.2667 77.0839 53.7146 76.5312 53.0334 76.5312Z" fill="#50D9D7"/>
<path d="M69.0669 11.1094H4.93353C4.25238 11.1094 3.7002 11.662 3.7002 12.3438V59.25C3.7002 59.9317 4.25238 60.4844 4.93353 60.4844H69.0669C69.748 60.4844 70.3002 59.9317 70.3002 59.25V12.3438C70.3002 11.662 69.748 11.1094 69.0669 11.1094Z" fill="#93E6E5"/>
<path d="M70.3002 17.2812V59.25C70.3002 59.9289 69.7452 60.4844 69.0669 60.4844H4.93353C4.2552 60.4844 3.7002 59.9289 3.7002 59.25V12.3438C3.7002 11.6648 4.2552 11.1094 4.93353 11.1094H22.2989C23.7912 11.1094 25.2095 11.7883 26.1469 12.9609L28.1202 15.4297C29.0575 16.6023 30.4759 17.2812 31.9682 17.2812H70.3002Z" fill="white"/>
<path d="M53.0335 7.76422V11.1094H20.9668V7.76422C20.9668 7.64078 20.9668 7.51734 20.9791 7.40625H53.0211C53.0335 7.51734 53.0335 7.64078 53.0335 7.76422Z" fill="#00BEBD"/>
<path d="M53.0335 11.1094V14.3188C53.0335 15.3186 52.9595 16.3184 52.8238 17.2812H31.9682C30.4758 17.2812 29.0575 16.6023 28.1202 15.4297L26.1468 12.9609C25.2095 11.7883 23.7912 11.1094 22.2988 11.1094H53.0335Z" fill="#50D9D7"/>
<path d="M52.8238 17.2812C51.6521 25.4158 45.7445 32.2666 37.6538 34.4761L37.0001 34.6489L36.3465 34.4761C27.2938 32.0073 20.9668 23.7123 20.9668 14.3188V11.1094H22.2988C23.7911 11.1094 25.2095 11.7883 26.1468 12.9609L28.1201 15.4297C29.0575 16.6023 30.4758 17.2812 31.9681 17.2812H52.8238Z" fill="#F3F3F3"/>
<path d="M50.5669 7.51734V14.0719C50.5669 22.3792 45.0046 29.662 37.0003 31.8469C28.9959 29.662 23.4336 22.3792 23.4336 14.0719V7.51734C23.4336 6.55453 24.0009 5.66578 24.8766 5.27078L35.9766 0.222187C36.6303 -0.0740625 37.3703 -0.0740625 38.0239 0.222187L49.1239 5.27078C49.9996 5.66578 50.5669 6.55453 50.5669 7.51734Z" fill="#1FD9CA"/>
<path d="M37.0004 2.22192L48.1004 7.15942V13.9608C48.1004 20.9597 43.6234 27.1686 37.0004 29.3782C30.3774 27.1686 25.9004 20.9597 25.9004 13.9608V7.15942L37.0004 2.22192Z" fill="#338F8A"/>
<path d="M35.7665 19.5031C35.4458 19.5031 35.1375 19.3796 34.8908 19.1451L31.1908 15.442C30.7098 14.9606 30.7098 14.1829 31.1908 13.7015C31.6718 13.2201 32.4488 13.2201 32.9298 13.7015L35.7542 16.5282L41.0452 11.2328C41.5262 10.7514 42.3032 10.7514 42.7842 11.2328C43.2652 11.7142 43.2652 12.4918 42.7842 12.9732L36.6175 19.1451C36.3708 19.392 36.0625 19.5031 35.7418 19.5031H35.7665Z" fill="#F3F3F3"/>
<path d="M18.5005 43.2031C23.9518 43.2031 28.3671 47.6222 28.3671 53.0781V55.5469H8.63379V53.0781C8.63379 47.6222 13.0491 43.2031 18.5005 43.2031Z" fill="#84C4C4"/>
<path d="M18.4997 45.6719C21.9054 45.6719 24.6663 42.9086 24.6663 39.5C24.6663 36.0914 21.9054 33.3281 18.4997 33.3281C15.0939 33.3281 12.333 36.0914 12.333 39.5C12.333 42.9086 15.0939 45.6719 18.4997 45.6719Z" fill="#84C4C4"/>
<path d="M65.3665 37.0312H33.2998V39.5H65.3665V37.0312Z" fill="#84C4C4"/>
<path d="M65.3665 43.2031H33.2998V45.6719H65.3665V43.2031Z" fill="#84C4C4"/>
<path d="M55.4998 49.375H33.2998V51.8438H55.4998V49.375Z" fill="#84C4C4"/>
</g>
<defs>
<clipPath id="clip0_3114_20121">
<rect width="74" height="79" fill="white"/>
</clipPath>
</defs>
</svg>
