<svg width="52" height="55" viewBox="0 0 52 55" fill="none" xmlns="http://www.w3.org/2000/svg">
<g clip-path="url(#clip0_641_10722)">
<path d="M48.2344 27.6458C48.2344 44.622 30.7688 55.768 15.9272 49.5833C11.3879 47.8958 14.5097 47.128 6.89067 50.427C7.62474 44.5208 7.84411 44.3183 7.13536 43.542C-6.22121 28.8608 3.51568 5.57328 22.7532 4.08828C27.1889 3.73962 31.633 4.65065 35.5737 6.71656C39.5145 8.78246 42.7917 11.9192 45.0282 15.7658C45.4526 16.4988 45.8385 17.2536 46.1841 18.027C47.522 21.0581 48.22 24.3326 48.2344 27.6458Z" fill="#B6EDE2"/>
<path d="M46.4883 36.5726C46.0839 37.5679 45.6073 38.5324 45.0624 39.4582H39.7974C38.9023 39.4582 38.0438 39.1027 37.4109 38.4697C36.7779 37.8368 36.4224 36.9783 36.4224 36.0832C36.4224 35.1881 36.0668 34.3297 35.4339 33.6968C34.8009 33.0638 33.9425 32.7082 33.0474 32.7082C32.1523 32.7082 31.2938 32.3527 30.6609 31.7197C30.0279 31.0868 29.6724 30.2283 29.6724 29.3332V25.9582C29.6724 25.0631 30.0279 24.2047 30.6609 23.5718C31.2938 22.9388 32.1523 22.5832 33.0474 22.5832H33.6549C34.4353 22.5826 35.1913 22.3115 35.7944 21.8162C36.3974 21.3208 36.8102 20.6318 36.9624 19.8664C37.2884 18.2409 38.1713 16.78 39.459 15.7357C40.7466 14.6914 42.3583 14.1291 44.0161 14.1457C46.2659 17.3812 47.6707 21.1279 48.1025 25.045C48.5343 28.962 47.9794 32.9249 46.4883 36.5726Z" fill="#68B8A5"/>
<path d="M20.45 12.6692C19.469 13.815 18.9419 15.2805 18.9683 16.7886C18.9947 18.2967 19.5729 19.7429 20.5934 20.8536C21.3431 21.7499 21.8228 22.8406 21.9767 23.9989C22.1306 25.1572 21.9522 26.3354 21.4624 27.3963C20.9727 28.4572 20.1916 29.3571 19.2102 29.9913C18.2288 30.6255 17.0875 30.9679 15.919 30.9786C15.7306 30.9786 15.5441 31.0157 15.3701 31.0878C15.1961 31.1599 15.038 31.2655 14.9048 31.3987C14.7716 31.5319 14.6659 31.69 14.5938 31.8641C14.5217 32.0381 14.4846 32.2246 14.4846 32.413V35.8977C14.4789 36.7131 14.1908 37.5012 13.6694 38.1281C13.1479 38.755 12.4254 39.1819 11.6247 39.3361C10.824 39.4902 9.99461 39.3622 9.27768 38.9737C8.56074 38.5853 8.00056 37.9604 7.69245 37.2055C7.45621 36.613 7.04774 36.1049 6.51981 35.7469C5.99188 35.389 5.36875 35.1976 4.7309 35.1974H2.24183C1.11139 31.8477 0.747104 28.287 1.17584 24.7778C1.60458 21.2687 2.81541 17.9005 4.71906 14.9215C6.62272 11.9425 9.17066 9.42876 12.1751 7.56552C15.1795 5.70228 18.5637 4.53706 22.0784 4.15576C22.0784 8.70357 22.4665 10.2983 20.45 12.6692Z" fill="#68B8A5"/>
<path d="M33.891 48.9082V49.3723C30.9789 50.6174 27.8462 51.2642 24.679 51.2744C21.5119 51.2845 18.3751 50.6578 15.4551 49.4314C15.5395 49.347 15.3032 49.617 18.2395 46.0564C20.5513 43.2973 19.7835 41.7701 21.8592 40.2851C22.4548 39.856 23.1449 39.5766 23.8713 39.4705C24.5977 39.3644 25.339 39.4348 26.0324 39.6756C26.7259 39.9164 27.3512 40.3206 27.8555 40.8541C28.3598 41.3875 28.7283 42.0345 28.9298 42.7404C29.1595 43.5462 29.5711 44.2885 30.1328 44.9102C30.6945 45.5319 31.3914 46.0164 32.1698 46.3264C32.6832 46.5335 33.1221 46.8908 33.4292 47.3514C33.7363 47.812 33.8973 48.3547 33.891 48.9082Z" fill="#68B8A5"/>
<path d="M47.3066 15.3523C29.9253 51.9711 31.2753 49.5833 30.516 49.5833C30.3737 49.5829 30.2339 49.5465 30.1094 49.4775C29.985 49.4086 29.88 49.3093 29.8043 49.1889C29.7285 49.0686 29.6844 48.931 29.6761 48.789C29.6677 48.647 29.6954 48.5051 29.7566 48.3767C50.6057 4.43421 43.9653 18.4995 45.3238 15.5886C42.0753 14.8799 6.81502 7.40419 6.71377 7.37888C6.49 7.33189 6.29405 7.19796 6.16905 7.00649C6.04404 6.81503 6.00022 6.58175 6.04722 6.35798C6.09421 6.1342 6.22818 5.93823 6.41964 5.81322C6.6111 5.68822 6.84438 5.64439 7.06816 5.69138C50.0488 14.8123 47.045 14.0614 47.3066 14.5845C47.3673 14.7034 47.399 14.8349 47.399 14.9684C47.399 15.1019 47.3673 15.2335 47.3066 15.3523Z" fill="#F3F3F3"/>
<path d="M14.0879 8.94829C13.5052 10.7172 12.2928 12.2103 10.6811 13.1437C9.06948 14.0771 7.17099 14.3857 5.34668 14.0108C6.90097 11.794 8.83136 9.86649 11.0504 8.31548C11.1095 8.29861 10.9576 8.23954 14.0879 8.94829Z" fill="#338F7E"/>
<path d="M14.4848 7.29455L13.1602 7.00765C13.6073 6.76296 14.0545 6.52675 14.5186 6.30737C14.5381 6.63677 14.5268 6.96725 14.4848 7.29455Z" fill="#338F7E"/>
<path d="M14.4847 7.29448C14.4392 7.86982 14.3201 8.43694 14.1303 8.98198L6.71377 7.39573C6.49 7.34873 6.29405 7.21475 6.16905 7.02329C6.04404 6.83183 6.00022 6.59855 6.04722 6.37477C6.09421 6.15099 6.22818 5.95508 6.41964 5.83007C6.6111 5.70507 6.84438 5.66123 7.06816 5.70823C20.4838 8.57698 10.5191 6.44229 14.4847 7.29448Z" fill="#F3F3F3"/>
<path d="M6.89111 12.4583C5.32468 12.4583 3.8224 11.836 2.71476 10.7284C1.60712 9.62073 0.984863 8.11844 0.984863 6.552C0.984863 4.98557 1.60712 3.48327 2.71476 2.37564C3.8224 1.268 5.32468 0.645752 6.89111 0.645752C8.45755 0.645752 9.95983 1.268 11.0675 2.37564C12.1751 3.48327 12.7974 4.98557 12.7974 6.552C12.7974 8.11844 12.1751 9.62073 11.0675 10.7284C9.95983 11.836 8.45755 12.4583 6.89111 12.4583Z" fill="#68B8A5"/>
<path d="M7.73447 10.0704C6.35072 10.0704 5.78541 9.16758 4.11479 7.53914C3.64077 7.06453 3.37451 6.42118 3.37451 5.7504C3.37451 5.07962 3.64077 4.43626 4.11479 3.96165L4.60415 3.46387C4.76303 3.30499 4.97853 3.2157 5.20322 3.2157C5.42791 3.2157 5.64341 3.30499 5.80229 3.46387C5.96117 3.62275 6.05042 3.83821 6.05042 4.0629C6.05042 4.28759 5.96117 4.5031 5.80229 4.66198C5.36354 5.09229 5.05978 5.30321 5.05978 5.7504C5.05978 6.19759 5.16103 6.20603 7.1354 8.1804C7.21384 8.25949 7.30716 8.32224 7.40998 8.36508C7.5128 8.40791 7.62309 8.42996 7.73447 8.42996C7.84586 8.42996 7.95614 8.40791 8.05896 8.36508C8.16178 8.32224 8.2551 8.25949 8.33354 8.1804L8.8229 7.68262C8.98178 7.52374 9.19728 7.43445 9.42197 7.43445C9.64666 7.43445 9.86216 7.52374 10.021 7.68262C10.1799 7.8415 10.2692 8.05696 10.2692 8.28165C10.2692 8.50634 10.1799 8.72185 10.021 8.88073L9.52322 9.37012C9.04215 9.82952 8.39958 10.0811 7.73447 10.0704Z" fill="#F3F3F3"/>
<path d="M41.1724 14.7111C40.0579 15.1761 39.0837 15.9235 38.3458 16.8795C38.1122 15.9622 38.0521 15.0092 38.1686 14.0698L41.1724 14.7111Z" fill="#68B8A5"/>
<path d="M43.5094 13.4792L38.5566 12.4582C38.9026 11.5017 39.4361 10.6238 40.126 9.87634C41.3798 10.9524 42.5142 12.1603 43.5094 13.4792Z" fill="#68B8A5"/>
<path d="M44.0157 14.1458C43.0507 14.1433 42.095 14.3355 41.206 14.7111C41.1217 14.7111 41.3242 14.7111 38.1938 14.0698C38.2616 13.5087 38.3918 12.9568 38.582 12.4246L43.5348 13.4792L44.0157 14.1458Z" fill="#F3F3F3"/>
<path d="M47.6272 22.3386C46.4249 22.6373 45.1677 22.6373 43.9653 22.3386C46.4966 17.0482 46.0241 17.8245 46.1928 17.9932C46.8137 19.3906 47.2942 20.8462 47.6272 22.3386Z" fill="#338F7E"/>
<path d="M42.3704 21.807C41.3831 21.3256 40.512 20.6358 39.8171 19.7851C39.1223 18.9344 38.6203 17.943 38.3457 16.8795C39.0851 15.9215 40.0625 15.1738 41.1807 14.7111C45.9648 15.7236 44.5557 15.3439 45.0451 15.7995C45.1801 16.0695 45.4923 15.2427 42.3704 21.807Z" fill="#338F7E"/>
<path d="M46.1169 17.8583L43.9653 22.3808C43.4126 22.2543 42.8772 22.0617 42.3706 21.807L45.1465 15.9683C45.8975 17.3267 45.7034 17.0652 46.1169 17.8583Z" fill="#F3F3F3"/>
<path d="M45.7036 20.8958C48.9655 20.8958 51.6099 18.2514 51.6099 14.9895C51.6099 11.7276 48.9655 9.08325 45.7036 9.08325C42.4417 9.08325 39.7974 11.7276 39.7974 14.9895C39.7974 18.2514 42.4417 20.8958 45.7036 20.8958Z" fill="#68B8A5"/>
<path d="M33.8907 49.3639V48.9083C33.8903 48.4239 33.7611 47.9483 33.5165 47.5303C33.2719 47.1122 32.9206 46.7666 32.4985 46.5289L34.5067 42.3102C35.3741 42.8445 36.1252 43.5479 36.7151 44.3785C37.3051 45.209 37.7219 46.1498 37.9407 47.1449C36.6672 48.0163 35.3106 48.7596 33.8907 49.3639Z" fill="#68B8A5"/>
<path d="M32.9882 41.5676L31.0138 45.7273C28.9804 44.276 29.166 42.732 28.3223 41.5085C29.8436 41.0269 31.4795 41.0476 32.9882 41.5676Z" fill="#68B8A5"/>
<path d="M34.5068 42.2932L32.4987 46.512C31.9799 46.2748 31.483 45.9925 31.0137 45.6682L32.988 41.5085C33.5261 41.7033 34.0366 41.9671 34.5068 42.2932Z" fill="#F3F3F3"/>
<path d="M33.8911 48.9083V49.3723C31.7133 50.3067 29.4059 50.9042 27.0483 51.1442C25.8204 51.266 24.5852 51.297 23.3527 51.237C23.0166 50.2707 22.8792 49.2465 22.9487 48.2257C23.0183 47.205 23.2934 46.2088 23.7576 45.2971C24.2217 44.3853 24.8654 43.5768 25.6498 42.92C26.4342 42.2631 27.3433 41.7716 28.3224 41.4749C28.5917 41.8735 28.7967 42.3119 28.9299 42.7742C29.1596 43.58 29.5712 44.3223 30.1329 44.9439C30.6946 45.5656 31.3915 46.0501 32.1699 46.3601C32.6779 46.5652 33.1132 46.9172 33.4198 47.3712C33.7265 47.8252 33.8906 48.3604 33.8911 48.9083Z" fill="#338F7E"/>
<path d="M46.547 18.5079C45.1632 18.5079 44.5979 17.6051 42.9273 15.9766C42.4533 15.502 42.187 14.8587 42.187 14.1879C42.187 13.5171 42.4533 12.8738 42.9273 12.3992L43.4167 11.9014C43.5755 11.7425 43.791 11.6532 44.0157 11.6532C44.2404 11.6532 44.4559 11.7425 44.6148 11.9014C44.7737 12.0603 44.8629 12.2757 44.8629 12.5004C44.8629 12.7251 44.7737 12.9406 44.6148 13.0995C44.176 13.5298 43.8723 13.7407 43.8723 14.1879C43.8723 14.6351 43.9735 14.6435 45.9479 16.6179C46.0263 16.697 46.1197 16.7597 46.2225 16.8026C46.3253 16.8454 46.4356 16.8675 46.547 16.8675C46.6584 16.8675 46.7686 16.8454 46.8715 16.8026C46.9743 16.7597 47.0676 16.697 47.146 16.6179L47.6354 16.1201C47.7943 15.9612 48.0098 15.8719 48.2345 15.8719C48.4592 15.8719 48.6747 15.9612 48.8335 16.1201C48.9924 16.279 49.0817 16.4945 49.0817 16.7191C49.0817 16.9438 48.9924 17.1593 48.8335 17.3182L48.3357 17.8076C47.8546 18.267 47.2121 18.5186 46.547 18.5079Z" fill="#F3F3F3"/>
<path d="M30.5161 54.6458C33.778 54.6458 36.4224 52.0014 36.4224 48.7395C36.4224 45.4776 33.778 42.8333 30.5161 42.8333C27.2542 42.8333 24.6099 45.4776 24.6099 48.7395C24.6099 52.0014 27.2542 54.6458 30.5161 54.6458Z" fill="#68B8A5"/>
<path d="M31.3595 52.2579C29.9757 52.2579 29.4104 51.3551 27.7398 49.7266C27.2658 49.252 26.9995 48.6087 26.9995 47.9379C26.9995 47.2671 27.2658 46.6238 27.7398 46.1492L28.2292 45.6514C28.388 45.4925 28.6035 45.4032 28.8282 45.4032C29.0529 45.4032 29.2684 45.4925 29.4273 45.6514C29.5862 45.8103 29.6754 46.0257 29.6754 46.2504C29.6754 46.4751 29.5862 46.6906 29.4273 46.8495C28.9885 47.2798 28.6848 47.4907 28.6848 47.9379C28.6848 48.3851 28.786 48.3935 30.7604 50.3679C30.8388 50.447 30.9322 50.5097 31.035 50.5526C31.1378 50.5954 31.2481 50.6175 31.3595 50.6175C31.4709 50.6175 31.5811 50.5954 31.684 50.5526C31.7868 50.5097 31.8801 50.447 31.9585 50.3679L32.4479 49.8701C32.6068 49.7112 32.8223 49.6219 33.047 49.6219C33.2717 49.6219 33.4872 49.7112 33.646 49.8701C33.8049 50.029 33.8942 50.2445 33.8942 50.4691C33.8942 50.6938 33.8049 50.9093 33.646 51.0682L33.1482 51.5576C32.6671 52.017 32.0246 52.2686 31.3595 52.2579Z" fill="#F3F3F3"/>
</g>
<defs>
<clipPath id="clip0_641_10722">
<rect width="50.6419" height="54" fill="white" transform="translate(0.967773 0.645752)"/>
</clipPath>
</defs>
</svg>
