<svg width="74" height="74" viewBox="0 0 74 74" fill="none" xmlns="http://www.w3.org/2000/svg">
<g clip-path="url(#clip0_2918_1500)">
<path d="M38.1563 64.75C32.6678 64.75 27.3027 63.1225 22.7392 60.0733C18.1757 57.0241 14.6189 52.6901 12.5186 47.6195C10.4183 42.5488 9.86873 36.9692 10.9395 31.5863C12.0102 26.2033 14.6531 21.2587 18.534 17.3778C22.415 13.4969 27.3595 10.854 32.7425 9.78322C38.1255 8.71248 43.7051 9.26202 48.7757 11.3624C53.8464 13.4627 58.1803 17.0195 61.2295 21.5829C64.2788 26.1464 65.9063 31.5116 65.9063 37C65.9063 44.3598 62.9826 51.4181 57.7785 56.6222C52.5743 61.8264 45.516 64.75 38.1563 64.75ZM38.1563 11.5625C33.1252 11.5625 28.2071 13.0544 24.0239 15.8495C19.8408 18.6446 16.5804 22.6174 14.6551 27.2655C12.7298 31.9136 12.226 37.0282 13.2075 41.9626C14.189 46.897 16.6117 51.4295 20.1692 54.987C23.7267 58.5445 28.2593 60.9672 33.1937 61.9487C38.128 62.9302 43.2427 62.4265 47.8908 60.5012C52.5389 58.5759 56.5117 55.3155 59.3068 51.1323C62.1019 46.9492 63.5938 42.0311 63.5938 37C63.5938 30.2536 60.9137 23.7834 56.1433 19.013C51.3728 14.2425 44.9027 11.5625 38.1563 11.5625Z" fill="#D9D9D9"/>
<path d="M38.1563 60.125C33.5826 60.125 29.1116 58.7687 25.3087 56.2277C21.5058 53.6867 18.5418 50.0751 16.7915 45.8496C15.0413 41.624 14.5833 36.9744 15.4756 32.4885C16.3679 28.0027 18.5703 23.8823 21.8044 20.6482C25.0385 17.4141 29.159 15.2116 33.6448 14.3194C38.1306 13.4271 42.7803 13.885 47.0058 15.6353C51.2314 17.3856 54.843 20.3496 57.384 24.1524C59.925 27.9553 61.2813 32.4263 61.2813 37C61.2813 40.0368 60.6831 43.0439 59.521 45.8496C58.3588 48.6552 56.6555 51.2045 54.5081 53.3519C52.3607 55.4992 49.8115 57.2026 47.0058 58.3647C44.2002 59.5269 41.1931 60.125 38.1563 60.125ZM38.1563 16.1875C34.0399 16.1875 30.0161 17.4081 26.5935 19.695C23.1709 21.982 20.5033 25.2324 18.928 29.0354C17.3528 32.8384 16.9406 37.0231 17.7437 41.0603C18.5467 45.0976 20.5289 48.806 23.4396 51.7167C26.3503 54.6273 30.0587 56.6096 34.0959 57.4126C38.1332 58.2157 42.3179 57.8035 46.1209 56.2283C49.9238 54.653 53.1743 51.9854 55.4612 48.5628C57.7481 45.1402 58.9688 41.1163 58.9688 37C58.9688 31.4802 56.776 26.1865 52.8729 22.2833C48.9698 18.3802 43.6761 16.1875 38.1563 16.1875Z" fill="#F3F3F3"/>
<path d="M13.875 50.875C21.538 50.875 27.75 44.663 27.75 37C27.75 29.337 21.538 23.125 13.875 23.125C6.21205 23.125 0 29.337 0 37C0 44.663 6.21205 50.875 13.875 50.875Z" fill="#338F7E"/>
<path d="M13.875 48.5625C20.2608 48.5625 25.4375 43.3858 25.4375 37C25.4375 30.6142 20.2608 25.4375 13.875 25.4375C7.48921 25.4375 2.3125 30.6142 2.3125 37C2.3125 43.3858 7.48921 48.5625 13.875 48.5625Z" fill="#F3F3F3"/>
<path d="M54.3438 74C62.0067 74 68.2188 67.788 68.2188 60.125C68.2188 52.462 62.0067 46.25 54.3438 46.25C46.6808 46.25 40.4688 52.462 40.4688 60.125C40.4688 67.788 46.6808 74 54.3438 74Z" fill="#1FD9CA"/>
<path d="M54.3438 71.6875C60.7295 71.6875 65.9062 66.5108 65.9062 60.125C65.9062 53.7392 60.7295 48.5625 54.3438 48.5625C47.958 48.5625 42.7812 53.7392 42.7812 60.125C42.7812 66.5108 47.958 71.6875 54.3438 71.6875Z" fill="#F3F3F3"/>
<path d="M60.125 37C67.788 37 74 30.788 74 23.125C74 15.462 67.788 9.25 60.125 9.25C52.462 9.25 46.25 15.462 46.25 23.125C46.25 30.788 52.462 37 60.125 37Z" fill="#1FD9CA"/>
<path d="M60.125 34.6875C66.5108 34.6875 71.6875 29.5108 71.6875 23.125C71.6875 16.7392 66.5108 11.5625 60.125 11.5625C53.7392 11.5625 48.5625 16.7392 48.5625 23.125C48.5625 29.5108 53.7392 34.6875 60.125 34.6875Z" fill="#F3F3F3"/>
<path d="M12.7188 12.7188V19.6562C12.7188 19.9629 12.8406 20.257 13.0574 20.4738C13.2742 20.6907 13.5683 20.8125 13.875 20.8125H20.8125L23.125 23.125L25.4375 20.8125H27.75C28.0567 20.8125 28.3508 20.6907 28.5676 20.4738C28.7844 20.257 28.9062 19.9629 28.9062 19.6562V12.7188C28.9062 12.4121 28.7844 12.118 28.5676 11.9012C28.3508 11.6843 28.0567 11.5625 27.75 11.5625H13.875C13.5683 11.5625 13.2742 11.6843 13.0574 11.9012C12.8406 12.118 12.7188 12.4121 12.7188 12.7188Z" fill="#1FD9CA"/>
<path d="M15.0312 16.1875C15.0312 15.8808 15.1531 15.5867 15.3699 15.3699C15.5867 15.1531 15.8808 15.0312 16.1875 15.0312C16.4942 15.0312 16.7883 15.1531 17.0051 15.3699C17.2219 15.5867 17.3438 15.8808 17.3438 16.1875C17.3438 16.4942 17.2219 16.7883 17.0051 17.0051C16.7883 17.2219 16.4942 17.3438 16.1875 17.3438C15.8808 17.3438 15.5867 17.2219 15.3699 17.0051C15.1531 16.7883 15.0312 16.4942 15.0312 16.1875Z" fill="#F3F3F3"/>
<path d="M19.6562 16.1875C19.6562 15.8808 19.7781 15.5867 19.9949 15.3699C20.2117 15.1531 20.5058 15.0312 20.8125 15.0312C21.1192 15.0312 21.4133 15.1531 21.6301 15.3699C21.8469 15.5867 21.9688 15.8808 21.9688 16.1875C21.9688 16.4942 21.8469 16.7883 21.6301 17.0051C21.4133 17.2219 21.1192 17.3438 20.8125 17.3438C20.5058 17.3438 20.2117 17.2219 19.9949 17.0051C19.7781 16.7883 19.6562 16.4942 19.6562 16.1875Z" fill="#F3F3F3"/>
<path d="M24.2812 16.1875C24.2812 15.8808 24.4031 15.5867 24.6199 15.3699C24.8367 15.1531 25.1308 15.0312 25.4375 15.0312C25.7442 15.0312 26.0383 15.1531 26.2551 15.3699C26.4719 15.5867 26.5938 15.8808 26.5938 16.1875C26.5938 16.4942 26.4719 16.7883 26.2551 17.0051C26.0383 17.2219 25.7442 17.3438 25.4375 17.3438C25.1308 17.3438 24.8367 17.2219 24.6199 17.0051C24.4031 16.7883 24.2812 16.4942 24.2812 16.1875Z" fill="#F3F3F3"/>
<path d="M39.3125 62.4375L37 64.75V68.2188C37 68.5254 36.8782 68.8195 36.6613 69.0363C36.4445 69.2532 36.1504 69.375 35.8438 69.375H21.9688C21.6621 69.375 21.368 69.2532 21.1512 69.0363C20.9343 68.8195 20.8125 68.5254 20.8125 68.2188V61.2812C20.8125 60.9746 20.9343 60.6805 21.1512 60.4637C21.368 60.2468 21.6621 60.125 21.9688 60.125H35.8438C36.1504 60.125 36.4445 60.2468 36.6613 60.4637C36.8782 60.6805 37 60.9746 37 61.2812V62.4375H39.3125Z" fill="#338F7E"/>
<path d="M23.125 64.75C23.125 64.4433 23.2468 64.1492 23.4637 63.9324C23.6805 63.7156 23.9746 63.5938 24.2812 63.5938C24.5879 63.5938 24.882 63.7156 25.0988 63.9324C25.3157 64.1492 25.4375 64.4433 25.4375 64.75C25.4375 65.0567 25.3157 65.3508 25.0988 65.5676C24.882 65.7844 24.5879 65.9062 24.2812 65.9062C23.9746 65.9062 23.6805 65.7844 23.4637 65.5676C23.2468 65.3508 23.125 65.0567 23.125 64.75Z" fill="#F3F3F3"/>
<path d="M27.75 64.75C27.75 64.4433 27.8718 64.1492 28.0887 63.9324C28.3055 63.7156 28.5996 63.5938 28.9062 63.5938C29.2129 63.5938 29.507 63.7156 29.7238 63.9324C29.9407 64.1492 30.0625 64.4433 30.0625 64.75C30.0625 65.0567 29.9407 65.3508 29.7238 65.5676C29.507 65.7844 29.2129 65.9062 28.9062 65.9062C28.5996 65.9062 28.3055 65.7844 28.0887 65.5676C27.8718 65.3508 27.75 65.0567 27.75 64.75Z" fill="#F3F3F3"/>
<path d="M32.375 64.75C32.375 64.4433 32.4968 64.1492 32.7137 63.9324C32.9305 63.7156 33.2246 63.5938 33.5312 63.5938C33.8379 63.5938 34.132 63.7156 34.3488 63.9324C34.5657 64.1492 34.6875 64.4433 34.6875 64.75C34.6875 65.0567 34.5657 65.3508 34.3488 65.5676C34.132 65.7844 33.8379 65.9062 33.5312 65.9062C33.2246 65.9062 32.9305 65.7844 32.7137 65.5676C32.4968 65.3508 32.375 65.0567 32.375 64.75Z" fill="#F3F3F3"/>
<path d="M37 1.15625V8.09375C37 8.40041 37.1218 8.6945 37.3387 8.91134C37.5555 9.12818 37.8496 9.25 38.1562 9.25H45.0938L47.4062 11.5625L49.7188 9.25H52.0312C52.3379 9.25 52.632 9.12818 52.8488 8.91134C53.0657 8.6945 53.1875 8.40041 53.1875 8.09375V1.15625C53.1875 0.849593 53.0657 0.555497 52.8488 0.338658C52.632 0.121819 52.3379 0 52.0312 0L38.1562 0C37.8496 0 37.5555 0.121819 37.3387 0.338658C37.1218 0.555497 37 0.849593 37 1.15625Z" fill="#338F7E"/>
<path d="M39.3125 4.625C39.3125 4.31834 39.4343 4.02425 39.6512 3.80741C39.868 3.59057 40.1621 3.46875 40.4688 3.46875C40.7754 3.46875 41.0695 3.59057 41.2863 3.80741C41.5032 4.02425 41.625 4.31834 41.625 4.625C41.625 4.93166 41.5032 5.22575 41.2863 5.44259C41.0695 5.65943 40.7754 5.78125 40.4688 5.78125C40.1621 5.78125 39.868 5.65943 39.6512 5.44259C39.4343 5.22575 39.3125 4.93166 39.3125 4.625Z" fill="#F3F3F3"/>
<path d="M43.9375 4.625C43.9375 4.31834 44.0593 4.02425 44.2762 3.80741C44.493 3.59057 44.7871 3.46875 45.0938 3.46875C45.4004 3.46875 45.6945 3.59057 45.9113 3.80741C46.1282 4.02425 46.25 4.31834 46.25 4.625C46.25 4.93166 46.1282 5.22575 45.9113 5.44259C45.6945 5.65943 45.4004 5.78125 45.0938 5.78125C44.7871 5.78125 44.493 5.65943 44.2762 5.44259C44.0593 5.22575 43.9375 4.93166 43.9375 4.625Z" fill="#F3F3F3"/>
<path d="M48.5625 4.625C48.5625 4.31834 48.6843 4.02425 48.9012 3.80741C49.118 3.59057 49.4121 3.46875 49.7188 3.46875C50.0254 3.46875 50.3195 3.59057 50.5363 3.80741C50.7532 4.02425 50.875 4.31834 50.875 4.625C50.875 4.93166 50.7532 5.22575 50.5363 5.44259C50.3195 5.65943 50.0254 5.78125 49.7188 5.78125C49.4121 5.78125 49.118 5.65943 48.9012 5.44259C48.6843 5.22575 48.5625 4.93166 48.5625 4.625Z" fill="#F3F3F3"/>
<path d="M17.8409 37.7169C18.6834 36.9226 19.2679 35.8935 19.5188 34.7631C19.7697 33.6327 19.6754 32.453 19.2481 31.3769C18.8208 30.3007 18.0801 29.3776 17.1221 28.7273C16.1641 28.0769 15.0329 27.7292 13.8749 27.7292C12.717 27.7292 11.5858 28.0769 10.6278 28.7273C9.66977 29.3776 8.92913 30.3007 8.5018 31.3769C8.07447 32.453 7.98014 33.6327 8.23104 34.7631C8.48194 35.8935 9.0665 36.9226 9.909 37.7169C7.36545 38.65 5.22694 40.441 3.86182 42.7813C4.87668 44.5388 6.33628 45.9983 8.09395 47.0131C9.85161 48.0278 11.8454 48.562 13.8749 48.562C15.9045 48.562 17.8983 48.0278 19.6559 47.0131C21.4136 45.9983 22.8732 44.5388 23.8881 42.7813C22.5229 40.441 20.3844 38.65 17.8409 37.7169Z" fill="#338F7E"/>
<path d="M58.3096 60.8419C59.1521 60.0476 59.7367 59.0185 59.9876 57.8881C60.2385 56.7577 60.1442 55.578 59.7168 54.5019C59.2895 53.4257 58.5489 52.5026 57.5908 51.8523C56.6328 51.2019 55.5016 50.8542 54.3437 50.8542C53.1858 50.8542 52.0545 51.2019 51.0965 51.8523C50.1385 52.5026 49.3979 53.4257 48.9705 54.5019C48.5432 55.578 48.4489 56.7577 48.6998 57.8881C48.9507 59.0185 49.5353 60.0476 50.3778 60.8419C47.8342 61.775 45.6957 63.566 44.3306 65.9063C45.3454 67.6638 46.805 69.1233 48.5627 70.1381C50.3204 71.1528 52.3141 71.687 54.3437 71.687C56.3732 71.687 58.367 71.1528 60.1247 70.1381C61.8823 69.1233 63.342 67.6638 64.3568 65.9063C62.9917 63.566 60.8532 61.775 58.3096 60.8419Z" fill="#1FD9CA"/>
<path d="M64.0909 23.8419C64.9334 23.0476 65.5179 22.0185 65.7688 20.8881C66.0197 19.7577 65.9254 18.578 65.4981 17.5019C65.0708 16.4257 64.3301 15.5026 63.3721 14.8523C62.4141 14.2019 61.2829 13.8542 60.1249 13.8542C58.967 13.8542 57.8358 14.2019 56.8778 14.8523C55.9198 15.5026 55.1791 16.4257 54.7518 17.5019C54.3245 18.578 54.2301 19.7577 54.481 20.8881C54.7319 22.0185 55.3165 23.0476 56.159 23.8419C53.6154 24.775 51.4769 26.566 50.1118 28.9063C51.1267 30.6638 52.5863 32.1233 54.3439 33.1381C56.1016 34.1528 58.0954 34.687 60.1249 34.687C62.1545 34.687 64.1483 34.1528 65.9059 33.1381C67.6636 32.1233 69.1232 30.6638 70.1381 28.9063C68.7729 26.566 66.6344 24.775 64.0909 23.8419Z" fill="#1FD9CA"/>
</g>
<defs>
<clipPath id="clip0_2918_1500">
<rect width="74" height="74" fill="white"/>
</clipPath>
</defs>
</svg>
