<svg width="75" height="74" viewBox="0 0 75 74" fill="none" xmlns="http://www.w3.org/2000/svg">
<g clip-path="url(#clip0_641_10851)">
<path d="M38.6563 64.75C33.1678 64.75 27.8027 63.1225 23.2392 60.0733C18.6757 57.0241 15.1189 52.6901 13.0186 47.6195C10.9183 42.5488 10.3687 36.9692 11.4395 31.5863C12.5102 26.2033 15.1531 21.2587 19.034 17.3778C22.915 13.4969 27.8595 10.854 33.2425 9.78322C38.6255 8.71248 44.2051 9.26202 49.2757 11.3624C54.3464 13.4627 58.6803 17.0195 61.7295 21.5829C64.7788 26.1464 66.4063 31.5116 66.4063 37C66.4063 44.3598 63.4826 51.4181 58.2785 56.6222C53.0743 61.8264 46.016 64.75 38.6563 64.75ZM38.6563 11.5625C33.6252 11.5625 28.7071 13.0544 24.5239 15.8495C20.3408 18.6446 17.0804 22.6174 15.1551 27.2655C13.2298 31.9136 12.726 37.0282 13.7075 41.9626C14.689 46.897 17.1117 51.4295 20.6692 54.987C24.2267 58.5445 28.7593 60.9672 33.6937 61.9487C38.628 62.9302 43.7427 62.4265 48.3908 60.5012C53.0389 58.5759 57.0117 55.3155 59.8068 51.1323C62.6019 46.9492 64.0938 42.0311 64.0938 37C64.0938 30.2536 61.4137 23.7834 56.6433 19.013C51.8728 14.2425 45.4027 11.5625 38.6563 11.5625Z" fill="#D9D9D9"/>
<path d="M38.6563 60.125C34.0826 60.125 29.6116 58.7687 25.8087 56.2277C22.0058 53.6867 19.0418 50.0751 17.2915 45.8496C15.5413 41.624 15.0833 36.9744 15.9756 32.4885C16.8679 28.0027 19.0703 23.8823 22.3044 20.6482C25.5385 17.4141 29.659 15.2116 34.1448 14.3194C38.6306 13.4271 43.2803 13.885 47.5058 15.6353C51.7314 17.3856 55.343 20.3496 57.884 24.1524C60.425 27.9553 61.7813 32.4263 61.7813 37C61.7813 40.0368 61.1831 43.0439 60.021 45.8496C58.8588 48.6552 57.1555 51.2045 55.0081 53.3519C52.8607 55.4992 50.3115 57.2026 47.5058 58.3647C44.7002 59.5269 41.6931 60.125 38.6563 60.125ZM38.6563 16.1875C34.5399 16.1875 30.5161 17.4081 27.0935 19.695C23.6709 21.982 21.0033 25.2324 19.428 29.0354C17.8528 32.8384 17.4406 37.0231 18.2437 41.0603C19.0467 45.0976 21.0289 48.806 23.9396 51.7167C26.8503 54.6273 30.5587 56.6096 34.5959 57.4126C38.6332 58.2157 42.8179 57.8035 46.6209 56.2283C50.4238 54.653 53.6743 51.9854 55.9612 48.5628C58.2481 45.1402 59.4688 41.1163 59.4688 37C59.4688 31.4802 57.276 26.1865 53.3729 22.2833C49.4698 18.3802 44.1761 16.1875 38.6563 16.1875Z" fill="#F3F3F3"/>
<path d="M14.375 50.875C22.038 50.875 28.25 44.663 28.25 37C28.25 29.337 22.038 23.125 14.375 23.125C6.71205 23.125 0.5 29.337 0.5 37C0.5 44.663 6.71205 50.875 14.375 50.875Z" fill="#338F7E"/>
<path d="M14.375 48.5625C20.7608 48.5625 25.9375 43.3858 25.9375 37C25.9375 30.6142 20.7608 25.4375 14.375 25.4375C7.98921 25.4375 2.8125 30.6142 2.8125 37C2.8125 43.3858 7.98921 48.5625 14.375 48.5625Z" fill="#F3F3F3"/>
<path d="M54.8438 74C62.5067 74 68.7188 67.788 68.7188 60.125C68.7188 52.462 62.5067 46.25 54.8438 46.25C47.1808 46.25 40.9688 52.462 40.9688 60.125C40.9688 67.788 47.1808 74 54.8438 74Z" fill="#68B8A5"/>
<path d="M54.8438 71.6875C61.2295 71.6875 66.4062 66.5108 66.4062 60.125C66.4062 53.7392 61.2295 48.5625 54.8438 48.5625C48.458 48.5625 43.2812 53.7392 43.2812 60.125C43.2812 66.5108 48.458 71.6875 54.8438 71.6875Z" fill="#F3F3F3"/>
<path d="M60.625 37C68.288 37 74.5 30.788 74.5 23.125C74.5 15.462 68.288 9.25 60.625 9.25C52.962 9.25 46.75 15.462 46.75 23.125C46.75 30.788 52.962 37 60.625 37Z" fill="#68B8A5"/>
<path d="M60.625 34.6875C67.0108 34.6875 72.1875 29.5108 72.1875 23.125C72.1875 16.7392 67.0108 11.5625 60.625 11.5625C54.2392 11.5625 49.0625 16.7392 49.0625 23.125C49.0625 29.5108 54.2392 34.6875 60.625 34.6875Z" fill="#F3F3F3"/>
<path d="M13.2188 12.7188V19.6562C13.2188 19.9629 13.3406 20.257 13.5574 20.4738C13.7742 20.6907 14.0683 20.8125 14.375 20.8125H21.3125L23.625 23.125L25.9375 20.8125H28.25C28.5567 20.8125 28.8508 20.6907 29.0676 20.4738C29.2844 20.257 29.4062 19.9629 29.4062 19.6562V12.7188C29.4062 12.4121 29.2844 12.118 29.0676 11.9012C28.8508 11.6843 28.5567 11.5625 28.25 11.5625H14.375C14.0683 11.5625 13.7742 11.6843 13.5574 11.9012C13.3406 12.118 13.2188 12.4121 13.2188 12.7188Z" fill="#68B8A5"/>
<path d="M15.5312 16.1875C15.5312 15.8808 15.6531 15.5867 15.8699 15.3699C16.0867 15.1531 16.3808 15.0312 16.6875 15.0312C16.9942 15.0312 17.2883 15.1531 17.5051 15.3699C17.7219 15.5867 17.8438 15.8808 17.8438 16.1875C17.8438 16.4942 17.7219 16.7883 17.5051 17.0051C17.2883 17.2219 16.9942 17.3438 16.6875 17.3438C16.3808 17.3438 16.0867 17.2219 15.8699 17.0051C15.6531 16.7883 15.5312 16.4942 15.5312 16.1875Z" fill="#F3F3F3"/>
<path d="M20.1562 16.1875C20.1562 15.8808 20.2781 15.5867 20.4949 15.3699C20.7117 15.1531 21.0058 15.0312 21.3125 15.0312C21.6192 15.0312 21.9133 15.1531 22.1301 15.3699C22.3469 15.5867 22.4688 15.8808 22.4688 16.1875C22.4688 16.4942 22.3469 16.7883 22.1301 17.0051C21.9133 17.2219 21.6192 17.3438 21.3125 17.3438C21.0058 17.3438 20.7117 17.2219 20.4949 17.0051C20.2781 16.7883 20.1562 16.4942 20.1562 16.1875Z" fill="#F3F3F3"/>
<path d="M24.7812 16.1875C24.7812 15.8808 24.9031 15.5867 25.1199 15.3699C25.3367 15.1531 25.6308 15.0312 25.9375 15.0312C26.2442 15.0312 26.5383 15.1531 26.7551 15.3699C26.9719 15.5867 27.0938 15.8808 27.0938 16.1875C27.0938 16.4942 26.9719 16.7883 26.7551 17.0051C26.5383 17.2219 26.2442 17.3438 25.9375 17.3438C25.6308 17.3438 25.3367 17.2219 25.1199 17.0051C24.9031 16.7883 24.7812 16.4942 24.7812 16.1875Z" fill="#F3F3F3"/>
<path d="M39.8125 62.4375L37.5 64.75V68.2188C37.5 68.5254 37.3782 68.8195 37.1613 69.0363C36.9445 69.2532 36.6504 69.375 36.3438 69.375H22.4688C22.1621 69.375 21.868 69.2532 21.6512 69.0363C21.4343 68.8195 21.3125 68.5254 21.3125 68.2188V61.2812C21.3125 60.9746 21.4343 60.6805 21.6512 60.4637C21.868 60.2468 22.1621 60.125 22.4688 60.125H36.3438C36.6504 60.125 36.9445 60.2468 37.1613 60.4637C37.3782 60.6805 37.5 60.9746 37.5 61.2812V62.4375H39.8125Z" fill="#338F7E"/>
<path d="M23.625 64.75C23.625 64.4433 23.7468 64.1492 23.9637 63.9324C24.1805 63.7156 24.4746 63.5938 24.7812 63.5938C25.0879 63.5938 25.382 63.7156 25.5988 63.9324C25.8157 64.1492 25.9375 64.4433 25.9375 64.75C25.9375 65.0567 25.8157 65.3508 25.5988 65.5676C25.382 65.7844 25.0879 65.9062 24.7812 65.9062C24.4746 65.9062 24.1805 65.7844 23.9637 65.5676C23.7468 65.3508 23.625 65.0567 23.625 64.75Z" fill="#F3F3F3"/>
<path d="M28.25 64.75C28.25 64.4433 28.3718 64.1492 28.5887 63.9324C28.8055 63.7156 29.0996 63.5938 29.4062 63.5938C29.7129 63.5938 30.007 63.7156 30.2238 63.9324C30.4407 64.1492 30.5625 64.4433 30.5625 64.75C30.5625 65.0567 30.4407 65.3508 30.2238 65.5676C30.007 65.7844 29.7129 65.9062 29.4062 65.9062C29.0996 65.9062 28.8055 65.7844 28.5887 65.5676C28.3718 65.3508 28.25 65.0567 28.25 64.75Z" fill="#F3F3F3"/>
<path d="M32.875 64.75C32.875 64.4433 32.9968 64.1492 33.2137 63.9324C33.4305 63.7156 33.7246 63.5938 34.0312 63.5938C34.3379 63.5938 34.632 63.7156 34.8488 63.9324C35.0657 64.1492 35.1875 64.4433 35.1875 64.75C35.1875 65.0567 35.0657 65.3508 34.8488 65.5676C34.632 65.7844 34.3379 65.9062 34.0312 65.9062C33.7246 65.9062 33.4305 65.7844 33.2137 65.5676C32.9968 65.3508 32.875 65.0567 32.875 64.75Z" fill="#F3F3F3"/>
<path d="M37.5 1.15625V8.09375C37.5 8.40041 37.6218 8.6945 37.8387 8.91134C38.0555 9.12818 38.3496 9.25 38.6562 9.25H45.5938L47.9062 11.5625L50.2188 9.25H52.5312C52.8379 9.25 53.132 9.12818 53.3488 8.91134C53.5657 8.6945 53.6875 8.40041 53.6875 8.09375V1.15625C53.6875 0.849593 53.5657 0.555497 53.3488 0.338658C53.132 0.121819 52.8379 0 52.5312 0L38.6562 0C38.3496 0 38.0555 0.121819 37.8387 0.338658C37.6218 0.555497 37.5 0.849593 37.5 1.15625Z" fill="#338F7E"/>
<path d="M39.8125 4.625C39.8125 4.31834 39.9343 4.02425 40.1512 3.80741C40.368 3.59057 40.6621 3.46875 40.9688 3.46875C41.2754 3.46875 41.5695 3.59057 41.7863 3.80741C42.0032 4.02425 42.125 4.31834 42.125 4.625C42.125 4.93166 42.0032 5.22575 41.7863 5.44259C41.5695 5.65943 41.2754 5.78125 40.9688 5.78125C40.6621 5.78125 40.368 5.65943 40.1512 5.44259C39.9343 5.22575 39.8125 4.93166 39.8125 4.625Z" fill="#F3F3F3"/>
<path d="M44.4375 4.625C44.4375 4.31834 44.5593 4.02425 44.7762 3.80741C44.993 3.59057 45.2871 3.46875 45.5938 3.46875C45.9004 3.46875 46.1945 3.59057 46.4113 3.80741C46.6282 4.02425 46.75 4.31834 46.75 4.625C46.75 4.93166 46.6282 5.22575 46.4113 5.44259C46.1945 5.65943 45.9004 5.78125 45.5938 5.78125C45.2871 5.78125 44.993 5.65943 44.7762 5.44259C44.5593 5.22575 44.4375 4.93166 44.4375 4.625Z" fill="#F3F3F3"/>
<path d="M49.0625 4.625C49.0625 4.31834 49.1843 4.02425 49.4012 3.80741C49.618 3.59057 49.9121 3.46875 50.2188 3.46875C50.5254 3.46875 50.8195 3.59057 51.0363 3.80741C51.2532 4.02425 51.375 4.31834 51.375 4.625C51.375 4.93166 51.2532 5.22575 51.0363 5.44259C50.8195 5.65943 50.5254 5.78125 50.2188 5.78125C49.9121 5.78125 49.618 5.65943 49.4012 5.44259C49.1843 5.22575 49.0625 4.93166 49.0625 4.625Z" fill="#F3F3F3"/>
<path d="M18.3409 37.7169C19.1834 36.9226 19.768 35.8935 20.0189 34.7631C20.2698 33.6327 20.1755 32.453 19.7481 31.3769C19.3208 30.3007 18.5802 29.3776 17.6222 28.7273C16.6642 28.0769 15.5329 27.7292 14.375 27.7292C13.2171 27.7292 12.0859 28.0769 11.1278 28.7273C10.1698 29.3776 9.42919 30.3007 9.00186 31.3769C8.57453 32.453 8.4802 33.6327 8.7311 34.7631C8.982 35.8935 9.56657 36.9226 10.4091 37.7169C7.86551 38.65 5.727 40.441 4.36188 42.7813C5.37674 44.5388 6.83634 45.9983 8.59401 47.0131C10.3517 48.0278 12.3455 48.562 14.375 48.562C16.4045 48.562 18.3983 48.0278 20.156 47.0131C21.9137 45.9983 23.3733 44.5388 24.3881 42.7813C23.023 40.441 20.8845 38.65 18.3409 37.7169Z" fill="#338F7E"/>
<path d="M58.8097 60.8419C59.6522 60.0476 60.2368 59.0185 60.4877 57.8881C60.7386 56.7577 60.6442 55.578 60.2169 54.5019C59.7896 53.4257 59.0489 52.5026 58.0909 51.8523C57.1329 51.2019 56.0017 50.8542 54.8438 50.8542C53.6858 50.8542 52.5546 51.2019 51.5966 51.8523C50.6386 52.5026 49.8979 53.4257 49.4706 54.5019C49.0433 55.578 48.949 56.7577 49.1999 57.8881C49.4508 59.0185 50.0353 60.0476 50.8778 60.8419C48.3343 61.775 46.1957 63.566 44.8306 65.9063C45.8455 67.6638 47.3051 69.1233 49.0628 70.1381C50.8204 71.1528 52.8142 71.687 54.8438 71.687C56.8733 71.687 58.8671 71.1528 60.6247 70.1381C62.3824 69.1233 63.842 67.6638 64.8569 65.9063C63.4918 63.566 61.3532 61.775 58.8097 60.8419Z" fill="#68B8A5"/>
<path d="M64.5909 23.8419C65.4334 23.0476 66.018 22.0185 66.2689 20.8881C66.5198 19.7577 66.4255 18.578 65.9981 17.5019C65.5708 16.4257 64.8302 15.5026 63.8722 14.8523C62.9141 14.2019 61.7829 13.8542 60.625 13.8542C59.4671 13.8542 58.3359 14.2019 57.3778 14.8523C56.4198 15.5026 55.6792 16.4257 55.2519 17.5019C54.8245 18.578 54.7302 19.7577 54.9811 20.8881C55.232 22.0185 55.8166 23.0476 56.6591 23.8419C54.1155 24.775 51.977 26.566 50.6119 28.9063C51.6267 30.6638 53.0863 32.1233 54.844 33.1381C56.6017 34.1528 58.5955 34.687 60.625 34.687C62.6545 34.687 64.6483 34.1528 66.406 33.1381C68.1637 32.1233 69.6233 30.6638 70.6381 28.9063C69.273 26.566 67.1345 24.775 64.5909 23.8419Z" fill="#68B8A5"/>
</g>
<defs>
<clipPath id="clip0_641_10851">
<rect width="74" height="74" fill="white" transform="translate(0.5)"/>
</clipPath>
</defs>
</svg>
