<svg width="66" height="74" viewBox="0 0 66 74" fill="none" xmlns="http://www.w3.org/2000/svg">
<g clip-path="url(#clip0_2918_1550)">
<path d="M59.5938 17.3438H4.09375C2.17801 17.3438 0.625 18.8968 0.625 20.8125V60.125C0.625 62.0407 2.17801 63.5938 4.09375 63.5938H59.5938C61.5095 63.5938 63.0625 62.0407 63.0625 60.125V20.8125C63.0625 18.8968 61.5095 17.3438 59.5938 17.3438Z" fill="#1FD9CA"/>
<path d="M60.75 20.8125V56.6562H2.9375V20.8125C2.9375 20.5058 3.05934 20.2117 3.27617 19.9949C3.49301 19.7781 3.78709 19.6562 4.09375 19.6562H59.5938C59.9004 19.6562 60.1945 19.7781 60.4113 19.9949C60.6282 20.2117 60.75 20.5058 60.75 20.8125Z" fill="white"/>
<path d="M41.0938 72.8438H24.9062L26.0625 63.5938H39.9375L41.0938 72.8438Z" fill="#44BAA4"/>
<path d="M48.0312 74H17.9688C17.6621 74 17.368 73.8782 17.1512 73.6613C16.9343 73.4445 16.8125 73.1504 16.8125 72.8438C16.8125 72.5371 16.9343 72.243 17.1512 72.0262C17.368 71.8093 17.6621 71.6875 17.9688 71.6875H48.0312C48.3379 71.6875 48.632 71.8093 48.8488 72.0262C49.0657 72.243 49.1875 72.5371 49.1875 72.8438C49.1875 73.1504 49.0657 73.4445 48.8488 73.6613C48.632 73.8782 48.3379 74 48.0312 74Z" fill="#1FD9CA"/>
<path d="M29.5312 19.6562H15.6562V17.3438H24.1894L29.5312 19.6562Z" fill="#338F7E"/>
<path d="M42.2499 19.6562V23.125C29.219 30.2359 29.7624 30.1781 28.9877 29.7966L16.269 23.4488C15.4596 23.0325 15.633 22.4544 15.633 19.6562H42.2499Z" fill="#F3F3F3"/>
<path d="M44.5625 12.4875V21.2865C44.561 21.4926 44.5045 21.6945 44.3988 21.8713C44.2931 22.0482 44.142 22.1936 43.9613 22.2925L32.9075 28.3281C32.5773 28.5004 32.2104 28.5903 31.838 28.5903C31.4656 28.5903 31.0987 28.5004 30.7685 28.3281L18.6047 22.2578C18.4123 22.1608 18.2508 22.012 18.1384 21.8281C18.026 21.6443 17.9673 21.4327 17.9688 21.2172V12.4875L31.8438 18.5L44.5625 12.4875Z" fill="#338F7E"/>
<path d="M54.9688 9.25L31.8438 18.5L8.71875 9.25L31.8438 0L54.9688 9.25Z" fill="#44BAA4"/>
<path d="M42.2501 27.75V14.6613L31.416 10.3253C31.1308 10.2119 30.9024 9.98974 30.7809 9.70785C30.6595 9.42596 30.655 9.10738 30.7685 8.82219C30.882 8.537 31.1041 8.30856 31.386 8.18713C31.6679 8.0657 31.9864 8.06123 32.2716 8.17469L43.8341 12.7997C44.0493 12.8854 44.2337 13.0337 44.3636 13.2254C44.4935 13.4171 44.5628 13.6434 44.5626 13.875V27.75C44.5626 28.0567 44.4407 28.3508 44.2239 28.5676C44.0071 28.7844 43.713 28.9063 43.4063 28.9063C43.0997 28.9063 42.8056 28.7844 42.5887 28.5676C42.3719 28.3508 42.2501 28.0567 42.2501 27.75Z" fill="#B6EDE2"/>
<path d="M22.5938 34.6875H6.40625V53.1875H22.5938V34.6875Z" fill="#B6EDE2"/>
<path d="M38.7812 34.6875H24.9062V37H38.7812V34.6875Z" fill="#B6EDE2"/>
<path d="M50.3438 39.3125H24.9062V41.625H50.3438V39.3125Z" fill="#B6EDE2"/>
<path d="M50.3438 43.9375H24.9062V53.1875H50.3438V43.9375Z" fill="#B6EDE2"/>
<path d="M57.2812 53.1875L54.9688 42.7812L65.375 45.0938L57.2812 53.1875Z" fill="#1FD9CA"/>
<path d="M59.6002 45.0848L57.2864 47.3986L63.0668 53.1789L65.3806 50.8651L59.6002 45.0848Z" fill="#1FD9CA"/>
</g>
<defs>
<clipPath id="clip0_2918_1550">
<rect width="64.75" height="74" fill="white" transform="translate(0.625)"/>
</clipPath>
</defs>
</svg>
