<svg width="49" height="55" viewBox="0 0 49 55" fill="none" xmlns="http://www.w3.org/2000/svg">
<g clip-path="url(#clip0_641_10631)">
<path d="M43.999 13.302H3.49902C2.10105 13.302 0.967773 14.4353 0.967773 15.8333V44.5208C0.967773 45.9187 2.10105 47.052 3.49902 47.052H43.999C45.397 47.052 46.5303 45.9187 46.5303 44.5208V15.8333C46.5303 14.4353 45.397 13.302 43.999 13.302Z" fill="#68B8A5"/>
<path d="M44.8428 15.8333V41.9895H2.65527V15.8333C2.65527 15.6095 2.74417 15.3949 2.9024 15.2366C3.06064 15.0784 3.27525 14.9895 3.49902 14.9895H43.999C44.2228 14.9895 44.4374 15.0784 44.5956 15.2366C44.7539 15.3949 44.8428 15.6095 44.8428 15.8333Z" fill="white"/>
<path d="M30.499 53.802H18.6865L19.5303 47.052H29.6553L30.499 53.802Z" fill="#338F7E"/>
<path d="M35.5615 54.6458H13.624C13.4002 54.6458 13.1856 54.5569 13.0274 54.3986C12.8692 54.2404 12.7803 54.0258 12.7803 53.802C12.7803 53.5782 12.8692 53.3636 13.0274 53.2054C13.1856 53.0471 13.4002 52.9583 13.624 52.9583H35.5615C35.7853 52.9583 35.9999 53.0471 36.1581 53.2054C36.3164 53.3636 36.4053 53.5782 36.4053 53.802C36.4053 54.0258 36.3164 54.2404 36.1581 54.3986C35.9999 54.5569 35.7853 54.6458 35.5615 54.6458Z" fill="#68B8A5"/>
<path d="M22.0615 14.9895H11.9365V13.302H18.1634L22.0615 14.9895Z" fill="#68B8A5"/>
<path d="M31.3427 14.9895V17.5208C21.8337 22.7098 22.2302 22.6676 21.6649 22.3892L12.3837 17.757C11.793 17.4533 11.9196 17.0314 11.9196 14.9895H31.3427Z" fill="#B6EDE2"/>
<path d="M33.0303 9.7583V16.1792C33.0292 16.3296 32.9879 16.4769 32.9108 16.606C32.8337 16.735 32.7234 16.8411 32.5915 16.9133L24.5253 21.3177C24.2843 21.4434 24.0166 21.509 23.7448 21.509C23.4731 21.509 23.2053 21.4434 22.9644 21.3177L14.0881 16.9133C13.9477 16.8425 13.8298 16.7339 13.7478 16.5998C13.6658 16.4656 13.6229 16.3112 13.624 16.1539V9.7583L23.749 14.1458L33.0303 9.7583Z" fill="#68B8A5"/>
<path d="M40.624 7.39575L23.749 14.1458L6.87402 7.39575L23.749 0.645752L40.624 7.39575Z" fill="#B6EDE2"/>
<path d="M31.3426 20.8958V11.3445L23.4366 8.18047C23.2285 8.09767 23.0618 7.93559 22.9732 7.72989C22.8846 7.52418 22.8813 7.2917 22.9641 7.08359C23.0469 6.87548 23.209 6.70878 23.4147 6.62017C23.6204 6.53156 23.8529 6.52829 24.061 6.61109L32.4985 9.98609C32.6555 10.0486 32.7901 10.1568 32.8849 10.2967C32.9796 10.4367 33.0302 10.6018 33.0301 10.7708V20.8958C33.0301 21.1196 32.9412 21.3342 32.7829 21.4924C32.6247 21.6506 32.4101 21.7395 32.1863 21.7395C31.9625 21.7395 31.7479 21.6506 31.5897 21.4924C31.4315 21.3342 31.3426 21.1196 31.3426 20.8958Z" fill="#68B8A5"/>
<path d="M16.999 25.9583H5.18652V39.4583H16.999V25.9583Z" fill="#B6EDE2"/>
<path d="M28.8115 25.9583H18.6865V27.6458H28.8115V25.9583Z" fill="#B6EDE2"/>
<path d="M37.249 29.3333H18.6865V31.0208H37.249V29.3333Z" fill="#B6EDE2"/>
<path d="M37.249 32.7083H18.6865V39.4583H37.249V32.7083Z" fill="#B6EDE2"/>
<path d="M42.3115 39.4583L40.624 31.8645L48.2178 33.552L42.3115 39.4583Z" fill="#68B8A5"/>
<path d="M44.0029 33.5464L42.3145 35.2349L46.5326 39.453L48.221 37.7645L44.0029 33.5464Z" fill="#68B8A5"/>
</g>
<defs>
<clipPath id="clip0_641_10631">
<rect width="47.25" height="54" fill="white" transform="translate(0.967773 0.645752)"/>
</clipPath>
</defs>
</svg>
