<svg width="55" height="55" viewBox="0 0 55 55" fill="none" xmlns="http://www.w3.org/2000/svg">
<g clip-path="url(#clip0_641_10775)">
<path d="M48.2178 13.3019H7.71777C6.3198 13.3019 5.18652 14.4352 5.18652 15.8332V44.5207C5.18652 45.9187 6.3198 47.0519 7.71777 47.0519H48.2178C49.6157 47.0519 50.749 45.9187 50.749 44.5207V15.8332C50.749 14.4352 49.6157 13.3019 48.2178 13.3019Z" fill="#68B8A5"/>
<path d="M49.0615 15.8332V41.9894H6.87402V15.8332C6.87402 15.6094 6.96292 15.3948 7.12115 15.2366C7.27939 15.0783 7.494 14.9894 7.71777 14.9894H48.2178C48.4416 14.9894 48.6562 15.0783 48.8144 15.2366C48.9726 15.3948 49.0615 15.6094 49.0615 15.8332Z" fill="white"/>
<path d="M34.7178 53.8019H22.9053L23.749 47.0519H33.874L34.7178 53.8019Z" fill="#338F7E"/>
<path d="M39.7803 54.6457H17.8428C17.619 54.6457 17.4044 54.5568 17.2462 54.3986C17.0879 54.2403 16.999 54.0257 16.999 53.8019C16.999 53.5782 17.0879 53.3636 17.2462 53.2053C17.4044 53.0471 17.619 52.9582 17.8428 52.9582H39.7803C40.004 52.9582 40.2187 53.0471 40.3769 53.2053C40.5351 53.3636 40.624 53.5782 40.624 53.8019C40.624 54.0257 40.5351 54.2403 40.3769 54.3986C40.2187 54.5568 40.004 54.6457 39.7803 54.6457Z" fill="#68B8A5"/>
<path d="M19.5303 0.645691H2.65527C1.72329 0.645691 0.967773 1.40121 0.967773 2.33319V15.8332C0.967773 16.7652 1.72329 17.5207 2.65527 17.5207H19.5303C20.4623 17.5207 21.2178 16.7652 21.2178 15.8332V2.33319C21.2178 1.40121 20.4623 0.645691 19.5303 0.645691Z" fill="#338F7E"/>
<path d="M16.999 10.7707C17.931 10.7707 18.6865 10.0152 18.6865 9.08319C18.6865 8.15121 17.931 7.39569 16.999 7.39569C16.067 7.39569 15.3115 8.15121 15.3115 9.08319C15.3115 10.0152 16.067 10.7707 16.999 10.7707Z" fill="#68B8A5"/>
<path d="M11.0928 10.7707C12.0248 10.7707 12.7803 10.0152 12.7803 9.08319C12.7803 8.15121 12.0248 7.39569 11.0928 7.39569C10.1608 7.39569 9.40527 8.15121 9.40527 9.08319C9.40527 10.0152 10.1608 10.7707 11.0928 10.7707Z" fill="#B6EDE2"/>
<path d="M5.18652 10.7707C6.1185 10.7707 6.87402 10.0152 6.87402 9.08319C6.87402 8.15121 6.1185 7.39569 5.18652 7.39569C4.25454 7.39569 3.49902 8.15121 3.49902 9.08319C3.49902 10.0152 4.25454 10.7707 5.18652 10.7707Z" fill="#F3F3F3"/>
<path d="M12.7803 17.5207L14.4678 19.2082L16.1553 17.5207" fill="#338F7E"/>
<path d="M49.9053 4.86444H38.0928C37.6268 4.86444 37.249 5.2422 37.249 5.70819V15.8332C37.249 16.2992 37.6268 16.6769 38.0928 16.6769H49.9053C50.3713 16.6769 50.749 16.2992 50.749 15.8332V5.70819C50.749 5.2422 50.3713 4.86444 49.9053 4.86444Z" fill="#68B8A5"/>
<path d="M49.9053 9.08322L52.9343 5.15137C53.1155 5.0007 53.3358 4.90472 53.5695 4.87472C53.8032 4.84472 54.0407 4.88191 54.254 4.98194C54.4674 5.08197 54.6478 5.2407 54.7742 5.43955C54.9006 5.63841 54.9677 5.86913 54.9678 6.10476V15.4367C54.9677 15.6723 54.9006 15.903 54.7742 16.1019C54.6478 16.3007 54.4674 16.4595 54.254 16.5595C54.0407 16.6595 53.8032 16.6967 53.5695 16.6667C53.3358 16.6367 53.1155 16.5407 52.9343 16.3901L49.9053 12.4582" fill="#68B8A5"/>
<path d="M43.999 13.3019C45.397 13.3019 46.5303 12.1687 46.5303 10.7707C46.5303 9.37272 45.397 8.23944 43.999 8.23944C42.6011 8.23944 41.4678 9.37272 41.4678 10.7707C41.4678 12.1687 42.6011 13.3019 43.999 13.3019Z" fill="#F3F3F3"/>
<path d="M41.4678 25.9582C41.244 25.9582 41.0294 25.8693 40.8712 25.7111C40.7129 25.5528 40.624 25.3382 40.624 25.1144C40.624 24.8907 40.7129 24.6761 40.8712 24.5178C41.0294 24.3596 41.244 24.2707 41.4678 24.2707C41.6915 24.2707 41.9062 24.3596 42.0644 24.5178C42.2226 24.6761 42.3115 24.8907 42.3115 25.1144C42.3115 25.3382 42.2226 25.5528 42.0644 25.7111C41.9062 25.8693 41.6915 25.9582 41.4678 25.9582Z" fill="#68B8A5"/>
<path d="M44.6485 29.8985C43.7479 30.6259 42.6252 31.0227 41.4676 31.0227C40.3099 31.0227 39.1872 30.6259 38.2866 29.8985C38.5197 29.2412 38.9507 28.6723 39.5203 28.2699C40.0899 27.8675 40.7702 27.6515 41.4676 27.6515C42.165 27.6515 42.8452 27.8675 43.4148 28.2699C43.9844 28.6723 44.4154 29.2412 44.6485 29.8985Z" fill="#68B8A5"/>
<path d="M45.8468 28.4894C45.3265 27.5952 44.5468 26.8802 43.6109 26.4391C43.8516 26.0561 43.9853 25.6156 43.998 25.1634C44.0107 24.7112 43.9021 24.2639 43.6832 23.8679C43.4644 23.472 43.1435 23.1418 42.7539 22.912C42.3643 22.6821 41.9202 22.5609 41.4678 22.5609C41.0154 22.5609 40.5713 22.6821 40.1816 22.912C39.792 23.1418 39.4711 23.472 39.2523 23.8679C39.0335 24.2639 38.9248 24.7112 38.9375 25.1634C38.9502 25.6156 39.0839 26.0561 39.3246 26.4391C38.3888 26.8802 37.609 27.5952 37.0887 28.4894C36.6424 27.72 36.4066 26.8465 36.4053 25.957C36.4039 25.0675 36.637 24.1933 37.0809 23.4224C37.5249 22.6516 38.1641 22.0114 38.9343 21.5662C39.7044 21.1211 40.5782 20.8867 41.4678 20.8867C42.3573 20.8867 43.2311 21.1211 44.0013 21.5662C44.7714 22.0114 45.4106 22.6516 45.8546 23.4224C46.2986 24.1933 46.5316 25.0675 46.5303 25.957C46.5289 26.8465 46.2932 27.72 45.8468 28.4894Z" fill="#68B8A5"/>
<path d="M27.9678 25.9582C27.744 25.9582 27.5294 25.8693 27.3712 25.7111C27.2129 25.5528 27.124 25.3382 27.124 25.1144C27.124 24.8907 27.2129 24.6761 27.3712 24.5178C27.5294 24.3596 27.744 24.2707 27.9678 24.2707C28.1915 24.2707 28.4062 24.3596 28.5644 24.5178C28.7226 24.6761 28.8115 24.8907 28.8115 25.1144C28.8115 25.3382 28.7226 25.5528 28.5644 25.7111C28.4062 25.8693 28.1915 25.9582 27.9678 25.9582Z" fill="#68B8A5"/>
<path d="M31.1485 29.8985C30.2479 30.6259 29.1252 31.0227 27.9676 31.0227C26.8099 31.0227 25.6872 30.6259 24.7866 29.8985C25.0197 29.2412 25.4507 28.6723 26.0203 28.2699C26.5899 27.8675 27.2702 27.6515 27.9676 27.6515C28.665 27.6515 29.3452 27.8675 29.9148 28.2699C30.4844 28.6723 30.9154 29.2412 31.1485 29.8985Z" fill="#68B8A5"/>
<path d="M32.3468 28.4894C31.8265 27.5952 31.0468 26.8802 30.1109 26.4391C30.3516 26.0561 30.4853 25.6156 30.498 25.1634C30.5107 24.7112 30.4021 24.2639 30.1832 23.8679C29.9644 23.472 29.6435 23.1418 29.2539 22.912C28.8643 22.6821 28.4202 22.5609 27.9678 22.5609C27.5154 22.5609 27.0713 22.6821 26.6816 22.912C26.292 23.1418 25.9711 23.472 25.7523 23.8679C25.5335 24.2639 25.4248 24.7112 25.4375 25.1634C25.4502 25.6156 25.5839 26.0561 25.8246 26.4391C24.8888 26.8802 24.109 27.5952 23.5887 28.4894C23.1424 27.72 22.9066 26.8465 22.9053 25.957C22.9039 25.0675 23.137 24.1933 23.5809 23.4224C24.0249 22.6516 24.6641 22.0114 25.4343 21.5662C26.2044 21.1211 27.0782 20.8867 27.9678 20.8867C28.8573 20.8867 29.7311 21.1211 30.5013 21.5662C31.2714 22.0114 31.9106 22.6516 32.3546 23.4224C32.7986 24.1933 33.0316 25.0675 33.0303 25.957C33.0289 26.8465 32.7932 27.72 32.3468 28.4894Z" fill="#68B8A5"/>
<path d="M14.4678 25.9582C14.244 25.9582 14.0294 25.8693 13.8712 25.7111C13.7129 25.5528 13.624 25.3382 13.624 25.1144C13.624 24.8907 13.7129 24.6761 13.8712 24.5178C14.0294 24.3596 14.244 24.2707 14.4678 24.2707C14.6915 24.2707 14.9062 24.3596 15.0644 24.5178C15.2226 24.6761 15.3115 24.8907 15.3115 25.1144C15.3115 25.3382 15.2226 25.5528 15.0644 25.7111C14.9062 25.8693 14.6915 25.9582 14.4678 25.9582Z" fill="#68B8A5"/>
<path d="M17.6485 29.8985C16.7479 30.6259 15.6252 31.0227 14.4676 31.0227C13.3099 31.0227 12.1872 30.6259 11.2866 29.8985C11.5197 29.2412 11.9507 28.6723 12.5203 28.2699C13.0899 27.8675 13.7702 27.6515 14.4676 27.6515C15.165 27.6515 15.8452 27.8675 16.4148 28.2699C16.9844 28.6723 17.4154 29.2412 17.6485 29.8985Z" fill="#68B8A5"/>
<path d="M18.8468 28.4894C18.3265 27.5952 17.5468 26.8802 16.6109 26.4391C16.8516 26.0561 16.9853 25.6156 16.998 25.1634C17.0107 24.7112 16.9021 24.2639 16.6832 23.8679C16.4644 23.472 16.1435 23.1418 15.7539 22.912C15.3643 22.6821 14.9202 22.5609 14.4678 22.5609C14.0154 22.5609 13.5713 22.6821 13.1816 22.912C12.792 23.1418 12.4711 23.472 12.2523 23.8679C12.0335 24.2639 11.9248 24.7112 11.9375 25.1634C11.9502 25.6156 12.0839 26.0561 12.3246 26.4391C11.3888 26.8802 10.609 27.5952 10.0887 28.4894C9.64237 27.72 9.40665 26.8465 9.40528 25.957C9.40391 25.0675 9.63695 24.1933 10.0809 23.4224C10.5249 22.6516 11.1641 22.0114 11.9343 21.5662C12.7044 21.1211 13.5782 20.8867 14.4678 20.8867C15.3573 20.8867 16.2311 21.1211 17.0013 21.5662C17.7714 22.0114 18.4106 22.6516 18.8546 23.4224C19.2986 24.1933 19.5316 25.0675 19.5303 25.957C19.5289 26.8465 19.2932 27.72 18.8468 28.4894Z" fill="#68B8A5"/>
<path d="M19.5303 32.7082H9.40527V34.3957H19.5303V32.7082Z" fill="#B6EDE2"/>
<path d="M16.999 36.0832H11.9365V37.7707H16.999V36.0832Z" fill="#B6EDE2"/>
<path d="M30.499 36.0832H25.4365V37.7707H30.499V36.0832Z" fill="#B6EDE2"/>
<path d="M43.999 36.0832H38.9365V37.7707H43.999V36.0832Z" fill="#B6EDE2"/>
<path d="M33.0303 32.7082H22.9053V34.3957H33.0303V32.7082Z" fill="#B6EDE2"/>
<path d="M46.5303 32.7082H36.4053V34.3957H46.5303V32.7082Z" fill="#B6EDE2"/>
</g>
<defs>
<clipPath id="clip0_641_10775">
<rect width="54" height="54" fill="white" transform="translate(0.967773 0.645691)"/>
</clipPath>
</defs>
</svg>
