<svg width="65" height="74" viewBox="0 0 65 74" fill="none" xmlns="http://www.w3.org/2000/svg">
<g clip-path="url(#clip0_652_2602)">
<path d="M59.0938 17.3438H3.59375C1.67801 17.3438 0.125 18.8968 0.125 20.8125V60.125C0.125 62.0407 1.67801 63.5938 3.59375 63.5938H59.0938C61.0095 63.5938 62.5625 62.0407 62.5625 60.125V20.8125C62.5625 18.8968 61.0095 17.3438 59.0938 17.3438Z" fill="#68B8A5"/>
<path d="M60.25 20.8125V56.6562H2.4375V20.8125C2.4375 20.5058 2.55934 20.2117 2.77617 19.9949C2.99301 19.7781 3.28709 19.6562 3.59375 19.6562H59.0938C59.4004 19.6562 59.6945 19.7781 59.9113 19.9949C60.1282 20.2117 60.25 20.5058 60.25 20.8125Z" fill="white"/>
<path d="M40.5938 72.8438H24.4062L25.5625 63.5938H39.4375L40.5938 72.8438Z" fill="#44BAA4"/>
<path d="M47.5312 74H17.4688C17.1621 74 16.868 73.8782 16.6512 73.6613C16.4343 73.4445 16.3125 73.1504 16.3125 72.8438C16.3125 72.5371 16.4343 72.243 16.6512 72.0262C16.868 71.8093 17.1621 71.6875 17.4688 71.6875H47.5312C47.8379 71.6875 48.132 71.8093 48.3488 72.0262C48.5657 72.243 48.6875 72.5371 48.6875 72.8438C48.6875 73.1504 48.5657 73.4445 48.3488 73.6613C48.132 73.8782 47.8379 74 47.5312 74Z" fill="#68B8A5"/>
<path d="M29.0312 19.6562H15.1562V17.3438H23.6894L29.0312 19.6562Z" fill="#338F7E"/>
<path d="M41.75 19.6562V23.125C28.7191 30.2359 29.2625 30.1781 28.4878 29.7966L15.7691 23.4488C14.9597 23.0325 15.1332 22.4544 15.1332 19.6562H41.75Z" fill="#F3F3F3"/>
<path d="M44.0625 12.4875V21.2865C44.061 21.4926 44.0045 21.6945 43.8988 21.8713C43.7931 22.0482 43.642 22.1936 43.4613 22.2925L32.4075 28.3281C32.0773 28.5004 31.7104 28.5903 31.338 28.5903C30.9656 28.5903 30.5987 28.5004 30.2685 28.3281L18.1047 22.2578C17.9123 22.1608 17.7508 22.012 17.6384 21.8281C17.526 21.6443 17.4673 21.4327 17.4688 21.2172V12.4875L31.3438 18.5L44.0625 12.4875Z" fill="#338F7E"/>
<path d="M54.4688 9.25L31.3438 18.5L8.21875 9.25L31.3438 0L54.4688 9.25Z" fill="#44BAA4"/>
<path d="M41.7499 27.75V14.6613L30.9159 10.3253C30.6307 10.2119 30.4022 9.98974 30.2808 9.70785C30.1594 9.42596 30.1549 9.10738 30.2684 8.82219C30.3819 8.537 30.604 8.30856 30.8859 8.18713C31.1677 8.0657 31.4863 8.06123 31.7715 8.17469L43.334 12.7997C43.5491 12.8854 43.7336 13.0337 43.8635 13.2254C43.9933 13.4171 44.0627 13.6434 44.0624 13.875V27.75C44.0624 28.0567 43.9406 28.3508 43.7238 28.5676C43.5069 28.7844 43.2129 28.9063 42.9062 28.9063C42.5995 28.9063 42.3055 28.7844 42.0886 28.5676C41.8718 28.3508 41.7499 28.0567 41.7499 27.75Z" fill="#B6EDE2"/>
<path d="M22.0938 34.6875H5.90625V53.1875H22.0938V34.6875Z" fill="#B6EDE2"/>
<path d="M38.2812 34.6875H24.4062V37H38.2812V34.6875Z" fill="#B6EDE2"/>
<path d="M49.8438 39.3125H24.4062V41.625H49.8438V39.3125Z" fill="#B6EDE2"/>
<path d="M49.8438 43.9375H24.4062V53.1875H49.8438V43.9375Z" fill="#B6EDE2"/>
<path d="M56.7812 53.1875L54.4688 42.7812L64.875 45.0938L56.7812 53.1875Z" fill="#68B8A5"/>
<path d="M59.1002 45.0848L56.7864 47.3986L62.5668 53.179L64.8806 50.8652L59.1002 45.0848Z" fill="#68B8A5"/>
</g>
<defs>
<clipPath id="clip0_652_2602">
<rect width="64.75" height="74" fill="white" transform="translate(0.125)"/>
</clipPath>
</defs>
</svg>
