<svg width="67" height="74" viewBox="0 0 67 74" fill="none" xmlns="http://www.w3.org/2000/svg">
<g clip-path="url(#clip0_649_1319)">
<path d="M60.7989 17.3438H4.04699C2.08804 17.3438 0.5 18.8968 0.5 20.8125V60.125C0.5 62.0407 2.08804 63.5938 4.04699 63.5938H60.7989C62.7578 63.5938 64.3459 62.0407 64.3459 60.125V20.8125C64.3459 18.8968 62.7578 17.3438 60.7989 17.3438Z" fill="#0033AD"/>
<path d="M61.9812 20.8125V56.6562H2.86469V20.8125C2.86469 20.5058 2.98925 20.2117 3.21098 19.9949C3.43271 19.7781 3.73344 19.6562 4.04702 19.6562H60.7989C61.1125 19.6562 61.4132 19.7781 61.6349 19.9949C61.8567 20.2117 61.9812 20.5058 61.9812 20.8125Z" fill="white"/>
<path d="M41.8815 72.8438H25.3289L26.5112 63.5938H40.6992L41.8815 72.8438Z" fill="#0033AD"/>
<path d="M48.9755 74H18.2349C17.9214 74 17.6206 73.8782 17.3989 73.6613C17.1772 73.4445 17.0526 73.1504 17.0526 72.8438C17.0526 72.5371 17.1772 72.243 17.3989 72.0262C17.6206 71.8093 17.9214 71.6875 18.2349 71.6875H48.9755C49.2891 71.6875 49.5899 71.8093 49.8116 72.0262C50.0333 72.243 50.1579 72.5371 50.1579 72.8438C50.1579 73.1504 50.0333 73.4445 49.8116 73.6613C49.5899 73.8782 49.2891 74 48.9755 74Z" fill="#0033AD"/>
<path d="M21.7819 35.8438H5.22931V54.3438H21.7819V35.8438Z" fill="#CCE7FF"/>
<path d="M50.1579 40.4688H24.1466V42.7812H50.1579V40.4688Z" fill="#CCE7FF"/>
<path d="M50.1579 35.8438H24.1466V38.1562H50.1579V35.8438Z" fill="#CCE7FF"/>
<path d="M50.1579 45.0938H24.1466V54.3438H50.1579V45.0938Z" fill="#CCE7FF"/>
<path d="M48.9755 3.46875H15.8703C14.5643 3.46875 13.5056 4.50409 13.5056 5.78125V30.0625C13.5056 31.3397 14.5643 32.375 15.8703 32.375H48.9755C50.2815 32.375 51.3402 31.3397 51.3402 30.0625V5.78125C51.3402 4.50409 50.2815 3.46875 48.9755 3.46875Z" fill="#0033AD"/>
<path d="M32.4229 3.94281C32.4229 32.1669 32.3047 29.9469 32.4229 30.0625C30.9076 28.5826 28.8538 27.751 26.7123 27.75H17.0526C16.7391 27.75 16.4383 27.6282 16.2166 27.4113C15.9949 27.1945 15.8703 26.9004 15.8703 26.5938V1.15625C15.8703 0.849593 15.9949 0.555497 16.2166 0.338658C16.4383 0.121819 16.7391 0 17.0526 0L28.3912 0C29.4605 0 30.486 0.415402 31.2421 1.15482C31.9982 1.89424 32.4229 2.89711 32.4229 3.94281Z" fill="#F2F9FF"/>
<path d="M32.4229 3.94281C32.4229 32.1669 32.5411 29.9469 32.4229 30.0625C33.9383 28.5826 35.992 27.751 38.1336 27.75H47.7932C48.1068 27.75 48.4075 27.6282 48.6292 27.4113C48.851 27.1945 48.9755 26.9004 48.9755 26.5938V1.15625C48.9755 0.849593 48.851 0.555497 48.6292 0.338658C48.4075 0.121819 48.1068 0 47.7932 0L36.4547 0C35.3854 0 34.3599 0.415402 33.6038 1.15482C32.8477 1.89424 32.4229 2.89711 32.4229 3.94281Z" fill="#F2F9FF"/>
<path d="M46.6109 3.46875H34.7876V10.4062H46.6109V3.46875Z" fill="#CCE7FF"/>
<path d="M41.8816 12.7188H34.7876V15.0312H41.8816V12.7188Z" fill="#CCE7FF"/>
<path d="M46.6109 17.3438H34.7876V19.6562H46.6109V17.3438Z" fill="#CCE7FF"/>
<path d="M30.0583 4.625H22.9643V6.9375H30.0583V4.625Z" fill="#CCE7FF"/>
<path d="M30.0583 9.25H18.235V11.5625H30.0583V9.25Z" fill="#CCE7FF"/>
<path d="M30.0583 13.875H18.235V16.1875H30.0583V13.875Z" fill="#CCE7FF"/>
<path d="M30.0583 18.5H18.235V23.125H30.0583V18.5Z" fill="#CCE7FF"/>
<path d="M46.6109 21.9688H34.7876V24.2812H46.6109V21.9688Z" fill="#CCE7FF"/>
<path d="M58.4342 54.3438L56.0696 43.9375L66.7106 46.25L58.4342 54.3438Z" fill="#0033AD"/>
<path d="M60.7974 46.2421L58.4314 48.5559L64.3422 54.3363L66.7081 52.0225L60.7974 46.2421Z" fill="#0033AD"/>
</g>
<defs>
<clipPath id="clip0_649_1319">
<rect width="66.2105" height="74" fill="white" transform="translate(0.5)"/>
</clipPath>
</defs>
</svg>
