<svg width="75" height="74" viewBox="0 0 75 74" fill="none" xmlns="http://www.w3.org/2000/svg">
<g clip-path="url(#clip0_649_1851)">
<path d="M74.4942 0L66.4017 67.052L6.28613 30.0578C69.0491 2.40462 30.7832 19.2486 74.4942 0Z" fill="#68B8A5"/>
<path d="M74.4942 0L27.0954 42.7746L36.344 60.1156C44.4364 48.7399 37.5 59.5029 74.4942 0Z" fill="#338F7E"/>
<path d="M50.2168 10.6936V13.8728C50.2168 15.0993 49.7296 16.2755 48.8624 17.1427C47.9951 18.0099 46.8189 18.4971 45.5925 18.4971H44.2399L42.5983 20.1271C42.1651 20.5578 41.5791 20.7995 40.9682 20.7995C40.3574 20.7995 39.7714 20.5578 39.3382 20.1271L37.6966 18.4971H32.5174L50.2168 10.6936Z" fill="#338F7E"/>
<path d="M47.9046 2.31214V13.8728C47.9046 14.486 47.661 15.0741 47.2274 15.5077C46.7938 15.9413 46.2057 16.185 45.5925 16.185H43.2804L40.9682 18.4971L38.6561 16.185H22.4711C21.8579 16.185 21.2698 15.9413 20.8362 15.5077C20.4026 15.0741 20.159 14.486 20.159 13.8728V2.31214C20.159 1.69892 20.4026 1.11085 20.8362 0.677243C21.2698 0.243633 21.8579 0 22.4711 0H45.5925C46.2057 0 46.7938 0.243633 47.2274 0.677243C47.661 1.11085 47.9046 1.69892 47.9046 2.31214Z" fill="#338F7E"/>
<path d="M42.1243 10.4046C43.4012 10.4046 44.4364 9.36944 44.4364 8.09248C44.4364 6.81553 43.4012 5.78035 42.1243 5.78035C40.8473 5.78035 39.8121 6.81553 39.8121 8.09248C39.8121 9.36944 40.8473 10.4046 42.1243 10.4046Z" fill="white"/>
<path d="M34.0318 10.4046C35.3088 10.4046 36.3439 9.36944 36.3439 8.09248C36.3439 6.81553 35.3088 5.78035 34.0318 5.78035C32.7548 5.78035 31.7197 6.81553 31.7197 8.09248C31.7197 9.36944 32.7548 10.4046 34.0318 10.4046Z" fill="white"/>
<path d="M25.9393 10.4046C27.2163 10.4046 28.2515 9.36944 28.2515 8.09248C28.2515 6.81553 27.2163 5.78035 25.9393 5.78035C24.6624 5.78035 23.6272 6.81553 23.6272 8.09248C23.6272 9.36944 24.6624 10.4046 25.9393 10.4046Z" fill="white"/>
<path d="M6.28614 54.3352C6.04907 54.3333 5.81832 54.2586 5.62516 54.1211C5.43199 53.9837 5.28574 53.7902 5.20624 53.5668C5.12674 53.3435 5.11785 53.1012 5.18073 52.8726C5.24362 52.644 5.37525 52.4402 5.55781 52.289L18.2746 41.8843C18.5134 41.7263 18.8024 41.6625 19.0856 41.7054C19.3688 41.7483 19.6259 41.8948 19.8073 42.1164C19.9886 42.3381 20.0813 42.6192 20.0672 42.9052C20.0532 43.1913 19.9334 43.4619 19.7312 43.6647C5.86996 55.0173 6.87573 54.3352 6.28614 54.3352Z" fill="#F3F3F3"/>
<path d="M14.3787 73.9884C14.1471 73.9876 13.9211 73.9173 13.73 73.7866C13.5389 73.6559 13.3914 73.4708 13.3067 73.2553C13.222 73.0398 13.2039 72.8038 13.2549 72.5779C13.3059 72.352 13.4235 72.1467 13.5925 71.9885L29.7775 56.9595C30.005 56.7751 30.294 56.6838 30.5862 56.7042C30.8784 56.7246 31.1519 56.8552 31.3515 57.0695C31.5512 57.2838 31.662 57.5659 31.6617 57.8588C31.6614 58.1517 31.5499 58.4335 31.3497 58.6474C13.7081 75.0289 15.0261 73.9884 14.3787 73.9884Z" fill="#F3F3F3"/>
<path d="M1.66187 38.1503C1.42553 38.1503 1.19487 38.0779 1.00096 37.9428C0.80704 37.8077 0.659187 37.6164 0.57731 37.3947C0.495433 37.173 0.483457 36.9316 0.543018 36.7029C0.602578 36.4742 0.730815 36.2692 0.910428 36.1156L4.89885 32.6474C5.13187 32.4466 5.43513 32.3465 5.74191 32.3693C6.04869 32.3921 6.33387 32.5357 6.53469 32.7688C6.73552 33.0018 6.83557 33.305 6.81281 33.6118C6.79004 33.9186 6.64632 34.2038 6.41329 34.4046C2.02023 38.2081 2.2399 38.1503 1.66187 38.1503Z" fill="#F3F3F3"/>
<path d="M40.9682 73.9884C40.7413 73.9898 40.519 73.9244 40.329 73.8004C40.139 73.6763 39.9897 73.4991 39.8998 73.2908C39.8098 73.0825 39.7831 72.8523 39.823 72.6289C39.863 72.4056 39.9677 72.1989 40.1243 72.0347L50.4596 61.1445C50.6711 60.9222 50.9623 60.7931 51.2691 60.7855C51.5759 60.7779 51.8731 60.8925 52.0954 61.104C52.3177 61.3156 52.4468 61.6068 52.4544 61.9136C52.462 62.2203 52.3474 62.5176 52.1359 62.7399C40.9682 74.5318 41.6734 73.9884 40.9682 73.9884Z" fill="#F3F3F3"/>
</g>
<defs>
<clipPath id="clip0_649_1851">
<rect width="73.9884" height="74" fill="white" transform="translate(0.505798)"/>
</clipPath>
</defs>
</svg>
