<svg width="74" height="74" viewBox="0 0 74 74" fill="none" xmlns="http://www.w3.org/2000/svg">
<g clip-path="url(#clip0_2918_1569)">
<path d="M73.9943 0L65.9019 67.052L5.78625 30.0578C68.5493 2.40462 30.2834 19.2486 73.9943 0Z" fill="#1FD9CA"/>
<path d="M73.9943 0L26.5955 42.7746L35.844 60.1156C43.9365 48.7399 37.0001 59.5029 73.9943 0Z" fill="#338F7E"/>
<path d="M49.7169 10.6936V13.8728C49.7169 15.0992 49.2297 16.2754 48.3625 17.1427C47.4952 18.0099 46.319 18.4971 45.0926 18.4971H43.74L42.0984 20.1271C41.6652 20.5577 41.0792 20.7995 40.4683 20.7995C39.8575 20.7995 39.2715 20.5577 38.8383 20.1271L37.1967 18.4971H32.0175L49.7169 10.6936Z" fill="#338F7E"/>
<path d="M47.4047 2.31214V13.8728C47.4047 14.486 47.1611 15.0741 46.7275 15.5077C46.2939 15.9413 45.7058 16.185 45.0926 16.185H42.7804L40.4683 18.4971L38.1562 16.185H21.9712C21.358 16.185 20.7699 15.9413 20.3363 15.5077C19.9027 15.0741 19.6591 14.486 19.6591 13.8728V2.31214C19.6591 1.69892 19.9027 1.11085 20.3363 0.677243C20.7699 0.243633 21.358 0 21.9712 0H45.0926C45.7058 0 46.2939 0.243633 46.7275 0.677243C47.1611 1.11085 47.4047 1.69892 47.4047 2.31214Z" fill="#338F7E"/>
<path d="M41.6244 10.4047C42.9014 10.4047 43.9365 9.36949 43.9365 8.09253C43.9365 6.81558 42.9014 5.7804 41.6244 5.7804C40.3474 5.7804 39.3123 6.81558 39.3123 8.09253C39.3123 9.36949 40.3474 10.4047 41.6244 10.4047Z" fill="white"/>
<path d="M33.5319 10.4047C34.8088 10.4047 35.844 9.36949 35.844 8.09253C35.844 6.81558 34.8088 5.7804 33.5319 5.7804C32.2549 5.7804 31.2197 6.81558 31.2197 8.09253C31.2197 9.36949 32.2549 10.4047 33.5319 10.4047Z" fill="white"/>
<path d="M25.4393 10.4047C26.7163 10.4047 27.7515 9.36949 27.7515 8.09253C27.7515 6.81558 26.7163 5.7804 25.4393 5.7804C24.1624 5.7804 23.1272 6.81558 23.1272 8.09253C23.1272 9.36949 24.1624 10.4047 25.4393 10.4047Z" fill="white"/>
<path d="M5.78623 54.3352C5.54916 54.3333 5.31842 54.2586 5.12525 54.1212C4.93209 53.9837 4.78583 53.7902 4.70633 53.5668C4.62683 53.3435 4.61794 53.1012 4.68082 52.8726C4.74371 52.644 4.87535 52.4402 5.0579 52.289L17.7747 41.8844C18.0135 41.7263 18.3025 41.6625 18.5857 41.7054C18.8689 41.7483 19.126 41.8948 19.3074 42.1164C19.4887 42.3381 19.5813 42.6192 19.5673 42.9052C19.5532 43.1913 19.4335 43.4619 19.2313 43.6647C5.37005 55.0173 6.37582 54.3352 5.78623 54.3352Z" fill="#F3F3F3"/>
<path d="M13.8787 73.9885C13.6471 73.9877 13.4211 73.9174 13.23 73.7867C13.0389 73.6559 12.8914 73.4708 12.8067 73.2553C12.722 73.0398 12.7039 72.8038 12.7549 72.578C12.8059 72.3521 12.9235 72.1467 13.0925 71.9885L29.2775 56.9596C29.505 56.7751 29.794 56.6838 30.0862 56.7042C30.3784 56.7246 30.6519 56.8552 30.8515 57.0695C31.0512 57.2838 31.162 57.5659 31.1617 57.8588C31.1614 58.1517 31.0499 58.4335 30.8497 58.6474C13.2081 75.0289 14.5261 73.9885 13.8787 73.9885Z" fill="#F3F3F3"/>
<path d="M1.1619 38.1503C0.925563 38.1503 0.694905 38.0778 0.500988 37.9427C0.307071 37.8076 0.159218 37.6164 0.0773408 37.3947C-0.00453608 37.173 -0.0165124 36.9315 0.0430482 36.7028C0.102609 36.4741 0.230845 36.2692 0.410459 36.1156L4.39888 32.6474C4.6319 32.4465 4.93516 32.3465 5.24194 32.3693C5.54872 32.392 5.8339 32.5357 6.03472 32.7687C6.23555 33.0017 6.3356 33.305 6.31284 33.6118C6.29008 33.9186 6.14635 34.2038 5.91332 34.4046C1.52026 38.2081 1.73993 38.1503 1.1619 38.1503Z" fill="#F3F3F3"/>
<path d="M40.4683 73.9884C40.2414 73.9898 40.0191 73.9244 39.8291 73.8004C39.6391 73.6763 39.4898 73.4991 39.3998 73.2908C39.3099 73.0825 39.2832 72.8523 39.3231 72.6289C39.363 72.4056 39.4678 72.1989 39.6244 72.0347L49.9596 61.1445C50.1712 60.9222 50.4624 60.7931 50.7692 60.7855C51.0759 60.7779 51.3732 60.8925 51.5955 61.104C51.8178 61.3156 51.9469 61.6068 51.9545 61.9136C51.9621 62.2203 51.8475 62.5176 51.6359 62.7399C40.4683 74.5318 41.1735 73.9884 40.4683 73.9884Z" fill="#F3F3F3"/>
</g>
<defs>
<clipPath id="clip0_2918_1569">
<rect width="73.9884" height="74" fill="white" transform="translate(0.00585938)"/>
</clipPath>
</defs>
</svg>
