<svg width="79" height="74" viewBox="0 0 79 74" fill="none" xmlns="http://www.w3.org/2000/svg">
<g clip-path="url(#clip0_649_1895)">
<path d="M70.3333 8.63333H8.66667C6.62322 8.63333 4.96667 10.2899 4.96667 12.3333V59.2C4.96667 61.2435 6.62322 62.9 8.66667 62.9H70.3333C72.3768 62.9 74.0333 61.2435 74.0333 59.2V12.3333C74.0333 10.2899 72.3768 8.63333 70.3333 8.63333Z" fill="#68B8A5"/>
<path d="M71.5667 12.3333V55.5H7.43335V12.3333C7.43335 12.0062 7.56331 11.6925 7.7946 11.4613C8.0259 11.23 8.33958 11.1 8.66668 11.1H70.3334C70.6604 11.1 70.9741 11.23 71.2054 11.4613C71.4367 11.6925 71.5667 12.0062 71.5667 12.3333Z" fill="white"/>
<path d="M48.1333 72.7667H30.8666L32.1 62.9H46.9L48.1333 72.7667Z" fill="#68B8A5"/>
<path d="M53.0667 74H25.9333C25.6062 74 25.2926 73.87 25.0613 73.6387C24.83 73.4075 24.7 73.0938 24.7 72.7667C24.7 72.4396 24.83 72.1259 25.0613 71.8946C25.2926 71.6633 25.6062 71.5333 25.9333 71.5333H53.0667C53.3938 71.5333 53.7075 71.6633 53.9388 71.8946C54.1701 72.1259 54.3 72.4396 54.3 72.7667C54.3 73.0938 54.1701 73.4075 53.9388 73.6387C53.7075 73.87 53.3938 74 53.0667 74Z" fill="#68B8A5"/>
<path d="M13.6 14.8H11.1333V51.8H13.6V14.8Z" fill="#B6EDE2"/>
<path d="M33.3333 14.8H16.0667V17.2667H33.3333V14.8Z" fill="#B6EDE2"/>
<path d="M35.8 24.6667H16.0667V27.1333H35.8V24.6667Z" fill="#B6EDE2"/>
<path d="M65.4 24.6667H38.2667V27.1333H65.4V24.6667Z" fill="#B6EDE2"/>
<path d="M35.8 34.5333H16.0667V37H35.8V34.5333Z" fill="#B6EDE2"/>
<path d="M65.4 34.5333H38.2667V37H65.4V34.5333Z" fill="#B6EDE2"/>
<path d="M35.8 49.3333H16.0667V51.8H35.8V49.3333Z" fill="#B6EDE2"/>
<path d="M65.4 49.3333H38.2667V51.8H65.4V49.3333Z" fill="#B6EDE2"/>
<path d="M60.4667 29.6H35.8V32.0667H60.4667V29.6Z" fill="#B6EDE2"/>
<path d="M67.8666 14.8H48.1333V17.2667H67.8666V14.8Z" fill="#B6EDE2"/>
<path d="M45.6667 14.8H35.8V17.2667H45.6667V14.8Z" fill="#B6EDE2"/>
<path d="M28.4 19.7333H18.5333V22.2H28.4V19.7333Z" fill="#B6EDE2"/>
<path d="M28.4 39.4667H18.5333V41.9333H28.4V39.4667Z" fill="#B6EDE2"/>
<path d="M61.7 44.4H35.8V46.8667H61.7V44.4Z" fill="#B6EDE2"/>
<path d="M33.3333 44.4H23.4667V46.8667H33.3333V44.4Z" fill="#B6EDE2"/>
<path d="M33.3333 29.6H18.5333V32.0667H33.3333V29.6Z" fill="#B6EDE2"/>
<path d="M74.0333 12.3333V23.1866C73.2461 23.5907 72.4196 23.9131 71.5667 24.1487V12.3333C71.5667 12.0062 71.4367 11.6925 71.2054 11.4613C70.9741 11.23 70.6604 11.1 70.3333 11.1H54.3C54.2986 10.2727 54.3729 9.44707 54.522 8.63333H70.3333C71.3146 8.63333 72.2557 9.02313 72.9496 9.71701C73.6435 10.4109 74.0333 11.352 74.0333 12.3333Z" fill="#68B8A5"/>
<path d="M71.5666 12.3333V24.1487C68.5454 25.0061 65.3202 24.7887 62.4413 23.5337C59.5624 22.2787 57.2081 20.0637 55.78 17.2667H67.8666V14.8H54.818C54.4692 13.5978 54.2948 12.3518 54.3 11.1H70.3333C70.6604 11.1 70.9741 11.23 71.2054 11.4613C71.4367 11.6925 71.5666 12.0062 71.5666 12.3333Z" fill="#338F7E" fill-opacity="0.37"/>
<path d="M67.8666 14.8V17.2667H55.78C55.376 16.4794 55.0536 15.6529 54.818 14.8H67.8666Z" fill="#B6EDE2"/>
<path d="M67.8667 22.2C73.997 22.2 78.9667 17.2304 78.9667 11.1C78.9667 4.96964 73.997 0 67.8667 0C61.7363 0 56.7667 4.96964 56.7667 11.1C56.7667 17.2304 61.7363 22.2 67.8667 22.2Z" fill="#338F7E"/>
<path d="M24.7 62.9H8.66667C7.68537 62.9 6.74428 62.5102 6.0504 61.8163C5.35651 61.1224 4.96667 60.1813 4.96667 59.2V53.0333H7.43334V55.5H24.034C24.9097 57.017 24.7 57.8557 24.7 62.9Z" fill="#68B8A5"/>
<path d="M24.034 55.5H7.43335V53.0333H19.7667C20.6318 53.0342 21.4815 53.2626 22.2305 53.6955C22.9795 54.1285 23.6014 54.7508 24.034 55.5Z" fill="#B4D6CF"/>
<path d="M19.7667 55.5H2.49999C1.13769 55.5 0.0333252 56.6044 0.0333252 57.9667V70.3C0.0333252 71.6623 1.13769 72.7667 2.49999 72.7667H19.7667C21.129 72.7667 22.2333 71.6623 22.2333 70.3V57.9667C22.2333 56.6044 21.129 55.5 19.7667 55.5Z" fill="#338F7E"/>
<path d="M6.20001 67.8333C5.53401 67.8333 5.49702 67.6484 2.85769 65.009C2.74209 64.8944 2.65032 64.7579 2.58771 64.6077C2.52509 64.4574 2.49286 64.2961 2.49286 64.1333C2.49286 63.9705 2.52509 63.8093 2.58771 63.659C2.65032 63.5087 2.74209 63.3723 2.85769 63.2576L5.32435 60.791C5.5566 60.5587 5.87157 60.4283 6.20001 60.4283C6.52845 60.4283 6.84343 60.5587 7.07567 60.791C7.30791 61.0232 7.43839 61.3382 7.43839 61.6667C7.43839 61.9951 7.30791 62.3101 7.07567 62.5424L5.47235 64.1333L7.07567 65.7243C7.2496 65.8968 7.36822 66.1173 7.41641 66.3575C7.46459 66.5976 7.44019 66.8467 7.34625 67.073C7.25231 67.2992 7.09312 67.4923 6.88898 67.6278C6.68484 67.7632 6.44498 67.8348 6.20001 67.8333Z" fill="#F3F3F3"/>
<path d="M16.0667 67.8333C15.8217 67.8348 15.5818 67.7632 15.3777 67.6278C15.1736 67.4923 15.0144 67.2992 14.9204 67.073C14.8265 66.8467 14.8021 66.5976 14.8503 66.3575C14.8985 66.1173 15.0171 65.8968 15.191 65.7243L16.7943 64.1333L15.191 62.5424C14.9588 62.3101 14.8283 61.9951 14.8283 61.6667C14.8283 61.3382 14.9588 61.0232 15.191 60.791C15.4233 60.5587 15.7382 60.4283 16.0667 60.4283C16.3951 60.4283 16.7101 60.5587 16.9423 60.791L19.409 63.2576C19.5246 63.3723 19.6164 63.5087 19.679 63.659C19.7416 63.8093 19.7738 63.9705 19.7738 64.1333C19.7738 64.2961 19.7416 64.4574 19.679 64.6077C19.6164 64.7579 19.5246 64.8944 19.409 65.009C16.7203 67.6977 16.7327 67.8333 16.0667 67.8333Z" fill="#F3F3F3"/>
<path d="M8.66664 68.7707L11.1333 58.904C11.2218 58.5977 11.4255 58.3376 11.7016 58.1782C11.9778 58.0188 12.3049 57.9726 12.6144 58.0492C12.9239 58.1257 13.1917 58.3191 13.3616 58.5889C13.5316 58.8586 13.5905 59.1837 13.526 59.496L11.0593 69.3626C10.9708 69.6689 10.7671 69.9291 10.491 70.0885C10.2148 70.2478 9.88774 70.2941 9.57824 70.2175C9.26875 70.1409 9.00093 69.9475 8.83097 69.6777C8.66101 69.408 8.60211 69.0829 8.66664 68.7707Z" fill="#F3F3F3"/>
<path d="M66.6333 16.0334C65.955 16.0334 66.103 16.0334 62.0577 11.9757C61.8254 11.7435 61.6949 11.4285 61.6949 11.1C61.6949 10.7716 61.8254 10.4566 62.0577 10.2243C62.2899 9.99209 62.6049 9.86165 62.9333 9.86165C63.2618 9.86165 63.5767 9.99209 63.809 10.2243L66.547 12.9747L71.8503 6.61067C72.0597 6.35881 72.3605 6.20045 72.6866 6.17038C73.0127 6.14031 73.3375 6.24099 73.5893 6.45034C73.8412 6.65968 73.9996 6.96053 74.0296 7.28666C74.0597 7.61279 73.959 7.93751 73.7496 8.18938C67.1636 16.0334 67.435 16.0334 66.6333 16.0334Z" fill="#FDFDFD"/>
</g>
<defs>
<clipPath id="clip0_649_1895">
<rect width="78.9333" height="74" fill="white" transform="translate(0.0333252)"/>
</clipPath>
</defs>
</svg>
