<svg width="80" height="74" viewBox="0 0 80 74" fill="none" xmlns="http://www.w3.org/2000/svg">
<g clip-path="url(#clip0_2918_1583)">
<path d="M70.8333 8.6333H9.16667C7.12322 8.6333 5.46667 10.2898 5.46667 12.3333V59.2C5.46667 61.2434 7.12322 62.9 9.16667 62.9H70.8333C72.8768 62.9 74.5333 61.2434 74.5333 59.2V12.3333C74.5333 10.2898 72.8768 8.6333 70.8333 8.6333Z" fill="#1FD9CA"/>
<path d="M72.0667 12.3333V55.5H7.93335V12.3333C7.93335 12.0062 8.06331 11.6925 8.2946 11.4612C8.5259 11.2299 8.83958 11.1 9.16668 11.1H70.8334C71.1604 11.1 71.4741 11.2299 71.7054 11.4612C71.9367 11.6925 72.0667 12.0062 72.0667 12.3333Z" fill="white"/>
<path d="M48.6334 72.7667H31.3667L32.6 62.9H47.4L48.6334 72.7667Z" fill="#1FD9CA"/>
<path d="M53.5666 74H26.4333C26.1062 74 25.7925 73.87 25.5612 73.6387C25.3299 73.4074 25.2 73.0938 25.2 72.7667C25.2 72.4396 25.3299 72.1259 25.5612 71.8946C25.7925 71.6633 26.1062 71.5333 26.4333 71.5333H53.5666C53.8937 71.5333 54.2074 71.6633 54.4387 71.8946C54.67 72.1259 54.8 72.4396 54.8 72.7667C54.8 73.0938 54.67 73.4074 54.4387 73.6387C54.2074 73.87 53.8937 74 53.5666 74Z" fill="#1FD9CA"/>
<path d="M14.1 14.8H11.6333V51.8H14.1V14.8Z" fill="#B6EDE2"/>
<path d="M33.8333 14.8H16.5667V17.2667H33.8333V14.8Z" fill="#B6EDE2"/>
<path d="M36.3 24.6666H16.5667V27.1333H36.3V24.6666Z" fill="#B6EDE2"/>
<path d="M65.8999 24.6666H38.7666V27.1333H65.8999V24.6666Z" fill="#B6EDE2"/>
<path d="M36.3 34.5333H16.5667V37H36.3V34.5333Z" fill="#B6EDE2"/>
<path d="M65.8999 34.5333H38.7666V37H65.8999V34.5333Z" fill="#B6EDE2"/>
<path d="M36.3 49.3334H16.5667V51.8H36.3V49.3334Z" fill="#B6EDE2"/>
<path d="M65.8999 49.3334H38.7666V51.8H65.8999V49.3334Z" fill="#B6EDE2"/>
<path d="M60.9667 29.6H36.3V32.0666H60.9667V29.6Z" fill="#B6EDE2"/>
<path d="M68.3666 14.8H48.6333V17.2667H68.3666V14.8Z" fill="#B6EDE2"/>
<path d="M46.1667 14.8H36.3V17.2667H46.1667V14.8Z" fill="#B6EDE2"/>
<path d="M28.9 19.7333H19.0333V22.1999H28.9V19.7333Z" fill="#B6EDE2"/>
<path d="M28.9 39.4667H19.0333V41.9333H28.9V39.4667Z" fill="#B6EDE2"/>
<path d="M62.2 44.4H36.3V46.8667H62.2V44.4Z" fill="#B6EDE2"/>
<path d="M33.8333 44.4H23.9667V46.8667H33.8333V44.4Z" fill="#B6EDE2"/>
<path d="M33.8333 29.6H19.0333V32.0666H33.8333V29.6Z" fill="#B6EDE2"/>
<path d="M74.5334 12.3333V23.1866C73.7462 23.5906 72.9196 23.913 72.0667 24.1487V12.3333C72.0667 12.0062 71.9368 11.6925 71.7055 11.4612C71.4742 11.2299 71.1605 11.1 70.8334 11.1H54.8001C54.7987 10.2727 54.873 9.44703 55.0221 8.6333H70.8334C71.8147 8.6333 72.7558 9.0231 73.4497 9.71698C74.1436 10.4109 74.5334 11.352 74.5334 12.3333Z" fill="#1FD9CA"/>
<path d="M72.0667 12.3333V24.1487C69.0454 25.0061 65.8203 24.7887 62.9414 23.5337C60.0625 22.2786 57.7082 20.0637 56.2801 17.2666H68.3667V14.8H55.3181C54.9693 13.5978 54.7948 12.3517 54.8 11.1H70.8334C71.1605 11.1 71.4742 11.2299 71.7055 11.4612C71.9367 11.6925 72.0667 12.0062 72.0667 12.3333Z" fill="#338F7E" fill-opacity="0.37"/>
<path d="M68.3666 14.8V17.2667H56.28C55.876 16.4795 55.5536 15.653 55.318 14.8H68.3666Z" fill="#B6EDE2"/>
<path d="M68.3666 22.2C74.497 22.2 79.4666 17.2304 79.4666 11.1C79.4666 4.96964 74.497 0 68.3666 0C62.2362 0 57.2666 4.96964 57.2666 11.1C57.2666 17.2304 62.2362 22.2 68.3666 22.2Z" fill="#338F7E"/>
<path d="M25.2 62.9H9.16667C8.18537 62.9 7.24428 62.5102 6.5504 61.8163C5.85651 61.1224 5.46667 60.1813 5.46667 59.2V53.0333H7.93334V55.5H24.534C25.4097 57.017 25.2 57.8557 25.2 62.9Z" fill="#1FD9CA"/>
<path d="M24.534 55.5H7.93335V53.0333H20.2667C21.1318 53.0342 21.9815 53.2626 22.7305 53.6955C23.4795 54.1285 24.1014 54.7508 24.534 55.5Z" fill="#B4D6CF"/>
<path d="M20.2667 55.5H2.99999C1.63769 55.5 0.533325 56.6044 0.533325 57.9667V70.3C0.533325 71.6623 1.63769 72.7667 2.99999 72.7667H20.2667C21.629 72.7667 22.7333 71.6623 22.7333 70.3V57.9667C22.7333 56.6044 21.629 55.5 20.2667 55.5Z" fill="#338F7E"/>
<path d="M6.69995 67.8334C6.03395 67.8334 5.99696 67.6484 3.35763 65.0091C3.24203 64.8944 3.15026 64.758 3.08765 64.6077C3.02503 64.4574 2.9928 64.2962 2.9928 64.1334C2.9928 63.9706 3.02503 63.8094 3.08765 63.6591C3.15026 63.5088 3.24203 63.3723 3.35763 63.2577L5.82429 60.791C6.05653 60.5588 6.37151 60.4283 6.69995 60.4283C7.02839 60.4283 7.34336 60.5588 7.57561 60.791C7.80785 61.0233 7.93833 61.3383 7.93833 61.6667C7.93833 61.9952 7.80785 62.3102 7.57561 62.5424L5.97229 64.1334L7.57561 65.7244C7.74954 65.8969 7.86816 66.1173 7.91635 66.3575C7.96453 66.5977 7.94013 66.8468 7.84619 67.073C7.75225 67.2993 7.59306 67.4924 7.38892 67.6278C7.18478 67.7632 6.94492 67.8348 6.69995 67.8334Z" fill="#F3F3F3"/>
<path d="M16.5667 67.8334C16.3217 67.8348 16.0818 67.7632 15.8777 67.6278C15.6736 67.4924 15.5144 67.2993 15.4204 67.073C15.3265 66.8468 15.3021 66.5977 15.3503 66.3575C15.3985 66.1173 15.5171 65.8969 15.691 65.7244L17.2943 64.1334L15.691 62.5424C15.4588 62.3102 15.3283 61.9952 15.3283 61.6667C15.3283 61.3383 15.4588 61.0233 15.691 60.791C15.9233 60.5588 16.2382 60.4283 16.5667 60.4283C16.8951 60.4283 17.2101 60.5588 17.4423 60.791L19.909 63.2577C20.0246 63.3723 20.1164 63.5088 20.179 63.6591C20.2416 63.8094 20.2738 63.9706 20.2738 64.1334C20.2738 64.2962 20.2416 64.4574 20.179 64.6077C20.1164 64.758 20.0246 64.8944 19.909 65.0091C17.2203 67.6977 17.2327 67.8334 16.5667 67.8334Z" fill="#F3F3F3"/>
<path d="M9.16664 68.7707L11.6333 58.904C11.7218 58.5977 11.9255 58.3376 12.2016 58.1782C12.4778 58.0188 12.8049 57.9726 13.1144 58.0492C13.4239 58.1258 13.6917 58.3192 13.8616 58.5889C14.0316 58.8587 14.0905 59.1838 14.026 59.496L11.5593 69.3627C11.4708 69.669 11.2671 69.9291 10.991 70.0885C10.7148 70.2479 10.3877 70.2941 10.0782 70.2175C9.76875 70.1409 9.50093 69.9475 9.33097 69.6778C9.16101 69.408 9.10211 69.0829 9.16664 68.7707Z" fill="#F3F3F3"/>
<path d="M67.1333 16.0334C66.455 16.0334 66.603 16.0334 62.5577 11.9757C62.3254 11.7435 62.1949 11.4285 62.1949 11.1C62.1949 10.7716 62.3254 10.4566 62.5577 10.2243C62.7899 9.99209 63.1049 9.86165 63.4333 9.86165C63.7618 9.86165 64.0767 9.99209 64.309 10.2243L67.047 12.9747L72.3503 6.61067C72.5597 6.35881 72.8605 6.20045 73.1866 6.17038C73.5127 6.14031 73.8375 6.24099 74.0893 6.45034C74.3412 6.65968 74.4996 6.96053 74.5296 7.28666C74.5597 7.61279 74.459 7.93751 74.2496 8.18938C67.6636 16.0334 67.935 16.0334 67.1333 16.0334Z" fill="#FDFDFD"/>
</g>
<defs>
<clipPath id="clip0_2918_1583">
<rect width="78.9333" height="74" fill="white" transform="translate(0.533325)"/>
</clipPath>
</defs>
</svg>
