<svg width="91" height="90" viewBox="0 0 91 90" fill="none" xmlns="http://www.w3.org/2000/svg">
<g clip-path="url(#clip0_2918_4838)">
<path d="M90.2048 31.4676L76.1423 13.1807C75.6079 12.4914 74.4548 12.4914 73.9204 13.1807L59.8579 31.4676C59.1267 32.4242 59.8298 33.7324 60.9688 33.7324H66.5938V68.8996C66.5938 69.6733 67.2267 70.3063 68.0001 70.3063H82.0626C82.836 70.3063 83.4689 69.6733 83.4689 68.8996V33.7324H89.0939C90.2189 33.7324 90.936 32.4242 90.2048 31.4676Z" fill="#68B8B8"/>
<path d="M60.6735 18.8075L46.611 0.520498C46.0767 -0.168779 44.9235 -0.168779 44.3892 0.520498L30.3267 18.8075C29.5954 19.764 30.2985 21.0722 31.4376 21.0722H37.0626V52.0194C37.0626 52.7931 37.6954 53.4261 38.4689 53.4261H52.5314C53.3048 53.4261 53.9376 52.7931 53.9376 52.0194V21.0722H59.5626C60.6876 21.0722 61.4048 19.764 60.6735 18.8075Z" fill="#00BEBD"/>
<path d="M53.9375 33.7325V52.0194C53.9375 52.7931 53.3047 53.4261 52.5312 53.4261H38.4688C37.6953 53.4261 37.0625 52.7931 37.0625 52.0194V35.1251C37.0625 35.1251 37.0766 35.111 37.0906 35.111L37.0625 33.7325C37.0625 30.6237 39.5797 28.1057 42.6875 28.1057H48.3125C51.4203 28.1057 53.9375 30.6237 53.9375 33.7325Z" fill="#00AAA8"/>
<path d="M77.8438 57.6462V63.2729C77.8438 66.3817 75.3266 68.8997 72.2188 68.8997H70.8125C70.6578 69.3639 70.4891 69.8422 70.3062 70.3064H68C67.2266 70.3064 66.5938 69.6734 66.5938 68.8997V35.8003L70.3625 39.5702C72.5563 41.7647 72.5563 45.3376 70.3625 47.5321L69.3641 48.5168C69.9406 49.6421 70.4328 50.8378 70.8406 52.0476L72.2188 52.0194C75.3266 52.0194 77.8438 54.5374 77.8438 57.6462Z" fill="#50D9D7"/>
<path d="M75.0312 57.6462V63.2729C75.0312 64.8203 73.7656 66.0863 72.2188 66.0863H70.8125C69.6172 66.0863 68.5484 66.8459 68.1687 67.9853C67.8031 69.0826 67.3672 70.1516 66.8469 71.1645C66.3125 72.2335 66.5234 73.5418 67.3813 74.3858L68.3656 75.3845C69.4625 76.4817 69.4625 78.2542 68.3656 79.3655L64.4 83.3323C63.2891 84.4295 61.5172 84.4295 60.4203 83.3323L59.4219 82.3476C58.5781 81.4896 57.2703 81.2786 56.2016 81.8131C55.1891 82.3336 54.1203 82.7696 53.0234 83.1354C51.8844 83.5152 51.125 84.5843 51.125 85.78V87.1866C51.125 88.734 49.8594 90 48.3125 90H42.6875C41.1406 90 39.875 88.734 39.875 87.1866V85.78C39.875 84.5843 39.1156 83.5152 37.9766 83.1354C36.8797 82.7696 35.8109 82.3336 34.7984 81.8131C33.7297 81.2786 32.4219 81.4896 31.5781 82.3476L30.5797 83.3323C29.6656 84.2467 28.2875 84.4014 27.2188 83.7825C26.7406 83.5433 26.8812 83.6137 22.6344 79.3655C21.5375 78.2542 21.5375 76.4817 22.6344 75.3845L23.6188 74.3858C24.4766 73.5418 24.6875 72.2335 24.1531 71.1645C23.6328 70.1516 23.1969 69.0826 22.8313 67.9853C22.4516 66.8459 21.3828 66.0863 20.1875 66.0863H18.7812C17.2344 66.0863 15.9688 64.8203 15.9688 63.2729V57.6462C15.9688 56.0988 17.2344 54.8328 18.7812 54.8328H20.1875C21.3828 54.8328 22.4516 54.0732 22.8313 52.9338C23.1969 51.8365 23.6328 50.7675 24.1531 49.7546C24.6875 48.6856 24.4766 47.3773 23.6188 46.5333L22.6344 45.5346C21.5375 44.4374 21.5375 42.6649 22.6344 41.5536L26.6 37.5868C27.6828 36.5458 29.4406 36.4474 30.5797 37.5868L31.5781 38.5715C32.4219 39.4295 33.7297 39.6405 34.7984 39.106C35.8109 38.5855 36.8797 38.1495 37.9766 37.7837C39.1156 37.4039 39.875 36.3348 39.875 35.1391V33.7324C39.875 32.1851 41.1406 30.9191 42.6875 30.9191H48.3125C49.8594 30.9191 51.125 32.1851 51.125 33.7324V35.1391C51.125 36.3348 51.8844 37.4039 53.0234 37.7837C54.1203 38.1495 55.1891 38.5855 56.2016 39.106C57.2703 39.6405 58.5781 39.4295 59.4219 38.5715L60.4203 37.5868C61.5172 36.4896 63.2891 36.4896 64.4 37.5868L68.3656 41.5536C69.4625 42.6649 69.4625 44.4374 68.3656 45.5346L67.3813 46.5333C66.5234 47.3773 66.3125 48.6856 66.8469 49.7546C67.3672 50.7675 67.8031 51.8365 68.1687 52.9338C68.5484 54.0732 69.6172 54.8328 70.8125 54.8328H72.2188C73.7656 54.8328 75.0312 56.0988 75.0312 57.6462Z" fill="#1FD9CA"/>
<path d="M62.375 60.4595C62.375 69.7859 54.8234 77.3398 45.5 77.3398C36.1766 77.3398 28.625 69.7859 28.625 60.4595C28.625 55.6768 30.6359 51.2879 33.8 48.2916C33.8 48.2776 33.8141 48.2776 33.8141 48.2635C44.4453 38.0791 62.375 45.5627 62.375 60.4595Z" fill="white"/>
<path d="M33.8141 48.2635C33.8141 48.2635 33.8 48.2776 33.8 48.2916C33.2656 48.798 32.7734 49.3467 32.3094 49.9234C30.9734 50.8096 29.9187 50.6127 27.2188 50.6127V83.7824C26.7406 83.5433 26.8812 83.6136 22.6344 79.3654C21.5375 78.2541 21.5375 76.4817 22.6344 75.3845L23.6188 74.3857C24.4766 73.5417 24.6875 72.2335 24.1531 71.1644C23.6328 70.1516 23.1969 69.0825 22.8313 67.9853C22.4516 66.8459 21.3828 66.0863 20.1875 66.0863H18.7812C17.2344 66.0863 15.9688 64.8202 15.9688 63.2729V57.6461C15.9688 56.0988 17.2344 54.8327 18.7812 54.8327H20.1875C21.3828 54.8327 22.4516 54.0731 22.8313 52.9337C23.1969 51.8365 23.6328 50.7674 24.1531 49.7546C24.6875 48.6855 24.4766 47.3773 23.6188 46.5333L22.6344 45.5345C21.5375 44.4373 21.5375 42.6649 22.6344 41.5536C26.7688 37.4179 26.9094 37.0522 28.0062 36.8412L33.3781 43.8184C34.3625 45.0985 34.5312 46.8006 33.8141 48.2635Z" fill="#30B4A9"/>
<path d="M33.8002 48.2916C33.4627 48.9668 32.9424 49.5295 32.3096 49.9234C32.7736 49.3466 33.2658 48.798 33.8002 48.2916Z" fill="#F3F3F3"/>
<path d="M22.9998 90H8.93731C8.16388 90 7.53106 89.367 7.53106 88.5933V47.7993H1.90606C0.738877 47.7993 0.077939 46.4629 0.795126 45.5345L14.8576 27.2475C15.392 26.5583 16.5592 26.5583 17.0795 27.2475L31.142 45.5345C31.8451 46.4629 31.1982 47.7993 30.0311 47.7993H24.4061V88.5933C24.4061 89.367 23.7733 90 22.9998 90Z" fill="#93E6E5"/>
<path d="M45.5 74.5264C53.2665 74.5264 59.5625 68.2284 59.5625 60.4595C59.5625 52.6905 53.2665 46.3926 45.5 46.3926C37.7335 46.3926 31.4375 52.6905 31.4375 60.4595C31.4375 68.2284 37.7335 74.5264 45.5 74.5264Z" fill="#F3A31D"/>
<path d="M45.2047 58.783C43.3484 58.783 43.3484 55.9705 45.2047 55.9705H48.0172C49.8734 55.9705 49.8734 53.158 48.0172 53.158H46.6109C46.6109 51.3721 43.7984 51.1049 43.7984 53.4111C39.3266 55.0143 40.5219 61.5955 45.2047 61.5955C47.0609 61.5955 47.0609 64.408 45.2047 64.408H42.3922C40.5359 64.408 40.5359 67.2205 42.3922 67.2205H43.7984C43.7984 68.9643 46.6109 69.3158 46.6109 66.9674C51.0828 65.3643 49.8875 58.783 45.2047 58.783Z" fill="#FCFCFC"/>
</g>
<defs>
<clipPath id="clip0_2918_4838">
<rect width="90" height="90" fill="white" transform="translate(0.5)"/>
</clipPath>
</defs>
</svg>
