<svg width="49" height="55" viewBox="0 0 49 55" fill="none" xmlns="http://www.w3.org/2000/svg">
<g clip-path="url(#clip0_641_10597)">
<path d="M22.0615 9.927C22.0591 9.77708 22.0142 9.63092 21.932 9.50548C21.8499 9.38003 21.7339 9.28044 21.5975 9.21825C21.319 9.08325 22.1121 9.08325 11.9365 9.08325C11.7127 9.08325 11.4981 9.17215 11.3399 9.33038C11.1817 9.48861 11.0928 9.70323 11.0928 9.927C11.0928 10.1508 11.1817 10.3654 11.3399 10.5236C11.4981 10.6819 11.7127 10.7708 11.9365 10.7708H19.1843L17.2437 12.7029C17.165 12.7816 17.1026 12.875 17.0601 12.9778C17.0175 13.0806 16.9956 13.1907 16.9956 13.302C16.9956 13.5267 17.0848 13.7422 17.2437 13.9011C17.4026 14.0599 17.6181 14.1492 17.8428 14.1492C17.954 14.1492 18.0642 14.1273 18.167 14.0847C18.2698 14.0421 18.3632 13.9797 18.4418 13.9011L20.374 11.9604V18.3645C20.374 18.5883 20.4629 18.8029 20.6212 18.9611C20.7794 19.1194 20.994 19.2083 21.2178 19.2083C21.4416 19.2083 21.6562 19.1194 21.8144 18.9611C21.9726 18.8029 22.0615 18.5883 22.0615 18.3645C22.0615 10.8889 22.0615 10.1548 22.0615 9.927Z" fill="#68B8A5"/>
<path d="M48.2178 28.4895H0.967773V31.8645H48.2178V28.4895Z" fill="#338F7E"/>
<path d="M45.6865 31.8645H3.49902V54.6458H45.6865V31.8645Z" fill="#68B8A5"/>
<path d="M17.8428 41.1458H31.3428C31.7903 41.1458 32.2196 41.3235 32.536 41.64C32.8525 41.9565 33.0303 42.3857 33.0303 42.8333V54.6458H16.1553V42.8333C16.1553 42.3857 16.3331 41.9565 16.6495 41.64C16.966 41.3235 17.3952 41.1458 17.8428 41.1458Z" fill="#D6F0EA"/>
<path d="M25.4365 41.1458H23.749V54.6458H25.4365V41.1458Z" fill="#68B8A5"/>
<path d="M14.4678 27.6458V28.4895H6.03027V27.6458L7.71777 25.1145H12.7803L14.4678 27.6458Z" fill="#68B8A5"/>
<path d="M11.9365 20.8958H8.56152V25.1145H11.9365V20.8958Z" fill="#68B8A5"/>
<path d="M25.5968 21.056C18.7371 27.9157 6.87402 23.081 6.87402 13.3019C6.87509 10.3932 8.03143 7.60407 10.0887 5.54785L25.5968 21.056Z" fill="#338F7E"/>
<path d="M10.249 23.427C11.647 23.427 12.7803 22.2937 12.7803 20.8958C12.7803 19.4978 11.647 18.3645 10.249 18.3645C8.85105 18.3645 7.71777 19.4978 7.71777 20.8958C7.71777 22.2937 8.85105 23.427 10.249 23.427Z" fill="#68B8A5"/>
<path d="M21.2178 12.4583C22.6157 12.4583 23.749 11.325 23.749 9.927C23.749 8.52903 22.6157 7.39575 21.2178 7.39575C19.8198 7.39575 18.6865 8.52903 18.6865 9.927C18.6865 11.325 19.8198 12.4583 21.2178 12.4583Z" fill="#68B8A5"/>
<path d="M25.4365 9.927C25.4365 8.80812 24.992 7.73506 24.2009 6.9439C23.4097 6.15273 22.3367 5.70825 21.2178 5.70825C20.994 5.70825 20.7794 5.61936 20.6212 5.46112C20.4629 5.30289 20.374 5.08828 20.374 4.8645C20.374 4.64073 20.4629 4.42611 20.6212 4.26788C20.7794 4.10965 20.994 4.02075 21.2178 4.02075C22.7842 4.02075 24.2865 4.64302 25.3941 5.75065C26.5018 6.85829 27.124 8.36057 27.124 9.927C27.124 10.1508 27.0351 10.3654 26.8769 10.5236C26.7187 10.6819 26.504 10.7708 26.2803 10.7708C26.0565 10.7708 25.8419 10.6819 25.6837 10.5236C25.5254 10.3654 25.4365 10.1508 25.4365 9.927Z" fill="#338F7E"/>
<path d="M28.8115 9.927C28.8115 7.91301 28.0115 5.98151 26.5874 4.55741C25.1633 3.13331 23.2318 2.33325 21.2178 2.33325C20.994 2.33325 20.7794 2.24436 20.6212 2.08612C20.4629 1.92789 20.374 1.71328 20.374 1.4895C20.374 1.26573 20.4629 1.05111 20.6212 0.892881C20.7794 0.734647 20.994 0.645752 21.2178 0.645752C23.6793 0.645752 26.04 1.6236 27.7806 3.36417C29.5212 5.10474 30.499 7.46546 30.499 9.927C30.499 10.1508 30.4101 10.3654 30.2519 10.5236C30.0937 10.6819 29.8791 10.7708 29.6553 10.7708C29.4315 10.7708 29.2169 10.6819 29.0587 10.5236C28.9004 10.3654 28.8115 10.1508 28.8115 9.927Z" fill="#68B8A5"/>
<path d="M11.0928 20.8958C11.0928 20.672 11.0039 20.4574 10.8456 20.2991C10.6874 20.1409 10.4728 20.052 10.249 20.052C10.0252 20.052 9.81064 20.1409 9.6524 20.2991C9.49417 20.4574 9.40527 20.672 9.40527 20.8958C9.40527 21.1195 9.49417 21.3341 9.6524 21.4924C9.81064 21.6506 10.0252 21.7395 10.249 21.7395C10.4728 21.7395 10.6874 21.6506 10.8456 21.4924C11.0039 21.3341 11.0928 21.1195 11.0928 20.8958Z" fill="#F3F3F3"/>
<path d="M40.624 35.2395H37.249C36.317 35.2395 35.5615 35.995 35.5615 36.927V40.302C35.5615 41.234 36.317 41.9895 37.249 41.9895H40.624C41.556 41.9895 42.3115 41.234 42.3115 40.302V36.927C42.3115 35.995 41.556 35.2395 40.624 35.2395Z" fill="#F3F3F3"/>
<path d="M11.9365 35.2395H8.56152C7.62954 35.2395 6.87402 35.995 6.87402 36.927V40.302C6.87402 41.234 7.62954 41.9895 8.56152 41.9895H11.9365C12.8685 41.9895 13.624 41.234 13.624 40.302V36.927C13.624 35.995 12.8685 35.2395 11.9365 35.2395Z" fill="#F3F3F3"/>
</g>
<defs>
<clipPath id="clip0_641_10597">
<rect width="47.25" height="54" fill="white" transform="translate(0.967773 0.645752)"/>
</clipPath>
</defs>
</svg>
