<svg width="70" height="75" viewBox="0 0 70 75" fill="none" xmlns="http://www.w3.org/2000/svg">
<path d="M68.5313 32.875H6.09375V62.9375H68.5313V32.875Z" fill="#1FD9CA"/>
<path d="M68.7741 33.0716L37.3125 39.8125L5.85094 33.0716C5.31906 32.9559 4.9375 32.4819 4.9375 31.9384V13.2188C4.9375 12.5828 5.45781 12.0625 6.09375 12.0625H68.5313C69.1672 12.0625 69.6875 12.5828 69.6875 13.2188V31.9384C69.6875 32.4819 69.306 32.9559 68.7741 33.0716Z" fill="#00BEBD"/>
<path d="M39.625 34.0312H35C33.7228 34.0312 32.6875 35.0666 32.6875 36.3438V43.2812C32.6875 44.5584 33.7228 45.5938 35 45.5938H39.625C40.9022 45.5938 41.9375 44.5584 41.9375 43.2812V36.3438C41.9375 35.0666 40.9022 34.0312 39.625 34.0312Z" fill="#CD8A1B"/>
<path d="M53.5 11.6463V12.0625H48.875C48.2391 12.0625 47.7188 11.5422 47.7188 10.9062V7.4375C47.7188 4.88219 45.6491 2.8125 43.0938 2.8125H31.5313C28.9759 2.8125 26.9063 4.88219 26.9063 7.4375V10.9062C26.9063 11.5422 26.3859 12.0625 25.75 12.0625H21.125C21.125 11.1259 21.8534 9.75 23.4375 9.75H24.5938V7.4375C24.5938 3.61031 27.7041 0.5 31.5313 0.5H43.0938C46.9209 0.5 50.0313 3.61031 50.0313 7.4375V9.75H51.6038C52.6444 9.75 53.5 10.5941 53.5 11.6463Z" fill="#CD8A1B"/>
<path d="M39.625 53.6875V62.9375H6.09375V49.0625H35C37.5553 49.0625 39.625 51.1322 39.625 53.6875Z" fill="#00BEBD"/>
<path d="M35 51.375H2.625C1.34784 51.375 0.3125 52.4103 0.3125 53.6875V72.1875C0.3125 73.4647 1.34784 74.5 2.625 74.5H35C36.2772 74.5 37.3125 73.4647 37.3125 72.1875V53.6875C37.3125 52.4103 36.2772 51.375 35 51.375Z" fill="#AEECEC"/>
<path d="M35 53.6875H2.625V72.1875H35V53.6875Z" fill="#1FD9CA"/>
<path d="M18.8125 69.875C22.0054 69.875 24.5938 66.769 24.5938 62.9375C24.5938 59.106 22.0054 56 18.8125 56C15.6196 56 13.0312 59.106 13.0312 62.9375C13.0312 66.769 15.6196 69.875 18.8125 69.875Z" fill="#AEECEC"/>
<path d="M31.5314 64.0938H29.2189C27.6927 64.0938 27.6927 61.7812 29.2189 61.7812H31.5314C33.0577 61.7812 33.0577 64.0938 31.5314 64.0938Z" fill="#AEECEC"/>
<path d="M8.40608 64.0938H6.09358C4.5442 64.0938 4.60202 61.7812 6.09358 61.7812H8.40608C9.95546 61.7812 9.89764 64.0938 8.40608 64.0938Z" fill="#AEECEC"/>
<path d="M60.4373 71.0312V73.3438C60.4373 73.9797 59.9864 74.5 59.4198 74.5H45.2558C44.7008 74.5 44.2383 73.9797 44.2383 73.3438V71.0312C44.2383 70.3953 44.6892 69.875 45.2558 69.875H59.4198C59.9748 69.875 60.4373 70.3953 60.4373 71.0312Z" fill="#FFAC00"/>
<path d="M60.4373 66.4062V68.7188C60.4373 69.3547 59.9864 69.875 59.4198 69.875H45.2558C44.7008 69.875 44.2383 69.3547 44.2383 68.7188V66.4062C44.2383 65.7703 44.6892 65.25 45.2558 65.25H59.4198C59.9748 65.25 60.4373 65.7703 60.4373 66.4062Z" fill="#F3A31D"/>
<path d="M37.3123 62.9375V72.1875C37.3123 73.4594 36.2717 74.5 34.9998 74.5H25.9463C25.692 73.7947 25.7498 73.2859 25.7498 72.1875H34.9998V62.9375H37.3123Z" fill="#1FD9CA"/>
<path d="M34.9994 62.9375V72.1875H25.7494C25.7494 71.0659 25.7031 70.5572 25.9459 69.875C25.68 69.1234 25.7494 68.6378 25.7494 66.4062C25.7494 64.8569 26.7322 63.5387 28.0734 63.0994C28.1544 63.6659 28.64 64.0938 29.2181 64.0938H31.5306C32.1666 64.0938 32.6869 63.5734 32.6869 62.9375H34.9994Z" fill="#00BEBD"/>
<path d="M44.2498 71.0312V73.3438C44.2498 73.9797 43.7989 74.5 43.2323 74.5H29.0683C28.5133 74.5 28.0508 73.9797 28.0508 73.3438V71.0312C28.0508 70.3953 28.5017 69.875 29.0683 69.875H43.2323C43.7873 69.875 44.2498 70.3953 44.2498 71.0312Z" fill="#F3A31D"/>
<path d="M32.6877 62.9375C32.6877 63.5734 32.1673 64.0937 31.5314 64.0937H29.2189C28.6408 64.0937 28.1552 63.6659 28.0742 63.0994C28.7795 62.8681 29.1611 62.9375 32.6877 62.9375Z" fill="#1FD9CA"/>
<path d="M62.75 61.7812V62.9375H41.9375V61.7812C41.9375 59.8734 43.4291 58.3125 45.2675 58.3125H59.42C61.2584 58.3125 62.75 59.8734 62.75 61.7812Z" fill="#00BEBD"/>
<path d="M60.4373 61.7812V64.0938C60.4373 64.7297 59.9864 65.25 59.4198 65.25H45.2558C44.7008 65.25 44.2383 64.7297 44.2383 64.0938V61.7812C44.2383 61.1453 44.6892 60.625 45.2558 60.625H59.4198C59.9748 60.625 60.4373 61.1453 60.4373 61.7812Z" fill="#CD8A1B"/>
<path d="M44.2498 66.4062V68.7188C44.2498 69.3547 43.7989 69.875 43.2323 69.875H29.0683C28.5133 69.875 28.0508 69.3547 28.0508 68.7188V66.4062C28.0508 65.7703 28.5017 65.25 29.0683 65.25H43.2323C43.7873 65.25 44.2498 65.7703 44.2498 66.4062Z" fill="#CD8A1B"/>
<path d="M36.1562 40.9687V38.6562C36.1562 37.1068 38.4688 37.1646 38.4688 38.6562V40.9687C38.4688 42.5181 36.1562 42.4603 36.1562 40.9687Z" fill="#F3F3F3"/>
<path d="M23.4375 15.5312H9.5625V17.8438H23.4375V15.5312Z" fill="#1FD9CA"/>
<path d="M16.5 20.1562H9.5625V22.4688H16.5V20.1562Z" fill="#1FD9CA"/>
</svg>
