<svg width="70" height="74" viewBox="0 0 70 74" fill="none" xmlns="http://www.w3.org/2000/svg">
<path d="M68.5313 32.375H6.09375V62.4375H68.5313V32.375Z" fill="#1FD9CA"/>
<path d="M68.7741 32.5716L37.3125 39.3125L5.85094 32.5716C5.31906 32.4559 4.9375 31.9819 4.9375 31.4384V12.7188C4.9375 12.0828 5.45781 11.5625 6.09375 11.5625H68.5313C69.1672 11.5625 69.6875 12.0828 69.6875 12.7188V31.4384C69.6875 31.9819 69.306 32.4559 68.7741 32.5716Z" fill="#028585"/>
<path d="M39.625 33.5312H35C33.7228 33.5312 32.6875 34.5666 32.6875 35.8438V42.7812C32.6875 44.0584 33.7228 45.0938 35 45.0938H39.625C40.9022 45.0938 41.9375 44.0584 41.9375 42.7812V35.8438C41.9375 34.5666 40.9022 33.5312 39.625 33.5312Z" fill="#028585"/>
<path d="M53.5 11.1463V11.5625H48.875C48.2391 11.5625 47.7188 11.0422 47.7188 10.4062V6.9375C47.7188 4.38219 45.6491 2.3125 43.0938 2.3125H31.5313C28.9759 2.3125 26.9063 4.38219 26.9063 6.9375V10.4062C26.9063 11.0422 26.3859 11.5625 25.75 11.5625H21.125C21.125 10.6259 21.8534 9.25 23.4375 9.25H24.5938V6.9375C24.5938 3.11031 27.7041 0 31.5313 0H43.0938C46.9209 0 50.0313 3.11031 50.0313 6.9375V9.25H51.6038C52.6444 9.25 53.5 10.0941 53.5 11.1463Z" fill="#00BEBD"/>
<path d="M39.625 53.1875V62.4375H6.09375V48.5625H35C37.5553 48.5625 39.625 50.6322 39.625 53.1875Z" fill="#00BEBD"/>
<path d="M35 50.875H2.625C1.34784 50.875 0.3125 51.9103 0.3125 53.1875V71.6875C0.3125 72.9647 1.34784 74 2.625 74H35C36.2772 74 37.3125 72.9647 37.3125 71.6875V53.1875C37.3125 51.9103 36.2772 50.875 35 50.875Z" fill="#AEECEC"/>
<path d="M35 53.1875H2.625V71.6875H35V53.1875Z" fill="#1FD9CA"/>
<path d="M18.8125 69.375C22.0054 69.375 24.5938 66.269 24.5938 62.4375C24.5938 58.606 22.0054 55.5 18.8125 55.5C15.6196 55.5 13.0312 58.606 13.0312 62.4375C13.0312 66.269 15.6196 69.375 18.8125 69.375Z" fill="#AEECEC"/>
<path d="M31.5314 63.5938H29.2189C27.6927 63.5938 27.6927 61.2812 29.2189 61.2812H31.5314C33.0577 61.2812 33.0577 63.5938 31.5314 63.5938Z" fill="#AEECEC"/>
<path d="M8.40608 63.5938H6.09358C4.5442 63.5938 4.60202 61.2812 6.09358 61.2812H8.40608C9.95546 61.2812 9.89764 63.5938 8.40608 63.5938Z" fill="#AEECEC"/>
<path d="M60.4373 70.5312V72.8438C60.4373 73.4797 59.9864 74 59.4198 74H45.2558C44.7008 74 44.2383 73.4797 44.2383 72.8438V70.5312C44.2383 69.8953 44.6892 69.375 45.2558 69.375H59.4198C59.9748 69.375 60.4373 69.8953 60.4373 70.5312Z" fill="#50D9D7"/>
<path d="M60.4373 65.9062V68.2188C60.4373 68.8547 59.9864 69.375 59.4198 69.375H45.2558C44.7008 69.375 44.2383 68.8547 44.2383 68.2188V65.9062C44.2383 65.2703 44.6892 64.75 45.2558 64.75H59.4198C59.9748 64.75 60.4373 65.2703 60.4373 65.9062Z" fill="#338F8A"/>
<path d="M37.3123 62.4375V71.6875C37.3123 72.9594 36.2717 74 34.9998 74H25.9463C25.692 73.2947 25.7498 72.7859 25.7498 71.6875H34.9998V62.4375H37.3123Z" fill="#1FD9CA"/>
<path d="M34.9994 62.4375V71.6875H25.7494C25.7494 70.5659 25.7031 70.0572 25.9459 69.375C25.68 68.6234 25.7494 68.1378 25.7494 65.9062C25.7494 64.3569 26.7322 63.0387 28.0734 62.5994C28.1544 63.1659 28.64 63.5938 29.2181 63.5938H31.5306C32.1666 63.5938 32.6869 63.0734 32.6869 62.4375H34.9994Z" fill="#5AE7DB"/>
<path d="M44.2498 70.5312V72.8438C44.2498 73.4797 43.7989 74 43.2323 74H29.0683C28.5133 74 28.0508 73.4797 28.0508 72.8438V70.5312C28.0508 69.8953 28.5017 69.375 29.0683 69.375H43.2323C43.7873 69.375 44.2498 69.8953 44.2498 70.5312Z" fill="#338F8A"/>
<path d="M32.6877 62.4375C32.6877 63.0734 32.1673 63.5938 31.5314 63.5938H29.2189C28.6408 63.5938 28.1552 63.1659 28.0742 62.5994C28.7795 62.3681 29.1611 62.4375 32.6877 62.4375Z" fill="#1FD9CA"/>
<path d="M62.75 61.2812V62.4375H41.9375V61.2812C41.9375 59.3734 43.4291 57.8125 45.2675 57.8125H59.42C61.2584 57.8125 62.75 59.3734 62.75 61.2812Z" fill="#AEF6F6"/>
<path d="M60.4373 61.2812V63.5938C60.4373 64.2297 59.9864 64.75 59.4198 64.75H45.2558C44.7008 64.75 44.2383 64.2297 44.2383 63.5938V61.2812C44.2383 60.6453 44.6892 60.125 45.2558 60.125H59.4198C59.9748 60.125 60.4373 60.6453 60.4373 61.2812Z" fill="#00BEBD"/>
<path d="M44.2498 65.9062V68.2188C44.2498 68.8547 43.7989 69.375 43.2323 69.375H29.0683C28.5133 69.375 28.0508 68.8547 28.0508 68.2188V65.9062C28.0508 65.2703 28.5017 64.75 29.0683 64.75H43.2323C43.7873 64.75 44.2498 65.2703 44.2498 65.9062Z" fill="#00BEBD"/>
<path d="M36.1562 40.4687V38.1562C36.1562 36.6068 38.4688 36.6646 38.4688 38.1562V40.4687C38.4688 42.018 36.1562 41.9602 36.1562 40.4687Z" fill="#F3F3F3"/>
<path d="M23.4375 15.0312H9.5625V17.3438H23.4375V15.0312Z" fill="#1FD9CA"/>
<path d="M16.5 19.6562H9.5625V21.9688H16.5V19.6562Z" fill="#1FD9CA"/>
</svg>
