<svg width="42" height="83" viewBox="0 0 42 83" fill="none" xmlns="http://www.w3.org/2000/svg">
<g clip-path="url(#clip0_2948_334)">
<path d="M41.0254 26.4863L26.9462 11.1938C26.4674 10.662 25.7686 10.3637 25.0439 10.3637C16.5032 10.3637 16.0633 10.0913 15.0668 11.1938C1.8029 25.5913 4.9733 22.1541 0.987649 26.4863C-0.0217058 27.5499 0.301805 23.957 0.301805 80.4058C0.301805 81.8326 1.46645 83 2.88989 83H39.1231C40.5466 83 41.7112 81.8326 41.7112 80.4058C41.7112 23.4252 42.0089 27.524 41.0254 26.4863ZM21.0065 22.0374C18.8584 22.0374 17.1244 20.2993 17.1244 18.1461C17.1244 15.993 18.8584 14.2549 21.0065 14.2549C23.1546 14.2549 24.8886 15.993 24.8886 18.1461C24.8886 20.2993 23.1546 22.0374 21.0065 22.0374Z" fill="#50D9D7"/>
<path d="M19.7124 18.1461V1.28412C19.7124 -0.453965 22.3005 -0.389111 22.3005 1.28412V18.1461C22.3005 19.8842 19.7124 19.8194 19.7124 18.1461Z" fill="#FFAC00"/>
<path d="M37.8292 53.1672H4.18408V55.7614H37.8292V53.1672Z" fill="#1FD9CA"/>
<path d="M37.8292 53.1672H4.18408V55.7614H37.8292V53.1672Z" fill="black" fill-opacity="0.2"/>
<path d="M35.2409 58.3555H6.77197V60.9496H35.2409V58.3555Z" fill="#1FD9CA"/>
<path d="M35.2409 58.3555H6.77197V60.9496H35.2409V58.3555Z" fill="black" fill-opacity="0.2"/>
<path d="M32.6527 63.5438H9.35986V66.138H32.6527V63.5438Z" fill="#1FD9CA"/>
<path d="M32.6527 63.5438H9.35986V66.138H32.6527V63.5438Z" fill="black" fill-opacity="0.2"/>
<path d="M28.7707 68.7322H13.2422V71.3263H28.7707V68.7322Z" fill="#1FD9CA"/>
<path d="M28.7707 68.7322H13.2422V71.3263H28.7707V68.7322Z" fill="black" fill-opacity="0.2"/>
<path d="M10.6542 79.1088H5.47803C3.74401 79.1088 3.80871 76.5146 5.47803 76.5146H10.6542C12.3882 76.5146 12.3235 79.1088 10.6542 79.1088Z" fill="#F3F3F3"/>
<path d="M18.4182 79.1088H15.8301C14.0961 79.1088 14.1608 76.5146 15.8301 76.5146H18.4182C20.1522 76.5146 20.0875 79.1088 18.4182 79.1088Z" fill="#F3F3F3"/>
<path d="M35.2409 29.8199H32.6528C30.9188 29.8199 30.9835 27.2257 32.6528 27.2257H35.2409C36.9749 27.2257 36.9102 29.8199 35.2409 29.8199Z" fill="#F3F3F3"/>
<path d="M6.60352 34.9822H12.9832V36.9278H8.95868V39.3274H12.7114V41.26H8.95868V45.4755H6.60352V34.9951V34.9822Z" fill="#F3F3F3"/>
<path d="M14.3811 40.365C14.3811 39.2495 14.3682 38.5102 14.3164 37.8616H16.3351L16.4257 39.2625H16.4904C16.8786 38.147 17.7974 37.6801 18.535 37.6801C18.755 37.6801 18.8585 37.693 19.0267 37.7319V39.9499C18.8456 39.924 18.6515 39.8851 18.3926 39.8851C17.5256 39.8851 16.9304 40.352 16.7751 41.0784C16.7492 41.234 16.7233 41.4156 16.7233 41.6102V45.4625H14.3682V40.365H14.3811Z" fill="#F3F3F3"/>
<path d="M21.977 42.4145C22.0417 43.4003 23.0122 43.8672 24.1251 43.8672C24.9274 43.8672 25.5874 43.7634 26.2214 43.5429L26.532 45.1513C25.7556 45.4756 24.8109 45.6312 23.7886 45.6312C21.2135 45.6312 19.7383 44.1396 19.7383 41.753C19.7383 39.8203 20.9288 37.6931 23.5687 37.6931C26.0144 37.6931 26.9461 39.6128 26.9461 41.4936C26.9461 41.8956 26.8943 42.2588 26.8685 42.4274H21.977V42.4145ZM24.7592 40.7931C24.7592 40.2224 24.5133 39.2496 23.4263 39.2496C22.4299 39.2496 22.0287 40.1705 21.964 40.7931H24.7592Z" fill="#F3F3F3"/>
<path d="M30.1684 42.4145C30.2331 43.4003 31.2036 43.8672 32.3165 43.8672C33.1188 43.8672 33.7788 43.7634 34.4128 43.5429L34.7234 45.1513C33.947 45.4756 33.0023 45.6312 31.98 45.6312C29.4049 45.6312 27.9297 44.1396 27.9297 41.753C27.9297 39.8203 29.1202 37.6931 31.7601 37.6931C34.2058 37.6931 35.1375 39.6128 35.1375 41.4936C35.1375 41.8956 35.0858 42.2588 35.0599 42.4274H30.1684V42.4145ZM32.9506 40.7931C32.9506 40.2224 32.7047 39.2496 31.6177 39.2496C30.6213 39.2496 30.2201 40.1705 30.1554 40.7931H32.9506Z" fill="#F3F3F3"/>
</g>
<defs>
<clipPath id="clip0_2948_334">
<rect width="41.5" height="83" fill="white" transform="translate(0.25)"/>
</clipPath>
</defs>
</svg>
