<svg width="119" height="90" viewBox="0 0 119 90" fill="none" xmlns="http://www.w3.org/2000/svg">
<g clip-path="url(#clip0_2918_4711)">
<path d="M114.969 5.625V78.75H4.03125V5.625C4.03125 4.13316 4.61565 2.70242 5.65589 1.64752C6.69613 0.592632 8.107 0 9.57812 0H109.422C110.893 0 112.304 0.592632 113.344 1.64752C114.384 2.70242 114.969 4.13316 114.969 5.625Z" fill="#338F8A"/>
<path d="M2.18245 78.75H116.818C117.308 78.75 117.779 78.9475 118.125 79.2992C118.472 79.6508 118.667 80.1277 118.667 80.625V84.375C118.667 85.8668 118.082 87.2976 117.042 88.3525C116.002 89.4074 114.591 90 113.12 90H5.88037C4.40925 90 2.99838 89.4074 1.95814 88.3525C0.917897 87.2976 0.333496 85.8668 0.333496 84.375L0.333496 80.625C0.333496 80.1277 0.528297 79.6508 0.875044 79.2992C1.22179 78.9475 1.69208 78.75 2.18245 78.75Z" fill="#1FD9CA"/>
<path d="M111.271 5.625V75H7.72949V5.625C7.72949 5.12772 7.92429 4.65081 8.27104 4.29918C8.61779 3.94754 9.08808 3.75 9.57845 3.75H109.422C109.913 3.75 110.383 3.94754 110.73 4.29918C111.076 4.65081 111.271 5.12772 111.271 5.625Z" fill="#FCFCFC"/>
<path d="M72.4429 82.5H46.5574C45.5767 82.5 44.6361 82.1049 43.9426 81.4016C43.2491 80.6984 42.8595 79.7445 42.8595 78.75C42.8595 78.5625 41.3064 78.75 76.1408 78.75C76.1408 79.7445 75.7512 80.6984 75.0577 81.4016C74.3642 82.1049 73.4236 82.5 72.4429 82.5Z" fill="#C3F5F1"/>
<path d="M9.57845 3.75H109.422C109.913 3.75 110.383 3.94754 110.73 4.29917C111.076 4.65081 111.271 5.12772 111.271 5.625V11.25H7.72949V5.625C7.72949 5.12772 7.92429 4.65081 8.27104 4.29917C8.61779 3.94754 9.08808 3.75 9.57845 3.75Z" fill="#1FD9CA"/>
<path d="M33.6147 3.75H65.047C66.5182 3.75 67.929 4.34263 68.9693 5.39752C70.0095 6.45242 70.5939 7.88316 70.5939 9.375V11.25H33.6147V3.75Z" fill="#C3F5F1"/>
<path d="M9.57845 3.75H35.4639C36.935 3.75 38.3459 4.34263 39.3861 5.39752C40.4263 6.45242 41.0107 7.88316 41.0107 9.375V15H7.72949V5.625C7.72949 5.12772 7.92429 4.65081 8.27104 4.29917C8.61779 3.94754 9.08808 3.75 9.57845 3.75Z" fill="#FCFCFC"/>
<path d="M38.8844 47.9625C37.8558 48.5964 37.0026 49.4844 36.4044 50.5435C35.8062 51.6026 35.4826 52.7983 35.4638 54.0187V75H24.37V54.0187C24.3513 52.7983 24.0277 51.6026 23.4295 50.5435C22.8313 49.4844 21.978 48.5964 20.9495 47.9625C18.4697 46.3522 16.4556 44.1035 15.1129 41.446C13.7702 38.7884 13.147 35.8171 13.3068 32.8354C13.4665 29.8537 14.4037 26.9685 16.0225 24.4741C17.344 22.4379 19.0811 20.7217 21.1093 19.4374C21.7384 19.0391 22.5211 19.5161 22.5211 20.2607V30.4124C22.5088 30.8408 22.6415 31.2604 22.8972 31.6016C23.1529 31.9427 23.5161 32.1848 23.9263 32.2874L35.02 35.0999C35.2969 35.1695 35.5859 35.1731 35.8643 35.1106C36.1428 35.0481 36.4033 34.921 36.6253 34.7395C36.8473 34.5579 37.0249 34.3267 37.1442 34.064C37.2634 33.8012 37.3211 33.5141 37.3128 33.2249V20.2607C37.3128 19.5161 38.0954 19.0391 38.7245 19.4374C40.7527 20.7217 42.4899 22.4379 43.8113 24.4741C45.4302 26.9685 46.3673 29.8537 46.5271 32.8354C46.6869 35.8171 46.0636 38.7884 44.7209 41.446C43.3782 44.1035 41.3642 46.3522 38.8844 47.9625Z" fill="#F3A31D"/>
<path d="M59.5002 33.75C58.5018 33.75 58.4463 33.4687 54.4896 29.4562C54.1414 29.1032 53.9458 28.6243 53.9458 28.125C53.9458 27.6257 54.1414 27.1468 54.4896 26.7937C54.8377 26.4407 55.3099 26.2423 55.8023 26.2423C56.2947 26.2423 56.7669 26.4407 57.1151 26.7937L59.5002 29.2312L65.5833 23.0437C65.9315 22.6907 66.4037 22.4923 66.8961 22.4923C67.3885 22.4923 67.8607 22.6907 68.2088 23.0437C68.557 23.3968 68.7526 23.8757 68.7526 24.375C68.7526 24.8743 68.557 25.3532 68.2088 25.7062C60.1289 33.9 60.5357 33.75 59.5002 33.75Z" fill="#84C4C4"/>
<path d="M59.5002 50.625C58.5018 50.625 58.4463 50.3437 54.4896 46.3312C54.1414 45.9782 53.9458 45.4993 53.9458 45C53.9458 44.5007 54.1414 44.0218 54.4896 43.6687C54.8377 43.3157 55.3099 43.1173 55.8023 43.1173C56.2947 43.1173 56.7669 43.3157 57.1151 43.6687L59.5002 46.1062L65.5833 39.9187C65.7557 39.7439 65.9604 39.6052 66.1856 39.5106C66.4109 39.416 66.6523 39.3673 66.8961 39.3673C67.1399 39.3673 67.3813 39.416 67.6065 39.5106C67.8318 39.6052 68.0364 39.7439 68.2088 39.9187C68.3812 40.0936 68.518 40.3011 68.6113 40.5295C68.7046 40.7579 68.7526 41.0027 68.7526 41.25C68.7526 41.4972 68.7046 41.742 68.6113 41.9704C68.518 42.1989 68.3812 42.4064 68.2088 42.5812C60.1289 50.775 60.5357 50.625 59.5002 50.625Z" fill="#84C4C4"/>
<path d="M59.5002 67.5C58.5018 67.5 58.4463 67.2187 54.4896 63.2062C54.1414 62.8532 53.9458 62.3743 53.9458 61.875C53.9458 61.3757 54.1414 60.8968 54.4896 60.5437C54.8377 60.1907 55.3099 59.9923 55.8023 59.9923C56.2947 59.9923 56.7669 60.1907 57.1151 60.5437L59.5002 62.9812L65.5833 56.7937C65.9315 56.4407 66.4037 56.2423 66.8961 56.2423C67.3885 56.2423 67.8607 56.4407 68.2088 56.7937C68.557 57.1468 68.7526 57.6257 68.7526 58.125C68.7526 58.6243 68.557 59.1032 68.2088 59.4562C60.1289 67.65 60.5357 67.5 59.5002 67.5Z" fill="#84C4C4"/>
<path d="M103.849 28.125H74.3179C73.2823 28.125 72.4429 28.9645 72.4429 30C72.4429 31.0355 73.2823 31.875 74.3179 31.875H103.849C104.885 31.875 105.724 31.0355 105.724 30C105.724 28.9645 104.885 28.125 103.849 28.125Z" fill="#C3F5F1"/>
<path d="M103.849 45H74.3179C73.2823 45 72.4429 45.8395 72.4429 46.875C72.4429 47.9105 73.2823 48.75 74.3179 48.75H103.849C104.885 48.75 105.724 47.9105 105.724 46.875C105.724 45.8395 104.885 45 103.849 45Z" fill="#C3F5F1"/>
<path d="M103.849 61.875H74.3179C73.2823 61.875 72.4429 62.7145 72.4429 63.75C72.4429 64.7855 73.2823 65.625 74.3179 65.625H103.849C104.885 65.625 105.724 64.7855 105.724 63.75C105.724 62.7145 104.885 61.875 103.849 61.875Z" fill="#C3F5F1"/>
</g>
<defs>
<clipPath id="clip0_2918_4711">
<rect width="118.333" height="90" fill="white" transform="translate(0.333496)"/>
</clipPath>
</defs>
</svg>
