<svg width="51" height="40" viewBox="0 0 51 40" fill="none" xmlns="http://www.w3.org/2000/svg">
<g clip-path="url(#clip0_2932_751)">
<path d="M48.6307 3.3626V34.2605H1.75574V3.3626C1.75574 2.73224 2.00267 2.12771 2.44221 1.68198C2.88174 1.23625 3.47789 0.98584 4.09949 0.98584H46.287C46.9086 0.98584 47.5047 1.23625 47.9443 1.68198C48.3838 2.12771 48.6307 2.73224 48.6307 3.3626Z" fill="#338F8A"/>
<path d="M0.974487 34.2605H49.412C49.6192 34.2605 49.8179 34.344 49.9644 34.4925C50.1109 34.6411 50.1932 34.8426 50.1932 35.0528V36.6373C50.1932 37.2676 49.9463 37.8722 49.5068 38.3179C49.0672 38.7636 48.4711 39.014 47.8495 39.014H2.53699C1.91539 39.014 1.31924 38.7636 0.879706 38.3179C0.440167 37.8722 0.193237 37.2676 0.193237 36.6373L0.193237 35.0528C0.193237 34.8426 0.275547 34.6411 0.42206 34.4925C0.568573 34.344 0.767287 34.2605 0.974487 34.2605Z" fill="#1FD9CA"/>
<path d="M47.0682 3.36257V32.6759H3.31824V3.36257C3.31824 3.15245 3.40055 2.95093 3.54706 2.80236C3.69357 2.65378 3.89229 2.57031 4.09949 2.57031H46.287C46.4942 2.57031 46.6929 2.65378 46.8394 2.80236C46.9859 2.95093 47.0682 3.15245 47.0682 3.36257Z" fill="#FCFCFC"/>
<path d="M30.662 35.8449H19.7245C19.3101 35.8449 18.9127 35.678 18.6196 35.3808C18.3266 35.0837 18.162 34.6807 18.162 34.2604C18.162 34.1812 17.5057 34.2604 32.2245 34.2604C32.2245 34.6807 32.0599 35.0837 31.7668 35.3808C31.4738 35.678 31.0764 35.8449 30.662 35.8449Z" fill="#C3F5F1"/>
<path d="M4.09949 2.57031H46.287C46.4942 2.57031 46.6929 2.65378 46.8394 2.80236C46.9859 2.95093 47.0682 3.15245 47.0682 3.36257V5.73933H3.31824V3.36257C3.31824 3.15245 3.40055 2.95093 3.54706 2.80236C3.69357 2.65378 3.89229 2.57031 4.09949 2.57031Z" fill="#1FD9CA"/>
<path d="M14.2557 2.57031H27.537C28.1586 2.57031 28.7547 2.82072 29.1943 3.26645C29.6338 3.71218 29.8807 4.31672 29.8807 4.94707V5.73933H14.2557V2.57031Z" fill="#C3F5F1"/>
<path d="M4.09949 2.57031H15.037C15.6586 2.57031 16.2547 2.82072 16.6943 3.26645C17.1338 3.71218 17.3807 4.31672 17.3807 4.94707V7.32383H3.31824V3.36257C3.31824 3.15245 3.40055 2.95093 3.54706 2.80236C3.69357 2.65378 3.89229 2.57031 4.09949 2.57031Z" fill="#FCFCFC"/>
<path d="M16.4823 21.2517C16.0477 21.5195 15.6872 21.8948 15.4344 22.3423C15.1817 22.7898 15.0449 23.295 15.037 23.8107V32.676H10.3495V23.8107C10.3416 23.295 10.2048 22.7898 9.95205 22.3423C9.6993 21.8948 9.33877 21.5195 8.90417 21.2517C7.85637 20.5713 7.00536 19.6212 6.43802 18.4982C5.87068 17.3753 5.60733 16.1199 5.67485 14.86C5.74237 13.6001 6.13835 12.381 6.82235 11.327C7.20852 10.732 7.6787 10.2016 8.21547 9.7516C8.78609 9.27317 9.56823 9.73948 9.56823 10.4841V13.8362C9.56303 14.0172 9.61912 14.1945 9.72715 14.3386C9.83518 14.4828 9.98864 14.5851 10.162 14.6284L14.8495 15.8168C14.9665 15.8462 15.0886 15.8477 15.2062 15.8213C15.3239 15.7949 15.4339 15.7412 15.5278 15.6645C15.6216 15.5878 15.6966 15.4901 15.747 15.3791C15.7974 15.2681 15.8218 15.1467 15.8182 15.0246V10.4841C15.8182 9.73948 16.6004 9.27317 17.171 9.7516C17.7078 10.2016 18.1779 10.732 18.5641 11.327C19.2481 12.381 19.6441 13.6001 19.7116 14.86C19.7791 16.1199 19.5158 17.3753 18.9484 18.4982C18.3811 19.6212 17.5301 20.5713 16.4823 21.2517Z" fill="#F3A31D"/>
<path d="M25.1932 15.2464C24.7714 15.2464 24.7479 15.1275 23.0761 13.4321C22.9289 13.2829 22.8463 13.0806 22.8463 12.8696C22.8463 12.6586 22.9289 12.4563 23.0761 12.3071C23.2232 12.1579 23.4227 12.0741 23.6307 12.0741C23.8388 12.0741 24.0383 12.1579 24.1854 12.3071L25.1932 13.3371L27.7636 10.7226C27.9107 10.5734 28.1102 10.4896 28.3182 10.4896C28.5263 10.4896 28.7258 10.5734 28.8729 10.7226C29.02 10.8718 29.1027 11.0741 29.1027 11.2851C29.1027 11.4961 29.02 11.6984 28.8729 11.8476C25.4589 15.3098 25.6307 15.2464 25.1932 15.2464Z" fill="#84C4C4"/>
<path d="M25.1932 22.3766C24.7714 22.3766 24.7479 22.2578 23.0761 20.5624C22.9289 20.4132 22.8463 20.2109 22.8463 19.9999C22.8463 19.7889 22.9289 19.5866 23.0761 19.4374C23.2232 19.2882 23.4227 19.2044 23.6307 19.2044C23.8388 19.2044 24.0383 19.2882 24.1854 19.4374L25.1932 20.4673L27.7636 17.8529C27.8364 17.779 27.9229 17.7204 28.018 17.6804C28.1132 17.6404 28.2152 17.6199 28.3182 17.6199C28.4213 17.6199 28.5233 17.6404 28.6184 17.6804C28.7136 17.7204 28.8001 17.779 28.8729 17.8529C28.9458 17.9267 29.0035 18.0144 29.043 18.1109C29.0824 18.2075 29.1027 18.3109 29.1027 18.4154C29.1027 18.5198 29.0824 18.6233 29.043 18.7198C29.0035 18.8163 28.9458 18.904 28.8729 18.9779C25.4589 22.44 25.6307 22.3766 25.1932 22.3766Z" fill="#84C4C4"/>
<path d="M25.1932 29.507C24.7714 29.507 24.7479 29.3882 23.0761 27.6927C22.9289 27.5436 22.8463 27.3412 22.8463 27.1302C22.8463 26.9193 22.9289 26.7169 23.0761 26.5677C23.2232 26.4186 23.4227 26.3348 23.6307 26.3348C23.8388 26.3348 24.0383 26.4186 24.1854 26.5677L25.1932 27.5977L27.7636 24.9832C27.9107 24.8341 28.1102 24.7502 28.3182 24.7502C28.5263 24.7502 28.7258 24.8341 28.8729 24.9832C29.02 25.1324 29.1027 25.3348 29.1027 25.5457C29.1027 25.7567 29.02 25.9591 28.8729 26.1082C25.4589 29.5704 25.6307 29.507 25.1932 29.507Z" fill="#84C4C4"/>
<path d="M43.9322 12.8696H31.4542C31.0167 12.8696 30.662 13.2243 30.662 13.6619C30.662 14.0994 31.0167 14.4541 31.4542 14.4541H43.9322C44.3698 14.4541 44.7245 14.0994 44.7245 13.6619C44.7245 13.2243 44.3698 12.8696 43.9322 12.8696Z" fill="#C3F5F1"/>
<path d="M43.9322 19.9999H31.4542C31.0167 19.9999 30.662 20.3546 30.662 20.7921C30.662 21.2297 31.0167 21.5844 31.4542 21.5844H43.9322C44.3698 21.5844 44.7245 21.2297 44.7245 20.7921C44.7245 20.3546 44.3698 19.9999 43.9322 19.9999Z" fill="#C3F5F1"/>
<path d="M43.9322 27.1302H31.4542C31.0167 27.1302 30.662 27.485 30.662 27.9225C30.662 28.3601 31.0167 28.7148 31.4542 28.7148H43.9322C44.3698 28.7148 44.7245 28.3601 44.7245 27.9225C44.7245 27.485 44.3698 27.1302 43.9322 27.1302Z" fill="#C3F5F1"/>
</g>
<defs>
<clipPath id="clip0_2932_751">
<rect width="50" height="38.0282" fill="white" transform="translate(0.193237 0.98584)"/>
</clipPath>
</defs>
</svg>
