<svg width="66" height="74" viewBox="0 0 66 74" fill="none" xmlns="http://www.w3.org/2000/svg">
<path d="M63.2727 40.0946V55.1637H22.9091V40.0946C22.8975 38.9811 23.2315 37.8913 23.8653 36.9756C24.4991 36.0598 25.4013 35.3633 26.4477 34.9819L37.7091 30.9456H48.4727L59.7342 34.9819C60.7805 35.3633 61.6828 36.0598 62.3165 36.9756C62.9503 37.8913 63.2844 38.9811 63.2727 40.0946Z" fill="#0033AD"/>
<path d="M43.0909 37.6728C41.6636 37.6728 40.2947 37.1058 39.2854 36.0965C38.2761 35.0872 37.7091 33.7184 37.7091 32.291V29.6001H48.4727V32.291C48.4727 33.7184 47.9057 35.0872 46.8964 36.0965C45.8872 37.1058 44.5183 37.6728 43.0909 37.6728Z" fill="#CCE7FF"/>
<path d="M43.0909 32.291C40.2362 32.291 37.4984 31.1569 35.4799 29.1384C33.4613 27.1198 32.3273 24.382 32.3273 21.5273V14.8H53.8545V21.5273C53.8545 24.382 52.7205 27.1198 50.7019 29.1384C48.6834 31.1569 45.9456 32.291 43.0909 32.291Z" fill="#CCE7FF"/>
<path d="M64.6181 47.0908V68.6181H21.5636V47.0908C21.5641 46.6189 21.6886 46.1555 21.9248 45.7469C22.161 45.3384 22.5004 44.9991 22.9091 44.7632C23.7971 44.2384 20.7025 44.3999 61.9272 44.3999C62.6409 44.3999 63.3254 44.6834 63.83 45.188C64.3346 45.6927 64.6181 46.3771 64.6181 47.0908Z" fill="#4A75DC"/>
<path d="M21.5636 68.6182H64.6181C64.975 68.6182 65.3172 68.7599 65.5695 69.0122C65.8218 69.2646 65.9636 69.6068 65.9636 69.9636V71.3091C65.9636 72.0227 65.6801 72.7072 65.1754 73.2118C64.6708 73.7165 63.9864 74 63.2727 74H22.909C22.1954 74 21.5109 73.7165 21.0063 73.2118C20.5016 72.7072 20.2181 72.0227 20.2181 71.3091V69.9636C20.2181 69.6068 20.3599 69.2646 20.6122 69.0122C20.8645 68.7599 21.2068 68.6182 21.5636 68.6182Z" fill="#0033AD"/>
<path d="M53.8545 10.7636V14.8H32.3273C31.2567 14.8 30.2301 14.3747 29.4731 13.6178C28.7162 12.8608 28.2909 11.8341 28.2909 10.7636V4.82843C28.2909 3.04662 30.3648 2.24215 31.7321 3.38468C33.1879 4.60121 34.7389 5.38182 37.0229 5.38182H48.4727C49.9001 5.38182 51.2689 5.94883 52.2782 6.95812C53.2875 7.9674 53.8545 9.33629 53.8545 10.7636Z" fill="#0033AD"/>
<path d="M46.9793 58.9174C46.7662 59.7071 46.3182 60.4135 45.6947 60.9429C45.0712 61.4723 44.3015 61.7997 43.4877 61.8819C42.6739 61.9641 41.8543 61.797 41.1376 61.4029C40.4208 61.0089 39.8407 60.4063 39.4741 59.6751C39.1074 58.9439 38.9716 58.1186 39.0846 57.3085C39.1976 56.4984 39.554 55.7417 40.1067 55.1387C40.6593 54.5357 41.3822 54.1148 42.1794 53.9319C42.9766 53.7489 43.8106 53.8125 44.5709 54.1141C44.0346 54.3889 43.6061 54.8356 43.3539 55.3829C43.1017 55.9301 43.0405 56.5462 43.18 57.1324C43.3196 57.7185 43.6519 58.2409 44.1236 58.6158C44.5954 58.9907 45.1793 59.1964 45.7818 59.2C46.198 59.2041 46.6089 59.1072 46.9793 58.9174Z" fill="white"/>
<path d="M22.7582 44.8624C22.8228 44.8178 22.9091 44.8652 22.9091 44.9437V48.782C22.9091 49.194 22.4387 49.4292 22.1091 49.182L21.6036 48.8029C21.5784 48.784 21.5636 48.7541 21.5635 48.7227C21.5594 47.1199 21.3643 45.8253 22.7582 44.8624Z" fill="#0033AD"/>
<path d="M29.6364 33.8787V39.0183C29.6364 40.0888 29.2111 41.1155 28.4542 41.8724C27.6972 42.6294 26.6705 43.0547 25.6 43.0547H22.9091V40.0947C22.8975 38.9811 23.2315 37.8913 23.8653 36.9756C24.4991 36.0599 25.4013 35.3633 26.4477 34.9819L29.6364 33.8787Z" fill="#0C0C64"/>
<path d="M26.9455 18.8364V39.0182C26.9455 39.3751 26.8037 39.7173 26.5514 39.9696C26.2991 40.2219 25.9568 40.3637 25.6 40.3637H20.2182V42.4001C20.2182 43.2241 19.2774 43.6945 18.6182 43.2001L14.8364 40.3637H1.38183C1.02499 40.3637 0.682773 40.2219 0.430451 39.9696C0.17813 39.7173 0.036377 39.3751 0.036377 39.0182V18.8364H26.9455Z" fill="#CCE7FF"/>
<path d="M1.38183 16.1455H25.6C25.9569 16.1455 26.2991 16.2873 26.5514 16.5396C26.8037 16.7919 26.9455 17.1341 26.9455 17.491V18.8364H0.036377V17.491C0.036377 17.1341 0.17813 16.7919 0.430451 16.5396C0.682773 16.2873 1.02499 16.1455 1.38183 16.1455Z" fill="#CCE7FF"/>
<path d="M1.38183 16.1455H8.1091C8.82278 16.1455 9.50722 16.429 10.0119 16.9337C10.5165 17.4383 10.8 18.1227 10.8 18.8364V20.1819H0.036377V17.491C0.036377 17.1341 0.17813 16.7919 0.430451 16.5396C0.682773 16.2873 1.02499 16.1455 1.38183 16.1455Z" fill="#CCE7FF"/>
<path d="M12.1455 22.8728H4.07275C3.32968 22.8728 2.72729 23.4752 2.72729 24.2183C2.72729 24.9613 3.32967 25.5637 4.07275 25.5637H12.1455C12.8885 25.5637 13.4909 24.9613 13.4909 24.2183C13.4909 23.4752 12.8886 22.8728 12.1455 22.8728Z" fill="#0033AD"/>
<path d="M21.5637 28.2546H12.1455C11.4024 28.2546 10.8 28.857 10.8 29.6001C10.8 30.3432 11.4024 30.9455 12.1455 30.9455H21.5637C22.3068 30.9455 22.9091 30.3432 22.9091 29.6001C22.9091 28.857 22.3068 28.2546 21.5637 28.2546Z" fill="#0033AD"/>
<path d="M21.5637 22.8728H17.5273C16.7843 22.8728 16.1819 23.4752 16.1819 24.2183C16.1819 24.9613 16.7843 25.5637 17.5273 25.5637H21.5637C22.3068 25.5637 22.9092 24.9613 22.9092 24.2183C22.9092 23.4752 22.3068 22.8728 21.5637 22.8728Z" fill="#0033AD"/>
<path d="M12.1455 33.6365H4.07275C3.32968 33.6365 2.72729 34.2389 2.72729 34.9819C2.72729 35.725 3.32967 36.3274 4.07275 36.3274H12.1455C12.8885 36.3274 13.4909 35.725 13.4909 34.9819C13.4909 34.2389 12.8886 33.6365 12.1455 33.6365Z" fill="#0033AD"/>
<path d="M21.5637 33.6365H17.5273C16.7843 33.6365 16.1819 34.2389 16.1819 34.9819C16.1819 35.725 16.7843 36.3274 17.5273 36.3274H21.5637C22.3068 36.3274 22.9092 35.725 22.9092 34.9819C22.9092 34.2389 22.3068 33.6365 21.5637 33.6365Z" fill="#0033AD"/>
<path d="M6.76366 28.2546H4.07275C3.32968 28.2546 2.72729 28.857 2.72729 29.6001C2.72729 30.3432 3.32967 30.9455 4.07275 30.9455H6.76366C7.50673 30.9455 8.10911 30.3432 8.10911 29.6001C8.10911 28.857 7.50673 28.2546 6.76366 28.2546Z" fill="#0033AD"/>
</svg>
