<svg width="74" height="74" viewBox="0 0 74 74" fill="none" xmlns="http://www.w3.org/2000/svg">
<g clip-path="url(#clip0_639_8348)">
<path d="M70.5312 13.8663H3.46875C1.55301 13.8663 0 15.4184 0 17.3329V63.554C0 65.4686 1.55301 67.0206 3.46875 67.0206H70.5312C72.447 67.0206 74 65.4686 74 63.554V17.3329C74 15.4184 72.447 13.8663 70.5312 13.8663Z" fill="#68B8A5"/>
<path d="M70.5312 16.1774H3.46875C2.83017 16.1774 2.3125 16.6947 2.3125 17.3329V61.243C2.3125 61.8811 2.83017 62.3985 3.46875 62.3985H70.5312C71.1698 62.3985 71.6875 61.8811 71.6875 61.243V17.3329C71.6875 16.6947 71.1698 16.1774 70.5312 16.1774Z" fill="white"/>
<path d="M41.625 67.0206H32.375V71.6427H41.625V67.0206Z" fill="#68B8A5"/>
<path d="M58.9688 73.9538C58.9688 74.0693 60.3909 73.9538 15.0312 73.9538C15.0312 73.3408 15.2749 72.753 15.7086 72.3196C16.1422 71.8862 16.7304 71.6427 17.3438 71.6427H56.6562C57.2696 71.6427 57.8578 71.8862 58.2914 72.3196C58.7251 72.753 58.9688 73.3408 58.9688 73.9538Z" fill="#68B8A5"/>
<path d="M71.6875 16.1774H2.3125V41.599H71.6875V16.1774Z" fill="#46BBA3" fill-opacity="0.3"/>
<path d="M18.5 46.2211C16.3534 46.2211 14.2947 45.3689 12.7768 43.852C11.259 42.335 10.4062 40.2776 10.4062 38.1324V32.3547H26.5938V38.1324C26.5938 40.2776 25.741 42.335 24.2232 43.852C22.7053 45.3689 20.6466 46.2211 18.5 46.2211Z" fill="#78E2CC"/>
<path d="M10.4062 32.3548C27.4494 32.3548 26.5938 32.2393 26.5938 32.3548C26.5938 30.8225 25.9847 29.3529 24.9005 28.2694C23.8163 27.1859 22.3458 26.5772 20.8125 26.5772C16.3031 26.5772 13.0309 26.7389 8.09375 24.2661V30.0438C8.09375 30.6567 8.33739 31.2445 8.77106 31.6779C9.20474 32.1113 9.79294 32.3548 10.4062 32.3548Z" fill="#68B8A5"/>
<path d="M12.7188 46.2211H24.2812C26.1212 46.2211 27.8858 46.9515 29.1868 48.2517C30.4878 49.552 31.2188 51.3154 31.2188 53.1542V62.3985H5.78125V53.1542C5.78125 51.3154 6.51216 49.552 7.8132 48.2517C9.11423 46.9515 10.8788 46.2211 12.7188 46.2211Z" fill="#79CFBB"/>
<path d="M12.7188 62.3985H10.4062V58.9319C10.4062 58.6254 10.5281 58.3315 10.7449 58.1148C10.9617 57.8981 11.2558 57.7764 11.5625 57.7764C11.8692 57.7764 12.1633 57.8981 12.3801 58.1148C12.5969 58.3315 12.7188 58.6254 12.7188 58.9319V62.3985Z" fill="#68B8A5"/>
<path d="M26.5938 62.3985H24.2812V58.9319C24.2812 58.6254 24.4031 58.3315 24.6199 58.1148C24.8367 57.8981 25.1308 57.7764 25.4375 57.7764C25.7442 57.7764 26.0383 57.8981 26.2551 58.1148C26.4719 58.3315 26.5938 58.6254 26.5938 58.9319V62.3985Z" fill="#68B8A5"/>
<path d="M63.5938 24.2661H38.1562C36.2405 24.2661 34.6875 25.8182 34.6875 27.7327V46.2211C34.6875 48.1357 36.2405 49.6877 38.1562 49.6877H63.5938C65.5095 49.6877 67.0625 48.1357 67.0625 46.2211V27.7327C67.0625 25.8182 65.5095 24.2661 63.5938 24.2661Z" fill="#79CFBB"/>
<path opacity="0.3" d="M57.8125 51.9988H34.6875V54.3098H57.8125V51.9988Z" fill="#68B8A5"/>
<path opacity="0.3" d="M50.875 56.6208H34.6875V58.9319H50.875V56.6208Z" fill="#68B8A5"/>
<path d="M47.4062 34.5156V39.4381C47.4073 39.6462 47.4646 39.8501 47.572 40.0284C47.6795 40.2066 47.8331 40.3526 48.0167 40.4508C48.2002 40.5491 48.4069 40.596 48.6149 40.5865C48.8229 40.5771 49.0245 40.5117 49.1984 40.3972L52.8984 37.9359C53.0558 37.8302 53.1848 37.6874 53.274 37.5202C53.3631 37.3529 53.4098 37.1664 53.4098 36.9768C53.4098 36.7873 53.3631 36.6007 53.274 36.4335C53.1848 36.2662 53.0558 36.1234 52.8984 36.0177L49.1984 33.5565C49.0245 33.442 48.8229 33.3766 48.6149 33.3672C48.4069 33.3577 48.2002 33.4046 48.0167 33.5029C47.8331 33.6011 47.6795 33.7471 47.572 33.9253C47.4646 34.1036 47.4073 34.3075 47.4062 34.5156Z" fill="#68B8A5"/>
<path d="M45.0938 13.8663H12.7188V16.1774H45.0938V13.8663Z" fill="#00AAA8"/>
<path d="M45.0938 16.1774C45.0938 17.4032 44.6065 18.5789 43.7391 19.4457C42.8718 20.3125 41.6954 20.7995 40.4688 20.7995H25.2409C23.7378 22.2901 23.1944 23.1105 21.9688 23.1105C20.7431 23.1105 20.3962 22.4865 18.6966 20.7995H17.3438C16.1171 20.7995 14.9407 20.3125 14.0734 19.4457C13.206 18.5789 12.7188 17.4032 12.7188 16.1774H45.0938Z" fill="#79CFBB"/>
<path d="M15.0312 2.31106V16.1774C15.0312 16.7903 15.2749 17.3781 15.7086 17.8115C16.1422 18.2449 16.7304 18.4884 17.3438 18.4884H19.6562L21.9688 20.7995L24.2812 18.4884H40.4688C41.0821 18.4884 41.6703 18.2449 42.1039 17.8115C42.5376 17.3781 42.7812 16.7903 42.7812 16.1774V2.31106C42.7812 1.69813 42.5376 1.11033 42.1039 0.676926C41.6703 0.243519 41.0821 0 40.4688 0H17.3438C16.7304 0 16.1422 0.243519 15.7086 0.676926C15.2749 1.11033 15.0312 1.69813 15.0312 2.31106Z" fill="#78E2CC"/>
<path d="M20.8125 11.5552C22.0897 11.5552 23.125 10.5205 23.125 9.24416C23.125 7.9678 22.0897 6.93311 20.8125 6.93311C19.5353 6.93311 18.5 7.9678 18.5 9.24416C18.5 10.5205 19.5353 11.5552 20.8125 11.5552Z" fill="white"/>
<path d="M28.9062 11.5552C30.1834 11.5552 31.2188 10.5205 31.2188 9.24416C31.2188 7.9678 30.1834 6.93311 28.9062 6.93311C27.6291 6.93311 26.5938 7.9678 26.5938 9.24416C26.5938 10.5205 27.6291 11.5552 28.9062 11.5552Z" fill="white"/>
<path d="M37 11.5552C38.2772 11.5552 39.3125 10.5205 39.3125 9.24416C39.3125 7.9678 38.2772 6.93311 37 6.93311C35.7228 6.93311 34.6875 7.9678 34.6875 9.24416C34.6875 10.5205 35.7228 11.5552 37 11.5552Z" fill="white"/>
</g>
<defs>
<clipPath id="clip0_639_8348">
<rect width="74" height="74" fill="white"/>
</clipPath>
</defs>
</svg>
