<svg width="74" height="75" viewBox="0 0 74 75" fill="none" xmlns="http://www.w3.org/2000/svg">
<g clip-path="url(#clip0_3114_19739)">
<path d="M71.6875 22.4688V67.5625H2.3125V22.4688C2.3125 20.5494 3.86188 19 5.78125 19H68.2188C70.1381 19 71.6875 20.5494 71.6875 22.4688Z" fill="#50D9D7"/>
<path d="M1.15625 67.5625H72.8438C73.4797 67.5625 74 68.0828 74 68.7188V71.0312C74 72.9506 72.4506 74.5 70.5312 74.5H3.46875C1.54938 74.5 0 72.9506 0 71.0312V68.7188C0 68.0828 0.520312 67.5625 1.15625 67.5625Z" fill="#00AAA8"/>
<path d="M69.375 22.4688V27.0938H23.125L19.3209 22.3416L18.5 21.3125H68.2188C68.8547 21.3125 69.375 21.8328 69.375 22.4688Z" fill="#93E6E5"/>
<path d="M69.375 27.0938V65.25H4.625V22.4688C4.625 21.8328 5.14531 21.3125 5.78125 21.3125H22.0613C23.4603 21.3125 24.79 21.9484 25.6688 23.0469L27.5187 25.3594C28.3975 26.4578 29.7272 27.0938 31.1262 27.0938H69.375Z" fill="white"/>
<path d="M64.75 49.0625H32.375V51.375H64.75V49.0625Z" fill="#D9D9D9"/>
<path d="M64.75 53.6875H32.375V56H64.75V53.6875Z" fill="#D9D9D9"/>
<path d="M50.875 58.3125H32.375V60.625H50.875V58.3125Z" fill="#D9D9D9"/>
<path d="M26.5938 67.5625H47.4062C47.4062 68.8344 46.3656 69.875 45.0938 69.875H28.9062C27.6344 69.875 26.5938 68.8344 26.5938 67.5625Z" fill="#F3F3F3"/>
<path d="M37 17.8438C36.3641 17.8438 35.8438 17.3234 35.8438 16.6875V6.28125C35.8438 5.64531 36.3641 5.125 37 5.125C37.6359 5.125 38.1562 5.64531 38.1562 6.28125V16.6875C38.1562 17.3234 37.6359 17.8438 37 17.8438Z" fill="#338F8A"/>
<path d="M40.4688 3.96875C40.4688 5.87656 38.9078 7.4375 37 7.4375C35.0922 7.4375 33.5312 5.87656 33.5312 3.96875C33.5312 2.06094 35.0922 0.5 37 0.5C38.9078 0.5 40.4688 2.06094 40.4688 3.96875ZM38.1562 3.96875C38.1562 3.33281 37.6359 2.8125 37 2.8125C36.3641 2.8125 35.8438 3.33281 35.8438 3.96875C35.8438 4.60469 36.3641 5.125 37 5.125C37.6359 5.125 38.1562 4.60469 38.1562 3.96875Z" fill="#338F8A"/>
<path d="M24.2812 8.59375C24.2812 10.5016 22.7203 12.0625 20.8125 12.0625C18.9047 12.0625 17.3438 10.5016 17.3438 8.59375C17.3438 6.68594 18.9047 5.125 20.8125 5.125C22.7203 5.125 24.2812 6.68594 24.2812 8.59375ZM21.9688 8.59375C21.9688 7.95781 21.4484 7.4375 20.8125 7.4375C20.1766 7.4375 19.6562 7.95781 19.6562 8.59375C19.6562 9.22969 20.1766 9.75 20.8125 9.75C21.4484 9.75 21.9688 9.22969 21.9688 8.59375Z" fill="#338F8A"/>
<path d="M31.2188 19C30.5828 19 30.0625 18.4797 30.0625 17.8438V10.9062C30.0625 10.2703 29.5422 9.75 28.9062 9.75H23.125C22.4891 9.75 21.9688 9.22969 21.9688 8.59375C21.9688 7.95781 22.4891 7.4375 23.125 7.4375H28.9062C30.8141 7.4375 32.375 8.99844 32.375 10.9062V17.8438C32.375 18.4797 31.8547 19 31.2188 19Z" fill="#338F8A"/>
<path d="M53.1875 5.125C55.0953 5.125 56.6562 6.68594 56.6562 8.59375C56.6562 10.5016 55.0953 12.0625 53.1875 12.0625C51.2797 12.0625 49.7188 10.5016 49.7188 8.59375C49.7188 6.68594 51.2797 5.125 53.1875 5.125ZM53.1875 9.75C53.8234 9.75 54.3438 9.22969 54.3438 8.59375C54.3438 7.95781 53.8234 7.4375 53.1875 7.4375C52.5516 7.4375 52.0312 7.95781 52.0312 8.59375C52.0312 9.22969 52.5516 9.75 53.1875 9.75Z" fill="#338F8A"/>
<path d="M42.7812 19C42.1453 19 41.625 18.4797 41.625 17.8438V10.9062C41.625 8.99844 43.1859 7.4375 45.0938 7.4375H50.875C51.5109 7.4375 52.0312 7.95781 52.0312 8.59375C52.0312 9.22969 51.5109 9.75 50.875 9.75H45.0938C44.4578 9.75 43.9375 10.2703 43.9375 10.9062V17.8438C43.9375 18.4797 43.4172 19 42.7812 19Z" fill="#338F8A"/>
<path d="M57.3732 21.3125H16.627C16.731 20.9425 16.8813 20.5841 17.0779 20.2372C17.3207 19.8094 17.5751 19.4047 17.8295 19H56.1707C56.4366 19.4047 56.691 19.8094 56.9338 20.2372C57.1304 20.5725 57.2807 20.9425 57.3732 21.3125Z" fill="#00BEBD"/>
<path d="M56.9225 24.7003C56.4484 25.5328 55.9281 26.3306 55.3615 27.0938H31.1265C29.7275 27.0938 28.3978 26.4578 27.519 25.3594L25.669 23.0469C24.7903 21.9484 23.4606 21.3125 22.0615 21.3125H57.3734C57.674 22.4456 57.5237 23.6713 56.9225 24.7003Z" fill="#50D9D7"/>
<path d="M55.3617 27.0938C51.0489 32.9328 44.3657 36.3438 37.0004 36.3438C28.6754 36.3438 21.2292 31.9963 17.0667 24.7003C16.477 23.6713 16.3267 22.4456 16.6273 21.3125H22.0617C23.4607 21.3125 24.7904 21.9484 25.6692 23.0469L27.5192 25.3594C28.3979 26.4578 29.7276 27.0938 31.1267 27.0938H55.3617Z" fill="#F3F3F3"/>
<path d="M37 39.8125C36.3641 39.8125 35.8438 39.2922 35.8438 38.6562V28.25C35.8438 27.6141 36.3641 27.0938 37 27.0938C37.6359 27.0938 38.1562 27.6141 38.1562 28.25V38.6562C38.1562 39.2922 37.6359 39.8125 37 39.8125Z" fill="#338F8A"/>
<path d="M37 44.4375C35.0922 44.4375 33.5312 42.8766 33.5312 40.9688C33.5312 39.0609 35.0922 37.5 37 37.5C38.9078 37.5 40.4688 39.0609 40.4688 40.9688C40.4688 42.8766 38.9078 44.4375 37 44.4375ZM37 39.8125C36.3641 39.8125 35.8438 40.3328 35.8438 40.9688C35.8438 41.6047 36.3641 42.125 37 42.125C37.6359 42.125 38.1562 41.6047 38.1562 40.9688C38.1562 40.3328 37.6359 39.8125 37 39.8125Z" fill="#338F8A"/>
<path d="M20.8125 39.8125C18.9047 39.8125 17.3438 38.2516 17.3438 36.3438C17.3438 34.4359 18.9047 32.875 20.8125 32.875C22.7203 32.875 24.2812 34.4359 24.2812 36.3438C24.2812 38.2516 22.7203 39.8125 20.8125 39.8125ZM20.8125 35.1875C20.1766 35.1875 19.6562 35.7078 19.6562 36.3438C19.6562 36.9797 20.1766 37.5 20.8125 37.5C21.4484 37.5 21.9688 36.9797 21.9688 36.3438C21.9688 35.7078 21.4484 35.1875 20.8125 35.1875Z" fill="#338F8A"/>
<path d="M28.9062 37.5H23.125C22.4891 37.5 21.9688 36.9797 21.9688 36.3438C21.9688 35.7078 22.4891 35.1875 23.125 35.1875H28.9062C29.5422 35.1875 30.0625 34.6672 30.0625 34.0312V27.0938C30.0625 26.4578 30.5828 25.9375 31.2188 25.9375C31.8547 25.9375 32.375 26.4578 32.375 27.0938V34.0312C32.375 35.9391 30.8141 37.5 28.9062 37.5Z" fill="#338F8A"/>
<path d="M49.7188 36.3438C49.7188 34.4359 51.2797 32.875 53.1875 32.875C55.0953 32.875 56.6562 34.4359 56.6562 36.3438C56.6562 38.2516 55.0953 39.8125 53.1875 39.8125C51.2797 39.8125 49.7188 38.2516 49.7188 36.3438ZM52.0312 36.3438C52.0312 36.9797 52.5516 37.5 53.1875 37.5C53.8234 37.5 54.3438 36.9797 54.3438 36.3438C54.3438 35.7078 53.8234 35.1875 53.1875 35.1875C52.5516 35.1875 52.0312 35.7078 52.0312 36.3438Z" fill="#338F8A"/>
<path d="M50.875 37.5H45.0938C43.1859 37.5 41.625 35.9391 41.625 34.0312V27.0938C41.625 26.4578 42.1453 25.9375 42.7812 25.9375C43.4172 25.9375 43.9375 26.4578 43.9375 27.0938V34.0312C43.9375 34.6672 44.4578 35.1875 45.0938 35.1875H50.875C51.5109 35.1875 52.0312 35.7078 52.0312 36.3438C52.0312 36.9797 51.5109 37.5 50.875 37.5Z" fill="#338F8A"/>
<path d="M26.5938 49.0625H10.4062V60.625H26.5938V49.0625Z" fill="#D9D9D9"/>
<path d="M64.75 38.6562H62.4375V45.5938H64.75V38.6562Z" fill="#D9D9D9"/>
<path d="M54.9219 21.3819C55.3035 22.0525 55.3035 22.885 54.9219 23.5556C51.3491 29.8109 44.7238 34.0312 37 34.0312C29.2763 34.0312 22.651 29.8225 19.0782 23.5556C18.6966 22.885 18.6966 22.0525 19.0782 21.3819C22.651 15.1266 29.2763 10.9062 37 10.9062C44.7238 10.9062 51.3491 15.115 54.9219 21.3819Z" fill="#CAFDFD"/>
<path d="M37 30.5625C41.4701 30.5625 45.0938 26.9388 45.0938 22.4688C45.0938 17.9987 41.4701 14.375 37 14.375C32.5299 14.375 28.9062 17.9987 28.9062 22.4688C28.9062 26.9388 32.5299 30.5625 37 30.5625Z" fill="#F3A31D"/>
<path d="M37 25.9375C38.9157 25.9375 40.4688 24.3845 40.4688 22.4688C40.4688 20.553 38.9157 19 37 19C35.0843 19 33.5312 20.553 33.5312 22.4688C33.5312 24.3845 35.0843 25.9375 37 25.9375Z" fill="#FFE2B2"/>
</g>
<defs>
<clipPath id="clip0_3114_19739">
<rect width="74" height="74" fill="white" transform="translate(0 0.5)"/>
</clipPath>
</defs>
</svg>
